%TF.GenerationSoftware,KiCad,Pcbnew,9.0.0*%
%TF.CreationDate,2025-03-06T14:32:36+00:00*%
%TF.ProjectId,discipline-pcb,64697363-6970-46c6-996e-652d7063622e,rev?*%
%TF.SameCoordinates,Original*%
%TF.FileFunction,Drillmap*%
%TF.FilePolarity,Positive*%
%FSLAX45Y45*%
G04 Gerber Fmt 4.5, Leading zero omitted, Abs format (unit mm)*
G04 Created by KiCad (PCBNEW 9.0.0) date 2025-03-06 14:32:36*
%MOMM*%
%LPD*%
G01*
G04 APERTURE LIST*
%ADD10C,0.150000*%
%ADD11C,0.200000*%
%ADD12C,0.170180*%
%ADD13C,0.304800*%
%ADD14C,0.398780*%
G04 APERTURE END LIST*
D10*
X5707644Y-18050222D02*
G75*
G02*
X5376638Y-17720000I-304J330702D01*
G01*
X40600000Y-17719516D02*
G75*
G02*
X40269294Y-18050230I-330700J-14D01*
G01*
X40269294Y-6019475D02*
G75*
G02*
X40600000Y-6352008I-4J-330715D01*
G01*
X5376638Y-6350181D02*
G75*
G02*
X5707344Y-6019468I330712J1D01*
G01*
X40269294Y-18050230D02*
X5707644Y-18050222D01*
X40600000Y-6352008D02*
X40600000Y-17719516D01*
X5376638Y-17719816D02*
X5376638Y-6350181D01*
X5707344Y-6019475D02*
X40269294Y-6019475D01*
D11*
D12*
X5741035Y-9392285D02*
X5911215Y-9562465D01*
X5911215Y-9392285D02*
X5741035Y-9562465D01*
X5979155Y-17011272D02*
X6149335Y-17181452D01*
X6149335Y-17011272D02*
X5979155Y-17181452D01*
X6217285Y-11297285D02*
X6387465Y-11467465D01*
X6387465Y-11297285D02*
X6217285Y-11467465D01*
X6455415Y-13201272D02*
X6625595Y-13371452D01*
X6625595Y-13201272D02*
X6455415Y-13371452D01*
X6757035Y-9392285D02*
X6927215Y-9562465D01*
X6927215Y-9392285D02*
X6757035Y-9562465D01*
X6931655Y-15107285D02*
X7101835Y-15277465D01*
X7101835Y-15107285D02*
X6931655Y-15277465D01*
X6995155Y-17011272D02*
X7165335Y-17181452D01*
X7165335Y-17011272D02*
X6995155Y-17181452D01*
X7233285Y-11297285D02*
X7403465Y-11467465D01*
X7403465Y-11297285D02*
X7233285Y-11467465D01*
X7471415Y-13201272D02*
X7641595Y-13371452D01*
X7641595Y-13201272D02*
X7471415Y-13371452D01*
X7646035Y-9392285D02*
X7816215Y-9562465D01*
X7816215Y-9392285D02*
X7646035Y-9562465D01*
X7947655Y-15107285D02*
X8117835Y-15277465D01*
X8117835Y-15107285D02*
X7947655Y-15277465D01*
X8360415Y-17012285D02*
X8530595Y-17182465D01*
X8530595Y-17012285D02*
X8360415Y-17182465D01*
X8598535Y-11297285D02*
X8768715Y-11467465D01*
X8768715Y-11297285D02*
X8598535Y-11467465D01*
X8662035Y-9392285D02*
X8832215Y-9562465D01*
X8832215Y-9392285D02*
X8662035Y-9562465D01*
X9074785Y-13202285D02*
X9244965Y-13372465D01*
X9244965Y-13202285D02*
X9074785Y-13372465D01*
X9376415Y-17012285D02*
X9546595Y-17182465D01*
X9546595Y-17012285D02*
X9376415Y-17182465D01*
X9551035Y-9392285D02*
X9721215Y-9562465D01*
X9721215Y-9392285D02*
X9551035Y-9562465D01*
X9614535Y-11297285D02*
X9784715Y-11467465D01*
X9784715Y-11297285D02*
X9614535Y-11467465D01*
X10027285Y-15107285D02*
X10197465Y-15277465D01*
X10197465Y-15107285D02*
X10027285Y-15277465D01*
X10090785Y-13202285D02*
X10260965Y-13372465D01*
X10260965Y-13202285D02*
X10090785Y-13372465D01*
X10503535Y-11297285D02*
X10673715Y-11467465D01*
X10673715Y-11297285D02*
X10503535Y-11467465D01*
X10567035Y-9392285D02*
X10737215Y-9562465D01*
X10737215Y-9392285D02*
X10567035Y-9562465D01*
X10741655Y-17011272D02*
X10911835Y-17181452D01*
X10911835Y-17011272D02*
X10741655Y-17181452D01*
X10979785Y-13202285D02*
X11149965Y-13372465D01*
X11149965Y-13202285D02*
X10979785Y-13372465D01*
X11043285Y-15107285D02*
X11213465Y-15277465D01*
X11213465Y-15107285D02*
X11043285Y-15277465D01*
X11456035Y-9392285D02*
X11626215Y-9562465D01*
X11626215Y-9392285D02*
X11456035Y-9562465D01*
X11519535Y-11297285D02*
X11689715Y-11467465D01*
X11689715Y-11297285D02*
X11519535Y-11467465D01*
X11757655Y-17011272D02*
X11927835Y-17181452D01*
X11927835Y-17011272D02*
X11757655Y-17181452D01*
X11932285Y-15107285D02*
X12102465Y-15277465D01*
X12102465Y-15107285D02*
X11932285Y-15277465D01*
X11995785Y-13202285D02*
X12165965Y-13372465D01*
X12165965Y-13202285D02*
X11995785Y-13372465D01*
X12408535Y-11297285D02*
X12578715Y-11467465D01*
X12578715Y-11297285D02*
X12408535Y-11467465D01*
X12472035Y-9392285D02*
X12642215Y-9562465D01*
X12642215Y-9392285D02*
X12472035Y-9562465D01*
X12884785Y-13202285D02*
X13054965Y-13372465D01*
X13054965Y-13202285D02*
X12884785Y-13372465D01*
X12948285Y-15107285D02*
X13118465Y-15277465D01*
X13118465Y-15107285D02*
X12948285Y-15277465D01*
X13361035Y-9392285D02*
X13531215Y-9562465D01*
X13531215Y-9392285D02*
X13361035Y-9562465D01*
X13424535Y-11297285D02*
X13594715Y-11467465D01*
X13594715Y-11297285D02*
X13424535Y-11467465D01*
X13837285Y-15107285D02*
X14007465Y-15277465D01*
X14007465Y-15107285D02*
X13837285Y-15277465D01*
X13900785Y-13202285D02*
X14070965Y-13372465D01*
X14070965Y-13202285D02*
X13900785Y-13372465D01*
X14313535Y-11297285D02*
X14483715Y-11467465D01*
X14483715Y-11297285D02*
X14313535Y-11467465D01*
X14377035Y-9392285D02*
X14547215Y-9562465D01*
X14547215Y-9392285D02*
X14377035Y-9562465D01*
X14789735Y-13202285D02*
X14959915Y-13372465D01*
X14959915Y-13202285D02*
X14789735Y-13372465D01*
X14853285Y-15107285D02*
X15023465Y-15277465D01*
X15023465Y-15107285D02*
X14853285Y-15277465D01*
X15266035Y-9392285D02*
X15436215Y-9562465D01*
X15436215Y-9392285D02*
X15266035Y-9562465D01*
X15329535Y-11297285D02*
X15499715Y-11467465D01*
X15499715Y-11297285D02*
X15329535Y-11467465D01*
X15742335Y-15107285D02*
X15912515Y-15277465D01*
X15912515Y-15107285D02*
X15742335Y-15277465D01*
X15805735Y-13202285D02*
X15975915Y-13372465D01*
X15975915Y-13202285D02*
X15805735Y-13372465D01*
X16218535Y-11297285D02*
X16388715Y-11467465D01*
X16388715Y-11297285D02*
X16218535Y-11467465D01*
X16282035Y-9392285D02*
X16452215Y-9562465D01*
X16452215Y-9392285D02*
X16282035Y-9562465D01*
X16694735Y-13202285D02*
X16864915Y-13372465D01*
X16864915Y-13202285D02*
X16694735Y-13372465D01*
X16758335Y-15107285D02*
X16928515Y-15277465D01*
X16928515Y-15107285D02*
X16758335Y-15277465D01*
X17171035Y-9392285D02*
X17341215Y-9562465D01*
X17341215Y-9392285D02*
X17171035Y-9562465D01*
X17234535Y-11297285D02*
X17404715Y-11467465D01*
X17404715Y-11297285D02*
X17234535Y-11467465D01*
X17647335Y-15107285D02*
X17817515Y-15277465D01*
X17817515Y-15107285D02*
X17647335Y-15277465D01*
X17710735Y-13202285D02*
X17880915Y-13372465D01*
X17880915Y-13202285D02*
X17710735Y-13372465D01*
X18123535Y-11297285D02*
X18293715Y-11467465D01*
X18293715Y-11297285D02*
X18123535Y-11467465D01*
X18187035Y-9392285D02*
X18357215Y-9562465D01*
X18357215Y-9392285D02*
X18187035Y-9562465D01*
X18599735Y-13202285D02*
X18769915Y-13372465D01*
X18769915Y-13202285D02*
X18599735Y-13372465D01*
X18599810Y-17012285D02*
X18769990Y-17182465D01*
X18769990Y-17012285D02*
X18599810Y-17182465D01*
X18663335Y-15107285D02*
X18833515Y-15277465D01*
X18833515Y-15107285D02*
X18663335Y-15277465D01*
X19076035Y-9392285D02*
X19246215Y-9562465D01*
X19246215Y-9392285D02*
X19076035Y-9562465D01*
X19139535Y-11297285D02*
X19309715Y-11467465D01*
X19309715Y-11297285D02*
X19139535Y-11467465D01*
X19552335Y-15107285D02*
X19722515Y-15277465D01*
X19722515Y-15107285D02*
X19552335Y-15277465D01*
X19615735Y-13202285D02*
X19785915Y-13372465D01*
X19785915Y-13202285D02*
X19615735Y-13372465D01*
X19615810Y-17012285D02*
X19785990Y-17182465D01*
X19785990Y-17012285D02*
X19615810Y-17182465D01*
X20028535Y-11297285D02*
X20198715Y-11467465D01*
X20198715Y-11297285D02*
X20028535Y-11467465D01*
X20092035Y-9392285D02*
X20262215Y-9562465D01*
X20262215Y-9392285D02*
X20092035Y-9562465D01*
X20504735Y-13202285D02*
X20674915Y-13372465D01*
X20674915Y-13202285D02*
X20504735Y-13372465D01*
X20568335Y-15107285D02*
X20738515Y-15277465D01*
X20738515Y-15107285D02*
X20568335Y-15277465D01*
X20981035Y-9392285D02*
X21151215Y-9562465D01*
X21151215Y-9392285D02*
X20981035Y-9562465D01*
X21044535Y-11297285D02*
X21214715Y-11467465D01*
X21214715Y-11297285D02*
X21044535Y-11467465D01*
X21457335Y-15107285D02*
X21627515Y-15277465D01*
X21627515Y-15107285D02*
X21457335Y-15277465D01*
X21520735Y-13202285D02*
X21690915Y-13372465D01*
X21690915Y-13202285D02*
X21520735Y-13372465D01*
X21933535Y-11297285D02*
X22103715Y-11467465D01*
X22103715Y-11297285D02*
X21933535Y-11467465D01*
X21997035Y-9392285D02*
X22167215Y-9562465D01*
X22167215Y-9392285D02*
X21997035Y-9562465D01*
X22409735Y-13202285D02*
X22579915Y-13372465D01*
X22579915Y-13202285D02*
X22409735Y-13372465D01*
X22473335Y-15107285D02*
X22643515Y-15277465D01*
X22643515Y-15107285D02*
X22473335Y-15277465D01*
X22886035Y-9392285D02*
X23056215Y-9562465D01*
X23056215Y-9392285D02*
X22886035Y-9562465D01*
X22949535Y-11297285D02*
X23119715Y-11467465D01*
X23119715Y-11297285D02*
X22949535Y-11467465D01*
X23362335Y-15107285D02*
X23532515Y-15277465D01*
X23532515Y-15107285D02*
X23362335Y-15277465D01*
X23425735Y-13202285D02*
X23595915Y-13372465D01*
X23595915Y-13202285D02*
X23425735Y-13372465D01*
X23838535Y-11297285D02*
X24008715Y-11467465D01*
X24008715Y-11297285D02*
X23838535Y-11467465D01*
X23902035Y-9392285D02*
X24072215Y-9562465D01*
X24072215Y-9392285D02*
X23902035Y-9562465D01*
X24314735Y-13202285D02*
X24484915Y-13372465D01*
X24484915Y-13202285D02*
X24314735Y-13372465D01*
X24378335Y-15107285D02*
X24548515Y-15277465D01*
X24548515Y-15107285D02*
X24378335Y-15277465D01*
X24791035Y-9392285D02*
X24961215Y-9562465D01*
X24961215Y-9392285D02*
X24791035Y-9562465D01*
X24854535Y-11297285D02*
X25024715Y-11467465D01*
X25024715Y-11297285D02*
X24854535Y-11467465D01*
X25267335Y-15107285D02*
X25437515Y-15277465D01*
X25437515Y-15107285D02*
X25267335Y-15277465D01*
X25330735Y-13202285D02*
X25500915Y-13372465D01*
X25500915Y-13202285D02*
X25330735Y-13372465D01*
X25743535Y-11297285D02*
X25913715Y-11467465D01*
X25913715Y-11297285D02*
X25743535Y-11467465D01*
X25807035Y-9392285D02*
X25977215Y-9562465D01*
X25977215Y-9392285D02*
X25807035Y-9562465D01*
X26219735Y-13202285D02*
X26389915Y-13372465D01*
X26389915Y-13202285D02*
X26219735Y-13372465D01*
X26283335Y-15107285D02*
X26453515Y-15277465D01*
X26453515Y-15107285D02*
X26283335Y-15277465D01*
X26696035Y-9392285D02*
X26866215Y-9562465D01*
X26866215Y-9392285D02*
X26696035Y-9562465D01*
X26696179Y-17012285D02*
X26866359Y-17182465D01*
X26866359Y-17012285D02*
X26696179Y-17182465D01*
X26759535Y-11297285D02*
X26929715Y-11467465D01*
X26929715Y-11297285D02*
X26759535Y-11467465D01*
X27172335Y-15107285D02*
X27342515Y-15277465D01*
X27342515Y-15107285D02*
X27172335Y-15277465D01*
X27235735Y-13202285D02*
X27405915Y-13372465D01*
X27405915Y-13202285D02*
X27235735Y-13372465D01*
X27648535Y-11297285D02*
X27818715Y-11467465D01*
X27818715Y-11297285D02*
X27648535Y-11467465D01*
X27712035Y-9392285D02*
X27882215Y-9562465D01*
X27882215Y-9392285D02*
X27712035Y-9562465D01*
X27712179Y-17012285D02*
X27882359Y-17182465D01*
X27882359Y-17012285D02*
X27712179Y-17182465D01*
X28124735Y-13202285D02*
X28294915Y-13372465D01*
X28294915Y-13202285D02*
X28124735Y-13372465D01*
X28188335Y-15107285D02*
X28358515Y-15277465D01*
X28358515Y-15107285D02*
X28188335Y-15277465D01*
X28601035Y-9392285D02*
X28771215Y-9562465D01*
X28771215Y-9392285D02*
X28601035Y-9562465D01*
X28664535Y-11297285D02*
X28834715Y-11467465D01*
X28834715Y-11297285D02*
X28664535Y-11467465D01*
X29140735Y-13202285D02*
X29310915Y-13372465D01*
X29310915Y-13202285D02*
X29140735Y-13372465D01*
X29551798Y-17012285D02*
X29721978Y-17182465D01*
X29721978Y-17012285D02*
X29551798Y-17182465D01*
X29553535Y-11297285D02*
X29723715Y-11467465D01*
X29723715Y-11297285D02*
X29553535Y-11467465D01*
X29617035Y-9392285D02*
X29787215Y-9562465D01*
X29787215Y-9392285D02*
X29617035Y-9562465D01*
X30567798Y-17012285D02*
X30737978Y-17182465D01*
X30737978Y-17012285D02*
X30567798Y-17182465D01*
X30569535Y-11297285D02*
X30739715Y-11467465D01*
X30739715Y-11297285D02*
X30569535Y-11467465D01*
X30744185Y-15107285D02*
X30914365Y-15277465D01*
X30914365Y-15107285D02*
X30744185Y-15277465D01*
X31220435Y-13202285D02*
X31390615Y-13372465D01*
X31390615Y-13202285D02*
X31220435Y-13372465D01*
X31458535Y-9392285D02*
X31628715Y-9562465D01*
X31628715Y-9392285D02*
X31458535Y-9562465D01*
X31760185Y-15107285D02*
X31930365Y-15277465D01*
X31930365Y-15107285D02*
X31760185Y-15277465D01*
X31934735Y-11297285D02*
X32104915Y-11467465D01*
X32104915Y-11297285D02*
X31934735Y-11467465D01*
X32171173Y-17012285D02*
X32341353Y-17182465D01*
X32341353Y-17012285D02*
X32171173Y-17182465D01*
X32236435Y-13202285D02*
X32406615Y-13372465D01*
X32406615Y-13202285D02*
X32236435Y-13372465D01*
X32474535Y-9392285D02*
X32644715Y-9562465D01*
X32644715Y-9392285D02*
X32474535Y-9562465D01*
X32950735Y-11297285D02*
X33120915Y-11467465D01*
X33120915Y-11297285D02*
X32950735Y-11467465D01*
X33187173Y-17012285D02*
X33357353Y-17182465D01*
X33357353Y-17012285D02*
X33187173Y-17182465D01*
X35243673Y-9393185D02*
X35413853Y-9563365D01*
X35413853Y-9393185D02*
X35243673Y-9563365D01*
X35243673Y-11298185D02*
X35413853Y-11468365D01*
X35413853Y-11298185D02*
X35243673Y-11468365D01*
X35243673Y-17012285D02*
X35413853Y-17182465D01*
X35413853Y-17012285D02*
X35243673Y-17182465D01*
X36259673Y-9393185D02*
X36429853Y-9563365D01*
X36429853Y-9393185D02*
X36259673Y-9563365D01*
X36259673Y-11298185D02*
X36429853Y-11468365D01*
X36429853Y-11298185D02*
X36259673Y-11468365D01*
X36259673Y-17012285D02*
X36429853Y-17182465D01*
X36429853Y-17012285D02*
X36259673Y-17182465D01*
X37148673Y-9392285D02*
X37318853Y-9562465D01*
X37318853Y-9392285D02*
X37148673Y-9562465D01*
X37148673Y-11297285D02*
X37318853Y-11467465D01*
X37318853Y-11297285D02*
X37148673Y-11467465D01*
X37148673Y-15107285D02*
X37318853Y-15277465D01*
X37318853Y-15107285D02*
X37148673Y-15277465D01*
X37148673Y-17012285D02*
X37318853Y-17182465D01*
X37318853Y-17012285D02*
X37148673Y-17182465D01*
X38164673Y-9392285D02*
X38334853Y-9562465D01*
X38334853Y-9392285D02*
X38164673Y-9562465D01*
X38164673Y-11297285D02*
X38334853Y-11467465D01*
X38334853Y-11297285D02*
X38164673Y-11467465D01*
X38164673Y-15107285D02*
X38334853Y-15277465D01*
X38334853Y-15107285D02*
X38164673Y-15277465D01*
X38164673Y-17012285D02*
X38334853Y-17182465D01*
X38334853Y-17012285D02*
X38164673Y-17182465D01*
X39053673Y-9392285D02*
X39223853Y-9562465D01*
X39223853Y-9392285D02*
X39053673Y-9562465D01*
X39053673Y-11297285D02*
X39223853Y-11467465D01*
X39223853Y-11297285D02*
X39053673Y-11467465D01*
X39053673Y-17012285D02*
X39223853Y-17182465D01*
X39223853Y-17012285D02*
X39053673Y-17182465D01*
X40069673Y-9392285D02*
X40239853Y-9562465D01*
X40239853Y-9392285D02*
X40069673Y-9562465D01*
X40069673Y-11297285D02*
X40239853Y-11467465D01*
X40239853Y-11297285D02*
X40069673Y-11467465D01*
X40069673Y-17012285D02*
X40239853Y-17182465D01*
X40239853Y-17012285D02*
X40069673Y-17182465D01*
D13*
X6483345Y-14493875D02*
G75*
G02*
X6178545Y-14493875I-152400J0D01*
G01*
X6178545Y-14493875D02*
G75*
G02*
X6483345Y-14493875I152400J0D01*
G01*
X8870945Y-14493875D02*
G75*
G02*
X8566145Y-14493875I-152400J0D01*
G01*
X8566145Y-14493875D02*
G75*
G02*
X8870945Y-14493875I152400J0D01*
G01*
X13630300Y-17795875D02*
G75*
G02*
X13325500Y-17795875I-152400J0D01*
G01*
X13325500Y-17795875D02*
G75*
G02*
X13630300Y-17795875I152400J0D01*
G01*
X25060300Y-17795875D02*
G75*
G02*
X24755500Y-17795875I-152400J0D01*
G01*
X24755500Y-17795875D02*
G75*
G02*
X25060300Y-17795875I152400J0D01*
G01*
X30295875Y-14493875D02*
G75*
G02*
X29991075Y-14493875I-152400J0D01*
G01*
X29991075Y-14493875D02*
G75*
G02*
X30295875Y-14493875I152400J0D01*
G01*
X30772125Y-12588875D02*
G75*
G02*
X30467325Y-12588875I-152400J0D01*
G01*
X30467325Y-12588875D02*
G75*
G02*
X30772125Y-12588875I152400J0D01*
G01*
X31010225Y-8778875D02*
G75*
G02*
X30705425Y-8778875I-152400J0D01*
G01*
X30705425Y-8778875D02*
G75*
G02*
X31010225Y-8778875I152400J0D01*
G01*
X32683475Y-14493875D02*
G75*
G02*
X32378675Y-14493875I-152400J0D01*
G01*
X32378675Y-14493875D02*
G75*
G02*
X32683475Y-14493875I152400J0D01*
G01*
X33159725Y-12588875D02*
G75*
G02*
X32854925Y-12588875I-152400J0D01*
G01*
X32854925Y-12588875D02*
G75*
G02*
X33159725Y-12588875I152400J0D01*
G01*
X33397825Y-8778875D02*
G75*
G02*
X33093025Y-8778875I-152400J0D01*
G01*
X33093025Y-8778875D02*
G75*
G02*
X33397825Y-8778875I152400J0D01*
G01*
D14*
X6330945Y-15818485D02*
X6330945Y-16217265D01*
X6131555Y-16017875D02*
X6530335Y-16017875D01*
X6334125Y-9277985D02*
X6334125Y-9676765D01*
X6134735Y-9477375D02*
X6533515Y-9477375D01*
X6572245Y-16896972D02*
X6572245Y-17295752D01*
X6372855Y-17096362D02*
X6771635Y-17096362D01*
X6810375Y-11182985D02*
X6810375Y-11581765D01*
X6610985Y-11382375D02*
X7009765Y-11382375D01*
X7048505Y-13086972D02*
X7048505Y-13485752D01*
X6849115Y-13286362D02*
X7247895Y-13286362D01*
X7524745Y-14992985D02*
X7524745Y-15391765D01*
X7325355Y-15192375D02*
X7724135Y-15192375D01*
X8239125Y-9277985D02*
X8239125Y-9676765D01*
X8039735Y-9477375D02*
X8438515Y-9477375D01*
X8718545Y-15818485D02*
X8718545Y-16217265D01*
X8519155Y-16017875D02*
X8917935Y-16017875D01*
X8953505Y-16897985D02*
X8953505Y-17296765D01*
X8754115Y-17097375D02*
X9152895Y-17097375D01*
X9191625Y-11182985D02*
X9191625Y-11581765D01*
X8992235Y-11382375D02*
X9391015Y-11382375D01*
X9667875Y-13087985D02*
X9667875Y-13486765D01*
X9468485Y-13287375D02*
X9867265Y-13287375D01*
X10144125Y-9277985D02*
X10144125Y-9676765D01*
X9944735Y-9477375D02*
X10343515Y-9477375D01*
X10620375Y-14992985D02*
X10620375Y-15391765D01*
X10420985Y-15192375D02*
X10819765Y-15192375D01*
X11096625Y-11182985D02*
X11096625Y-11581765D01*
X10897235Y-11382375D02*
X11296015Y-11382375D01*
X11334745Y-16896972D02*
X11334745Y-17295752D01*
X11135355Y-17096362D02*
X11534135Y-17096362D01*
X11572875Y-13087985D02*
X11572875Y-13486765D01*
X11373485Y-13287375D02*
X11772265Y-13287375D01*
X12049125Y-9277985D02*
X12049125Y-9676765D01*
X11849735Y-9477375D02*
X12248515Y-9477375D01*
X12525375Y-14992985D02*
X12525375Y-15391765D01*
X12325985Y-15192375D02*
X12724765Y-15192375D01*
X13001625Y-11182985D02*
X13001625Y-11581765D01*
X12802235Y-11382375D02*
X13201015Y-11382375D01*
X13477875Y-13087985D02*
X13477875Y-13486765D01*
X13278485Y-13287375D02*
X13677265Y-13287375D01*
X13477900Y-16072485D02*
X13477900Y-16471265D01*
X13278510Y-16271875D02*
X13677290Y-16271875D01*
X13954125Y-9277985D02*
X13954125Y-9676765D01*
X13754735Y-9477375D02*
X14153515Y-9477375D01*
X14430375Y-14992985D02*
X14430375Y-15391765D01*
X14230985Y-15192375D02*
X14629765Y-15192375D01*
X14906625Y-11182985D02*
X14906625Y-11581765D01*
X14707235Y-11382375D02*
X15106015Y-11382375D01*
X15382825Y-13087985D02*
X15382825Y-13486765D01*
X15183435Y-13287375D02*
X15582215Y-13287375D01*
X15859125Y-9277985D02*
X15859125Y-9676765D01*
X15659735Y-9477375D02*
X16058515Y-9477375D01*
X16335425Y-14992985D02*
X16335425Y-15391765D01*
X16136035Y-15192375D02*
X16534815Y-15192375D01*
X16811625Y-11182985D02*
X16811625Y-11581765D01*
X16612235Y-11382375D02*
X17011015Y-11382375D01*
X17287825Y-13087985D02*
X17287825Y-13486765D01*
X17088435Y-13287375D02*
X17487215Y-13287375D01*
X17764125Y-9277985D02*
X17764125Y-9676765D01*
X17564735Y-9477375D02*
X17963515Y-9477375D01*
X18240425Y-14992985D02*
X18240425Y-15391765D01*
X18041035Y-15192375D02*
X18439815Y-15192375D01*
X18716625Y-11182985D02*
X18716625Y-11581765D01*
X18517235Y-11382375D02*
X18916015Y-11382375D01*
X19192825Y-13087985D02*
X19192825Y-13486765D01*
X18993435Y-13287375D02*
X19392215Y-13287375D01*
X19192900Y-16897985D02*
X19192900Y-17296765D01*
X18993510Y-17097375D02*
X19392290Y-17097375D01*
X19669125Y-9277985D02*
X19669125Y-9676765D01*
X19469735Y-9477375D02*
X19868515Y-9477375D01*
X20145425Y-14992985D02*
X20145425Y-15391765D01*
X19946035Y-15192375D02*
X20344815Y-15192375D01*
X20621625Y-11182985D02*
X20621625Y-11581765D01*
X20422235Y-11382375D02*
X20821015Y-11382375D01*
X21097825Y-13087985D02*
X21097825Y-13486765D01*
X20898435Y-13287375D02*
X21297215Y-13287375D01*
X21574125Y-9277985D02*
X21574125Y-9676765D01*
X21374735Y-9477375D02*
X21773515Y-9477375D01*
X22050425Y-14992985D02*
X22050425Y-15391765D01*
X21851035Y-15192375D02*
X22249815Y-15192375D01*
X22526625Y-11182985D02*
X22526625Y-11581765D01*
X22327235Y-11382375D02*
X22726015Y-11382375D01*
X23002825Y-13087985D02*
X23002825Y-13486765D01*
X22803435Y-13287375D02*
X23202215Y-13287375D01*
X23479125Y-9277985D02*
X23479125Y-9676765D01*
X23279735Y-9477375D02*
X23678515Y-9477375D01*
X23955425Y-14992985D02*
X23955425Y-15391765D01*
X23756035Y-15192375D02*
X24154815Y-15192375D01*
X24431625Y-11182985D02*
X24431625Y-11581765D01*
X24232235Y-11382375D02*
X24631015Y-11382375D01*
X24907825Y-13087985D02*
X24907825Y-13486765D01*
X24708435Y-13287375D02*
X25107215Y-13287375D01*
X24907900Y-16072485D02*
X24907900Y-16471265D01*
X24708510Y-16271875D02*
X25107290Y-16271875D01*
X25384125Y-9277985D02*
X25384125Y-9676765D01*
X25184735Y-9477375D02*
X25583515Y-9477375D01*
X25860425Y-14992985D02*
X25860425Y-15391765D01*
X25661035Y-15192375D02*
X26059815Y-15192375D01*
X26336625Y-11182985D02*
X26336625Y-11581765D01*
X26137235Y-11382375D02*
X26536015Y-11382375D01*
X26812825Y-13087985D02*
X26812825Y-13486765D01*
X26613435Y-13287375D02*
X27012215Y-13287375D01*
X27289125Y-9277985D02*
X27289125Y-9676765D01*
X27089735Y-9477375D02*
X27488515Y-9477375D01*
X27289269Y-16897985D02*
X27289269Y-17296765D01*
X27089879Y-17097375D02*
X27488659Y-17097375D01*
X27765425Y-14992985D02*
X27765425Y-15391765D01*
X27566035Y-15192375D02*
X27964815Y-15192375D01*
X28241625Y-11182985D02*
X28241625Y-11581765D01*
X28042235Y-11382375D02*
X28441015Y-11382375D01*
X28717825Y-13087985D02*
X28717825Y-13486765D01*
X28518435Y-13287375D02*
X28917215Y-13287375D01*
X29194125Y-9277985D02*
X29194125Y-9676765D01*
X28994735Y-9477375D02*
X29393515Y-9477375D01*
X30143475Y-15818485D02*
X30143475Y-16217265D01*
X29944085Y-16017875D02*
X30342865Y-16017875D01*
X30144888Y-16897985D02*
X30144888Y-17296765D01*
X29945498Y-17097375D02*
X30344278Y-17097375D01*
X30146625Y-11182985D02*
X30146625Y-11581765D01*
X29947235Y-11382375D02*
X30346015Y-11382375D01*
X30619725Y-13913485D02*
X30619725Y-14312265D01*
X30420335Y-14112875D02*
X30819115Y-14112875D01*
X30857825Y-10103485D02*
X30857825Y-10502265D01*
X30658435Y-10302875D02*
X31057215Y-10302875D01*
X31337275Y-14992985D02*
X31337275Y-15391765D01*
X31137885Y-15192375D02*
X31536665Y-15192375D01*
X31813525Y-13087985D02*
X31813525Y-13486765D01*
X31614135Y-13287375D02*
X32012915Y-13287375D01*
X32051625Y-9277985D02*
X32051625Y-9676765D01*
X31852235Y-9477375D02*
X32251015Y-9477375D01*
X32527825Y-11182985D02*
X32527825Y-11581765D01*
X32328435Y-11382375D02*
X32727215Y-11382375D01*
X32531075Y-15818485D02*
X32531075Y-16217265D01*
X32331685Y-16017875D02*
X32730465Y-16017875D01*
X32764263Y-16897985D02*
X32764263Y-17296765D01*
X32564873Y-17097375D02*
X32963653Y-17097375D01*
X33007325Y-13913485D02*
X33007325Y-14312265D01*
X32807935Y-14112875D02*
X33206715Y-14112875D01*
X33245425Y-10103485D02*
X33245425Y-10502265D01*
X33046035Y-10302875D02*
X33444815Y-10302875D01*
X35836763Y-9278885D02*
X35836763Y-9677665D01*
X35637373Y-9478275D02*
X36036153Y-9478275D01*
X35836763Y-11183885D02*
X35836763Y-11582665D01*
X35637373Y-11383275D02*
X36036153Y-11383275D01*
X35836763Y-16897985D02*
X35836763Y-17296765D01*
X35637373Y-17097375D02*
X36036153Y-17097375D01*
X37741763Y-9277985D02*
X37741763Y-9676765D01*
X37542373Y-9477375D02*
X37941153Y-9477375D01*
X37741763Y-11182985D02*
X37741763Y-11581765D01*
X37542373Y-11382375D02*
X37941153Y-11382375D01*
X37741763Y-14992985D02*
X37741763Y-15391765D01*
X37542373Y-15192375D02*
X37941153Y-15192375D01*
X37741763Y-16897985D02*
X37741763Y-17296765D01*
X37542373Y-17097375D02*
X37941153Y-17097375D01*
X39646763Y-9277985D02*
X39646763Y-9676765D01*
X39447373Y-9477375D02*
X39846153Y-9477375D01*
X39646763Y-11182985D02*
X39646763Y-11581765D01*
X39447373Y-11382375D02*
X39846153Y-11382375D01*
X39646763Y-16897985D02*
X39646763Y-17296765D01*
X39447373Y-17097375D02*
X39846153Y-17097375D01*
D11*
X5629915Y-18369214D02*
X5629915Y-18169214D01*
X5629915Y-18169214D02*
X5677534Y-18169214D01*
X5677534Y-18169214D02*
X5706105Y-18178738D01*
X5706105Y-18178738D02*
X5725153Y-18197785D01*
X5725153Y-18197785D02*
X5734677Y-18216833D01*
X5734677Y-18216833D02*
X5744201Y-18254928D01*
X5744201Y-18254928D02*
X5744201Y-18283500D01*
X5744201Y-18283500D02*
X5734677Y-18321595D01*
X5734677Y-18321595D02*
X5725153Y-18340642D01*
X5725153Y-18340642D02*
X5706105Y-18359690D01*
X5706105Y-18359690D02*
X5677534Y-18369214D01*
X5677534Y-18369214D02*
X5629915Y-18369214D01*
X5829915Y-18369214D02*
X5829915Y-18235880D01*
X5829915Y-18273976D02*
X5839439Y-18254928D01*
X5839439Y-18254928D02*
X5848963Y-18245404D01*
X5848963Y-18245404D02*
X5868010Y-18235880D01*
X5868010Y-18235880D02*
X5887058Y-18235880D01*
X5953724Y-18369214D02*
X5953724Y-18235880D01*
X5953724Y-18169214D02*
X5944201Y-18178738D01*
X5944201Y-18178738D02*
X5953724Y-18188261D01*
X5953724Y-18188261D02*
X5963248Y-18178738D01*
X5963248Y-18178738D02*
X5953724Y-18169214D01*
X5953724Y-18169214D02*
X5953724Y-18188261D01*
X6077534Y-18369214D02*
X6058486Y-18359690D01*
X6058486Y-18359690D02*
X6048963Y-18340642D01*
X6048963Y-18340642D02*
X6048963Y-18169214D01*
X6182296Y-18369214D02*
X6163248Y-18359690D01*
X6163248Y-18359690D02*
X6153724Y-18340642D01*
X6153724Y-18340642D02*
X6153724Y-18169214D01*
X6410867Y-18369214D02*
X6410867Y-18169214D01*
X6410867Y-18169214D02*
X6477534Y-18312071D01*
X6477534Y-18312071D02*
X6544201Y-18169214D01*
X6544201Y-18169214D02*
X6544201Y-18369214D01*
X6725153Y-18369214D02*
X6725153Y-18264452D01*
X6725153Y-18264452D02*
X6715629Y-18245404D01*
X6715629Y-18245404D02*
X6696582Y-18235880D01*
X6696582Y-18235880D02*
X6658486Y-18235880D01*
X6658486Y-18235880D02*
X6639439Y-18245404D01*
X6725153Y-18359690D02*
X6706105Y-18369214D01*
X6706105Y-18369214D02*
X6658486Y-18369214D01*
X6658486Y-18369214D02*
X6639439Y-18359690D01*
X6639439Y-18359690D02*
X6629915Y-18340642D01*
X6629915Y-18340642D02*
X6629915Y-18321595D01*
X6629915Y-18321595D02*
X6639439Y-18302547D01*
X6639439Y-18302547D02*
X6658486Y-18293023D01*
X6658486Y-18293023D02*
X6706105Y-18293023D01*
X6706105Y-18293023D02*
X6725153Y-18283500D01*
X6820391Y-18235880D02*
X6820391Y-18435880D01*
X6820391Y-18245404D02*
X6839439Y-18235880D01*
X6839439Y-18235880D02*
X6877534Y-18235880D01*
X6877534Y-18235880D02*
X6896582Y-18245404D01*
X6896582Y-18245404D02*
X6906105Y-18254928D01*
X6906105Y-18254928D02*
X6915629Y-18273976D01*
X6915629Y-18273976D02*
X6915629Y-18331119D01*
X6915629Y-18331119D02*
X6906105Y-18350166D01*
X6906105Y-18350166D02*
X6896582Y-18359690D01*
X6896582Y-18359690D02*
X6877534Y-18369214D01*
X6877534Y-18369214D02*
X6839439Y-18369214D01*
X6839439Y-18369214D02*
X6820391Y-18359690D01*
X7001344Y-18350166D02*
X7010867Y-18359690D01*
X7010867Y-18359690D02*
X7001344Y-18369214D01*
X7001344Y-18369214D02*
X6991820Y-18359690D01*
X6991820Y-18359690D02*
X7001344Y-18350166D01*
X7001344Y-18350166D02*
X7001344Y-18369214D01*
X7001344Y-18245404D02*
X7010867Y-18254928D01*
X7010867Y-18254928D02*
X7001344Y-18264452D01*
X7001344Y-18264452D02*
X6991820Y-18254928D01*
X6991820Y-18254928D02*
X7001344Y-18245404D01*
X7001344Y-18245404D02*
X7001344Y-18264452D01*
D12*
X5198958Y-18612640D02*
X5369138Y-18782820D01*
X5369138Y-18612640D02*
X5198958Y-18782820D01*
D11*
X5734677Y-18789214D02*
X5620391Y-18789214D01*
X5677534Y-18789214D02*
X5677534Y-18589214D01*
X5677534Y-18589214D02*
X5658486Y-18617785D01*
X5658486Y-18617785D02*
X5639439Y-18636833D01*
X5639439Y-18636833D02*
X5620391Y-18646357D01*
X5820391Y-18770166D02*
X5829915Y-18779690D01*
X5829915Y-18779690D02*
X5820391Y-18789214D01*
X5820391Y-18789214D02*
X5810867Y-18779690D01*
X5810867Y-18779690D02*
X5820391Y-18770166D01*
X5820391Y-18770166D02*
X5820391Y-18789214D01*
X5896582Y-18589214D02*
X6029915Y-18589214D01*
X6029915Y-18589214D02*
X5944201Y-18789214D01*
X6144201Y-18589214D02*
X6163248Y-18589214D01*
X6163248Y-18589214D02*
X6182296Y-18598738D01*
X6182296Y-18598738D02*
X6191820Y-18608261D01*
X6191820Y-18608261D02*
X6201344Y-18627309D01*
X6201344Y-18627309D02*
X6210867Y-18665404D01*
X6210867Y-18665404D02*
X6210867Y-18713023D01*
X6210867Y-18713023D02*
X6201344Y-18751119D01*
X6201344Y-18751119D02*
X6191820Y-18770166D01*
X6191820Y-18770166D02*
X6182296Y-18779690D01*
X6182296Y-18779690D02*
X6163248Y-18789214D01*
X6163248Y-18789214D02*
X6144201Y-18789214D01*
X6144201Y-18789214D02*
X6125153Y-18779690D01*
X6125153Y-18779690D02*
X6115629Y-18770166D01*
X6115629Y-18770166D02*
X6106105Y-18751119D01*
X6106105Y-18751119D02*
X6096582Y-18713023D01*
X6096582Y-18713023D02*
X6096582Y-18665404D01*
X6096582Y-18665404D02*
X6106105Y-18627309D01*
X6106105Y-18627309D02*
X6115629Y-18608261D01*
X6115629Y-18608261D02*
X6125153Y-18598738D01*
X6125153Y-18598738D02*
X6144201Y-18589214D01*
X6287058Y-18608261D02*
X6296582Y-18598738D01*
X6296582Y-18598738D02*
X6315629Y-18589214D01*
X6315629Y-18589214D02*
X6363248Y-18589214D01*
X6363248Y-18589214D02*
X6382296Y-18598738D01*
X6382296Y-18598738D02*
X6391820Y-18608261D01*
X6391820Y-18608261D02*
X6401344Y-18627309D01*
X6401344Y-18627309D02*
X6401344Y-18646357D01*
X6401344Y-18646357D02*
X6391820Y-18674928D01*
X6391820Y-18674928D02*
X6277534Y-18789214D01*
X6277534Y-18789214D02*
X6401344Y-18789214D01*
X6487058Y-18789214D02*
X6487058Y-18655880D01*
X6487058Y-18674928D02*
X6496582Y-18665404D01*
X6496582Y-18665404D02*
X6515629Y-18655880D01*
X6515629Y-18655880D02*
X6544201Y-18655880D01*
X6544201Y-18655880D02*
X6563248Y-18665404D01*
X6563248Y-18665404D02*
X6572772Y-18684452D01*
X6572772Y-18684452D02*
X6572772Y-18789214D01*
X6572772Y-18684452D02*
X6582296Y-18665404D01*
X6582296Y-18665404D02*
X6601344Y-18655880D01*
X6601344Y-18655880D02*
X6629915Y-18655880D01*
X6629915Y-18655880D02*
X6648963Y-18665404D01*
X6648963Y-18665404D02*
X6658486Y-18684452D01*
X6658486Y-18684452D02*
X6658486Y-18789214D01*
X6753725Y-18789214D02*
X6753725Y-18655880D01*
X6753725Y-18674928D02*
X6763248Y-18665404D01*
X6763248Y-18665404D02*
X6782296Y-18655880D01*
X6782296Y-18655880D02*
X6810867Y-18655880D01*
X6810867Y-18655880D02*
X6829915Y-18665404D01*
X6829915Y-18665404D02*
X6839439Y-18684452D01*
X6839439Y-18684452D02*
X6839439Y-18789214D01*
X6839439Y-18684452D02*
X6848963Y-18665404D01*
X6848963Y-18665404D02*
X6868010Y-18655880D01*
X6868010Y-18655880D02*
X6896582Y-18655880D01*
X6896582Y-18655880D02*
X6915629Y-18665404D01*
X6915629Y-18665404D02*
X6925153Y-18684452D01*
X6925153Y-18684452D02*
X6925153Y-18789214D01*
X7315629Y-18579690D02*
X7144201Y-18836833D01*
X7572772Y-18589214D02*
X7591820Y-18589214D01*
X7591820Y-18589214D02*
X7610868Y-18598738D01*
X7610868Y-18598738D02*
X7620391Y-18608261D01*
X7620391Y-18608261D02*
X7629915Y-18627309D01*
X7629915Y-18627309D02*
X7639439Y-18665404D01*
X7639439Y-18665404D02*
X7639439Y-18713023D01*
X7639439Y-18713023D02*
X7629915Y-18751119D01*
X7629915Y-18751119D02*
X7620391Y-18770166D01*
X7620391Y-18770166D02*
X7610868Y-18779690D01*
X7610868Y-18779690D02*
X7591820Y-18789214D01*
X7591820Y-18789214D02*
X7572772Y-18789214D01*
X7572772Y-18789214D02*
X7553725Y-18779690D01*
X7553725Y-18779690D02*
X7544201Y-18770166D01*
X7544201Y-18770166D02*
X7534677Y-18751119D01*
X7534677Y-18751119D02*
X7525153Y-18713023D01*
X7525153Y-18713023D02*
X7525153Y-18665404D01*
X7525153Y-18665404D02*
X7534677Y-18627309D01*
X7534677Y-18627309D02*
X7544201Y-18608261D01*
X7544201Y-18608261D02*
X7553725Y-18598738D01*
X7553725Y-18598738D02*
X7572772Y-18589214D01*
X7725153Y-18770166D02*
X7734677Y-18779690D01*
X7734677Y-18779690D02*
X7725153Y-18789214D01*
X7725153Y-18789214D02*
X7715629Y-18779690D01*
X7715629Y-18779690D02*
X7725153Y-18770166D01*
X7725153Y-18770166D02*
X7725153Y-18789214D01*
X7858487Y-18589214D02*
X7877534Y-18589214D01*
X7877534Y-18589214D02*
X7896582Y-18598738D01*
X7896582Y-18598738D02*
X7906106Y-18608261D01*
X7906106Y-18608261D02*
X7915629Y-18627309D01*
X7915629Y-18627309D02*
X7925153Y-18665404D01*
X7925153Y-18665404D02*
X7925153Y-18713023D01*
X7925153Y-18713023D02*
X7915629Y-18751119D01*
X7915629Y-18751119D02*
X7906106Y-18770166D01*
X7906106Y-18770166D02*
X7896582Y-18779690D01*
X7896582Y-18779690D02*
X7877534Y-18789214D01*
X7877534Y-18789214D02*
X7858487Y-18789214D01*
X7858487Y-18789214D02*
X7839439Y-18779690D01*
X7839439Y-18779690D02*
X7829915Y-18770166D01*
X7829915Y-18770166D02*
X7820391Y-18751119D01*
X7820391Y-18751119D02*
X7810868Y-18713023D01*
X7810868Y-18713023D02*
X7810868Y-18665404D01*
X7810868Y-18665404D02*
X7820391Y-18627309D01*
X7820391Y-18627309D02*
X7829915Y-18608261D01*
X7829915Y-18608261D02*
X7839439Y-18598738D01*
X7839439Y-18598738D02*
X7858487Y-18589214D01*
X8096582Y-18589214D02*
X8058487Y-18589214D01*
X8058487Y-18589214D02*
X8039439Y-18598738D01*
X8039439Y-18598738D02*
X8029915Y-18608261D01*
X8029915Y-18608261D02*
X8010868Y-18636833D01*
X8010868Y-18636833D02*
X8001344Y-18674928D01*
X8001344Y-18674928D02*
X8001344Y-18751119D01*
X8001344Y-18751119D02*
X8010868Y-18770166D01*
X8010868Y-18770166D02*
X8020391Y-18779690D01*
X8020391Y-18779690D02*
X8039439Y-18789214D01*
X8039439Y-18789214D02*
X8077534Y-18789214D01*
X8077534Y-18789214D02*
X8096582Y-18779690D01*
X8096582Y-18779690D02*
X8106106Y-18770166D01*
X8106106Y-18770166D02*
X8115629Y-18751119D01*
X8115629Y-18751119D02*
X8115629Y-18703500D01*
X8115629Y-18703500D02*
X8106106Y-18684452D01*
X8106106Y-18684452D02*
X8096582Y-18674928D01*
X8096582Y-18674928D02*
X8077534Y-18665404D01*
X8077534Y-18665404D02*
X8039439Y-18665404D01*
X8039439Y-18665404D02*
X8020391Y-18674928D01*
X8020391Y-18674928D02*
X8010868Y-18684452D01*
X8010868Y-18684452D02*
X8001344Y-18703500D01*
X8182296Y-18589214D02*
X8315629Y-18589214D01*
X8315629Y-18589214D02*
X8229915Y-18789214D01*
X8429915Y-18589214D02*
X8448963Y-18589214D01*
X8448963Y-18589214D02*
X8468011Y-18598738D01*
X8468011Y-18598738D02*
X8477534Y-18608261D01*
X8477534Y-18608261D02*
X8487058Y-18627309D01*
X8487058Y-18627309D02*
X8496582Y-18665404D01*
X8496582Y-18665404D02*
X8496582Y-18713023D01*
X8496582Y-18713023D02*
X8487058Y-18751119D01*
X8487058Y-18751119D02*
X8477534Y-18770166D01*
X8477534Y-18770166D02*
X8468011Y-18779690D01*
X8468011Y-18779690D02*
X8448963Y-18789214D01*
X8448963Y-18789214D02*
X8429915Y-18789214D01*
X8429915Y-18789214D02*
X8410868Y-18779690D01*
X8410868Y-18779690D02*
X8401344Y-18770166D01*
X8401344Y-18770166D02*
X8391820Y-18751119D01*
X8391820Y-18751119D02*
X8382296Y-18713023D01*
X8382296Y-18713023D02*
X8382296Y-18665404D01*
X8382296Y-18665404D02*
X8391820Y-18627309D01*
X8391820Y-18627309D02*
X8401344Y-18608261D01*
X8401344Y-18608261D02*
X8410868Y-18598738D01*
X8410868Y-18598738D02*
X8429915Y-18589214D01*
X8572772Y-18589214D02*
X8572772Y-18627309D01*
X8648963Y-18589214D02*
X8648963Y-18627309D01*
X8944201Y-18865404D02*
X8934677Y-18855880D01*
X8934677Y-18855880D02*
X8915630Y-18827309D01*
X8915630Y-18827309D02*
X8906106Y-18808261D01*
X8906106Y-18808261D02*
X8896582Y-18779690D01*
X8896582Y-18779690D02*
X8887058Y-18732071D01*
X8887058Y-18732071D02*
X8887058Y-18693976D01*
X8887058Y-18693976D02*
X8896582Y-18646357D01*
X8896582Y-18646357D02*
X8906106Y-18617785D01*
X8906106Y-18617785D02*
X8915630Y-18598738D01*
X8915630Y-18598738D02*
X8934677Y-18570166D01*
X8934677Y-18570166D02*
X8944201Y-18560642D01*
X9125153Y-18789214D02*
X9010868Y-18789214D01*
X9068011Y-18789214D02*
X9068011Y-18589214D01*
X9068011Y-18589214D02*
X9048963Y-18617785D01*
X9048963Y-18617785D02*
X9029915Y-18636833D01*
X9029915Y-18636833D02*
X9010868Y-18646357D01*
X9296582Y-18655880D02*
X9296582Y-18789214D01*
X9248963Y-18579690D02*
X9201344Y-18722547D01*
X9201344Y-18722547D02*
X9325153Y-18722547D01*
X9439439Y-18589214D02*
X9458487Y-18589214D01*
X9458487Y-18589214D02*
X9477534Y-18598738D01*
X9477534Y-18598738D02*
X9487058Y-18608261D01*
X9487058Y-18608261D02*
X9496582Y-18627309D01*
X9496582Y-18627309D02*
X9506106Y-18665404D01*
X9506106Y-18665404D02*
X9506106Y-18713023D01*
X9506106Y-18713023D02*
X9496582Y-18751119D01*
X9496582Y-18751119D02*
X9487058Y-18770166D01*
X9487058Y-18770166D02*
X9477534Y-18779690D01*
X9477534Y-18779690D02*
X9458487Y-18789214D01*
X9458487Y-18789214D02*
X9439439Y-18789214D01*
X9439439Y-18789214D02*
X9420392Y-18779690D01*
X9420392Y-18779690D02*
X9410868Y-18770166D01*
X9410868Y-18770166D02*
X9401344Y-18751119D01*
X9401344Y-18751119D02*
X9391820Y-18713023D01*
X9391820Y-18713023D02*
X9391820Y-18665404D01*
X9391820Y-18665404D02*
X9401344Y-18627309D01*
X9401344Y-18627309D02*
X9410868Y-18608261D01*
X9410868Y-18608261D02*
X9420392Y-18598738D01*
X9420392Y-18598738D02*
X9439439Y-18589214D01*
X9744201Y-18789214D02*
X9744201Y-18589214D01*
X9829915Y-18789214D02*
X9829915Y-18684452D01*
X9829915Y-18684452D02*
X9820392Y-18665404D01*
X9820392Y-18665404D02*
X9801344Y-18655880D01*
X9801344Y-18655880D02*
X9772773Y-18655880D01*
X9772773Y-18655880D02*
X9753725Y-18665404D01*
X9753725Y-18665404D02*
X9744201Y-18674928D01*
X9953725Y-18789214D02*
X9934677Y-18779690D01*
X9934677Y-18779690D02*
X9925154Y-18770166D01*
X9925154Y-18770166D02*
X9915630Y-18751119D01*
X9915630Y-18751119D02*
X9915630Y-18693976D01*
X9915630Y-18693976D02*
X9925154Y-18674928D01*
X9925154Y-18674928D02*
X9934677Y-18665404D01*
X9934677Y-18665404D02*
X9953725Y-18655880D01*
X9953725Y-18655880D02*
X9982296Y-18655880D01*
X9982296Y-18655880D02*
X10001344Y-18665404D01*
X10001344Y-18665404D02*
X10010868Y-18674928D01*
X10010868Y-18674928D02*
X10020392Y-18693976D01*
X10020392Y-18693976D02*
X10020392Y-18751119D01*
X10020392Y-18751119D02*
X10010868Y-18770166D01*
X10010868Y-18770166D02*
X10001344Y-18779690D01*
X10001344Y-18779690D02*
X9982296Y-18789214D01*
X9982296Y-18789214D02*
X9953725Y-18789214D01*
X10134677Y-18789214D02*
X10115630Y-18779690D01*
X10115630Y-18779690D02*
X10106106Y-18760642D01*
X10106106Y-18760642D02*
X10106106Y-18589214D01*
X10287058Y-18779690D02*
X10268011Y-18789214D01*
X10268011Y-18789214D02*
X10229915Y-18789214D01*
X10229915Y-18789214D02*
X10210868Y-18779690D01*
X10210868Y-18779690D02*
X10201344Y-18760642D01*
X10201344Y-18760642D02*
X10201344Y-18684452D01*
X10201344Y-18684452D02*
X10210868Y-18665404D01*
X10210868Y-18665404D02*
X10229915Y-18655880D01*
X10229915Y-18655880D02*
X10268011Y-18655880D01*
X10268011Y-18655880D02*
X10287058Y-18665404D01*
X10287058Y-18665404D02*
X10296582Y-18684452D01*
X10296582Y-18684452D02*
X10296582Y-18703500D01*
X10296582Y-18703500D02*
X10201344Y-18722547D01*
X10372773Y-18779690D02*
X10391820Y-18789214D01*
X10391820Y-18789214D02*
X10429915Y-18789214D01*
X10429915Y-18789214D02*
X10448963Y-18779690D01*
X10448963Y-18779690D02*
X10458487Y-18760642D01*
X10458487Y-18760642D02*
X10458487Y-18751119D01*
X10458487Y-18751119D02*
X10448963Y-18732071D01*
X10448963Y-18732071D02*
X10429915Y-18722547D01*
X10429915Y-18722547D02*
X10401344Y-18722547D01*
X10401344Y-18722547D02*
X10382296Y-18713023D01*
X10382296Y-18713023D02*
X10372773Y-18693976D01*
X10372773Y-18693976D02*
X10372773Y-18684452D01*
X10372773Y-18684452D02*
X10382296Y-18665404D01*
X10382296Y-18665404D02*
X10401344Y-18655880D01*
X10401344Y-18655880D02*
X10429915Y-18655880D01*
X10429915Y-18655880D02*
X10448963Y-18665404D01*
X10525154Y-18865404D02*
X10534677Y-18855880D01*
X10534677Y-18855880D02*
X10553725Y-18827309D01*
X10553725Y-18827309D02*
X10563249Y-18808261D01*
X10563249Y-18808261D02*
X10572773Y-18779690D01*
X10572773Y-18779690D02*
X10582296Y-18732071D01*
X10582296Y-18732071D02*
X10582296Y-18693976D01*
X10582296Y-18693976D02*
X10572773Y-18646357D01*
X10572773Y-18646357D02*
X10563249Y-18617785D01*
X10563249Y-18617785D02*
X10553725Y-18598738D01*
X10553725Y-18598738D02*
X10534677Y-18570166D01*
X10534677Y-18570166D02*
X10525154Y-18560642D01*
X10887058Y-18865404D02*
X10877535Y-18855880D01*
X10877535Y-18855880D02*
X10858487Y-18827309D01*
X10858487Y-18827309D02*
X10848963Y-18808261D01*
X10848963Y-18808261D02*
X10839439Y-18779690D01*
X10839439Y-18779690D02*
X10829916Y-18732071D01*
X10829916Y-18732071D02*
X10829916Y-18693976D01*
X10829916Y-18693976D02*
X10839439Y-18646357D01*
X10839439Y-18646357D02*
X10848963Y-18617785D01*
X10848963Y-18617785D02*
X10858487Y-18598738D01*
X10858487Y-18598738D02*
X10877535Y-18570166D01*
X10877535Y-18570166D02*
X10887058Y-18560642D01*
X10963249Y-18655880D02*
X10963249Y-18789214D01*
X10963249Y-18674928D02*
X10972773Y-18665404D01*
X10972773Y-18665404D02*
X10991820Y-18655880D01*
X10991820Y-18655880D02*
X11020392Y-18655880D01*
X11020392Y-18655880D02*
X11039439Y-18665404D01*
X11039439Y-18665404D02*
X11048963Y-18684452D01*
X11048963Y-18684452D02*
X11048963Y-18789214D01*
X11172773Y-18789214D02*
X11153725Y-18779690D01*
X11153725Y-18779690D02*
X11144201Y-18770166D01*
X11144201Y-18770166D02*
X11134677Y-18751119D01*
X11134677Y-18751119D02*
X11134677Y-18693976D01*
X11134677Y-18693976D02*
X11144201Y-18674928D01*
X11144201Y-18674928D02*
X11153725Y-18665404D01*
X11153725Y-18665404D02*
X11172773Y-18655880D01*
X11172773Y-18655880D02*
X11201344Y-18655880D01*
X11201344Y-18655880D02*
X11220392Y-18665404D01*
X11220392Y-18665404D02*
X11229915Y-18674928D01*
X11229915Y-18674928D02*
X11239439Y-18693976D01*
X11239439Y-18693976D02*
X11239439Y-18751119D01*
X11239439Y-18751119D02*
X11229915Y-18770166D01*
X11229915Y-18770166D02*
X11220392Y-18779690D01*
X11220392Y-18779690D02*
X11201344Y-18789214D01*
X11201344Y-18789214D02*
X11172773Y-18789214D01*
X11296582Y-18655880D02*
X11372773Y-18655880D01*
X11325154Y-18589214D02*
X11325154Y-18760642D01*
X11325154Y-18760642D02*
X11334677Y-18779690D01*
X11334677Y-18779690D02*
X11353725Y-18789214D01*
X11353725Y-18789214D02*
X11372773Y-18789214D01*
X11591820Y-18655880D02*
X11591820Y-18855880D01*
X11591820Y-18665404D02*
X11610868Y-18655880D01*
X11610868Y-18655880D02*
X11648963Y-18655880D01*
X11648963Y-18655880D02*
X11668011Y-18665404D01*
X11668011Y-18665404D02*
X11677535Y-18674928D01*
X11677535Y-18674928D02*
X11687058Y-18693976D01*
X11687058Y-18693976D02*
X11687058Y-18751119D01*
X11687058Y-18751119D02*
X11677535Y-18770166D01*
X11677535Y-18770166D02*
X11668011Y-18779690D01*
X11668011Y-18779690D02*
X11648963Y-18789214D01*
X11648963Y-18789214D02*
X11610868Y-18789214D01*
X11610868Y-18789214D02*
X11591820Y-18779690D01*
X11801344Y-18789214D02*
X11782296Y-18779690D01*
X11782296Y-18779690D02*
X11772773Y-18760642D01*
X11772773Y-18760642D02*
X11772773Y-18589214D01*
X11963249Y-18789214D02*
X11963249Y-18684452D01*
X11963249Y-18684452D02*
X11953725Y-18665404D01*
X11953725Y-18665404D02*
X11934677Y-18655880D01*
X11934677Y-18655880D02*
X11896582Y-18655880D01*
X11896582Y-18655880D02*
X11877535Y-18665404D01*
X11963249Y-18779690D02*
X11944201Y-18789214D01*
X11944201Y-18789214D02*
X11896582Y-18789214D01*
X11896582Y-18789214D02*
X11877535Y-18779690D01*
X11877535Y-18779690D02*
X11868011Y-18760642D01*
X11868011Y-18760642D02*
X11868011Y-18741595D01*
X11868011Y-18741595D02*
X11877535Y-18722547D01*
X11877535Y-18722547D02*
X11896582Y-18713023D01*
X11896582Y-18713023D02*
X11944201Y-18713023D01*
X11944201Y-18713023D02*
X11963249Y-18703500D01*
X12029916Y-18655880D02*
X12106106Y-18655880D01*
X12058487Y-18589214D02*
X12058487Y-18760642D01*
X12058487Y-18760642D02*
X12068011Y-18779690D01*
X12068011Y-18779690D02*
X12087058Y-18789214D01*
X12087058Y-18789214D02*
X12106106Y-18789214D01*
X12248963Y-18779690D02*
X12229916Y-18789214D01*
X12229916Y-18789214D02*
X12191820Y-18789214D01*
X12191820Y-18789214D02*
X12172773Y-18779690D01*
X12172773Y-18779690D02*
X12163249Y-18760642D01*
X12163249Y-18760642D02*
X12163249Y-18684452D01*
X12163249Y-18684452D02*
X12172773Y-18665404D01*
X12172773Y-18665404D02*
X12191820Y-18655880D01*
X12191820Y-18655880D02*
X12229916Y-18655880D01*
X12229916Y-18655880D02*
X12248963Y-18665404D01*
X12248963Y-18665404D02*
X12258487Y-18684452D01*
X12258487Y-18684452D02*
X12258487Y-18703500D01*
X12258487Y-18703500D02*
X12163249Y-18722547D01*
X12429916Y-18789214D02*
X12429916Y-18589214D01*
X12429916Y-18779690D02*
X12410868Y-18789214D01*
X12410868Y-18789214D02*
X12372773Y-18789214D01*
X12372773Y-18789214D02*
X12353725Y-18779690D01*
X12353725Y-18779690D02*
X12344201Y-18770166D01*
X12344201Y-18770166D02*
X12334677Y-18751119D01*
X12334677Y-18751119D02*
X12334677Y-18693976D01*
X12334677Y-18693976D02*
X12344201Y-18674928D01*
X12344201Y-18674928D02*
X12353725Y-18665404D01*
X12353725Y-18665404D02*
X12372773Y-18655880D01*
X12372773Y-18655880D02*
X12410868Y-18655880D01*
X12410868Y-18655880D02*
X12429916Y-18665404D01*
X12506106Y-18865404D02*
X12515630Y-18855880D01*
X12515630Y-18855880D02*
X12534677Y-18827309D01*
X12534677Y-18827309D02*
X12544201Y-18808261D01*
X12544201Y-18808261D02*
X12553725Y-18779690D01*
X12553725Y-18779690D02*
X12563249Y-18732071D01*
X12563249Y-18732071D02*
X12563249Y-18693976D01*
X12563249Y-18693976D02*
X12553725Y-18646357D01*
X12553725Y-18646357D02*
X12544201Y-18617785D01*
X12544201Y-18617785D02*
X12534677Y-18598738D01*
X12534677Y-18598738D02*
X12515630Y-18570166D01*
X12515630Y-18570166D02*
X12506106Y-18560642D01*
X5369138Y-18987910D02*
G75*
G02*
X5169138Y-18987910I-100000J0D01*
G01*
X5169138Y-18987910D02*
G75*
G02*
X5369138Y-18987910I100000J0D01*
G01*
X5610867Y-18879394D02*
X5734677Y-18879394D01*
X5734677Y-18879394D02*
X5668010Y-18955584D01*
X5668010Y-18955584D02*
X5696582Y-18955584D01*
X5696582Y-18955584D02*
X5715629Y-18965108D01*
X5715629Y-18965108D02*
X5725153Y-18974632D01*
X5725153Y-18974632D02*
X5734677Y-18993680D01*
X5734677Y-18993680D02*
X5734677Y-19041299D01*
X5734677Y-19041299D02*
X5725153Y-19060346D01*
X5725153Y-19060346D02*
X5715629Y-19069870D01*
X5715629Y-19069870D02*
X5696582Y-19079394D01*
X5696582Y-19079394D02*
X5639439Y-19079394D01*
X5639439Y-19079394D02*
X5620391Y-19069870D01*
X5620391Y-19069870D02*
X5610867Y-19060346D01*
X5820391Y-19060346D02*
X5829915Y-19069870D01*
X5829915Y-19069870D02*
X5820391Y-19079394D01*
X5820391Y-19079394D02*
X5810867Y-19069870D01*
X5810867Y-19069870D02*
X5820391Y-19060346D01*
X5820391Y-19060346D02*
X5820391Y-19079394D01*
X5953724Y-18879394D02*
X5972772Y-18879394D01*
X5972772Y-18879394D02*
X5991820Y-18888918D01*
X5991820Y-18888918D02*
X6001344Y-18898441D01*
X6001344Y-18898441D02*
X6010867Y-18917489D01*
X6010867Y-18917489D02*
X6020391Y-18955584D01*
X6020391Y-18955584D02*
X6020391Y-19003203D01*
X6020391Y-19003203D02*
X6010867Y-19041299D01*
X6010867Y-19041299D02*
X6001344Y-19060346D01*
X6001344Y-19060346D02*
X5991820Y-19069870D01*
X5991820Y-19069870D02*
X5972772Y-19079394D01*
X5972772Y-19079394D02*
X5953724Y-19079394D01*
X5953724Y-19079394D02*
X5934677Y-19069870D01*
X5934677Y-19069870D02*
X5925153Y-19060346D01*
X5925153Y-19060346D02*
X5915629Y-19041299D01*
X5915629Y-19041299D02*
X5906105Y-19003203D01*
X5906105Y-19003203D02*
X5906105Y-18955584D01*
X5906105Y-18955584D02*
X5915629Y-18917489D01*
X5915629Y-18917489D02*
X5925153Y-18898441D01*
X5925153Y-18898441D02*
X5934677Y-18888918D01*
X5934677Y-18888918D02*
X5953724Y-18879394D01*
X6191820Y-18946060D02*
X6191820Y-19079394D01*
X6144201Y-18869870D02*
X6096582Y-19012727D01*
X6096582Y-19012727D02*
X6220391Y-19012727D01*
X6325153Y-18965108D02*
X6306105Y-18955584D01*
X6306105Y-18955584D02*
X6296582Y-18946060D01*
X6296582Y-18946060D02*
X6287058Y-18927013D01*
X6287058Y-18927013D02*
X6287058Y-18917489D01*
X6287058Y-18917489D02*
X6296582Y-18898441D01*
X6296582Y-18898441D02*
X6306105Y-18888918D01*
X6306105Y-18888918D02*
X6325153Y-18879394D01*
X6325153Y-18879394D02*
X6363248Y-18879394D01*
X6363248Y-18879394D02*
X6382296Y-18888918D01*
X6382296Y-18888918D02*
X6391820Y-18898441D01*
X6391820Y-18898441D02*
X6401344Y-18917489D01*
X6401344Y-18917489D02*
X6401344Y-18927013D01*
X6401344Y-18927013D02*
X6391820Y-18946060D01*
X6391820Y-18946060D02*
X6382296Y-18955584D01*
X6382296Y-18955584D02*
X6363248Y-18965108D01*
X6363248Y-18965108D02*
X6325153Y-18965108D01*
X6325153Y-18965108D02*
X6306105Y-18974632D01*
X6306105Y-18974632D02*
X6296582Y-18984156D01*
X6296582Y-18984156D02*
X6287058Y-19003203D01*
X6287058Y-19003203D02*
X6287058Y-19041299D01*
X6287058Y-19041299D02*
X6296582Y-19060346D01*
X6296582Y-19060346D02*
X6306105Y-19069870D01*
X6306105Y-19069870D02*
X6325153Y-19079394D01*
X6325153Y-19079394D02*
X6363248Y-19079394D01*
X6363248Y-19079394D02*
X6382296Y-19069870D01*
X6382296Y-19069870D02*
X6391820Y-19060346D01*
X6391820Y-19060346D02*
X6401344Y-19041299D01*
X6401344Y-19041299D02*
X6401344Y-19003203D01*
X6401344Y-19003203D02*
X6391820Y-18984156D01*
X6391820Y-18984156D02*
X6382296Y-18974632D01*
X6382296Y-18974632D02*
X6363248Y-18965108D01*
X6487058Y-19079394D02*
X6487058Y-18946060D01*
X6487058Y-18965108D02*
X6496582Y-18955584D01*
X6496582Y-18955584D02*
X6515629Y-18946060D01*
X6515629Y-18946060D02*
X6544201Y-18946060D01*
X6544201Y-18946060D02*
X6563248Y-18955584D01*
X6563248Y-18955584D02*
X6572772Y-18974632D01*
X6572772Y-18974632D02*
X6572772Y-19079394D01*
X6572772Y-18974632D02*
X6582296Y-18955584D01*
X6582296Y-18955584D02*
X6601344Y-18946060D01*
X6601344Y-18946060D02*
X6629915Y-18946060D01*
X6629915Y-18946060D02*
X6648963Y-18955584D01*
X6648963Y-18955584D02*
X6658486Y-18974632D01*
X6658486Y-18974632D02*
X6658486Y-19079394D01*
X6753725Y-19079394D02*
X6753725Y-18946060D01*
X6753725Y-18965108D02*
X6763248Y-18955584D01*
X6763248Y-18955584D02*
X6782296Y-18946060D01*
X6782296Y-18946060D02*
X6810867Y-18946060D01*
X6810867Y-18946060D02*
X6829915Y-18955584D01*
X6829915Y-18955584D02*
X6839439Y-18974632D01*
X6839439Y-18974632D02*
X6839439Y-19079394D01*
X6839439Y-18974632D02*
X6848963Y-18955584D01*
X6848963Y-18955584D02*
X6868010Y-18946060D01*
X6868010Y-18946060D02*
X6896582Y-18946060D01*
X6896582Y-18946060D02*
X6915629Y-18955584D01*
X6915629Y-18955584D02*
X6925153Y-18974632D01*
X6925153Y-18974632D02*
X6925153Y-19079394D01*
X7315629Y-18869870D02*
X7144201Y-19127013D01*
X7572772Y-18879394D02*
X7591820Y-18879394D01*
X7591820Y-18879394D02*
X7610868Y-18888918D01*
X7610868Y-18888918D02*
X7620391Y-18898441D01*
X7620391Y-18898441D02*
X7629915Y-18917489D01*
X7629915Y-18917489D02*
X7639439Y-18955584D01*
X7639439Y-18955584D02*
X7639439Y-19003203D01*
X7639439Y-19003203D02*
X7629915Y-19041299D01*
X7629915Y-19041299D02*
X7620391Y-19060346D01*
X7620391Y-19060346D02*
X7610868Y-19069870D01*
X7610868Y-19069870D02*
X7591820Y-19079394D01*
X7591820Y-19079394D02*
X7572772Y-19079394D01*
X7572772Y-19079394D02*
X7553725Y-19069870D01*
X7553725Y-19069870D02*
X7544201Y-19060346D01*
X7544201Y-19060346D02*
X7534677Y-19041299D01*
X7534677Y-19041299D02*
X7525153Y-19003203D01*
X7525153Y-19003203D02*
X7525153Y-18955584D01*
X7525153Y-18955584D02*
X7534677Y-18917489D01*
X7534677Y-18917489D02*
X7544201Y-18898441D01*
X7544201Y-18898441D02*
X7553725Y-18888918D01*
X7553725Y-18888918D02*
X7572772Y-18879394D01*
X7725153Y-19060346D02*
X7734677Y-19069870D01*
X7734677Y-19069870D02*
X7725153Y-19079394D01*
X7725153Y-19079394D02*
X7715629Y-19069870D01*
X7715629Y-19069870D02*
X7725153Y-19060346D01*
X7725153Y-19060346D02*
X7725153Y-19079394D01*
X7925153Y-19079394D02*
X7810868Y-19079394D01*
X7868010Y-19079394D02*
X7868010Y-18879394D01*
X7868010Y-18879394D02*
X7848963Y-18907965D01*
X7848963Y-18907965D02*
X7829915Y-18927013D01*
X7829915Y-18927013D02*
X7810868Y-18936537D01*
X8001344Y-18898441D02*
X8010868Y-18888918D01*
X8010868Y-18888918D02*
X8029915Y-18879394D01*
X8029915Y-18879394D02*
X8077534Y-18879394D01*
X8077534Y-18879394D02*
X8096582Y-18888918D01*
X8096582Y-18888918D02*
X8106106Y-18898441D01*
X8106106Y-18898441D02*
X8115629Y-18917489D01*
X8115629Y-18917489D02*
X8115629Y-18936537D01*
X8115629Y-18936537D02*
X8106106Y-18965108D01*
X8106106Y-18965108D02*
X7991820Y-19079394D01*
X7991820Y-19079394D02*
X8115629Y-19079394D01*
X8239439Y-18879394D02*
X8258487Y-18879394D01*
X8258487Y-18879394D02*
X8277534Y-18888918D01*
X8277534Y-18888918D02*
X8287058Y-18898441D01*
X8287058Y-18898441D02*
X8296582Y-18917489D01*
X8296582Y-18917489D02*
X8306106Y-18955584D01*
X8306106Y-18955584D02*
X8306106Y-19003203D01*
X8306106Y-19003203D02*
X8296582Y-19041299D01*
X8296582Y-19041299D02*
X8287058Y-19060346D01*
X8287058Y-19060346D02*
X8277534Y-19069870D01*
X8277534Y-19069870D02*
X8258487Y-19079394D01*
X8258487Y-19079394D02*
X8239439Y-19079394D01*
X8239439Y-19079394D02*
X8220391Y-19069870D01*
X8220391Y-19069870D02*
X8210868Y-19060346D01*
X8210868Y-19060346D02*
X8201344Y-19041299D01*
X8201344Y-19041299D02*
X8191820Y-19003203D01*
X8191820Y-19003203D02*
X8191820Y-18955584D01*
X8191820Y-18955584D02*
X8201344Y-18917489D01*
X8201344Y-18917489D02*
X8210868Y-18898441D01*
X8210868Y-18898441D02*
X8220391Y-18888918D01*
X8220391Y-18888918D02*
X8239439Y-18879394D01*
X8429915Y-18879394D02*
X8448963Y-18879394D01*
X8448963Y-18879394D02*
X8468011Y-18888918D01*
X8468011Y-18888918D02*
X8477534Y-18898441D01*
X8477534Y-18898441D02*
X8487058Y-18917489D01*
X8487058Y-18917489D02*
X8496582Y-18955584D01*
X8496582Y-18955584D02*
X8496582Y-19003203D01*
X8496582Y-19003203D02*
X8487058Y-19041299D01*
X8487058Y-19041299D02*
X8477534Y-19060346D01*
X8477534Y-19060346D02*
X8468011Y-19069870D01*
X8468011Y-19069870D02*
X8448963Y-19079394D01*
X8448963Y-19079394D02*
X8429915Y-19079394D01*
X8429915Y-19079394D02*
X8410868Y-19069870D01*
X8410868Y-19069870D02*
X8401344Y-19060346D01*
X8401344Y-19060346D02*
X8391820Y-19041299D01*
X8391820Y-19041299D02*
X8382296Y-19003203D01*
X8382296Y-19003203D02*
X8382296Y-18955584D01*
X8382296Y-18955584D02*
X8391820Y-18917489D01*
X8391820Y-18917489D02*
X8401344Y-18898441D01*
X8401344Y-18898441D02*
X8410868Y-18888918D01*
X8410868Y-18888918D02*
X8429915Y-18879394D01*
X8572772Y-18879394D02*
X8572772Y-18917489D01*
X8648963Y-18879394D02*
X8648963Y-18917489D01*
X8944201Y-19155584D02*
X8934677Y-19146060D01*
X8934677Y-19146060D02*
X8915630Y-19117489D01*
X8915630Y-19117489D02*
X8906106Y-19098441D01*
X8906106Y-19098441D02*
X8896582Y-19069870D01*
X8896582Y-19069870D02*
X8887058Y-19022251D01*
X8887058Y-19022251D02*
X8887058Y-18984156D01*
X8887058Y-18984156D02*
X8896582Y-18936537D01*
X8896582Y-18936537D02*
X8906106Y-18907965D01*
X8906106Y-18907965D02*
X8915630Y-18888918D01*
X8915630Y-18888918D02*
X8934677Y-18860346D01*
X8934677Y-18860346D02*
X8944201Y-18850822D01*
X9125153Y-19079394D02*
X9010868Y-19079394D01*
X9068011Y-19079394D02*
X9068011Y-18879394D01*
X9068011Y-18879394D02*
X9048963Y-18907965D01*
X9048963Y-18907965D02*
X9029915Y-18927013D01*
X9029915Y-18927013D02*
X9010868Y-18936537D01*
X9248963Y-18879394D02*
X9268011Y-18879394D01*
X9268011Y-18879394D02*
X9287058Y-18888918D01*
X9287058Y-18888918D02*
X9296582Y-18898441D01*
X9296582Y-18898441D02*
X9306106Y-18917489D01*
X9306106Y-18917489D02*
X9315630Y-18955584D01*
X9315630Y-18955584D02*
X9315630Y-19003203D01*
X9315630Y-19003203D02*
X9306106Y-19041299D01*
X9306106Y-19041299D02*
X9296582Y-19060346D01*
X9296582Y-19060346D02*
X9287058Y-19069870D01*
X9287058Y-19069870D02*
X9268011Y-19079394D01*
X9268011Y-19079394D02*
X9248963Y-19079394D01*
X9248963Y-19079394D02*
X9229915Y-19069870D01*
X9229915Y-19069870D02*
X9220392Y-19060346D01*
X9220392Y-19060346D02*
X9210868Y-19041299D01*
X9210868Y-19041299D02*
X9201344Y-19003203D01*
X9201344Y-19003203D02*
X9201344Y-18955584D01*
X9201344Y-18955584D02*
X9210868Y-18917489D01*
X9210868Y-18917489D02*
X9220392Y-18898441D01*
X9220392Y-18898441D02*
X9229915Y-18888918D01*
X9229915Y-18888918D02*
X9248963Y-18879394D01*
X9553725Y-19079394D02*
X9553725Y-18879394D01*
X9639439Y-19079394D02*
X9639439Y-18974632D01*
X9639439Y-18974632D02*
X9629915Y-18955584D01*
X9629915Y-18955584D02*
X9610868Y-18946060D01*
X9610868Y-18946060D02*
X9582296Y-18946060D01*
X9582296Y-18946060D02*
X9563249Y-18955584D01*
X9563249Y-18955584D02*
X9553725Y-18965108D01*
X9763249Y-19079394D02*
X9744201Y-19069870D01*
X9744201Y-19069870D02*
X9734677Y-19060346D01*
X9734677Y-19060346D02*
X9725154Y-19041299D01*
X9725154Y-19041299D02*
X9725154Y-18984156D01*
X9725154Y-18984156D02*
X9734677Y-18965108D01*
X9734677Y-18965108D02*
X9744201Y-18955584D01*
X9744201Y-18955584D02*
X9763249Y-18946060D01*
X9763249Y-18946060D02*
X9791820Y-18946060D01*
X9791820Y-18946060D02*
X9810868Y-18955584D01*
X9810868Y-18955584D02*
X9820392Y-18965108D01*
X9820392Y-18965108D02*
X9829915Y-18984156D01*
X9829915Y-18984156D02*
X9829915Y-19041299D01*
X9829915Y-19041299D02*
X9820392Y-19060346D01*
X9820392Y-19060346D02*
X9810868Y-19069870D01*
X9810868Y-19069870D02*
X9791820Y-19079394D01*
X9791820Y-19079394D02*
X9763249Y-19079394D01*
X9944201Y-19079394D02*
X9925154Y-19069870D01*
X9925154Y-19069870D02*
X9915630Y-19050822D01*
X9915630Y-19050822D02*
X9915630Y-18879394D01*
X10096582Y-19069870D02*
X10077535Y-19079394D01*
X10077535Y-19079394D02*
X10039439Y-19079394D01*
X10039439Y-19079394D02*
X10020392Y-19069870D01*
X10020392Y-19069870D02*
X10010868Y-19050822D01*
X10010868Y-19050822D02*
X10010868Y-18974632D01*
X10010868Y-18974632D02*
X10020392Y-18955584D01*
X10020392Y-18955584D02*
X10039439Y-18946060D01*
X10039439Y-18946060D02*
X10077535Y-18946060D01*
X10077535Y-18946060D02*
X10096582Y-18955584D01*
X10096582Y-18955584D02*
X10106106Y-18974632D01*
X10106106Y-18974632D02*
X10106106Y-18993680D01*
X10106106Y-18993680D02*
X10010868Y-19012727D01*
X10182296Y-19069870D02*
X10201344Y-19079394D01*
X10201344Y-19079394D02*
X10239439Y-19079394D01*
X10239439Y-19079394D02*
X10258487Y-19069870D01*
X10258487Y-19069870D02*
X10268011Y-19050822D01*
X10268011Y-19050822D02*
X10268011Y-19041299D01*
X10268011Y-19041299D02*
X10258487Y-19022251D01*
X10258487Y-19022251D02*
X10239439Y-19012727D01*
X10239439Y-19012727D02*
X10210868Y-19012727D01*
X10210868Y-19012727D02*
X10191820Y-19003203D01*
X10191820Y-19003203D02*
X10182296Y-18984156D01*
X10182296Y-18984156D02*
X10182296Y-18974632D01*
X10182296Y-18974632D02*
X10191820Y-18955584D01*
X10191820Y-18955584D02*
X10210868Y-18946060D01*
X10210868Y-18946060D02*
X10239439Y-18946060D01*
X10239439Y-18946060D02*
X10258487Y-18955584D01*
X10334677Y-19155584D02*
X10344201Y-19146060D01*
X10344201Y-19146060D02*
X10363249Y-19117489D01*
X10363249Y-19117489D02*
X10372773Y-19098441D01*
X10372773Y-19098441D02*
X10382296Y-19069870D01*
X10382296Y-19069870D02*
X10391820Y-19022251D01*
X10391820Y-19022251D02*
X10391820Y-18984156D01*
X10391820Y-18984156D02*
X10382296Y-18936537D01*
X10382296Y-18936537D02*
X10372773Y-18907965D01*
X10372773Y-18907965D02*
X10363249Y-18888918D01*
X10363249Y-18888918D02*
X10344201Y-18860346D01*
X10344201Y-18860346D02*
X10334677Y-18850822D01*
X10696582Y-19155584D02*
X10687058Y-19146060D01*
X10687058Y-19146060D02*
X10668011Y-19117489D01*
X10668011Y-19117489D02*
X10658487Y-19098441D01*
X10658487Y-19098441D02*
X10648963Y-19069870D01*
X10648963Y-19069870D02*
X10639439Y-19022251D01*
X10639439Y-19022251D02*
X10639439Y-18984156D01*
X10639439Y-18984156D02*
X10648963Y-18936537D01*
X10648963Y-18936537D02*
X10658487Y-18907965D01*
X10658487Y-18907965D02*
X10668011Y-18888918D01*
X10668011Y-18888918D02*
X10687058Y-18860346D01*
X10687058Y-18860346D02*
X10696582Y-18850822D01*
X10772773Y-18946060D02*
X10772773Y-19079394D01*
X10772773Y-18965108D02*
X10782296Y-18955584D01*
X10782296Y-18955584D02*
X10801344Y-18946060D01*
X10801344Y-18946060D02*
X10829916Y-18946060D01*
X10829916Y-18946060D02*
X10848963Y-18955584D01*
X10848963Y-18955584D02*
X10858487Y-18974632D01*
X10858487Y-18974632D02*
X10858487Y-19079394D01*
X10982296Y-19079394D02*
X10963249Y-19069870D01*
X10963249Y-19069870D02*
X10953725Y-19060346D01*
X10953725Y-19060346D02*
X10944201Y-19041299D01*
X10944201Y-19041299D02*
X10944201Y-18984156D01*
X10944201Y-18984156D02*
X10953725Y-18965108D01*
X10953725Y-18965108D02*
X10963249Y-18955584D01*
X10963249Y-18955584D02*
X10982296Y-18946060D01*
X10982296Y-18946060D02*
X11010868Y-18946060D01*
X11010868Y-18946060D02*
X11029916Y-18955584D01*
X11029916Y-18955584D02*
X11039439Y-18965108D01*
X11039439Y-18965108D02*
X11048963Y-18984156D01*
X11048963Y-18984156D02*
X11048963Y-19041299D01*
X11048963Y-19041299D02*
X11039439Y-19060346D01*
X11039439Y-19060346D02*
X11029916Y-19069870D01*
X11029916Y-19069870D02*
X11010868Y-19079394D01*
X11010868Y-19079394D02*
X10982296Y-19079394D01*
X11106106Y-18946060D02*
X11182296Y-18946060D01*
X11134677Y-18879394D02*
X11134677Y-19050822D01*
X11134677Y-19050822D02*
X11144201Y-19069870D01*
X11144201Y-19069870D02*
X11163249Y-19079394D01*
X11163249Y-19079394D02*
X11182296Y-19079394D01*
X11401344Y-18946060D02*
X11401344Y-19146060D01*
X11401344Y-18955584D02*
X11420392Y-18946060D01*
X11420392Y-18946060D02*
X11458487Y-18946060D01*
X11458487Y-18946060D02*
X11477535Y-18955584D01*
X11477535Y-18955584D02*
X11487058Y-18965108D01*
X11487058Y-18965108D02*
X11496582Y-18984156D01*
X11496582Y-18984156D02*
X11496582Y-19041299D01*
X11496582Y-19041299D02*
X11487058Y-19060346D01*
X11487058Y-19060346D02*
X11477535Y-19069870D01*
X11477535Y-19069870D02*
X11458487Y-19079394D01*
X11458487Y-19079394D02*
X11420392Y-19079394D01*
X11420392Y-19079394D02*
X11401344Y-19069870D01*
X11610868Y-19079394D02*
X11591820Y-19069870D01*
X11591820Y-19069870D02*
X11582296Y-19050822D01*
X11582296Y-19050822D02*
X11582296Y-18879394D01*
X11772773Y-19079394D02*
X11772773Y-18974632D01*
X11772773Y-18974632D02*
X11763249Y-18955584D01*
X11763249Y-18955584D02*
X11744201Y-18946060D01*
X11744201Y-18946060D02*
X11706106Y-18946060D01*
X11706106Y-18946060D02*
X11687058Y-18955584D01*
X11772773Y-19069870D02*
X11753725Y-19079394D01*
X11753725Y-19079394D02*
X11706106Y-19079394D01*
X11706106Y-19079394D02*
X11687058Y-19069870D01*
X11687058Y-19069870D02*
X11677535Y-19050822D01*
X11677535Y-19050822D02*
X11677535Y-19031775D01*
X11677535Y-19031775D02*
X11687058Y-19012727D01*
X11687058Y-19012727D02*
X11706106Y-19003203D01*
X11706106Y-19003203D02*
X11753725Y-19003203D01*
X11753725Y-19003203D02*
X11772773Y-18993680D01*
X11839439Y-18946060D02*
X11915630Y-18946060D01*
X11868011Y-18879394D02*
X11868011Y-19050822D01*
X11868011Y-19050822D02*
X11877535Y-19069870D01*
X11877535Y-19069870D02*
X11896582Y-19079394D01*
X11896582Y-19079394D02*
X11915630Y-19079394D01*
X12058487Y-19069870D02*
X12039439Y-19079394D01*
X12039439Y-19079394D02*
X12001344Y-19079394D01*
X12001344Y-19079394D02*
X11982296Y-19069870D01*
X11982296Y-19069870D02*
X11972773Y-19050822D01*
X11972773Y-19050822D02*
X11972773Y-18974632D01*
X11972773Y-18974632D02*
X11982296Y-18955584D01*
X11982296Y-18955584D02*
X12001344Y-18946060D01*
X12001344Y-18946060D02*
X12039439Y-18946060D01*
X12039439Y-18946060D02*
X12058487Y-18955584D01*
X12058487Y-18955584D02*
X12068011Y-18974632D01*
X12068011Y-18974632D02*
X12068011Y-18993680D01*
X12068011Y-18993680D02*
X11972773Y-19012727D01*
X12239439Y-19079394D02*
X12239439Y-18879394D01*
X12239439Y-19069870D02*
X12220392Y-19079394D01*
X12220392Y-19079394D02*
X12182296Y-19079394D01*
X12182296Y-19079394D02*
X12163249Y-19069870D01*
X12163249Y-19069870D02*
X12153725Y-19060346D01*
X12153725Y-19060346D02*
X12144201Y-19041299D01*
X12144201Y-19041299D02*
X12144201Y-18984156D01*
X12144201Y-18984156D02*
X12153725Y-18965108D01*
X12153725Y-18965108D02*
X12163249Y-18955584D01*
X12163249Y-18955584D02*
X12182296Y-18946060D01*
X12182296Y-18946060D02*
X12220392Y-18946060D01*
X12220392Y-18946060D02*
X12239439Y-18955584D01*
X12315630Y-19155584D02*
X12325154Y-19146060D01*
X12325154Y-19146060D02*
X12344201Y-19117489D01*
X12344201Y-19117489D02*
X12353725Y-19098441D01*
X12353725Y-19098441D02*
X12363249Y-19069870D01*
X12363249Y-19069870D02*
X12372773Y-19022251D01*
X12372773Y-19022251D02*
X12372773Y-18984156D01*
X12372773Y-18984156D02*
X12363249Y-18936537D01*
X12363249Y-18936537D02*
X12353725Y-18907965D01*
X12353725Y-18907965D02*
X12344201Y-18888918D01*
X12344201Y-18888918D02*
X12325154Y-18860346D01*
X12325154Y-18860346D02*
X12315630Y-18850822D01*
X5269138Y-19207910D02*
X5269138Y-19407910D01*
X5169138Y-19307910D02*
X5369138Y-19307910D01*
X5610867Y-19199394D02*
X5734677Y-19199394D01*
X5734677Y-19199394D02*
X5668010Y-19275584D01*
X5668010Y-19275584D02*
X5696582Y-19275584D01*
X5696582Y-19275584D02*
X5715629Y-19285108D01*
X5715629Y-19285108D02*
X5725153Y-19294632D01*
X5725153Y-19294632D02*
X5734677Y-19313680D01*
X5734677Y-19313680D02*
X5734677Y-19361299D01*
X5734677Y-19361299D02*
X5725153Y-19380346D01*
X5725153Y-19380346D02*
X5715629Y-19389870D01*
X5715629Y-19389870D02*
X5696582Y-19399394D01*
X5696582Y-19399394D02*
X5639439Y-19399394D01*
X5639439Y-19399394D02*
X5620391Y-19389870D01*
X5620391Y-19389870D02*
X5610867Y-19380346D01*
X5820391Y-19380346D02*
X5829915Y-19389870D01*
X5829915Y-19389870D02*
X5820391Y-19399394D01*
X5820391Y-19399394D02*
X5810867Y-19389870D01*
X5810867Y-19389870D02*
X5820391Y-19380346D01*
X5820391Y-19380346D02*
X5820391Y-19399394D01*
X5925153Y-19399394D02*
X5963248Y-19399394D01*
X5963248Y-19399394D02*
X5982296Y-19389870D01*
X5982296Y-19389870D02*
X5991820Y-19380346D01*
X5991820Y-19380346D02*
X6010867Y-19351775D01*
X6010867Y-19351775D02*
X6020391Y-19313680D01*
X6020391Y-19313680D02*
X6020391Y-19237489D01*
X6020391Y-19237489D02*
X6010867Y-19218441D01*
X6010867Y-19218441D02*
X6001344Y-19208918D01*
X6001344Y-19208918D02*
X5982296Y-19199394D01*
X5982296Y-19199394D02*
X5944201Y-19199394D01*
X5944201Y-19199394D02*
X5925153Y-19208918D01*
X5925153Y-19208918D02*
X5915629Y-19218441D01*
X5915629Y-19218441D02*
X5906105Y-19237489D01*
X5906105Y-19237489D02*
X5906105Y-19285108D01*
X5906105Y-19285108D02*
X5915629Y-19304156D01*
X5915629Y-19304156D02*
X5925153Y-19313680D01*
X5925153Y-19313680D02*
X5944201Y-19323203D01*
X5944201Y-19323203D02*
X5982296Y-19323203D01*
X5982296Y-19323203D02*
X6001344Y-19313680D01*
X6001344Y-19313680D02*
X6010867Y-19304156D01*
X6010867Y-19304156D02*
X6020391Y-19285108D01*
X6134677Y-19285108D02*
X6115629Y-19275584D01*
X6115629Y-19275584D02*
X6106105Y-19266060D01*
X6106105Y-19266060D02*
X6096582Y-19247013D01*
X6096582Y-19247013D02*
X6096582Y-19237489D01*
X6096582Y-19237489D02*
X6106105Y-19218441D01*
X6106105Y-19218441D02*
X6115629Y-19208918D01*
X6115629Y-19208918D02*
X6134677Y-19199394D01*
X6134677Y-19199394D02*
X6172772Y-19199394D01*
X6172772Y-19199394D02*
X6191820Y-19208918D01*
X6191820Y-19208918D02*
X6201344Y-19218441D01*
X6201344Y-19218441D02*
X6210867Y-19237489D01*
X6210867Y-19237489D02*
X6210867Y-19247013D01*
X6210867Y-19247013D02*
X6201344Y-19266060D01*
X6201344Y-19266060D02*
X6191820Y-19275584D01*
X6191820Y-19275584D02*
X6172772Y-19285108D01*
X6172772Y-19285108D02*
X6134677Y-19285108D01*
X6134677Y-19285108D02*
X6115629Y-19294632D01*
X6115629Y-19294632D02*
X6106105Y-19304156D01*
X6106105Y-19304156D02*
X6096582Y-19323203D01*
X6096582Y-19323203D02*
X6096582Y-19361299D01*
X6096582Y-19361299D02*
X6106105Y-19380346D01*
X6106105Y-19380346D02*
X6115629Y-19389870D01*
X6115629Y-19389870D02*
X6134677Y-19399394D01*
X6134677Y-19399394D02*
X6172772Y-19399394D01*
X6172772Y-19399394D02*
X6191820Y-19389870D01*
X6191820Y-19389870D02*
X6201344Y-19380346D01*
X6201344Y-19380346D02*
X6210867Y-19361299D01*
X6210867Y-19361299D02*
X6210867Y-19323203D01*
X6210867Y-19323203D02*
X6201344Y-19304156D01*
X6201344Y-19304156D02*
X6191820Y-19294632D01*
X6191820Y-19294632D02*
X6172772Y-19285108D01*
X6325153Y-19285108D02*
X6306105Y-19275584D01*
X6306105Y-19275584D02*
X6296582Y-19266060D01*
X6296582Y-19266060D02*
X6287058Y-19247013D01*
X6287058Y-19247013D02*
X6287058Y-19237489D01*
X6287058Y-19237489D02*
X6296582Y-19218441D01*
X6296582Y-19218441D02*
X6306105Y-19208918D01*
X6306105Y-19208918D02*
X6325153Y-19199394D01*
X6325153Y-19199394D02*
X6363248Y-19199394D01*
X6363248Y-19199394D02*
X6382296Y-19208918D01*
X6382296Y-19208918D02*
X6391820Y-19218441D01*
X6391820Y-19218441D02*
X6401344Y-19237489D01*
X6401344Y-19237489D02*
X6401344Y-19247013D01*
X6401344Y-19247013D02*
X6391820Y-19266060D01*
X6391820Y-19266060D02*
X6382296Y-19275584D01*
X6382296Y-19275584D02*
X6363248Y-19285108D01*
X6363248Y-19285108D02*
X6325153Y-19285108D01*
X6325153Y-19285108D02*
X6306105Y-19294632D01*
X6306105Y-19294632D02*
X6296582Y-19304156D01*
X6296582Y-19304156D02*
X6287058Y-19323203D01*
X6287058Y-19323203D02*
X6287058Y-19361299D01*
X6287058Y-19361299D02*
X6296582Y-19380346D01*
X6296582Y-19380346D02*
X6306105Y-19389870D01*
X6306105Y-19389870D02*
X6325153Y-19399394D01*
X6325153Y-19399394D02*
X6363248Y-19399394D01*
X6363248Y-19399394D02*
X6382296Y-19389870D01*
X6382296Y-19389870D02*
X6391820Y-19380346D01*
X6391820Y-19380346D02*
X6401344Y-19361299D01*
X6401344Y-19361299D02*
X6401344Y-19323203D01*
X6401344Y-19323203D02*
X6391820Y-19304156D01*
X6391820Y-19304156D02*
X6382296Y-19294632D01*
X6382296Y-19294632D02*
X6363248Y-19285108D01*
X6487058Y-19399394D02*
X6487058Y-19266060D01*
X6487058Y-19285108D02*
X6496582Y-19275584D01*
X6496582Y-19275584D02*
X6515629Y-19266060D01*
X6515629Y-19266060D02*
X6544201Y-19266060D01*
X6544201Y-19266060D02*
X6563248Y-19275584D01*
X6563248Y-19275584D02*
X6572772Y-19294632D01*
X6572772Y-19294632D02*
X6572772Y-19399394D01*
X6572772Y-19294632D02*
X6582296Y-19275584D01*
X6582296Y-19275584D02*
X6601344Y-19266060D01*
X6601344Y-19266060D02*
X6629915Y-19266060D01*
X6629915Y-19266060D02*
X6648963Y-19275584D01*
X6648963Y-19275584D02*
X6658486Y-19294632D01*
X6658486Y-19294632D02*
X6658486Y-19399394D01*
X6753725Y-19399394D02*
X6753725Y-19266060D01*
X6753725Y-19285108D02*
X6763248Y-19275584D01*
X6763248Y-19275584D02*
X6782296Y-19266060D01*
X6782296Y-19266060D02*
X6810867Y-19266060D01*
X6810867Y-19266060D02*
X6829915Y-19275584D01*
X6829915Y-19275584D02*
X6839439Y-19294632D01*
X6839439Y-19294632D02*
X6839439Y-19399394D01*
X6839439Y-19294632D02*
X6848963Y-19275584D01*
X6848963Y-19275584D02*
X6868010Y-19266060D01*
X6868010Y-19266060D02*
X6896582Y-19266060D01*
X6896582Y-19266060D02*
X6915629Y-19275584D01*
X6915629Y-19275584D02*
X6925153Y-19294632D01*
X6925153Y-19294632D02*
X6925153Y-19399394D01*
X7315629Y-19189870D02*
X7144201Y-19447013D01*
X7572772Y-19199394D02*
X7591820Y-19199394D01*
X7591820Y-19199394D02*
X7610868Y-19208918D01*
X7610868Y-19208918D02*
X7620391Y-19218441D01*
X7620391Y-19218441D02*
X7629915Y-19237489D01*
X7629915Y-19237489D02*
X7639439Y-19275584D01*
X7639439Y-19275584D02*
X7639439Y-19323203D01*
X7639439Y-19323203D02*
X7629915Y-19361299D01*
X7629915Y-19361299D02*
X7620391Y-19380346D01*
X7620391Y-19380346D02*
X7610868Y-19389870D01*
X7610868Y-19389870D02*
X7591820Y-19399394D01*
X7591820Y-19399394D02*
X7572772Y-19399394D01*
X7572772Y-19399394D02*
X7553725Y-19389870D01*
X7553725Y-19389870D02*
X7544201Y-19380346D01*
X7544201Y-19380346D02*
X7534677Y-19361299D01*
X7534677Y-19361299D02*
X7525153Y-19323203D01*
X7525153Y-19323203D02*
X7525153Y-19275584D01*
X7525153Y-19275584D02*
X7534677Y-19237489D01*
X7534677Y-19237489D02*
X7544201Y-19218441D01*
X7544201Y-19218441D02*
X7553725Y-19208918D01*
X7553725Y-19208918D02*
X7572772Y-19199394D01*
X7725153Y-19380346D02*
X7734677Y-19389870D01*
X7734677Y-19389870D02*
X7725153Y-19399394D01*
X7725153Y-19399394D02*
X7715629Y-19389870D01*
X7715629Y-19389870D02*
X7725153Y-19380346D01*
X7725153Y-19380346D02*
X7725153Y-19399394D01*
X7925153Y-19399394D02*
X7810868Y-19399394D01*
X7868010Y-19399394D02*
X7868010Y-19199394D01*
X7868010Y-19199394D02*
X7848963Y-19227965D01*
X7848963Y-19227965D02*
X7829915Y-19247013D01*
X7829915Y-19247013D02*
X7810868Y-19256537D01*
X8106106Y-19199394D02*
X8010868Y-19199394D01*
X8010868Y-19199394D02*
X8001344Y-19294632D01*
X8001344Y-19294632D02*
X8010868Y-19285108D01*
X8010868Y-19285108D02*
X8029915Y-19275584D01*
X8029915Y-19275584D02*
X8077534Y-19275584D01*
X8077534Y-19275584D02*
X8096582Y-19285108D01*
X8096582Y-19285108D02*
X8106106Y-19294632D01*
X8106106Y-19294632D02*
X8115629Y-19313680D01*
X8115629Y-19313680D02*
X8115629Y-19361299D01*
X8115629Y-19361299D02*
X8106106Y-19380346D01*
X8106106Y-19380346D02*
X8096582Y-19389870D01*
X8096582Y-19389870D02*
X8077534Y-19399394D01*
X8077534Y-19399394D02*
X8029915Y-19399394D01*
X8029915Y-19399394D02*
X8010868Y-19389870D01*
X8010868Y-19389870D02*
X8001344Y-19380346D01*
X8182296Y-19199394D02*
X8315629Y-19199394D01*
X8315629Y-19199394D02*
X8229915Y-19399394D01*
X8429915Y-19199394D02*
X8448963Y-19199394D01*
X8448963Y-19199394D02*
X8468011Y-19208918D01*
X8468011Y-19208918D02*
X8477534Y-19218441D01*
X8477534Y-19218441D02*
X8487058Y-19237489D01*
X8487058Y-19237489D02*
X8496582Y-19275584D01*
X8496582Y-19275584D02*
X8496582Y-19323203D01*
X8496582Y-19323203D02*
X8487058Y-19361299D01*
X8487058Y-19361299D02*
X8477534Y-19380346D01*
X8477534Y-19380346D02*
X8468011Y-19389870D01*
X8468011Y-19389870D02*
X8448963Y-19399394D01*
X8448963Y-19399394D02*
X8429915Y-19399394D01*
X8429915Y-19399394D02*
X8410868Y-19389870D01*
X8410868Y-19389870D02*
X8401344Y-19380346D01*
X8401344Y-19380346D02*
X8391820Y-19361299D01*
X8391820Y-19361299D02*
X8382296Y-19323203D01*
X8382296Y-19323203D02*
X8382296Y-19275584D01*
X8382296Y-19275584D02*
X8391820Y-19237489D01*
X8391820Y-19237489D02*
X8401344Y-19218441D01*
X8401344Y-19218441D02*
X8410868Y-19208918D01*
X8410868Y-19208918D02*
X8429915Y-19199394D01*
X8572772Y-19199394D02*
X8572772Y-19237489D01*
X8648963Y-19199394D02*
X8648963Y-19237489D01*
X8944201Y-19475584D02*
X8934677Y-19466060D01*
X8934677Y-19466060D02*
X8915630Y-19437489D01*
X8915630Y-19437489D02*
X8906106Y-19418441D01*
X8906106Y-19418441D02*
X8896582Y-19389870D01*
X8896582Y-19389870D02*
X8887058Y-19342251D01*
X8887058Y-19342251D02*
X8887058Y-19304156D01*
X8887058Y-19304156D02*
X8896582Y-19256537D01*
X8896582Y-19256537D02*
X8906106Y-19227965D01*
X8906106Y-19227965D02*
X8915630Y-19208918D01*
X8915630Y-19208918D02*
X8934677Y-19180346D01*
X8934677Y-19180346D02*
X8944201Y-19170822D01*
X9048963Y-19285108D02*
X9029915Y-19275584D01*
X9029915Y-19275584D02*
X9020392Y-19266060D01*
X9020392Y-19266060D02*
X9010868Y-19247013D01*
X9010868Y-19247013D02*
X9010868Y-19237489D01*
X9010868Y-19237489D02*
X9020392Y-19218441D01*
X9020392Y-19218441D02*
X9029915Y-19208918D01*
X9029915Y-19208918D02*
X9048963Y-19199394D01*
X9048963Y-19199394D02*
X9087058Y-19199394D01*
X9087058Y-19199394D02*
X9106106Y-19208918D01*
X9106106Y-19208918D02*
X9115630Y-19218441D01*
X9115630Y-19218441D02*
X9125153Y-19237489D01*
X9125153Y-19237489D02*
X9125153Y-19247013D01*
X9125153Y-19247013D02*
X9115630Y-19266060D01*
X9115630Y-19266060D02*
X9106106Y-19275584D01*
X9106106Y-19275584D02*
X9087058Y-19285108D01*
X9087058Y-19285108D02*
X9048963Y-19285108D01*
X9048963Y-19285108D02*
X9029915Y-19294632D01*
X9029915Y-19294632D02*
X9020392Y-19304156D01*
X9020392Y-19304156D02*
X9010868Y-19323203D01*
X9010868Y-19323203D02*
X9010868Y-19361299D01*
X9010868Y-19361299D02*
X9020392Y-19380346D01*
X9020392Y-19380346D02*
X9029915Y-19389870D01*
X9029915Y-19389870D02*
X9048963Y-19399394D01*
X9048963Y-19399394D02*
X9087058Y-19399394D01*
X9087058Y-19399394D02*
X9106106Y-19389870D01*
X9106106Y-19389870D02*
X9115630Y-19380346D01*
X9115630Y-19380346D02*
X9125153Y-19361299D01*
X9125153Y-19361299D02*
X9125153Y-19323203D01*
X9125153Y-19323203D02*
X9115630Y-19304156D01*
X9115630Y-19304156D02*
X9106106Y-19294632D01*
X9106106Y-19294632D02*
X9087058Y-19285108D01*
X9248963Y-19199394D02*
X9268011Y-19199394D01*
X9268011Y-19199394D02*
X9287058Y-19208918D01*
X9287058Y-19208918D02*
X9296582Y-19218441D01*
X9296582Y-19218441D02*
X9306106Y-19237489D01*
X9306106Y-19237489D02*
X9315630Y-19275584D01*
X9315630Y-19275584D02*
X9315630Y-19323203D01*
X9315630Y-19323203D02*
X9306106Y-19361299D01*
X9306106Y-19361299D02*
X9296582Y-19380346D01*
X9296582Y-19380346D02*
X9287058Y-19389870D01*
X9287058Y-19389870D02*
X9268011Y-19399394D01*
X9268011Y-19399394D02*
X9248963Y-19399394D01*
X9248963Y-19399394D02*
X9229915Y-19389870D01*
X9229915Y-19389870D02*
X9220392Y-19380346D01*
X9220392Y-19380346D02*
X9210868Y-19361299D01*
X9210868Y-19361299D02*
X9201344Y-19323203D01*
X9201344Y-19323203D02*
X9201344Y-19275584D01*
X9201344Y-19275584D02*
X9210868Y-19237489D01*
X9210868Y-19237489D02*
X9220392Y-19218441D01*
X9220392Y-19218441D02*
X9229915Y-19208918D01*
X9229915Y-19208918D02*
X9248963Y-19199394D01*
X9553725Y-19399394D02*
X9553725Y-19199394D01*
X9639439Y-19399394D02*
X9639439Y-19294632D01*
X9639439Y-19294632D02*
X9629915Y-19275584D01*
X9629915Y-19275584D02*
X9610868Y-19266060D01*
X9610868Y-19266060D02*
X9582296Y-19266060D01*
X9582296Y-19266060D02*
X9563249Y-19275584D01*
X9563249Y-19275584D02*
X9553725Y-19285108D01*
X9763249Y-19399394D02*
X9744201Y-19389870D01*
X9744201Y-19389870D02*
X9734677Y-19380346D01*
X9734677Y-19380346D02*
X9725154Y-19361299D01*
X9725154Y-19361299D02*
X9725154Y-19304156D01*
X9725154Y-19304156D02*
X9734677Y-19285108D01*
X9734677Y-19285108D02*
X9744201Y-19275584D01*
X9744201Y-19275584D02*
X9763249Y-19266060D01*
X9763249Y-19266060D02*
X9791820Y-19266060D01*
X9791820Y-19266060D02*
X9810868Y-19275584D01*
X9810868Y-19275584D02*
X9820392Y-19285108D01*
X9820392Y-19285108D02*
X9829915Y-19304156D01*
X9829915Y-19304156D02*
X9829915Y-19361299D01*
X9829915Y-19361299D02*
X9820392Y-19380346D01*
X9820392Y-19380346D02*
X9810868Y-19389870D01*
X9810868Y-19389870D02*
X9791820Y-19399394D01*
X9791820Y-19399394D02*
X9763249Y-19399394D01*
X9944201Y-19399394D02*
X9925154Y-19389870D01*
X9925154Y-19389870D02*
X9915630Y-19370822D01*
X9915630Y-19370822D02*
X9915630Y-19199394D01*
X10096582Y-19389870D02*
X10077535Y-19399394D01*
X10077535Y-19399394D02*
X10039439Y-19399394D01*
X10039439Y-19399394D02*
X10020392Y-19389870D01*
X10020392Y-19389870D02*
X10010868Y-19370822D01*
X10010868Y-19370822D02*
X10010868Y-19294632D01*
X10010868Y-19294632D02*
X10020392Y-19275584D01*
X10020392Y-19275584D02*
X10039439Y-19266060D01*
X10039439Y-19266060D02*
X10077535Y-19266060D01*
X10077535Y-19266060D02*
X10096582Y-19275584D01*
X10096582Y-19275584D02*
X10106106Y-19294632D01*
X10106106Y-19294632D02*
X10106106Y-19313680D01*
X10106106Y-19313680D02*
X10010868Y-19332727D01*
X10182296Y-19389870D02*
X10201344Y-19399394D01*
X10201344Y-19399394D02*
X10239439Y-19399394D01*
X10239439Y-19399394D02*
X10258487Y-19389870D01*
X10258487Y-19389870D02*
X10268011Y-19370822D01*
X10268011Y-19370822D02*
X10268011Y-19361299D01*
X10268011Y-19361299D02*
X10258487Y-19342251D01*
X10258487Y-19342251D02*
X10239439Y-19332727D01*
X10239439Y-19332727D02*
X10210868Y-19332727D01*
X10210868Y-19332727D02*
X10191820Y-19323203D01*
X10191820Y-19323203D02*
X10182296Y-19304156D01*
X10182296Y-19304156D02*
X10182296Y-19294632D01*
X10182296Y-19294632D02*
X10191820Y-19275584D01*
X10191820Y-19275584D02*
X10210868Y-19266060D01*
X10210868Y-19266060D02*
X10239439Y-19266060D01*
X10239439Y-19266060D02*
X10258487Y-19275584D01*
X10334677Y-19475584D02*
X10344201Y-19466060D01*
X10344201Y-19466060D02*
X10363249Y-19437489D01*
X10363249Y-19437489D02*
X10372773Y-19418441D01*
X10372773Y-19418441D02*
X10382296Y-19389870D01*
X10382296Y-19389870D02*
X10391820Y-19342251D01*
X10391820Y-19342251D02*
X10391820Y-19304156D01*
X10391820Y-19304156D02*
X10382296Y-19256537D01*
X10382296Y-19256537D02*
X10372773Y-19227965D01*
X10372773Y-19227965D02*
X10363249Y-19208918D01*
X10363249Y-19208918D02*
X10344201Y-19180346D01*
X10344201Y-19180346D02*
X10334677Y-19170822D01*
X10696582Y-19475584D02*
X10687058Y-19466060D01*
X10687058Y-19466060D02*
X10668011Y-19437489D01*
X10668011Y-19437489D02*
X10658487Y-19418441D01*
X10658487Y-19418441D02*
X10648963Y-19389870D01*
X10648963Y-19389870D02*
X10639439Y-19342251D01*
X10639439Y-19342251D02*
X10639439Y-19304156D01*
X10639439Y-19304156D02*
X10648963Y-19256537D01*
X10648963Y-19256537D02*
X10658487Y-19227965D01*
X10658487Y-19227965D02*
X10668011Y-19208918D01*
X10668011Y-19208918D02*
X10687058Y-19180346D01*
X10687058Y-19180346D02*
X10696582Y-19170822D01*
X10772773Y-19266060D02*
X10772773Y-19399394D01*
X10772773Y-19285108D02*
X10782296Y-19275584D01*
X10782296Y-19275584D02*
X10801344Y-19266060D01*
X10801344Y-19266060D02*
X10829916Y-19266060D01*
X10829916Y-19266060D02*
X10848963Y-19275584D01*
X10848963Y-19275584D02*
X10858487Y-19294632D01*
X10858487Y-19294632D02*
X10858487Y-19399394D01*
X10982296Y-19399394D02*
X10963249Y-19389870D01*
X10963249Y-19389870D02*
X10953725Y-19380346D01*
X10953725Y-19380346D02*
X10944201Y-19361299D01*
X10944201Y-19361299D02*
X10944201Y-19304156D01*
X10944201Y-19304156D02*
X10953725Y-19285108D01*
X10953725Y-19285108D02*
X10963249Y-19275584D01*
X10963249Y-19275584D02*
X10982296Y-19266060D01*
X10982296Y-19266060D02*
X11010868Y-19266060D01*
X11010868Y-19266060D02*
X11029916Y-19275584D01*
X11029916Y-19275584D02*
X11039439Y-19285108D01*
X11039439Y-19285108D02*
X11048963Y-19304156D01*
X11048963Y-19304156D02*
X11048963Y-19361299D01*
X11048963Y-19361299D02*
X11039439Y-19380346D01*
X11039439Y-19380346D02*
X11029916Y-19389870D01*
X11029916Y-19389870D02*
X11010868Y-19399394D01*
X11010868Y-19399394D02*
X10982296Y-19399394D01*
X11106106Y-19266060D02*
X11182296Y-19266060D01*
X11134677Y-19199394D02*
X11134677Y-19370822D01*
X11134677Y-19370822D02*
X11144201Y-19389870D01*
X11144201Y-19389870D02*
X11163249Y-19399394D01*
X11163249Y-19399394D02*
X11182296Y-19399394D01*
X11401344Y-19266060D02*
X11401344Y-19466060D01*
X11401344Y-19275584D02*
X11420392Y-19266060D01*
X11420392Y-19266060D02*
X11458487Y-19266060D01*
X11458487Y-19266060D02*
X11477535Y-19275584D01*
X11477535Y-19275584D02*
X11487058Y-19285108D01*
X11487058Y-19285108D02*
X11496582Y-19304156D01*
X11496582Y-19304156D02*
X11496582Y-19361299D01*
X11496582Y-19361299D02*
X11487058Y-19380346D01*
X11487058Y-19380346D02*
X11477535Y-19389870D01*
X11477535Y-19389870D02*
X11458487Y-19399394D01*
X11458487Y-19399394D02*
X11420392Y-19399394D01*
X11420392Y-19399394D02*
X11401344Y-19389870D01*
X11610868Y-19399394D02*
X11591820Y-19389870D01*
X11591820Y-19389870D02*
X11582296Y-19370822D01*
X11582296Y-19370822D02*
X11582296Y-19199394D01*
X11772773Y-19399394D02*
X11772773Y-19294632D01*
X11772773Y-19294632D02*
X11763249Y-19275584D01*
X11763249Y-19275584D02*
X11744201Y-19266060D01*
X11744201Y-19266060D02*
X11706106Y-19266060D01*
X11706106Y-19266060D02*
X11687058Y-19275584D01*
X11772773Y-19389870D02*
X11753725Y-19399394D01*
X11753725Y-19399394D02*
X11706106Y-19399394D01*
X11706106Y-19399394D02*
X11687058Y-19389870D01*
X11687058Y-19389870D02*
X11677535Y-19370822D01*
X11677535Y-19370822D02*
X11677535Y-19351775D01*
X11677535Y-19351775D02*
X11687058Y-19332727D01*
X11687058Y-19332727D02*
X11706106Y-19323203D01*
X11706106Y-19323203D02*
X11753725Y-19323203D01*
X11753725Y-19323203D02*
X11772773Y-19313680D01*
X11839439Y-19266060D02*
X11915630Y-19266060D01*
X11868011Y-19199394D02*
X11868011Y-19370822D01*
X11868011Y-19370822D02*
X11877535Y-19389870D01*
X11877535Y-19389870D02*
X11896582Y-19399394D01*
X11896582Y-19399394D02*
X11915630Y-19399394D01*
X12058487Y-19389870D02*
X12039439Y-19399394D01*
X12039439Y-19399394D02*
X12001344Y-19399394D01*
X12001344Y-19399394D02*
X11982296Y-19389870D01*
X11982296Y-19389870D02*
X11972773Y-19370822D01*
X11972773Y-19370822D02*
X11972773Y-19294632D01*
X11972773Y-19294632D02*
X11982296Y-19275584D01*
X11982296Y-19275584D02*
X12001344Y-19266060D01*
X12001344Y-19266060D02*
X12039439Y-19266060D01*
X12039439Y-19266060D02*
X12058487Y-19275584D01*
X12058487Y-19275584D02*
X12068011Y-19294632D01*
X12068011Y-19294632D02*
X12068011Y-19313680D01*
X12068011Y-19313680D02*
X11972773Y-19332727D01*
X12239439Y-19399394D02*
X12239439Y-19199394D01*
X12239439Y-19389870D02*
X12220392Y-19399394D01*
X12220392Y-19399394D02*
X12182296Y-19399394D01*
X12182296Y-19399394D02*
X12163249Y-19389870D01*
X12163249Y-19389870D02*
X12153725Y-19380346D01*
X12153725Y-19380346D02*
X12144201Y-19361299D01*
X12144201Y-19361299D02*
X12144201Y-19304156D01*
X12144201Y-19304156D02*
X12153725Y-19285108D01*
X12153725Y-19285108D02*
X12163249Y-19275584D01*
X12163249Y-19275584D02*
X12182296Y-19266060D01*
X12182296Y-19266060D02*
X12220392Y-19266060D01*
X12220392Y-19266060D02*
X12239439Y-19275584D01*
X12315630Y-19475584D02*
X12325154Y-19466060D01*
X12325154Y-19466060D02*
X12344201Y-19437489D01*
X12344201Y-19437489D02*
X12353725Y-19418441D01*
X12353725Y-19418441D02*
X12363249Y-19389870D01*
X12363249Y-19389870D02*
X12372773Y-19342251D01*
X12372773Y-19342251D02*
X12372773Y-19304156D01*
X12372773Y-19304156D02*
X12363249Y-19256537D01*
X12363249Y-19256537D02*
X12353725Y-19227965D01*
X12353725Y-19227965D02*
X12344201Y-19208918D01*
X12344201Y-19208918D02*
X12325154Y-19180346D01*
X12325154Y-19180346D02*
X12315630Y-19170822D01*
M02*
