M48
; DRILL file {KiCad 9.0.0} date 2025-03-06T14:32:36+0000
; FORMAT={-:-/ absolute / metric / decimal}
; #@! TF.CreationDate,2025-03-06T14:32:36+00:00
; #@! TF.GenerationSoftware,Kicad,Pcbnew,9.0.0
; #@! TF.FileFunction,NonPlated,1,2,NPTH
FMAT,2
METRIC
; #@! TA.AperFunction,NonPlated,NPTH,ComponentDrill
T1C1.702
; #@! TA.AperFunction,NonPlated,NPTH,ComponentDrill
T2C3.048
; #@! TA.AperFunction,NonPlated,NPTH,ComponentDrill
T3C3.988
%
G90
G05
T1
X58.261Y-94.774
X60.642Y-170.964
X63.024Y-113.824
X65.405Y-132.864
X68.421Y-94.774
X70.167Y-151.924
X70.802Y-170.964
X73.184Y-113.824
X75.565Y-132.864
X77.311Y-94.774
X80.327Y-151.924
X84.455Y-170.974
X86.836Y-113.824
X87.471Y-94.774
X91.599Y-132.874
X94.615Y-170.974
X96.361Y-94.774
X96.996Y-113.824
X101.124Y-151.924
X101.759Y-132.874
X105.886Y-113.824
X106.521Y-94.774
X108.267Y-170.964
X110.649Y-132.874
X111.284Y-151.924
X115.411Y-94.774
X116.046Y-113.824
X118.427Y-170.964
X120.174Y-151.924
X120.809Y-132.874
X124.936Y-113.824
X125.571Y-94.774
X129.699Y-132.874
X130.334Y-151.924
X134.461Y-94.774
X135.096Y-113.824
X139.224Y-151.924
X139.859Y-132.874
X143.986Y-113.824
X144.621Y-94.774
X148.748Y-132.874
X149.384Y-151.924
X153.511Y-94.774
X154.146Y-113.824
X158.274Y-151.924
X158.908Y-132.874
X163.036Y-113.824
X163.671Y-94.774
X167.798Y-132.874
X168.434Y-151.924
X172.561Y-94.774
X173.196Y-113.824
X177.324Y-151.924
X177.958Y-132.874
X182.086Y-113.824
X182.721Y-94.774
X186.848Y-132.874
X186.849Y-170.974
X187.484Y-151.924
X191.611Y-94.774
X192.246Y-113.824
X196.374Y-151.924
X197.008Y-132.874
X197.009Y-170.974
X201.136Y-113.824
X201.771Y-94.774
X205.898Y-132.874
X206.534Y-151.924
X210.661Y-94.774
X211.296Y-113.824
X215.424Y-151.924
X216.058Y-132.874
X220.186Y-113.824
X220.821Y-94.774
X224.948Y-132.874
X225.584Y-151.924
X229.711Y-94.774
X230.346Y-113.824
X234.474Y-151.924
X235.108Y-132.874
X239.236Y-113.824
X239.871Y-94.774
X243.998Y-132.874
X244.634Y-151.924
X248.761Y-94.774
X249.396Y-113.824
X253.524Y-151.924
X254.158Y-132.874
X258.286Y-113.824
X258.921Y-94.774
X263.048Y-132.874
X263.684Y-151.924
X267.811Y-94.774
X267.813Y-170.974
X268.446Y-113.824
X272.574Y-151.924
X273.208Y-132.874
X277.336Y-113.824
X277.971Y-94.774
X277.973Y-170.974
X282.098Y-132.874
X282.734Y-151.924
X286.861Y-94.774
X287.496Y-113.824
X292.258Y-132.874
X296.369Y-170.974
X296.386Y-113.824
X297.021Y-94.774
X306.529Y-170.974
X306.546Y-113.824
X308.293Y-151.924
X313.055Y-132.874
X315.436Y-94.774
X318.453Y-151.924
X320.198Y-113.824
X322.563Y-170.974
X323.215Y-132.874
X325.596Y-94.774
X330.358Y-113.824
X332.723Y-170.974
X353.288Y-94.783
X353.288Y-113.833
X353.288Y-170.974
X363.448Y-94.783
X363.448Y-113.833
X363.448Y-170.974
X372.338Y-94.774
X372.338Y-113.824
X372.338Y-151.924
X372.338Y-170.974
X382.498Y-94.774
X382.498Y-113.824
X382.498Y-151.924
X382.498Y-170.974
X391.388Y-94.774
X391.388Y-113.824
X391.388Y-170.974
X401.548Y-94.774
X401.548Y-113.824
X401.548Y-170.974
T2
X63.309Y-144.939
X87.185Y-144.939
X134.779Y-177.959
X249.079Y-177.959
X301.435Y-144.939
X306.197Y-125.889
X308.578Y-87.789
X325.311Y-144.939
X330.073Y-125.889
X332.454Y-87.789
T3
X63.309Y-160.179
X63.341Y-94.774
X65.722Y-170.964
X68.104Y-113.824
X70.485Y-132.864
X75.247Y-151.924
X82.391Y-94.774
X87.185Y-160.179
X89.535Y-170.974
X91.916Y-113.824
X96.679Y-132.874
X101.441Y-94.774
X106.204Y-151.924
X110.966Y-113.824
X113.347Y-170.964
X115.729Y-132.874
X120.491Y-94.774
X125.254Y-151.924
X130.016Y-113.824
X134.779Y-132.874
X134.779Y-162.719
X139.541Y-94.774
X144.304Y-151.924
X149.066Y-113.824
X153.828Y-132.874
X158.591Y-94.774
X163.354Y-151.924
X168.116Y-113.824
X172.878Y-132.874
X177.641Y-94.774
X182.404Y-151.924
X187.166Y-113.824
X191.928Y-132.874
X191.929Y-170.974
X196.691Y-94.774
X201.454Y-151.924
X206.216Y-113.824
X210.978Y-132.874
X215.741Y-94.774
X220.504Y-151.924
X225.266Y-113.824
X230.028Y-132.874
X234.791Y-94.774
X239.554Y-151.924
X244.316Y-113.824
X249.078Y-132.874
X249.079Y-162.719
X253.841Y-94.774
X258.604Y-151.924
X263.366Y-113.824
X268.128Y-132.874
X272.891Y-94.774
X272.893Y-170.974
X277.654Y-151.924
X282.416Y-113.824
X287.178Y-132.874
X291.941Y-94.774
X301.435Y-160.179
X301.449Y-170.974
X301.466Y-113.824
X306.197Y-141.129
X308.578Y-103.029
X313.373Y-151.924
X318.135Y-132.874
X320.516Y-94.774
X325.278Y-113.824
X325.311Y-160.179
X327.643Y-170.974
X330.073Y-141.129
X332.454Y-103.029
X358.368Y-94.783
X358.368Y-113.833
X358.368Y-170.974
X377.418Y-94.774
X377.418Y-113.824
X377.418Y-151.924
X377.418Y-170.974
X396.468Y-94.774
X396.468Y-113.824
X396.468Y-170.974
M30
