%TF.GenerationSoftware,KiCad,Pcbnew,9.0.0*%
%TF.CreationDate,2025-03-11T22:24:47+00:00*%
%TF.ProjectId,base,62617365-2e6b-4696-9361-645f70636258,rev?*%
%TF.SameCoordinates,Original*%
%TF.FileFunction,Soldermask,Bot*%
%TF.FilePolarity,Negative*%
%FSLAX46Y46*%
G04 Gerber Fmt 4.6, Leading zero omitted, Abs format (unit mm)*
G04 Created by KiCad (PCBNEW 9.0.0) date 2025-03-11 22:24:47*
%MOMM*%
%LPD*%
G01*
G04 APERTURE LIST*
G04 APERTURE END LIST*
G36*
X205627272Y-166161327D02*
G01*
X205638480Y-166161327D01*
X205693678Y-166170069D01*
X205819324Y-166186611D01*
X205849979Y-166194825D01*
X205878864Y-166199400D01*
X205934410Y-166217448D01*
X206015257Y-166239111D01*
X206066840Y-166260477D01*
X206110332Y-166274609D01*
X206151076Y-166295369D01*
X206202660Y-166316736D01*
X206275143Y-166358584D01*
X206327185Y-166385101D01*
X206350845Y-166402291D01*
X206378329Y-166418159D01*
X206478864Y-166495302D01*
X206524084Y-166528156D01*
X206532009Y-166536081D01*
X206539256Y-166541642D01*
X206682693Y-166685079D01*
X206688253Y-166692325D01*
X206696180Y-166700252D01*
X206729037Y-166745476D01*
X206806176Y-166846006D01*
X206822042Y-166873487D01*
X206839235Y-166897151D01*
X206865754Y-166949198D01*
X206907599Y-167021675D01*
X206928963Y-167073252D01*
X206949727Y-167114004D01*
X206963860Y-167157501D01*
X206985224Y-167209078D01*
X207006883Y-167289912D01*
X207024936Y-167345472D01*
X207029511Y-167374362D01*
X207037724Y-167405011D01*
X207054264Y-167530645D01*
X207063009Y-167585856D01*
X207063009Y-167597064D01*
X207064202Y-167606126D01*
X207064202Y-167808965D01*
X207063009Y-167818026D01*
X207063009Y-167829236D01*
X207054263Y-167884451D01*
X207037724Y-168010080D01*
X207029512Y-168040726D01*
X207024936Y-168069620D01*
X207006881Y-168125184D01*
X206985224Y-168206013D01*
X206963861Y-168257585D01*
X206949727Y-168301088D01*
X206928961Y-168341843D01*
X206907599Y-168393416D01*
X206865758Y-168465884D01*
X206839235Y-168517941D01*
X206822039Y-168541608D01*
X206806176Y-168569085D01*
X206729051Y-168669596D01*
X206696180Y-168714840D01*
X206688249Y-168722770D01*
X206682693Y-168730012D01*
X206539256Y-168873449D01*
X206532014Y-168879005D01*
X206524084Y-168886936D01*
X206478840Y-168919807D01*
X206378329Y-168996932D01*
X206350852Y-169012795D01*
X206327185Y-169029991D01*
X206275128Y-169056514D01*
X206202660Y-169098355D01*
X206151087Y-169119717D01*
X206110332Y-169140483D01*
X206066829Y-169154617D01*
X206015257Y-169175980D01*
X205934428Y-169197637D01*
X205878864Y-169215692D01*
X205849970Y-169220268D01*
X205819324Y-169228480D01*
X205693692Y-169245020D01*
X205638480Y-169253765D01*
X205627271Y-169253765D01*
X205618210Y-169254958D01*
X205415370Y-169254958D01*
X205406309Y-169253765D01*
X205395100Y-169253765D01*
X205339889Y-169245020D01*
X205214255Y-169228480D01*
X205183606Y-169220267D01*
X205154716Y-169215692D01*
X205099156Y-169197639D01*
X205018322Y-169175980D01*
X204966745Y-169154616D01*
X204923248Y-169140483D01*
X204882496Y-169119719D01*
X204830919Y-169098355D01*
X204758442Y-169056510D01*
X204706395Y-169029991D01*
X204682731Y-169012798D01*
X204655250Y-168996932D01*
X204554720Y-168919793D01*
X204509496Y-168886936D01*
X204501569Y-168879009D01*
X204494323Y-168873449D01*
X204350886Y-168730012D01*
X204345325Y-168722765D01*
X204337400Y-168714840D01*
X204304546Y-168669620D01*
X204227403Y-168569085D01*
X204211535Y-168541601D01*
X204194345Y-168517941D01*
X204167828Y-168465899D01*
X204125980Y-168393416D01*
X204104613Y-168341832D01*
X204083853Y-168301088D01*
X204069721Y-168257596D01*
X204048355Y-168206013D01*
X204026692Y-168125166D01*
X204008644Y-168069620D01*
X204004069Y-168040735D01*
X203995855Y-168010080D01*
X203979314Y-167884437D01*
X203970571Y-167829236D01*
X203970571Y-167818026D01*
X203969378Y-167808965D01*
X203969378Y-167606126D01*
X203970571Y-167597064D01*
X203970571Y-167585856D01*
X203979313Y-167530659D01*
X203995855Y-167405011D01*
X204004069Y-167374353D01*
X204008644Y-167345472D01*
X204026690Y-167289929D01*
X204048355Y-167209078D01*
X204069723Y-167157490D01*
X204083853Y-167114004D01*
X204104611Y-167073263D01*
X204125980Y-167021675D01*
X204167832Y-166949183D01*
X204194345Y-166897151D01*
X204211532Y-166873494D01*
X204227403Y-166846006D01*
X204304560Y-166745452D01*
X204337400Y-166700252D01*
X204345322Y-166692329D01*
X204350886Y-166685079D01*
X204494323Y-166541642D01*
X204501573Y-166536078D01*
X204509496Y-166528156D01*
X204554696Y-166495316D01*
X204655250Y-166418159D01*
X204682738Y-166402288D01*
X204706395Y-166385101D01*
X204758427Y-166358588D01*
X204830919Y-166316736D01*
X204882507Y-166295367D01*
X204923248Y-166274609D01*
X204966734Y-166260479D01*
X205018322Y-166239111D01*
X205099173Y-166217446D01*
X205154716Y-166199400D01*
X205183597Y-166194825D01*
X205214255Y-166186611D01*
X205339903Y-166170069D01*
X205395100Y-166161327D01*
X205406308Y-166161327D01*
X205415370Y-166160134D01*
X205618210Y-166160134D01*
X205627272Y-166161327D01*
G37*
G36*
X27339148Y-163999798D02*
G01*
X27623560Y-164076006D01*
X27895592Y-164188685D01*
X28150589Y-164335908D01*
X28384187Y-164515155D01*
X28592391Y-164723359D01*
X28771638Y-164956957D01*
X28918861Y-165211954D01*
X29031540Y-165483986D01*
X29107748Y-165768398D01*
X29146180Y-166060324D01*
X29146180Y-166354768D01*
X29107748Y-166646694D01*
X29031540Y-166931106D01*
X28918861Y-167203138D01*
X28771638Y-167458135D01*
X28592391Y-167691733D01*
X28384187Y-167899937D01*
X28150589Y-168079184D01*
X27895592Y-168226407D01*
X27623560Y-168339086D01*
X27339148Y-168415294D01*
X27047222Y-168453726D01*
X26752778Y-168453726D01*
X26460852Y-168415294D01*
X26176440Y-168339086D01*
X25904408Y-168226407D01*
X25649411Y-168079184D01*
X25415813Y-167899937D01*
X25207609Y-167691733D01*
X25028362Y-167458135D01*
X24881139Y-167203138D01*
X24768460Y-166931106D01*
X24692252Y-166646694D01*
X24653820Y-166354768D01*
X24653820Y-166060324D01*
X24692252Y-165768398D01*
X24768460Y-165483986D01*
X24881139Y-165211954D01*
X25028362Y-164956957D01*
X25207609Y-164723359D01*
X25415813Y-164515155D01*
X25649411Y-164335908D01*
X25904408Y-164188685D01*
X26176440Y-164076006D01*
X26460852Y-163999798D01*
X26752778Y-163961366D01*
X27047222Y-163961366D01*
X27339148Y-163999798D01*
G37*
G36*
X384572729Y-163999798D02*
G01*
X384857141Y-164076006D01*
X385129173Y-164188685D01*
X385384170Y-164335908D01*
X385617768Y-164515155D01*
X385825972Y-164723359D01*
X386005219Y-164956957D01*
X386152442Y-165211954D01*
X386265121Y-165483986D01*
X386341329Y-165768398D01*
X386379761Y-166060324D01*
X386379761Y-166354768D01*
X386341329Y-166646694D01*
X386265121Y-166931106D01*
X386152442Y-167203138D01*
X386005219Y-167458135D01*
X385825972Y-167691733D01*
X385617768Y-167899937D01*
X385384170Y-168079184D01*
X385129173Y-168226407D01*
X384857141Y-168339086D01*
X384572729Y-168415294D01*
X384280803Y-168453726D01*
X383986359Y-168453726D01*
X383694433Y-168415294D01*
X383410021Y-168339086D01*
X383137989Y-168226407D01*
X382882992Y-168079184D01*
X382649394Y-167899937D01*
X382441190Y-167691733D01*
X382261943Y-167458135D01*
X382114720Y-167203138D01*
X382002041Y-166931106D01*
X381925833Y-166646694D01*
X381887401Y-166354768D01*
X381887401Y-166060324D01*
X381925833Y-165768398D01*
X382002041Y-165483986D01*
X382114720Y-165211954D01*
X382261943Y-164956957D01*
X382441190Y-164723359D01*
X382649394Y-164515155D01*
X382882992Y-164335908D01*
X383137989Y-164188685D01*
X383410021Y-164076006D01*
X383694433Y-163999798D01*
X383986359Y-163961366D01*
X384280803Y-163961366D01*
X384572729Y-163999798D01*
G37*
G36*
X138292379Y-118444252D02*
G01*
X138576791Y-118520460D01*
X138848823Y-118633139D01*
X139103820Y-118780362D01*
X139337418Y-118959609D01*
X139545622Y-119167813D01*
X139724869Y-119401411D01*
X139872092Y-119656408D01*
X139984771Y-119928440D01*
X140060979Y-120212852D01*
X140099411Y-120504778D01*
X140099411Y-120799222D01*
X140060979Y-121091148D01*
X139984771Y-121375560D01*
X139872092Y-121647592D01*
X139724869Y-121902589D01*
X139545622Y-122136187D01*
X139337418Y-122344391D01*
X139103820Y-122523638D01*
X138848823Y-122670861D01*
X138576791Y-122783540D01*
X138292379Y-122859748D01*
X138000453Y-122898180D01*
X137706009Y-122898180D01*
X137414083Y-122859748D01*
X137129671Y-122783540D01*
X136857639Y-122670861D01*
X136602642Y-122523638D01*
X136369044Y-122344391D01*
X136160840Y-122136187D01*
X135981593Y-121902589D01*
X135834370Y-121647592D01*
X135721691Y-121375560D01*
X135645483Y-121091148D01*
X135607051Y-120799222D01*
X135607051Y-120504778D01*
X135645483Y-120212852D01*
X135721691Y-119928440D01*
X135834370Y-119656408D01*
X135981593Y-119401411D01*
X136160840Y-119167813D01*
X136369044Y-118959609D01*
X136602642Y-118780362D01*
X136857639Y-118633139D01*
X137129671Y-118520460D01*
X137414083Y-118444252D01*
X137706009Y-118405820D01*
X138000453Y-118405820D01*
X138292379Y-118444252D01*
G37*
G36*
X262292379Y-118444252D02*
G01*
X262576791Y-118520460D01*
X262848823Y-118633139D01*
X263103820Y-118780362D01*
X263337418Y-118959609D01*
X263545622Y-119167813D01*
X263724869Y-119401411D01*
X263872092Y-119656408D01*
X263984771Y-119928440D01*
X264060979Y-120212852D01*
X264099411Y-120504778D01*
X264099411Y-120799222D01*
X264060979Y-121091148D01*
X263984771Y-121375560D01*
X263872092Y-121647592D01*
X263724869Y-121902589D01*
X263545622Y-122136187D01*
X263337418Y-122344391D01*
X263103820Y-122523638D01*
X262848823Y-122670861D01*
X262576791Y-122783540D01*
X262292379Y-122859748D01*
X262000453Y-122898180D01*
X261706009Y-122898180D01*
X261414083Y-122859748D01*
X261129671Y-122783540D01*
X260857639Y-122670861D01*
X260602642Y-122523638D01*
X260369044Y-122344391D01*
X260160840Y-122136187D01*
X259981593Y-121902589D01*
X259834370Y-121647592D01*
X259721691Y-121375560D01*
X259645483Y-121091148D01*
X259607051Y-120799222D01*
X259607051Y-120504778D01*
X259645483Y-120212852D01*
X259721691Y-119928440D01*
X259834370Y-119656408D01*
X259981593Y-119401411D01*
X260160840Y-119167813D01*
X260369044Y-118959609D01*
X260602642Y-118780362D01*
X260857639Y-118633139D01*
X261129671Y-118520460D01*
X261414083Y-118444252D01*
X261706009Y-118405820D01*
X262000453Y-118405820D01*
X262292379Y-118444252D01*
G37*
G36*
X368042379Y-118194252D02*
G01*
X368326791Y-118270460D01*
X368598823Y-118383139D01*
X368853820Y-118530362D01*
X369087418Y-118709609D01*
X369295622Y-118917813D01*
X369474869Y-119151411D01*
X369622092Y-119406408D01*
X369734771Y-119678440D01*
X369810979Y-119962852D01*
X369849411Y-120254778D01*
X369849411Y-120549222D01*
X369810979Y-120841148D01*
X369734771Y-121125560D01*
X369622092Y-121397592D01*
X369474869Y-121652589D01*
X369295622Y-121886187D01*
X369087418Y-122094391D01*
X368853820Y-122273638D01*
X368598823Y-122420861D01*
X368326791Y-122533540D01*
X368042379Y-122609748D01*
X367750453Y-122648180D01*
X367456009Y-122648180D01*
X367164083Y-122609748D01*
X366879671Y-122533540D01*
X366607639Y-122420861D01*
X366352642Y-122273638D01*
X366119044Y-122094391D01*
X365910840Y-121886187D01*
X365731593Y-121652589D01*
X365584370Y-121397592D01*
X365471691Y-121125560D01*
X365395483Y-120841148D01*
X365357051Y-120549222D01*
X365357051Y-120254778D01*
X365395483Y-119962852D01*
X365471691Y-119678440D01*
X365584370Y-119406408D01*
X365731593Y-119151411D01*
X365910840Y-118917813D01*
X366119044Y-118709609D01*
X366352642Y-118530362D01*
X366607639Y-118383139D01*
X366879671Y-118270460D01*
X367164083Y-118194252D01*
X367456009Y-118155820D01*
X367750453Y-118155820D01*
X368042379Y-118194252D01*
G37*
G36*
X54042379Y-117944252D02*
G01*
X54326791Y-118020460D01*
X54598823Y-118133139D01*
X54853820Y-118280362D01*
X55087418Y-118459609D01*
X55295622Y-118667813D01*
X55474869Y-118901411D01*
X55622092Y-119156408D01*
X55734771Y-119428440D01*
X55810979Y-119712852D01*
X55849411Y-120004778D01*
X55849411Y-120299222D01*
X55810979Y-120591148D01*
X55734771Y-120875560D01*
X55622092Y-121147592D01*
X55474869Y-121402589D01*
X55295622Y-121636187D01*
X55087418Y-121844391D01*
X54853820Y-122023638D01*
X54598823Y-122170861D01*
X54326791Y-122283540D01*
X54042379Y-122359748D01*
X53750453Y-122398180D01*
X53456009Y-122398180D01*
X53164083Y-122359748D01*
X52879671Y-122283540D01*
X52607639Y-122170861D01*
X52352642Y-122023638D01*
X52119044Y-121844391D01*
X51910840Y-121636187D01*
X51731593Y-121402589D01*
X51584370Y-121147592D01*
X51471691Y-120875560D01*
X51395483Y-120591148D01*
X51357051Y-120299222D01*
X51357051Y-120004778D01*
X51395483Y-119712852D01*
X51471691Y-119428440D01*
X51584370Y-119156408D01*
X51731593Y-118901411D01*
X51910840Y-118667813D01*
X52119044Y-118459609D01*
X52352642Y-118280362D01*
X52607639Y-118133139D01*
X52879671Y-118020460D01*
X53164083Y-117944252D01*
X53456009Y-117905820D01*
X53750453Y-117905820D01*
X54042379Y-117944252D01*
G37*
G36*
X269542379Y-60694252D02*
G01*
X269826791Y-60770460D01*
X270098823Y-60883139D01*
X270353820Y-61030362D01*
X270587418Y-61209609D01*
X270795622Y-61417813D01*
X270974869Y-61651411D01*
X271122092Y-61906408D01*
X271234771Y-62178440D01*
X271310979Y-62462852D01*
X271349411Y-62754778D01*
X271349411Y-63049222D01*
X271310979Y-63341148D01*
X271234771Y-63625560D01*
X271122092Y-63897592D01*
X270974869Y-64152589D01*
X270795622Y-64386187D01*
X270587418Y-64594391D01*
X270353820Y-64773638D01*
X270098823Y-64920861D01*
X269826791Y-65033540D01*
X269542379Y-65109748D01*
X269250453Y-65148180D01*
X268956009Y-65148180D01*
X268664083Y-65109748D01*
X268379671Y-65033540D01*
X268107639Y-64920861D01*
X267852642Y-64773638D01*
X267619044Y-64594391D01*
X267410840Y-64386187D01*
X267231593Y-64152589D01*
X267084370Y-63897592D01*
X266971691Y-63625560D01*
X266895483Y-63341148D01*
X266857051Y-63049222D01*
X266857051Y-62754778D01*
X266895483Y-62462852D01*
X266971691Y-62178440D01*
X267084370Y-61906408D01*
X267231593Y-61651411D01*
X267410840Y-61417813D01*
X267619044Y-61209609D01*
X267852642Y-61030362D01*
X268107639Y-60883139D01*
X268379671Y-60770460D01*
X268664083Y-60694252D01*
X268956009Y-60655820D01*
X269250453Y-60655820D01*
X269542379Y-60694252D01*
G37*
G36*
X78292379Y-59694252D02*
G01*
X78576791Y-59770460D01*
X78848823Y-59883139D01*
X79103820Y-60030362D01*
X79337418Y-60209609D01*
X79545622Y-60417813D01*
X79724869Y-60651411D01*
X79872092Y-60906408D01*
X79984771Y-61178440D01*
X80060979Y-61462852D01*
X80099411Y-61754778D01*
X80099411Y-62049222D01*
X80060979Y-62341148D01*
X79984771Y-62625560D01*
X79872092Y-62897592D01*
X79724869Y-63152589D01*
X79545622Y-63386187D01*
X79337418Y-63594391D01*
X79103820Y-63773638D01*
X78848823Y-63920861D01*
X78576791Y-64033540D01*
X78292379Y-64109748D01*
X78000453Y-64148180D01*
X77706009Y-64148180D01*
X77414083Y-64109748D01*
X77129671Y-64033540D01*
X76857639Y-63920861D01*
X76602642Y-63773638D01*
X76369044Y-63594391D01*
X76160840Y-63386187D01*
X75981593Y-63152589D01*
X75834370Y-62897592D01*
X75721691Y-62625560D01*
X75645483Y-62341148D01*
X75607051Y-62049222D01*
X75607051Y-61754778D01*
X75645483Y-61462852D01*
X75721691Y-61178440D01*
X75834370Y-60906408D01*
X75981593Y-60651411D01*
X76160840Y-60417813D01*
X76369044Y-60209609D01*
X76602642Y-60030362D01*
X76857639Y-59883139D01*
X77129671Y-59770460D01*
X77414083Y-59694252D01*
X77706009Y-59655820D01*
X78000453Y-59655820D01*
X78292379Y-59694252D01*
G37*
G36*
X184792379Y-52444252D02*
G01*
X185076791Y-52520460D01*
X185348823Y-52633139D01*
X185603820Y-52780362D01*
X185837418Y-52959609D01*
X186045622Y-53167813D01*
X186224869Y-53401411D01*
X186372092Y-53656408D01*
X186484771Y-53928440D01*
X186560979Y-54212852D01*
X186599411Y-54504778D01*
X186599411Y-54799222D01*
X186560979Y-55091148D01*
X186484771Y-55375560D01*
X186372092Y-55647592D01*
X186224869Y-55902589D01*
X186045622Y-56136187D01*
X185837418Y-56344391D01*
X185603820Y-56523638D01*
X185348823Y-56670861D01*
X185076791Y-56783540D01*
X184792379Y-56859748D01*
X184500453Y-56898180D01*
X184206009Y-56898180D01*
X183914083Y-56859748D01*
X183629671Y-56783540D01*
X183357639Y-56670861D01*
X183102642Y-56523638D01*
X182869044Y-56344391D01*
X182660840Y-56136187D01*
X182481593Y-55902589D01*
X182334370Y-55647592D01*
X182221691Y-55375560D01*
X182145483Y-55091148D01*
X182107051Y-54799222D01*
X182107051Y-54504778D01*
X182145483Y-54212852D01*
X182221691Y-53928440D01*
X182334370Y-53656408D01*
X182481593Y-53401411D01*
X182660840Y-53167813D01*
X182869044Y-52959609D01*
X183102642Y-52780362D01*
X183357639Y-52633139D01*
X183629671Y-52520460D01*
X183914083Y-52444252D01*
X184206009Y-52405820D01*
X184500453Y-52405820D01*
X184792379Y-52444252D01*
G37*
G36*
X362598629Y-47069252D02*
G01*
X362883041Y-47145460D01*
X363155073Y-47258139D01*
X363410070Y-47405362D01*
X363643668Y-47584609D01*
X363851872Y-47792813D01*
X364031119Y-48026411D01*
X364178342Y-48281408D01*
X364291021Y-48553440D01*
X364367229Y-48837852D01*
X364405661Y-49129778D01*
X364405661Y-49424222D01*
X364367229Y-49716148D01*
X364291021Y-50000560D01*
X364178342Y-50272592D01*
X364031119Y-50527589D01*
X363851872Y-50761187D01*
X363643668Y-50969391D01*
X363410070Y-51148638D01*
X363155073Y-51295861D01*
X362883041Y-51408540D01*
X362598629Y-51484748D01*
X362306703Y-51523180D01*
X362012259Y-51523180D01*
X361720333Y-51484748D01*
X361435921Y-51408540D01*
X361163889Y-51295861D01*
X360908892Y-51148638D01*
X360675294Y-50969391D01*
X360467090Y-50761187D01*
X360287843Y-50527589D01*
X360140620Y-50272592D01*
X360027941Y-50000560D01*
X359951733Y-49716148D01*
X359913301Y-49424222D01*
X359913301Y-49129778D01*
X359951733Y-48837852D01*
X360027941Y-48553440D01*
X360140620Y-48281408D01*
X360287843Y-48026411D01*
X360467090Y-47792813D01*
X360675294Y-47584609D01*
X360908892Y-47405362D01*
X361163889Y-47258139D01*
X361435921Y-47145460D01*
X361720333Y-47069252D01*
X362012259Y-47030820D01*
X362306703Y-47030820D01*
X362598629Y-47069252D01*
G37*
G36*
X26253148Y-37606252D02*
G01*
X26537560Y-37682460D01*
X26809592Y-37795139D01*
X27064589Y-37942362D01*
X27298187Y-38121609D01*
X27506391Y-38329813D01*
X27685638Y-38563411D01*
X27832861Y-38818408D01*
X27945540Y-39090440D01*
X28021748Y-39374852D01*
X28060180Y-39666778D01*
X28060180Y-39961222D01*
X28021748Y-40253148D01*
X27945540Y-40537560D01*
X27832861Y-40809592D01*
X27685638Y-41064589D01*
X27506391Y-41298187D01*
X27298187Y-41506391D01*
X27064589Y-41685638D01*
X26809592Y-41832861D01*
X26537560Y-41945540D01*
X26253148Y-42021748D01*
X25961222Y-42060180D01*
X25666778Y-42060180D01*
X25374852Y-42021748D01*
X25090440Y-41945540D01*
X24818408Y-41832861D01*
X24563411Y-41685638D01*
X24329813Y-41506391D01*
X24121609Y-41298187D01*
X23942362Y-41064589D01*
X23795139Y-40809592D01*
X23682460Y-40537560D01*
X23606252Y-40253148D01*
X23567820Y-39961222D01*
X23567820Y-39666778D01*
X23606252Y-39374852D01*
X23682460Y-39090440D01*
X23795139Y-38818408D01*
X23942362Y-38563411D01*
X24121609Y-38329813D01*
X24329813Y-38121609D01*
X24563411Y-37942362D01*
X24818408Y-37795139D01*
X25090440Y-37682460D01*
X25374852Y-37606252D01*
X25666778Y-37567820D01*
X25961222Y-37567820D01*
X26253148Y-37606252D01*
G37*
G36*
X385658729Y-37606252D02*
G01*
X385943141Y-37682460D01*
X386215173Y-37795139D01*
X386470170Y-37942362D01*
X386703768Y-38121609D01*
X386911972Y-38329813D01*
X387091219Y-38563411D01*
X387238442Y-38818408D01*
X387351121Y-39090440D01*
X387427329Y-39374852D01*
X387465761Y-39666778D01*
X387465761Y-39961222D01*
X387427329Y-40253148D01*
X387351121Y-40537560D01*
X387238442Y-40809592D01*
X387091219Y-41064589D01*
X386911972Y-41298187D01*
X386703768Y-41506391D01*
X386470170Y-41685638D01*
X386215173Y-41832861D01*
X385943141Y-41945540D01*
X385658729Y-42021748D01*
X385366803Y-42060180D01*
X385072359Y-42060180D01*
X384780433Y-42021748D01*
X384496021Y-41945540D01*
X384223989Y-41832861D01*
X383968992Y-41685638D01*
X383735394Y-41506391D01*
X383527190Y-41298187D01*
X383347943Y-41064589D01*
X383200720Y-40809592D01*
X383088041Y-40537560D01*
X383011833Y-40253148D01*
X382973401Y-39961222D01*
X382973401Y-39666778D01*
X383011833Y-39374852D01*
X383088041Y-39090440D01*
X383200720Y-38818408D01*
X383347943Y-38563411D01*
X383527190Y-38329813D01*
X383735394Y-38121609D01*
X383968992Y-37942362D01*
X384223989Y-37795139D01*
X384496021Y-37682460D01*
X384780433Y-37606252D01*
X385072359Y-37567820D01*
X385366803Y-37567820D01*
X385658729Y-37606252D01*
G37*
G36*
X205627272Y-37853781D02*
G01*
X205638480Y-37853781D01*
X205693678Y-37862523D01*
X205819324Y-37879065D01*
X205849979Y-37887279D01*
X205878864Y-37891854D01*
X205934410Y-37909902D01*
X206015257Y-37931565D01*
X206066840Y-37952931D01*
X206110332Y-37967063D01*
X206151076Y-37987823D01*
X206202660Y-38009190D01*
X206275143Y-38051038D01*
X206327185Y-38077555D01*
X206350845Y-38094745D01*
X206378329Y-38110613D01*
X206478864Y-38187756D01*
X206524084Y-38220610D01*
X206532009Y-38228535D01*
X206539256Y-38234096D01*
X206682693Y-38377533D01*
X206688253Y-38384779D01*
X206696180Y-38392706D01*
X206729037Y-38437930D01*
X206806176Y-38538460D01*
X206822042Y-38565941D01*
X206839235Y-38589605D01*
X206865754Y-38641652D01*
X206907599Y-38714129D01*
X206928963Y-38765706D01*
X206949727Y-38806458D01*
X206963860Y-38849955D01*
X206985224Y-38901532D01*
X207006883Y-38982366D01*
X207024936Y-39037926D01*
X207029511Y-39066816D01*
X207037724Y-39097465D01*
X207054264Y-39223099D01*
X207063009Y-39278310D01*
X207063009Y-39289518D01*
X207064202Y-39298580D01*
X207064202Y-39501419D01*
X207063009Y-39510480D01*
X207063009Y-39521690D01*
X207054263Y-39576905D01*
X207037724Y-39702534D01*
X207029512Y-39733180D01*
X207024936Y-39762074D01*
X207006881Y-39817638D01*
X206985224Y-39898467D01*
X206963861Y-39950039D01*
X206949727Y-39993542D01*
X206928961Y-40034297D01*
X206907599Y-40085870D01*
X206865758Y-40158338D01*
X206839235Y-40210395D01*
X206822039Y-40234062D01*
X206806176Y-40261539D01*
X206729051Y-40362050D01*
X206696180Y-40407294D01*
X206688249Y-40415224D01*
X206682693Y-40422466D01*
X206539256Y-40565903D01*
X206532014Y-40571459D01*
X206524084Y-40579390D01*
X206478840Y-40612261D01*
X206378329Y-40689386D01*
X206350852Y-40705249D01*
X206327185Y-40722445D01*
X206275128Y-40748968D01*
X206202660Y-40790809D01*
X206151087Y-40812171D01*
X206110332Y-40832937D01*
X206066829Y-40847071D01*
X206015257Y-40868434D01*
X205934428Y-40890091D01*
X205878864Y-40908146D01*
X205849970Y-40912722D01*
X205819324Y-40920934D01*
X205693692Y-40937474D01*
X205638480Y-40946219D01*
X205627271Y-40946219D01*
X205618210Y-40947412D01*
X205415370Y-40947412D01*
X205406309Y-40946219D01*
X205395100Y-40946219D01*
X205339889Y-40937474D01*
X205214255Y-40920934D01*
X205183606Y-40912721D01*
X205154716Y-40908146D01*
X205099156Y-40890093D01*
X205018322Y-40868434D01*
X204966745Y-40847070D01*
X204923248Y-40832937D01*
X204882496Y-40812173D01*
X204830919Y-40790809D01*
X204758442Y-40748964D01*
X204706395Y-40722445D01*
X204682731Y-40705252D01*
X204655250Y-40689386D01*
X204554720Y-40612247D01*
X204509496Y-40579390D01*
X204501569Y-40571463D01*
X204494323Y-40565903D01*
X204350886Y-40422466D01*
X204345325Y-40415219D01*
X204337400Y-40407294D01*
X204304546Y-40362074D01*
X204227403Y-40261539D01*
X204211535Y-40234055D01*
X204194345Y-40210395D01*
X204167828Y-40158353D01*
X204125980Y-40085870D01*
X204104613Y-40034286D01*
X204083853Y-39993542D01*
X204069721Y-39950050D01*
X204048355Y-39898467D01*
X204026692Y-39817620D01*
X204008644Y-39762074D01*
X204004069Y-39733189D01*
X203995855Y-39702534D01*
X203979314Y-39576891D01*
X203970571Y-39521690D01*
X203970571Y-39510480D01*
X203969378Y-39501419D01*
X203969378Y-39298580D01*
X203970571Y-39289518D01*
X203970571Y-39278310D01*
X203979313Y-39223113D01*
X203995855Y-39097465D01*
X204004069Y-39066807D01*
X204008644Y-39037926D01*
X204026690Y-38982383D01*
X204048355Y-38901532D01*
X204069723Y-38849944D01*
X204083853Y-38806458D01*
X204104611Y-38765717D01*
X204125980Y-38714129D01*
X204167832Y-38641637D01*
X204194345Y-38589605D01*
X204211532Y-38565948D01*
X204227403Y-38538460D01*
X204304560Y-38437906D01*
X204337400Y-38392706D01*
X204345322Y-38384783D01*
X204350886Y-38377533D01*
X204494323Y-38234096D01*
X204501573Y-38228532D01*
X204509496Y-38220610D01*
X204554696Y-38187770D01*
X204655250Y-38110613D01*
X204682738Y-38094742D01*
X204706395Y-38077555D01*
X204758427Y-38051042D01*
X204830919Y-38009190D01*
X204882507Y-37987821D01*
X204923248Y-37967063D01*
X204966734Y-37952933D01*
X205018322Y-37931565D01*
X205099173Y-37909900D01*
X205154716Y-37891854D01*
X205183597Y-37887279D01*
X205214255Y-37879065D01*
X205339903Y-37862523D01*
X205395100Y-37853781D01*
X205406308Y-37853781D01*
X205415370Y-37852588D01*
X205618210Y-37852588D01*
X205627272Y-37853781D01*
G37*
M02*
