%TF.GenerationSoftware,KiCad,Pcbnew,9.0.0*%
%TF.CreationDate,2025-03-11T22:24:47+00:00*%
%TF.ProjectId,base,62617365-2e6b-4696-9361-645f70636258,rev?*%
%TF.SameCoordinates,Original*%
%TF.FileFunction,Copper,L1,Top*%
%TF.FilePolarity,Positive*%
%FSLAX46Y46*%
G04 Gerber Fmt 4.6, Leading zero omitted, Abs format (unit mm)*
G04 Created by KiCad (PCBNEW 9.0.0) date 2025-03-11 22:24:47*
%MOMM*%
%LPD*%
G01*
G04 APERTURE LIST*
%ADD10C,0.300000*%
%TA.AperFunction,ComponentPad*%
%ADD11C,4.400000*%
%TD*%
%TA.AperFunction,SMDPad,CuDef*%
%ADD12C,7.400000*%
%TD*%
%TA.AperFunction,SMDPad,CuDef*%
%ADD13C,5.300000*%
%TD*%
G04 APERTURE END LIST*
D10*
G36*
X305070081Y-72813000D02*
G01*
X323529650Y-72813000D01*
X338353664Y-94546949D01*
X338623553Y-94546949D01*
X338623553Y-72813000D01*
X353630139Y-72813000D01*
X353630139Y-141559118D01*
X338623553Y-141559118D01*
X338623553Y-99730393D01*
X338353664Y-99730393D01*
X323890824Y-118098676D01*
X305796398Y-118098676D01*
X323255793Y-97638758D01*
X305070081Y-72813000D01*
G37*
G36*
X289223272Y-71975204D02*
G01*
X292123378Y-72527235D01*
X294917032Y-73484969D01*
X297441766Y-74888758D01*
X299617807Y-76780215D01*
X301398806Y-79254599D01*
X302532224Y-82195813D01*
X302942726Y-85985932D01*
X302620832Y-89157998D01*
X301715352Y-91753898D01*
X300259718Y-93896042D01*
X297241379Y-96521128D01*
X293349783Y-98531771D01*
X288962405Y-99878056D01*
X283935442Y-100714692D01*
X278782683Y-101127520D01*
X273842412Y-101262406D01*
X273842412Y-101972848D01*
X274124802Y-104039444D01*
X274912328Y-105613979D01*
X276207904Y-106818931D01*
X278769377Y-107965739D01*
X282026379Y-108374758D01*
X285144355Y-108035330D01*
X288166339Y-107009441D01*
X290947418Y-105479869D01*
X293210869Y-103735060D01*
X300759805Y-111855524D01*
X297950368Y-114204821D01*
X294854643Y-116123650D01*
X291440719Y-117626372D01*
X286049326Y-119072459D01*
X280573745Y-119551311D01*
X275090217Y-119169726D01*
X270889516Y-118142335D01*
X268378692Y-117008705D01*
X266258177Y-115556012D01*
X264479667Y-113776494D01*
X262396419Y-110524535D01*
X260887771Y-106318844D01*
X260055367Y-101599387D01*
X259748684Y-95638409D01*
X259748684Y-91066183D01*
X273389952Y-91066183D01*
X273389952Y-92625979D01*
X275299015Y-92625979D01*
X280256229Y-92395780D01*
X282678026Y-92051078D01*
X284713356Y-91522612D01*
X286525186Y-90715932D01*
X287940109Y-89641332D01*
X288881837Y-88235020D01*
X289210172Y-86382827D01*
X289056386Y-85169271D01*
X288618799Y-84180062D01*
X287118537Y-82711551D01*
X285026902Y-81933638D01*
X282756665Y-81703439D01*
X279828083Y-82014232D01*
X277559761Y-82870795D01*
X275799102Y-84227689D01*
X274494311Y-86044768D01*
X273680687Y-88284751D01*
X273389952Y-91066183D01*
X259748684Y-91066183D01*
X259748684Y-72813000D01*
X273389952Y-72813000D01*
X273389952Y-77651145D01*
X273659840Y-77651145D01*
X274973954Y-75966210D01*
X276695705Y-74528117D01*
X278890911Y-73328963D01*
X282507648Y-72186381D01*
X286483506Y-71796949D01*
X289223272Y-71975204D01*
G37*
G36*
X219249556Y-105632216D02*
G01*
X221206246Y-105997359D01*
X223067682Y-106088645D01*
X225913254Y-105799559D01*
X228116182Y-105005123D01*
X229989560Y-103785167D01*
X231390562Y-102389587D01*
X232451499Y-100781190D01*
X233164681Y-99051703D01*
X233708427Y-95900360D01*
X233708427Y-72813000D01*
X248623727Y-72813000D01*
X248623727Y-117900229D01*
X234256142Y-117900229D01*
X234256142Y-111355437D01*
X234073570Y-111355437D01*
X231978032Y-114543909D01*
X229163984Y-117078657D01*
X226952213Y-118302200D01*
X224516163Y-119042872D01*
X221797619Y-119297298D01*
X220023500Y-119233795D01*
X218614524Y-119043286D01*
X219249556Y-105632216D01*
G37*
G36*
X203176517Y-71975204D02*
G01*
X206076623Y-72527235D01*
X208870276Y-73484969D01*
X211395011Y-74888758D01*
X213571052Y-76780215D01*
X215352051Y-79254599D01*
X216485469Y-82195813D01*
X216895971Y-85985932D01*
X216574077Y-89157998D01*
X215668597Y-91753898D01*
X214212963Y-93896042D01*
X211194624Y-96521128D01*
X207303028Y-98531771D01*
X202915650Y-99878056D01*
X197888687Y-100714692D01*
X192735928Y-101127520D01*
X187795657Y-101262406D01*
X187795657Y-101972848D01*
X188078047Y-104039444D01*
X188865572Y-105613979D01*
X190161149Y-106818931D01*
X192722621Y-107965739D01*
X195979624Y-108374758D01*
X199097600Y-108035330D01*
X202119584Y-107009441D01*
X204900663Y-105479869D01*
X207164114Y-103735060D01*
X214713050Y-111855524D01*
X211903613Y-114204821D01*
X208807888Y-116123650D01*
X205393964Y-117626372D01*
X200002571Y-119072459D01*
X194526990Y-119551311D01*
X189043462Y-119169726D01*
X184842761Y-118142335D01*
X182331937Y-117008705D01*
X180211422Y-115556012D01*
X178432912Y-113776494D01*
X176349664Y-110524535D01*
X174841016Y-106318844D01*
X174008612Y-101599387D01*
X173701928Y-95638409D01*
X173701928Y-91066183D01*
X187343197Y-91066183D01*
X187343197Y-92625979D01*
X189252260Y-92625979D01*
X194209474Y-92395780D01*
X196631271Y-92051078D01*
X198666600Y-91522612D01*
X200478431Y-90715932D01*
X201893354Y-89641332D01*
X202835082Y-88235020D01*
X203163417Y-86382827D01*
X203009631Y-85169271D01*
X202572044Y-84180062D01*
X201071782Y-82711551D01*
X198980147Y-81933638D01*
X196709910Y-81703439D01*
X193781328Y-82014232D01*
X191513006Y-82870795D01*
X189752347Y-84227689D01*
X188447556Y-86044768D01*
X187633932Y-88284751D01*
X187343197Y-91066183D01*
X173701928Y-91066183D01*
X173701928Y-72813000D01*
X187343197Y-72813000D01*
X187343197Y-77651145D01*
X187613085Y-77651145D01*
X188927199Y-75966210D01*
X190648950Y-74528117D01*
X192844156Y-73328963D01*
X196460893Y-72186381D01*
X200436751Y-71796949D01*
X203176517Y-71975204D01*
G37*
G36*
X140569165Y-72813000D02*
G01*
X158302417Y-72813000D01*
X132202626Y-123869524D01*
X162668258Y-123869524D01*
X162668258Y-137078177D01*
X115925978Y-137078177D01*
X115925978Y-124913357D01*
X140569165Y-72813000D01*
G37*
G36*
X84668408Y-71365836D02*
G01*
X88513620Y-72305528D01*
X91834474Y-73805236D01*
X94853301Y-75869554D01*
X97465322Y-78345184D01*
X99700925Y-81262886D01*
X101511724Y-84484602D01*
X102985683Y-88090118D01*
X104110425Y-92125892D01*
X105125251Y-98409471D01*
X105471773Y-105128160D01*
X105124606Y-111840801D01*
X104110425Y-118082801D01*
X102984068Y-122087988D01*
X101509824Y-125647616D01*
X99700925Y-128810862D01*
X97469103Y-131668291D01*
X94857616Y-134098513D01*
X91834474Y-136129599D01*
X88516306Y-137604765D01*
X84670917Y-138530170D01*
X80193554Y-138856265D01*
X75713596Y-138529167D01*
X71885538Y-137602931D01*
X68600262Y-136129599D01*
X65607627Y-134099218D01*
X63026463Y-131669277D01*
X60825097Y-128810862D01*
X59039452Y-125649980D01*
X57579559Y-122090346D01*
X56459256Y-118082801D01*
X55442105Y-111840681D01*
X55095791Y-105163881D01*
X70735555Y-105163881D01*
X71100699Y-111772176D01*
X71630515Y-115314722D01*
X72462047Y-118519385D01*
X73705120Y-121445412D01*
X75327626Y-123774270D01*
X76692270Y-124952917D01*
X78289586Y-125657130D01*
X80193554Y-125901625D01*
X82099045Y-125658087D01*
X83711888Y-124954430D01*
X85103141Y-123774270D01*
X86770546Y-121443487D01*
X88060006Y-118519385D01*
X88925362Y-115312820D01*
X89468982Y-111772176D01*
X89830156Y-105163881D01*
X89468982Y-98416672D01*
X88924362Y-94837209D01*
X88060006Y-91621836D01*
X86770765Y-88701131D01*
X85103141Y-86370920D01*
X83711888Y-85190760D01*
X82099045Y-84487102D01*
X80193554Y-84243565D01*
X78289586Y-84488060D01*
X76692270Y-85192273D01*
X75327626Y-86370920D01*
X73704905Y-88699212D01*
X72462047Y-91621836D01*
X71631491Y-94835248D01*
X71100699Y-98416672D01*
X70735555Y-105163881D01*
X55095791Y-105163881D01*
X55093938Y-105128160D01*
X55441459Y-98409587D01*
X56459256Y-92125892D01*
X57577931Y-88087812D01*
X59037538Y-84482278D01*
X60825097Y-81262886D01*
X63030224Y-78344147D01*
X65611932Y-75868807D01*
X68600262Y-73805236D01*
X71888261Y-72307372D01*
X75716151Y-71366846D01*
X80193554Y-71034912D01*
X84668408Y-71365836D01*
G37*
D11*
%TO.P,,1*%
%TO.N,N/C*%
X184353231Y-54652000D03*
%TD*%
%TO.P,,1*%
%TO.N,N/C*%
X137853231Y-120652000D03*
%TD*%
%TO.P,,1*%
%TO.N,N/C*%
X362159481Y-49277000D03*
%TD*%
%TO.P,,1*%
%TO.N,N/C*%
X53603231Y-120152000D03*
%TD*%
%TO.P,,1*%
%TO.N,N/C*%
X367603231Y-120402000D03*
%TD*%
%TO.P,,1*%
%TO.N,N/C*%
X261853231Y-120652000D03*
%TD*%
%TO.P,,1*%
%TO.N,N/C*%
X269103231Y-62902000D03*
%TD*%
%TO.P,,1*%
%TO.N,N/C*%
X77853231Y-61902000D03*
%TD*%
D12*
%TO.P,REF\u002A\u002A,1*%
%TO.N,N/C*%
X385219581Y-39814000D03*
%TD*%
D13*
%TO.P,REF\u002A\u002A,1*%
%TO.N,N/C*%
X205516790Y-39400000D03*
%TD*%
D12*
%TO.P,REF\u002A\u002A,1*%
%TO.N,N/C*%
X25814000Y-39814000D03*
%TD*%
D13*
%TO.P,REF\u002A\u002A,1*%
%TO.N,N/C*%
X205516790Y-167707546D03*
%TD*%
D12*
%TO.P,REF\u002A\u002A,1*%
%TO.N,N/C*%
X384133581Y-166207546D03*
%TD*%
%TO.P,REF\u002A\u002A,1*%
%TO.N,N/C*%
X26900000Y-166207546D03*
%TD*%
M02*
