%TF.GenerationSoftware,KiCad,Pcbnew,9.0.0*%
%TF.CreationDate,2025-03-11T22:47:18+00:00*%
%TF.ProjectId,plate,706c6174-652e-46b6-9963-61645f706362,rev?*%
%TF.SameCoordinates,Original*%
%TF.FileFunction,Profile,NP*%
%FSLAX46Y46*%
G04 Gerber Fmt 4.6, Leading zero omitted, Abs format (unit mm)*
G04 Created by KiCad (PCBNEW 9.0.0) date 2025-03-11 22:47:18*
%MOMM*%
%LPD*%
G01*
G04 APERTURE LIST*
%TA.AperFunction,Profile*%
%ADD10C,0.200000*%
%TD*%
G04 APERTURE END LIST*
D10*
X49773582Y-75171766D02*
X49773582Y-88171766D01*
X49273582Y-74671766D02*
G75*
G02*
X49773582Y-75171766I0J-500000D01*
G01*
X36273583Y-74671766D02*
X49273582Y-74671766D01*
X35773582Y-75171767D02*
G75*
G02*
X36273583Y-74671766I500001J0D01*
G01*
X35773582Y-88171765D02*
X35773582Y-75171767D01*
X36273583Y-88671766D02*
G75*
G02*
X35773582Y-88171765I0J500001D01*
G01*
X49273582Y-88671766D02*
X36273583Y-88671766D01*
X49773582Y-88171766D02*
G75*
G02*
X49273582Y-88671766I-500000J0D01*
G01*
X249298582Y-107721766D02*
X236298582Y-107721766D01*
X249798582Y-107221766D02*
G75*
G02*
X249298582Y-107721766I-500000J0D01*
G01*
X249798582Y-94221766D02*
X249798582Y-107221766D01*
X249298582Y-93721766D02*
G75*
G02*
X249798582Y-94221766I0J-500000D01*
G01*
X236298582Y-93721766D02*
X249298582Y-93721766D01*
X235798582Y-94221766D02*
G75*
G02*
X236298582Y-93721766I500000J0D01*
G01*
X235798582Y-107221766D02*
X235798582Y-94221766D01*
X236298582Y-107721766D02*
G75*
G02*
X235798582Y-107221766I0J500000D01*
G01*
X268848582Y-94221766D02*
X268848582Y-107221766D01*
X268348582Y-93721766D02*
G75*
G02*
X268848582Y-94221766I0J-500000D01*
G01*
X255348582Y-93721766D02*
X268348582Y-93721766D01*
X254848582Y-94221766D02*
G75*
G02*
X255348582Y-93721766I500000J0D01*
G01*
X254848582Y-107221766D02*
X254848582Y-94221766D01*
X255348582Y-107721766D02*
G75*
G02*
X254848582Y-107221766I0J500000D01*
G01*
X268348582Y-107721766D02*
X255348582Y-107721766D01*
X268848582Y-107221766D02*
G75*
G02*
X268348582Y-107721766I-500000J0D01*
G01*
X301742882Y-131821766D02*
X307742832Y-131821766D01*
X301242832Y-132314795D02*
G75*
G02*
X301742882Y-131821765I500150J-7171D01*
G01*
X301242832Y-146321766D02*
X301242832Y-132314795D01*
X301742832Y-146821766D02*
G75*
G02*
X301242782Y-146321766I-50J500000D01*
G01*
X307742782Y-146821766D02*
X301742832Y-146821766D01*
X308242832Y-146328666D02*
G75*
G02*
X307742782Y-146821766I-500150J7100D01*
G01*
X308242832Y-132321766D02*
X308242832Y-146328666D01*
X307742832Y-131821766D02*
G75*
G02*
X308242882Y-132321766I50J-500000D01*
G01*
X244536082Y-131821766D02*
G75*
G02*
X245036082Y-132321766I0J-500000D01*
G01*
X245036082Y-145321766D02*
X245036082Y-132321766D01*
X245036082Y-145321766D02*
G75*
G02*
X244536082Y-145821766I-500000J0D01*
G01*
X231536082Y-145821766D02*
X244536082Y-145821766D01*
X231536082Y-145821766D02*
G75*
G02*
X231036082Y-145321766I0J500000D01*
G01*
X231036082Y-132321766D02*
X231036082Y-145321766D01*
X231036082Y-132321766D02*
G75*
G02*
X231536082Y-131821766I500000J0D01*
G01*
X244536082Y-131821766D02*
X231536082Y-131821766D01*
X192648582Y-94221766D02*
X192648582Y-107221766D01*
X192148582Y-93721766D02*
G75*
G02*
X192648582Y-94221766I0J-500000D01*
G01*
X179148582Y-93721766D02*
X192148582Y-93721766D01*
X178648582Y-94221766D02*
G75*
G02*
X179148582Y-93721766I500000J0D01*
G01*
X178648582Y-107221766D02*
X178648582Y-94221766D01*
X179148582Y-107721766D02*
G75*
G02*
X178648582Y-107221766I0J500000D01*
G01*
X192148582Y-107721766D02*
X179148582Y-107721766D01*
X192648582Y-107221766D02*
G75*
G02*
X192148582Y-107721766I-500000J0D01*
G01*
X149786082Y-145321766D02*
G75*
G02*
X149286082Y-145821766I-500000J0D01*
G01*
X136286082Y-145821766D02*
X149286082Y-145821766D01*
X136286082Y-145821766D02*
G75*
G02*
X135786082Y-145321766I0J500000D01*
G01*
X135786082Y-132321766D02*
X135786082Y-145321766D01*
X135786082Y-132321766D02*
G75*
G02*
X136286082Y-131821766I500000J0D01*
G01*
X149286082Y-131821766D02*
X136286082Y-131821766D01*
X149286082Y-131821766D02*
G75*
G02*
X149786082Y-132321766I0J-500000D01*
G01*
X149786082Y-145321766D02*
X149786082Y-132321766D01*
X117236082Y-131821766D02*
X130236082Y-131821766D01*
X116736082Y-132321766D02*
G75*
G02*
X117236082Y-131821766I500000J0D01*
G01*
X116736082Y-145321766D02*
X116736082Y-132321766D01*
X117236082Y-145821766D02*
G75*
G02*
X116736082Y-145321766I0J500000D01*
G01*
X130236082Y-145821766D02*
X117236082Y-145821766D01*
X130736082Y-145321766D02*
G75*
G02*
X130236082Y-145821766I-500000J0D01*
G01*
X130736082Y-132321766D02*
X130736082Y-145321766D01*
X130236082Y-131821766D02*
G75*
G02*
X130736082Y-132321766I0J-500000D01*
G01*
X197411082Y-113271766D02*
X197411082Y-126271766D01*
X196911082Y-112771766D02*
G75*
G02*
X197411082Y-113271766I0J-500000D01*
G01*
X183911082Y-112771766D02*
X196911082Y-112771766D01*
X183411082Y-113271766D02*
G75*
G02*
X183911082Y-112771766I500000J0D01*
G01*
X183411082Y-126271766D02*
X183411082Y-113271766D01*
X183911082Y-126771766D02*
G75*
G02*
X183411082Y-126271766I0J500000D01*
G01*
X196911082Y-126771766D02*
X183911082Y-126771766D01*
X197411082Y-126271766D02*
G75*
G02*
X196911082Y-126771766I-500000J0D01*
G01*
X64348582Y-107221766D02*
X64348582Y-94221766D01*
X64848582Y-107721766D02*
G75*
G02*
X64348582Y-107221766I0J500000D01*
G01*
X77848582Y-107721766D02*
X64848582Y-107721766D01*
X78348582Y-107221766D02*
G75*
G02*
X77848582Y-107721766I-500000J0D01*
G01*
X78348582Y-94221766D02*
X78348582Y-107221766D01*
X77848582Y-93721766D02*
G75*
G02*
X78348582Y-94221766I0J-500000D01*
G01*
X64848582Y-93721766D02*
X77848582Y-93721766D01*
X64348582Y-94221766D02*
G75*
G02*
X64848582Y-93721766I500000J0D01*
G01*
X110711082Y-164371766D02*
X110711082Y-150371766D01*
X111211082Y-164871766D02*
G75*
G02*
X110711082Y-164371766I0J500000D01*
G01*
X117211082Y-164871766D02*
X111211082Y-164871766D01*
X117711082Y-164371766D02*
G75*
G02*
X117211082Y-164871766I-500000J0D01*
G01*
X117711082Y-150371766D02*
X117711082Y-164371766D01*
X117211082Y-149871766D02*
G75*
G02*
X117711082Y-150371766I0J-500000D01*
G01*
X111211082Y-149871766D02*
X117211082Y-149871766D01*
X110711082Y-150371766D02*
G75*
G02*
X111211082Y-149871766I500000J0D01*
G01*
X330800932Y-164371766D02*
X330800932Y-151364795D01*
X331300932Y-164871766D02*
G75*
G02*
X330800882Y-164371766I-50J500000D01*
G01*
X344300882Y-164871766D02*
X331300932Y-164871766D01*
X344800932Y-164378666D02*
G75*
G02*
X344300882Y-164871766I-500150J7100D01*
G01*
X344800932Y-151371766D02*
X344800932Y-164378666D01*
X344300932Y-150871766D02*
G75*
G02*
X344800982Y-151371766I50J-500000D01*
G01*
X331301082Y-150871766D02*
X344300932Y-150871766D01*
X330800932Y-151364795D02*
G75*
G02*
X331301082Y-150871765I500150J-7171D01*
G01*
X125973582Y-75171766D02*
X125973582Y-88171766D01*
X125473582Y-74671766D02*
G75*
G02*
X125973582Y-75171766I0J-500000D01*
G01*
X112473582Y-74671766D02*
X125473582Y-74671766D01*
X111973582Y-75171766D02*
G75*
G02*
X112473582Y-74671766I500000J0D01*
G01*
X111973582Y-88171766D02*
X111973582Y-75171766D01*
X112473582Y-88671766D02*
G75*
G02*
X111973582Y-88171766I0J500000D01*
G01*
X125473582Y-88671766D02*
X112473582Y-88671766D01*
X125973582Y-88171766D02*
G75*
G02*
X125473582Y-88671766I-500000J0D01*
G01*
X225511082Y-149871766D02*
X231511082Y-149871766D01*
X225011082Y-150371766D02*
G75*
G02*
X225511082Y-149871766I500000J0D01*
G01*
X225011082Y-164371766D02*
X225011082Y-150371766D01*
X225511082Y-164871766D02*
G75*
G02*
X225011082Y-164371766I0J500000D01*
G01*
X231511082Y-164871766D02*
X225511082Y-164871766D01*
X232011082Y-164371766D02*
G75*
G02*
X231511082Y-164871766I-500000J0D01*
G01*
X232011082Y-150371766D02*
X232011082Y-164371766D01*
X231511082Y-149871766D02*
G75*
G02*
X232011082Y-150371766I0J-500000D01*
G01*
X349850932Y-88171766D02*
X349850932Y-75164866D01*
X350350932Y-88671766D02*
G75*
G02*
X349850882Y-88171766I-50J500000D01*
G01*
X363350882Y-88671766D02*
X350350932Y-88671766D01*
X363850932Y-88178666D02*
G75*
G02*
X363350882Y-88671766I-500150J7100D01*
G01*
X363850932Y-75171766D02*
X363850932Y-88178666D01*
X363350932Y-74671766D02*
G75*
G02*
X363850982Y-75171766I50J-500000D01*
G01*
X350351082Y-74671766D02*
X363350932Y-74671766D01*
X349850932Y-75164866D02*
G75*
G02*
X350351082Y-74671766I500150J-7100D01*
G01*
X121211082Y-126271766D02*
G75*
G02*
X120711082Y-126771766I-500000J0D01*
G01*
X107711082Y-126771766D02*
X120711082Y-126771766D01*
X107711082Y-126771766D02*
G75*
G02*
X107211082Y-126271766I0J500000D01*
G01*
X107211082Y-113271766D02*
X107211082Y-126271766D01*
X107211082Y-113271766D02*
G75*
G02*
X107711082Y-112771766I500000J0D01*
G01*
X120711082Y-112771766D02*
X107711082Y-112771766D01*
X120711082Y-112771766D02*
G75*
G02*
X121211082Y-113271766I0J-500000D01*
G01*
X121211082Y-126271766D02*
X121211082Y-113271766D01*
X216461082Y-113271766D02*
X216461082Y-126271766D01*
X215961082Y-112771766D02*
G75*
G02*
X216461082Y-113271766I0J-500000D01*
G01*
X202961082Y-112771766D02*
X215961082Y-112771766D01*
X202461082Y-113271766D02*
G75*
G02*
X202961082Y-112771766I500000J0D01*
G01*
X202461082Y-126271766D02*
X202461082Y-113271766D01*
X202961082Y-126771766D02*
G75*
G02*
X202461082Y-126271766I0J500000D01*
G01*
X215961082Y-126771766D02*
X202961082Y-126771766D01*
X216461082Y-126271766D02*
G75*
G02*
X215961082Y-126771766I-500000J0D01*
G01*
X221511082Y-126271766D02*
X221511082Y-113271766D01*
X222011082Y-126771766D02*
G75*
G02*
X221511082Y-126271766I0J500000D01*
G01*
X235011082Y-126771766D02*
X222011082Y-126771766D01*
X235511082Y-126271766D02*
G75*
G02*
X235011082Y-126771766I-500000J0D01*
G01*
X235511082Y-113271766D02*
X235511082Y-126271766D01*
X235011082Y-112771766D02*
G75*
G02*
X235511082Y-113271766I0J-500000D01*
G01*
X222011082Y-112771766D02*
X235011082Y-112771766D01*
X221511082Y-113271766D02*
G75*
G02*
X222011082Y-112771766I500000J0D01*
G01*
X207723582Y-74671766D02*
X220723582Y-74671766D01*
X207223582Y-75171766D02*
G75*
G02*
X207723582Y-74671766I500000J0D01*
G01*
X207223582Y-88171766D02*
X207223582Y-75171766D01*
X207723582Y-88671766D02*
G75*
G02*
X207223582Y-88171766I0J500000D01*
G01*
X220723582Y-88671766D02*
X207723582Y-88671766D01*
X221223582Y-88171766D02*
G75*
G02*
X220723582Y-88671766I-500000J0D01*
G01*
X221223582Y-75171766D02*
X221223582Y-88171766D01*
X220723582Y-74671766D02*
G75*
G02*
X221223582Y-75171766I0J-500000D01*
G01*
X168836082Y-132321766D02*
X168836082Y-145321766D01*
X168336082Y-131821766D02*
G75*
G02*
X168836082Y-132321766I0J-500000D01*
G01*
X155336082Y-131821766D02*
X168336082Y-131821766D01*
X154836082Y-132321766D02*
G75*
G02*
X155336082Y-131821766I500000J0D01*
G01*
X154836082Y-145321766D02*
X154836082Y-132321766D01*
X155336082Y-145821766D02*
G75*
G02*
X154836082Y-145321766I0J500000D01*
G01*
X168336082Y-145821766D02*
X155336082Y-145821766D01*
X168836082Y-145321766D02*
G75*
G02*
X168336082Y-145821766I-500000J0D01*
G01*
X131023582Y-88171766D02*
X131023582Y-75171766D01*
X131523582Y-88671766D02*
G75*
G02*
X131023582Y-88171766I0J500000D01*
G01*
X144523582Y-88671766D02*
X131523582Y-88671766D01*
X145023582Y-88171766D02*
G75*
G02*
X144523582Y-88671766I-500000J0D01*
G01*
X145023582Y-75171766D02*
X145023582Y-88171766D01*
X144523582Y-74671766D02*
G75*
G02*
X145023582Y-75171766I0J-500000D01*
G01*
X131523582Y-74671766D02*
X144523582Y-74671766D01*
X131023582Y-75171766D02*
G75*
G02*
X131523582Y-74671766I500000J0D01*
G01*
X259323582Y-164371766D02*
G75*
G02*
X258823582Y-164871766I-500000J0D01*
G01*
X245823582Y-164871766D02*
X258823582Y-164871766D01*
X245823582Y-164871766D02*
G75*
G02*
X245323582Y-164371766I0J500000D01*
G01*
X245323582Y-151371766D02*
X245323582Y-164371766D01*
X245323582Y-151371766D02*
G75*
G02*
X245823582Y-150871766I500000J0D01*
G01*
X258823582Y-150871766D02*
X245823582Y-150871766D01*
X258823582Y-150871766D02*
G75*
G02*
X259323582Y-151371766I0J-500000D01*
G01*
X259323582Y-164371766D02*
X259323582Y-151371766D01*
X306948582Y-88171766D02*
G75*
G02*
X306448582Y-88671766I-500000J0D01*
G01*
X293448582Y-88671766D02*
X306448582Y-88671766D01*
X293448582Y-88671766D02*
G75*
G02*
X292948582Y-88171766I0J500000D01*
G01*
X292948582Y-75171766D02*
X292948582Y-88171766D01*
X292948582Y-75171766D02*
G75*
G02*
X293448582Y-74671766I500000J0D01*
G01*
X306448582Y-74671766D02*
X293448582Y-74671766D01*
X306448582Y-74671766D02*
G75*
G02*
X306948582Y-75171766I0J-500000D01*
G01*
X306948582Y-88171766D02*
X306948582Y-75171766D01*
X245823582Y-74671766D02*
X258823582Y-74671766D01*
X245323582Y-75171766D02*
G75*
G02*
X245823582Y-74671766I500000J0D01*
G01*
X245323582Y-88171766D02*
X245323582Y-75171766D01*
X245823582Y-88671766D02*
G75*
G02*
X245323582Y-88171766I0J500000D01*
G01*
X258823582Y-88671766D02*
X245823582Y-88671766D01*
X259323582Y-88171766D02*
G75*
G02*
X258823582Y-88671766I-500000J0D01*
G01*
X259323582Y-75171766D02*
X259323582Y-88171766D01*
X258823582Y-74671766D02*
G75*
G02*
X259323582Y-75171766I0J-500000D01*
G01*
X264373582Y-88171766D02*
X264373582Y-75171766D01*
X264873582Y-88671766D02*
G75*
G02*
X264373582Y-88171766I0J500000D01*
G01*
X277873582Y-88671766D02*
X264873582Y-88671766D01*
X278373582Y-88171766D02*
G75*
G02*
X277873582Y-88671766I-500000J0D01*
G01*
X278373582Y-75171766D02*
X278373582Y-88171766D01*
X277873582Y-74671766D02*
G75*
G02*
X278373582Y-75171766I0J-500000D01*
G01*
X264873582Y-74671766D02*
X277873582Y-74671766D01*
X264373582Y-75171766D02*
G75*
G02*
X264873582Y-74671766I500000J0D01*
G01*
X382900932Y-94221766D02*
X382900932Y-107228666D01*
X382400932Y-93721766D02*
G75*
G02*
X382900982Y-94221766I50J-500000D01*
G01*
X369400982Y-93721766D02*
X382400932Y-93721766D01*
X368900932Y-94214795D02*
G75*
G02*
X369400982Y-93721765I500150J-7171D01*
G01*
X368900932Y-107221766D02*
X368900932Y-94214795D01*
X369400932Y-107721766D02*
G75*
G02*
X368900882Y-107221766I-50J500000D01*
G01*
X382400782Y-107721766D02*
X369400932Y-107721766D01*
X382900932Y-107228666D02*
G75*
G02*
X382400782Y-107721766I-500150J7100D01*
G01*
X382900932Y-75171766D02*
X382900932Y-88178666D01*
X382400932Y-74671766D02*
G75*
G02*
X382900982Y-75171766I50J-500000D01*
G01*
X369400982Y-74671766D02*
X382400932Y-74671766D01*
X368900932Y-75164866D02*
G75*
G02*
X369400982Y-74671766I500150J-7100D01*
G01*
X368900932Y-88171766D02*
X368900932Y-75164866D01*
X369400932Y-88671766D02*
G75*
G02*
X368900882Y-88171766I-50J500000D01*
G01*
X382400782Y-88671766D02*
X369400932Y-88671766D01*
X382900932Y-88178666D02*
G75*
G02*
X382400782Y-88671766I-500150J7100D01*
G01*
X150073582Y-75171766D02*
G75*
G02*
X150573582Y-74671766I500000J0D01*
G01*
X163573582Y-74671766D02*
X150573582Y-74671766D01*
X163573582Y-74671766D02*
G75*
G02*
X164073582Y-75171766I0J-500000D01*
G01*
X164073582Y-88171766D02*
X164073582Y-75171766D01*
X164073582Y-88171766D02*
G75*
G02*
X163573582Y-88671766I-500000J0D01*
G01*
X150573582Y-88671766D02*
X163573582Y-88671766D01*
X150573582Y-88671766D02*
G75*
G02*
X150073582Y-88171766I0J500000D01*
G01*
X150073582Y-75171766D02*
X150073582Y-88171766D01*
X102161082Y-113271766D02*
X102161082Y-126271766D01*
X101661082Y-112771766D02*
G75*
G02*
X102161082Y-113271766I0J-500000D01*
G01*
X88661082Y-112771766D02*
X101661082Y-112771766D01*
X88161082Y-113271766D02*
G75*
G02*
X88661082Y-112771766I500000J0D01*
G01*
X88161082Y-126271766D02*
X88161082Y-113271766D01*
X88661082Y-126771766D02*
G75*
G02*
X88161082Y-126271766I0J500000D01*
G01*
X101661082Y-126771766D02*
X88661082Y-126771766D01*
X102161082Y-126271766D02*
G75*
G02*
X101661082Y-126771766I-500000J0D01*
G01*
X159598582Y-107221766D02*
X159598582Y-94221766D01*
X160098582Y-107721766D02*
G75*
G02*
X159598582Y-107221766I0J500000D01*
G01*
X173098582Y-107721766D02*
X160098582Y-107721766D01*
X173598582Y-107221766D02*
G75*
G02*
X173098582Y-107721766I-500000J0D01*
G01*
X173598582Y-94221766D02*
X173598582Y-107221766D01*
X173098582Y-93721766D02*
G75*
G02*
X173598582Y-94221766I0J-500000D01*
G01*
X160098582Y-93721766D02*
X173098582Y-93721766D01*
X159598582Y-94221766D02*
G75*
G02*
X160098582Y-93721766I500000J0D01*
G01*
X314092332Y-151371766D02*
X314092332Y-164378666D01*
X313592332Y-150871766D02*
G75*
G02*
X314092382Y-151371766I50J-500000D01*
G01*
X300592382Y-150871766D02*
X313592332Y-150871766D01*
X300092332Y-151364795D02*
G75*
G02*
X300592382Y-150871765I500150J-7171D01*
G01*
X300092332Y-164371766D02*
X300092332Y-151364795D01*
X300592332Y-164871766D02*
G75*
G02*
X300092282Y-164371766I-50J500000D01*
G01*
X313592182Y-164871766D02*
X300592332Y-164871766D01*
X314092332Y-164378666D02*
G75*
G02*
X313592182Y-164871766I-500150J7100D01*
G01*
X282129332Y-127271766D02*
X282129332Y-113264795D01*
X282629332Y-127771766D02*
G75*
G02*
X282129282Y-127271766I-50J500000D01*
G01*
X288629282Y-127771766D02*
X282629332Y-127771766D01*
X289129332Y-127278666D02*
G75*
G02*
X288629282Y-127771766I-500150J7100D01*
G01*
X289129332Y-113271766D02*
X289129332Y-127278666D01*
X288629332Y-112771766D02*
G75*
G02*
X289129382Y-113271766I50J-500000D01*
G01*
X282629482Y-112771766D02*
X288629332Y-112771766D01*
X282129332Y-113264795D02*
G75*
G02*
X282629482Y-112771765I500150J-7171D01*
G01*
X134998582Y-93721766D02*
G75*
G02*
X135498582Y-94221766I0J-500000D01*
G01*
X135498582Y-107221766D02*
X135498582Y-94221766D01*
X135498582Y-107221766D02*
G75*
G02*
X134998582Y-107721766I-500000J0D01*
G01*
X121998582Y-107721766D02*
X134998582Y-107721766D01*
X121998582Y-107721766D02*
G75*
G02*
X121498582Y-107221766I0J500000D01*
G01*
X121498582Y-94221766D02*
X121498582Y-107221766D01*
X121498582Y-94221766D02*
G75*
G02*
X121998582Y-93721766I500000J0D01*
G01*
X134998582Y-93721766D02*
X121998582Y-93721766D01*
X78636082Y-145321766D02*
X78636082Y-132321766D01*
X79136082Y-145821766D02*
G75*
G02*
X78636082Y-145321766I0J500000D01*
G01*
X92136082Y-145821766D02*
X79136082Y-145821766D01*
X92636082Y-145321766D02*
G75*
G02*
X92136082Y-145821766I-500000J0D01*
G01*
X92636082Y-132321766D02*
X92636082Y-145321766D01*
X92136082Y-131821766D02*
G75*
G02*
X92636082Y-132321766I0J-500000D01*
G01*
X79136082Y-131821766D02*
X92136082Y-131821766D01*
X78636082Y-132321766D02*
G75*
G02*
X79136082Y-131821766I500000J0D01*
G01*
X63117832Y-146321766D02*
X63117832Y-132314795D01*
X63617832Y-146821766D02*
G75*
G02*
X63117782Y-146321766I-50J500000D01*
G01*
X69617782Y-146821766D02*
X63617832Y-146821766D01*
X70117832Y-146328666D02*
G75*
G02*
X69617782Y-146821766I-500150J7100D01*
G01*
X70117832Y-132321766D02*
X70117832Y-146328666D01*
X69617832Y-131821766D02*
G75*
G02*
X70117882Y-132321766I50J-500000D01*
G01*
X63617982Y-131821766D02*
X69617832Y-131821766D01*
X63117832Y-132314795D02*
G75*
G02*
X63617982Y-131821765I500150J-7171D01*
G01*
X42917332Y-126271766D02*
X42917332Y-113271766D01*
X43417332Y-126771766D02*
G75*
G02*
X42917332Y-126271766I0J500000D01*
G01*
X56417282Y-126771766D02*
X43417332Y-126771766D01*
X56917332Y-126278666D02*
G75*
G02*
X56417282Y-126771766I-500150J7100D01*
G01*
X56917332Y-113271766D02*
X56917332Y-126278666D01*
X56417332Y-112771766D02*
G75*
G02*
X56917382Y-113271766I50J-500000D01*
G01*
X43417332Y-112771766D02*
X56417332Y-112771766D01*
X42917332Y-113271766D02*
G75*
G02*
X43417332Y-112771766I500000J0D01*
G01*
X39741833Y-131821766D02*
X45741832Y-131821766D01*
X39241832Y-132321768D02*
G75*
G02*
X39741833Y-131821766I500001J1D01*
G01*
X39241832Y-146321765D02*
X39241832Y-132321768D01*
X39741833Y-146821766D02*
G75*
G02*
X39241832Y-146321765I0J500001D01*
G01*
X45741832Y-146821766D02*
X39741833Y-146821766D01*
X46241832Y-146321766D02*
G75*
G02*
X45741832Y-146821766I-500000J0D01*
G01*
X46241832Y-132321766D02*
X46241832Y-146321766D01*
X45741832Y-131821766D02*
G75*
G02*
X46241832Y-132321766I0J-500000D01*
G01*
X284366832Y-132321766D02*
X284366832Y-146328666D01*
X283866832Y-131821766D02*
G75*
G02*
X284366882Y-132321766I50J-500000D01*
G01*
X277866882Y-131821766D02*
X283866832Y-131821766D01*
X277366832Y-132314795D02*
G75*
G02*
X277866882Y-131821765I500150J-7171D01*
G01*
X277366832Y-146321766D02*
X277366832Y-132314795D01*
X277866832Y-146821766D02*
G75*
G02*
X277366782Y-146321766I-50J500000D01*
G01*
X283866682Y-146821766D02*
X277866832Y-146821766D01*
X284366832Y-146328666D02*
G75*
G02*
X283866682Y-146821766I-500150J7100D01*
G01*
X274398582Y-93721766D02*
X287398582Y-93721766D01*
X273898582Y-94221766D02*
G75*
G02*
X274398582Y-93721766I500000J0D01*
G01*
X273898582Y-107221766D02*
X273898582Y-94221766D01*
X274398582Y-107721766D02*
G75*
G02*
X273898582Y-107221766I0J500000D01*
G01*
X287398582Y-107721766D02*
X274398582Y-107721766D01*
X287898582Y-107221766D02*
G75*
G02*
X287398582Y-107721766I-500000J0D01*
G01*
X287898582Y-94221766D02*
X287898582Y-107221766D01*
X287398582Y-93721766D02*
G75*
G02*
X287898582Y-94221766I0J-500000D01*
G01*
X48179832Y-131821766D02*
X61179832Y-131821766D01*
X47679832Y-132321766D02*
G75*
G02*
X48179832Y-131821766I500000J0D01*
G01*
X47679832Y-145321766D02*
X47679832Y-132321766D01*
X48179832Y-145821766D02*
G75*
G02*
X47679832Y-145321766I0J500000D01*
G01*
X61179782Y-145821766D02*
X48179832Y-145821766D01*
X61679832Y-145328666D02*
G75*
G02*
X61179782Y-145821766I-500150J7100D01*
G01*
X61679832Y-132321766D02*
X61679832Y-145328666D01*
X61179832Y-131821766D02*
G75*
G02*
X61679882Y-132321766I50J-500000D01*
G01*
X69111082Y-126271766D02*
X69111082Y-113271766D01*
X69611082Y-126771766D02*
G75*
G02*
X69111082Y-126271766I0J500000D01*
G01*
X82611082Y-126771766D02*
X69611082Y-126771766D01*
X83111082Y-126271766D02*
G75*
G02*
X82611082Y-126771766I-500000J0D01*
G01*
X83111082Y-113271766D02*
X83111082Y-126271766D01*
X82611082Y-112771766D02*
G75*
G02*
X83111082Y-113271766I0J-500000D01*
G01*
X69611082Y-112771766D02*
X82611082Y-112771766D01*
X69111082Y-113271766D02*
G75*
G02*
X69611082Y-112771766I500000J0D01*
G01*
X106423582Y-74671766D02*
G75*
G02*
X106923582Y-75171766I0J-500000D01*
G01*
X106923582Y-88171766D02*
X106923582Y-75171766D01*
X106923582Y-88171766D02*
G75*
G02*
X106423582Y-88671766I-500000J0D01*
G01*
X93423582Y-88671766D02*
X106423582Y-88671766D01*
X93423582Y-88671766D02*
G75*
G02*
X92923582Y-88171766I0J500000D01*
G01*
X92923582Y-75171766D02*
X92923582Y-88171766D01*
X92923582Y-75171766D02*
G75*
G02*
X93423582Y-74671766I500000J0D01*
G01*
X106423582Y-74671766D02*
X93423582Y-74671766D01*
X216748582Y-107221766D02*
X216748582Y-94221766D01*
X217248582Y-107721766D02*
G75*
G02*
X216748582Y-107221766I0J500000D01*
G01*
X230248582Y-107721766D02*
X217248582Y-107721766D01*
X230748582Y-107221766D02*
G75*
G02*
X230248582Y-107721766I-500000J0D01*
G01*
X230748582Y-94221766D02*
X230748582Y-107221766D01*
X230248582Y-93721766D02*
G75*
G02*
X230748582Y-94221766I0J-500000D01*
G01*
X217248582Y-93721766D02*
X230248582Y-93721766D01*
X216748582Y-94221766D02*
G75*
G02*
X217248582Y-93721766I500000J0D01*
G01*
X264086082Y-132321766D02*
X264086082Y-145321766D01*
X263586082Y-131821766D02*
G75*
G02*
X264086082Y-132321766I0J-500000D01*
G01*
X250586082Y-131821766D02*
X263586082Y-131821766D01*
X250086082Y-132321766D02*
G75*
G02*
X250586082Y-131821766I500000J0D01*
G01*
X250086082Y-145321766D02*
X250086082Y-132321766D01*
X250586082Y-145821766D02*
G75*
G02*
X250086082Y-145321766I0J500000D01*
G01*
X263586082Y-145821766D02*
X250586082Y-145821766D01*
X264086082Y-145321766D02*
G75*
G02*
X263586082Y-145821766I-500000J0D01*
G01*
X198198582Y-93721766D02*
X211198582Y-93721766D01*
X197698582Y-94221766D02*
G75*
G02*
X198198582Y-93721766I500000J0D01*
G01*
X197698582Y-107221766D02*
X197698582Y-94221766D01*
X198198582Y-107721766D02*
G75*
G02*
X197698582Y-107221766I0J500000D01*
G01*
X211198582Y-107721766D02*
X198198582Y-107721766D01*
X211698582Y-107221766D02*
G75*
G02*
X211198582Y-107721766I-500000J0D01*
G01*
X211698582Y-94221766D02*
X211698582Y-107221766D01*
X211198582Y-93721766D02*
G75*
G02*
X211698582Y-94221766I0J-500000D01*
G01*
X51654862Y-150871766D02*
G75*
G02*
X52154832Y-151371736I0J-499970D01*
G01*
X52154832Y-164364666D02*
X52154832Y-151371736D01*
X52154832Y-164364666D02*
G75*
G02*
X51654782Y-164871764I-500150J-6900D01*
G01*
X38654833Y-164871766D02*
X51654782Y-164871766D01*
X38654833Y-164871766D02*
G75*
G02*
X38154832Y-164371765I0J500001D01*
G01*
X38154832Y-151371768D02*
X38154832Y-164371765D01*
X38154832Y-151371768D02*
G75*
G02*
X38654833Y-150871766I500001J1D01*
G01*
X51654862Y-150871766D02*
X38654833Y-150871766D01*
X182623582Y-88671766D02*
X169623582Y-88671766D01*
X183123582Y-88171766D02*
G75*
G02*
X182623582Y-88671766I-500000J0D01*
G01*
X183123582Y-75171766D02*
X183123582Y-88171766D01*
X182623582Y-74671766D02*
G75*
G02*
X183123582Y-75171766I0J-500000D01*
G01*
X169623582Y-74671766D02*
X182623582Y-74671766D01*
X169123582Y-75171766D02*
G75*
G02*
X169623582Y-74671766I500000J0D01*
G01*
X169123582Y-88171766D02*
X169123582Y-75171766D01*
X169623582Y-88671766D02*
G75*
G02*
X169123582Y-88171766I0J500000D01*
G01*
X140261082Y-113271766D02*
X140261082Y-126271766D01*
X139761082Y-112771766D02*
G75*
G02*
X140261082Y-113271766I0J-500000D01*
G01*
X126761082Y-112771766D02*
X139761082Y-112771766D01*
X126261082Y-113271766D02*
G75*
G02*
X126761082Y-112771766I500000J0D01*
G01*
X126261082Y-126271766D02*
X126261082Y-113271766D01*
X126761082Y-126771766D02*
G75*
G02*
X126261082Y-126271766I0J500000D01*
G01*
X139761082Y-126771766D02*
X126761082Y-126771766D01*
X140261082Y-126271766D02*
G75*
G02*
X139761082Y-126771766I-500000J0D01*
G01*
X140548582Y-107221766D02*
X140548582Y-94221766D01*
X141048582Y-107721766D02*
G75*
G02*
X140548582Y-107221766I0J500000D01*
G01*
X154048582Y-107721766D02*
X141048582Y-107721766D01*
X154548582Y-107221766D02*
G75*
G02*
X154048582Y-107721766I-500000J0D01*
G01*
X154548582Y-94221766D02*
X154548582Y-107221766D01*
X154048582Y-93721766D02*
G75*
G02*
X154548582Y-94221766I0J-500000D01*
G01*
X141048582Y-93721766D02*
X154048582Y-93721766D01*
X140548582Y-94221766D02*
G75*
G02*
X141048582Y-93721766I500000J0D01*
G01*
X83898582Y-93721766D02*
X96898582Y-93721766D01*
X83398582Y-94221766D02*
G75*
G02*
X83898582Y-93721766I500000J0D01*
G01*
X83398582Y-107221766D02*
X83398582Y-94221766D01*
X83898582Y-107721766D02*
G75*
G02*
X83398582Y-107221766I0J500000D01*
G01*
X96898582Y-107721766D02*
X83898582Y-107721766D01*
X97398582Y-107221766D02*
G75*
G02*
X96898582Y-107721766I-500000J0D01*
G01*
X97398582Y-94221766D02*
X97398582Y-107221766D01*
X96898582Y-93721766D02*
G75*
G02*
X97398582Y-94221766I0J-500000D01*
G01*
X40536082Y-94221768D02*
G75*
G02*
X41036083Y-93721766I500001J1D01*
G01*
X54036082Y-93721766D02*
X41036083Y-93721766D01*
X54036082Y-93721766D02*
G75*
G02*
X54536082Y-94221766I0J-500000D01*
G01*
X54536082Y-107221766D02*
X54536082Y-94221766D01*
X54536082Y-107221766D02*
G75*
G02*
X54036082Y-107721766I-500000J0D01*
G01*
X41036083Y-107721766D02*
X54036082Y-107721766D01*
X41036083Y-107721766D02*
G75*
G02*
X40536082Y-107221765I0J500001D01*
G01*
X40536082Y-94221768D02*
X40536082Y-107221765D01*
X61967332Y-164371766D02*
X61967332Y-151364795D01*
X62467332Y-164871766D02*
G75*
G02*
X61967282Y-164371766I-50J500000D01*
G01*
X75467282Y-164871766D02*
X62467332Y-164871766D01*
X75967332Y-164378666D02*
G75*
G02*
X75467282Y-164871766I-500150J7100D01*
G01*
X75967332Y-151371766D02*
X75967332Y-164378666D01*
X75467332Y-150871766D02*
G75*
G02*
X75967382Y-151371766I50J-500000D01*
G01*
X62467482Y-150871766D02*
X75467332Y-150871766D01*
X61967332Y-151364795D02*
G75*
G02*
X62467482Y-150871765I500150J-7171D01*
G01*
X187886082Y-132321766D02*
X187886082Y-145321766D01*
X187386082Y-131821766D02*
G75*
G02*
X187886082Y-132321766I0J-500000D01*
G01*
X174386082Y-131821766D02*
X187386082Y-131821766D01*
X173886082Y-132321766D02*
G75*
G02*
X174386082Y-131821766I500000J0D01*
G01*
X173886082Y-145321766D02*
X173886082Y-132321766D01*
X174386082Y-145821766D02*
G75*
G02*
X173886082Y-145321766I0J500000D01*
G01*
X187386082Y-145821766D02*
X174386082Y-145821766D01*
X187886082Y-145321766D02*
G75*
G02*
X187386082Y-145821766I-500000J0D01*
G01*
X226773582Y-74671766D02*
X239773582Y-74671766D01*
X226273582Y-75171766D02*
G75*
G02*
X226773582Y-74671766I500000J0D01*
G01*
X226273582Y-88171766D02*
X226273582Y-75171766D01*
X226773582Y-88671766D02*
G75*
G02*
X226273582Y-88171766I0J500000D01*
G01*
X239773582Y-88671766D02*
X226773582Y-88671766D01*
X240273582Y-88171766D02*
G75*
G02*
X239773582Y-88671766I-500000J0D01*
G01*
X240273582Y-75171766D02*
X240273582Y-88171766D01*
X239773582Y-74671766D02*
G75*
G02*
X240273582Y-75171766I0J-500000D01*
G01*
X308386582Y-75171766D02*
G75*
G02*
X308886582Y-74671766I500000J0D01*
G01*
X314886582Y-74671766D02*
X308886582Y-74671766D01*
X314886582Y-74671766D02*
G75*
G02*
X315386582Y-75171766I0J-500000D01*
G01*
X315386582Y-89171766D02*
X315386582Y-75171766D01*
X315386582Y-89171766D02*
G75*
G02*
X314886582Y-89671766I-500000J0D01*
G01*
X308886582Y-89671766D02*
X314886582Y-89671766D01*
X308886582Y-89671766D02*
G75*
G02*
X308386582Y-89171766I0J500000D01*
G01*
X308386582Y-75171766D02*
X308386582Y-89171766D01*
X363350882Y-164871766D02*
X350350932Y-164871766D01*
X363850932Y-164378666D02*
G75*
G02*
X363350882Y-164871766I-500150J7100D01*
G01*
X363850932Y-151371766D02*
X363850932Y-164378666D01*
X363350932Y-150871766D02*
G75*
G02*
X363850982Y-151371766I50J-500000D01*
G01*
X350350982Y-150871766D02*
X363350932Y-150871766D01*
X349850932Y-151364795D02*
G75*
G02*
X350350982Y-150871765I500150J-7171D01*
G01*
X349850932Y-164371766D02*
X349850932Y-151364795D01*
X350350932Y-164871766D02*
G75*
G02*
X349850882Y-164371766I-50J500000D01*
G01*
X74373582Y-74671766D02*
X87373582Y-74671766D01*
X73873582Y-75171766D02*
G75*
G02*
X74373582Y-74671766I500000J0D01*
G01*
X73873582Y-88171766D02*
X73873582Y-75171766D01*
X74373582Y-88671766D02*
G75*
G02*
X73873582Y-88171766I0J500000D01*
G01*
X87373582Y-88671766D02*
X74373582Y-88671766D01*
X87873582Y-88171766D02*
G75*
G02*
X87373582Y-88671766I-500000J0D01*
G01*
X87873582Y-75171766D02*
X87873582Y-88171766D01*
X87373582Y-74671766D02*
G75*
G02*
X87873582Y-75171766I0J-500000D01*
G01*
X306505382Y-112771766D02*
X312505332Y-112771766D01*
X306005332Y-113264795D02*
G75*
G02*
X306505382Y-112771765I500150J-7171D01*
G01*
X306005332Y-127271766D02*
X306005332Y-113264795D01*
X306505332Y-127771766D02*
G75*
G02*
X306005282Y-127271766I-50J500000D01*
G01*
X312505282Y-127771766D02*
X306505332Y-127771766D01*
X313005332Y-127278666D02*
G75*
G02*
X312505282Y-127771766I-500150J7100D01*
G01*
X313005332Y-113271766D02*
X313005332Y-127278666D01*
X312505332Y-112771766D02*
G75*
G02*
X313005382Y-113271766I50J-500000D01*
G01*
X273611082Y-113271766D02*
X273611082Y-126271766D01*
X273111082Y-112771766D02*
G75*
G02*
X273611082Y-113271766I0J-500000D01*
G01*
X260111082Y-112771766D02*
X273111082Y-112771766D01*
X259611082Y-113271766D02*
G75*
G02*
X260111082Y-112771766I500000J0D01*
G01*
X259611082Y-126271766D02*
X259611082Y-113271766D01*
X260111082Y-126771766D02*
G75*
G02*
X259611082Y-126271766I0J500000D01*
G01*
X273111082Y-126771766D02*
X260111082Y-126771766D01*
X273611082Y-126271766D02*
G75*
G02*
X273111082Y-126771766I-500000J0D01*
G01*
X284510582Y-89171766D02*
X284510582Y-75171766D01*
X285010582Y-89671766D02*
G75*
G02*
X284510582Y-89171766I0J500000D01*
G01*
X291010582Y-89671766D02*
X285010582Y-89671766D01*
X291510582Y-89171766D02*
G75*
G02*
X291010582Y-89671766I-500000J0D01*
G01*
X291510582Y-75171766D02*
X291510582Y-89171766D01*
X291010582Y-74671766D02*
G75*
G02*
X291510582Y-75171766I0J-500000D01*
G01*
X285010582Y-74671766D02*
X291010582Y-74671766D01*
X284510582Y-75171766D02*
G75*
G02*
X285010582Y-74671766I500000J0D01*
G01*
X225486082Y-131821766D02*
G75*
G02*
X225986082Y-132321766I0J-500000D01*
G01*
X225986082Y-145321766D02*
X225986082Y-132321766D01*
X225986082Y-145321766D02*
G75*
G02*
X225486082Y-145821766I-500000J0D01*
G01*
X212486082Y-145821766D02*
X225486082Y-145821766D01*
X212486082Y-145821766D02*
G75*
G02*
X211986082Y-145321766I0J500000D01*
G01*
X211986082Y-132321766D02*
X211986082Y-145321766D01*
X211986082Y-132321766D02*
G75*
G02*
X212486082Y-131821766I500000J0D01*
G01*
X225486082Y-131821766D02*
X212486082Y-131821766D01*
X240561082Y-126271766D02*
X240561082Y-113271766D01*
X241061082Y-126771766D02*
G75*
G02*
X240561082Y-126271766I0J500000D01*
G01*
X254061082Y-126771766D02*
X241061082Y-126771766D01*
X254561082Y-126271766D02*
G75*
G02*
X254061082Y-126771766I-500000J0D01*
G01*
X254561082Y-113271766D02*
X254561082Y-126271766D01*
X254061082Y-112771766D02*
G75*
G02*
X254561082Y-113271766I0J-500000D01*
G01*
X241061082Y-112771766D02*
X254061082Y-112771766D01*
X240561082Y-113271766D02*
G75*
G02*
X241061082Y-112771766I500000J0D01*
G01*
X68823582Y-75171766D02*
X68823582Y-88171766D01*
X68323582Y-74671766D02*
G75*
G02*
X68823582Y-75171766I0J-500000D01*
G01*
X55323582Y-74671766D02*
X68323582Y-74671766D01*
X54823582Y-75171766D02*
G75*
G02*
X55323582Y-74671766I500000J0D01*
G01*
X54823582Y-88171766D02*
X54823582Y-75171766D01*
X55323582Y-88671766D02*
G75*
G02*
X54823582Y-88171766I0J500000D01*
G01*
X68323582Y-88671766D02*
X55323582Y-88671766D01*
X68823582Y-88171766D02*
G75*
G02*
X68323582Y-88671766I-500000J0D01*
G01*
X164361082Y-164371766D02*
X164361082Y-151371766D01*
X164861082Y-164871766D02*
G75*
G02*
X164361082Y-164371766I0J500000D01*
G01*
X177861082Y-164871766D02*
X164861082Y-164871766D01*
X178361082Y-164371766D02*
G75*
G02*
X177861082Y-164871766I-500000J0D01*
G01*
X178361082Y-151371766D02*
X178361082Y-164371766D01*
X177861082Y-150871766D02*
G75*
G02*
X178361082Y-151371766I0J-500000D01*
G01*
X164861082Y-150871766D02*
X177861082Y-150871766D01*
X164361082Y-151371766D02*
G75*
G02*
X164861082Y-150871766I500000J0D01*
G01*
X304567332Y-113271766D02*
X304567332Y-126278666D01*
X304067332Y-112771766D02*
G75*
G02*
X304567382Y-113271766I50J-500000D01*
G01*
X291067382Y-112771766D02*
X304067332Y-112771766D01*
X290567332Y-113264795D02*
G75*
G02*
X291067382Y-112771765I500150J-7171D01*
G01*
X290567332Y-126271766D02*
X290567332Y-113264795D01*
X291067332Y-126771766D02*
G75*
G02*
X290567282Y-126271766I-50J500000D01*
G01*
X304067182Y-126771766D02*
X291067332Y-126771766D01*
X304567332Y-126278666D02*
G75*
G02*
X304067182Y-126771766I-500150J7100D01*
G01*
X363850932Y-94221766D02*
X363850932Y-107228666D01*
X363350932Y-93721766D02*
G75*
G02*
X363850982Y-94221766I50J-500000D01*
G01*
X350350982Y-93721766D02*
X363350932Y-93721766D01*
X349850932Y-94214795D02*
G75*
G02*
X350350982Y-93721765I500150J-7171D01*
G01*
X349850932Y-107221766D02*
X349850932Y-94214795D01*
X350350932Y-107721766D02*
G75*
G02*
X349850882Y-107221766I-50J500000D01*
G01*
X363350782Y-107721766D02*
X350350932Y-107721766D01*
X363850932Y-107228666D02*
G75*
G02*
X363350782Y-107721766I-500150J7100D01*
G01*
X331300982Y-74671766D02*
X344300932Y-74671766D01*
X330800932Y-75164866D02*
G75*
G02*
X331300982Y-74671766I500150J-7100D01*
G01*
X330800932Y-88171766D02*
X330800932Y-75164866D01*
X331300932Y-88671766D02*
G75*
G02*
X330800882Y-88171766I-50J500000D01*
G01*
X344300882Y-88671766D02*
X331300932Y-88671766D01*
X344800932Y-88178666D02*
G75*
G02*
X344300882Y-88671766I-500150J7100D01*
G01*
X344800932Y-75171766D02*
X344800932Y-88178666D01*
X344300932Y-74671766D02*
G75*
G02*
X344800982Y-75171766I50J-500000D01*
G01*
X368900932Y-164371766D02*
X368900932Y-151364795D01*
X369400932Y-164871766D02*
G75*
G02*
X368900882Y-164371766I-50J500000D01*
G01*
X382400882Y-164871766D02*
X369400932Y-164871766D01*
X382900932Y-164378666D02*
G75*
G02*
X382400882Y-164871766I-500150J7100D01*
G01*
X382900932Y-151371766D02*
X382900932Y-164378666D01*
X382400932Y-150871766D02*
G75*
G02*
X382900982Y-151371766I50J-500000D01*
G01*
X369401082Y-150871766D02*
X382400932Y-150871766D01*
X368900932Y-151364795D02*
G75*
G02*
X369401082Y-150871765I500150J-7171D01*
G01*
X86279882Y-150871766D02*
X99279832Y-150871766D01*
X85779832Y-151364795D02*
G75*
G02*
X86279882Y-150871765I500150J-7171D01*
G01*
X85779832Y-164371766D02*
X85779832Y-151364795D01*
X86279832Y-164871766D02*
G75*
G02*
X85779782Y-164371766I-50J500000D01*
G01*
X99279782Y-164871766D02*
X86279832Y-164871766D01*
X99779832Y-164378666D02*
G75*
G02*
X99279782Y-164871766I-500150J7100D01*
G01*
X99779832Y-151371766D02*
X99779832Y-164378666D01*
X99279832Y-150871766D02*
G75*
G02*
X99779882Y-151371766I50J-500000D01*
G01*
X111186082Y-145821766D02*
X98186082Y-145821766D01*
X111686082Y-145321766D02*
G75*
G02*
X111186082Y-145821766I-500000J0D01*
G01*
X111686082Y-132321766D02*
X111686082Y-145321766D01*
X111186082Y-131821766D02*
G75*
G02*
X111686082Y-132321766I0J-500000D01*
G01*
X98186082Y-131821766D02*
X111186082Y-131821766D01*
X97686082Y-132321766D02*
G75*
G02*
X98186082Y-131821766I500000J0D01*
G01*
X97686082Y-145321766D02*
X97686082Y-132321766D01*
X98186082Y-145821766D02*
G75*
G02*
X97686082Y-145321766I0J500000D01*
G01*
X116448582Y-94221766D02*
X116448582Y-107221766D01*
X115948582Y-93721766D02*
G75*
G02*
X116448582Y-94221766I0J-500000D01*
G01*
X102948582Y-93721766D02*
X115948582Y-93721766D01*
X102448582Y-94221766D02*
G75*
G02*
X102948582Y-93721766I500000J0D01*
G01*
X102448582Y-107221766D02*
X102448582Y-94221766D01*
X102948582Y-107721766D02*
G75*
G02*
X102448582Y-107221766I0J500000D01*
G01*
X115948582Y-107721766D02*
X102948582Y-107721766D01*
X116448582Y-107221766D02*
G75*
G02*
X115948582Y-107721766I-500000J0D01*
G01*
X331300982Y-93721766D02*
X344300932Y-93721766D01*
X330800932Y-94214795D02*
G75*
G02*
X331300982Y-93721765I500150J-7171D01*
G01*
X330800932Y-107221766D02*
X330800932Y-94214795D01*
X331300932Y-107721766D02*
G75*
G02*
X330800882Y-107221766I-50J500000D01*
G01*
X344300882Y-107721766D02*
X331300932Y-107721766D01*
X344800932Y-107228666D02*
G75*
G02*
X344300882Y-107721766I-500150J7100D01*
G01*
X344800932Y-94221766D02*
X344800932Y-107228666D01*
X344300932Y-93721766D02*
G75*
G02*
X344800982Y-94221766I50J-500000D01*
G01*
X202173582Y-75171766D02*
X202173582Y-88171766D01*
X201673582Y-74671766D02*
G75*
G02*
X202173582Y-75171766I0J-500000D01*
G01*
X188673582Y-74671766D02*
X201673582Y-74671766D01*
X188173582Y-75171766D02*
G75*
G02*
X188673582Y-74671766I500000J0D01*
G01*
X188173582Y-88171766D02*
X188173582Y-75171766D01*
X188673582Y-88671766D02*
G75*
G02*
X188173582Y-88171766I0J500000D01*
G01*
X201673582Y-88671766D02*
X188673582Y-88671766D01*
X202173582Y-88171766D02*
G75*
G02*
X201673582Y-88671766I-500000J0D01*
G01*
X164361082Y-126271766D02*
X164361082Y-113271766D01*
X164861082Y-126771766D02*
G75*
G02*
X164361082Y-126271766I0J500000D01*
G01*
X177861082Y-126771766D02*
X164861082Y-126771766D01*
X178361082Y-126271766D02*
G75*
G02*
X177861082Y-126771766I-500000J0D01*
G01*
X178361082Y-113271766D02*
X178361082Y-126271766D01*
X177861082Y-112771766D02*
G75*
G02*
X178361082Y-113271766I0J-500000D01*
G01*
X164861082Y-112771766D02*
X177861082Y-112771766D01*
X164361082Y-113271766D02*
G75*
G02*
X164861082Y-112771766I500000J0D01*
G01*
X145811082Y-112771766D02*
X158811082Y-112771766D01*
X145311082Y-113271766D02*
G75*
G02*
X145811082Y-112771766I500000J0D01*
G01*
X145311082Y-126271766D02*
X145311082Y-113271766D01*
X145811082Y-126771766D02*
G75*
G02*
X145311082Y-126271766I0J500000D01*
G01*
X158811082Y-126771766D02*
X145811082Y-126771766D01*
X159311082Y-126271766D02*
G75*
G02*
X158811082Y-126771766I-500000J0D01*
G01*
X159311082Y-113271766D02*
X159311082Y-126271766D01*
X158811082Y-112771766D02*
G75*
G02*
X159311082Y-113271766I0J-500000D01*
G01*
X206436082Y-145821766D02*
X193436082Y-145821766D01*
X206936082Y-145321766D02*
G75*
G02*
X206436082Y-145821766I-500000J0D01*
G01*
X206936082Y-132321766D02*
X206936082Y-145321766D01*
X206436082Y-131821766D02*
G75*
G02*
X206936082Y-132321766I0J-500000D01*
G01*
X193436082Y-131821766D02*
X206436082Y-131821766D01*
X192936082Y-132321766D02*
G75*
G02*
X193436082Y-131821766I500000J0D01*
G01*
X192936082Y-145321766D02*
X192936082Y-132321766D01*
X193436082Y-145821766D02*
G75*
G02*
X192936082Y-145321766I0J500000D01*
G01*
X363850932Y-132321766D02*
X363850932Y-145328666D01*
X363350932Y-131821766D02*
G75*
G02*
X363850982Y-132321766I50J-500000D01*
G01*
X350350982Y-131821766D02*
X363350932Y-131821766D01*
X349850932Y-132314795D02*
G75*
G02*
X350350982Y-131821765I500150J-7171D01*
G01*
X349850932Y-145321766D02*
X349850932Y-132314795D01*
X350350932Y-145821766D02*
G75*
G02*
X349850882Y-145321766I-50J500000D01*
G01*
X363350782Y-145821766D02*
X350350932Y-145821766D01*
X363850932Y-145328666D02*
G75*
G02*
X363350782Y-145821766I-500150J7100D01*
G01*
X299304832Y-131821766D02*
G75*
G02*
X299804882Y-132321766I50J-500000D01*
G01*
X299804832Y-145314666D02*
X299804832Y-132321766D01*
X299804832Y-145314666D02*
G75*
G02*
X299304782Y-145821764I-500150J-6900D01*
G01*
X286304832Y-145821766D02*
X299304782Y-145821766D01*
X286304832Y-145821766D02*
G75*
G02*
X285804782Y-145321766I-50J500000D01*
G01*
X285804832Y-132328937D02*
X285804832Y-145321766D01*
X285804832Y-132328937D02*
G75*
G02*
X286304982Y-131821767I500150J6971D01*
G01*
X299304832Y-131821766D02*
X286304982Y-131821766D01*
X297711082Y-107221766D02*
X297711082Y-94221766D01*
X298211082Y-107721766D02*
G75*
G02*
X297711082Y-107221766I0J500000D01*
G01*
X311211082Y-107721766D02*
X298211082Y-107721766D01*
X311711082Y-107221766D02*
G75*
G02*
X311211082Y-107721766I-500000J0D01*
G01*
X311711082Y-94221766D02*
X311711082Y-107221766D01*
X311211082Y-93721766D02*
G75*
G02*
X311711082Y-94221766I0J-500000D01*
G01*
X298211082Y-93721766D02*
X311211082Y-93721766D01*
X297711082Y-94221766D02*
G75*
G02*
X298211082Y-93721766I500000J0D01*
G01*
X287898582Y-151371766D02*
X287898582Y-164371766D01*
X287398582Y-150871766D02*
G75*
G02*
X287898582Y-151371766I0J-500000D01*
G01*
X274398582Y-150871766D02*
X287398582Y-150871766D01*
X273898582Y-151371766D02*
G75*
G02*
X274398582Y-150871766I500000J0D01*
G01*
X273898582Y-164371766D02*
X273898582Y-151371766D01*
X274398582Y-164871766D02*
G75*
G02*
X273898582Y-164371766I0J500000D01*
G01*
X287398582Y-164871766D02*
X274398582Y-164871766D01*
X287898582Y-164371766D02*
G75*
G02*
X287398582Y-164871766I-500000J0D01*
G01*
X317662332Y-45092454D02*
G75*
G02*
X317962394Y-45392466I50J-300012D01*
G01*
X317470256Y-45092454D02*
X317662332Y-45092454D01*
X317470256Y-45092454D02*
G75*
G02*
X316962334Y-44592466I-7774J500088D01*
G01*
X316962332Y-42092466D02*
X316962332Y-44592466D01*
X314962332Y-40092454D02*
G75*
G02*
X316962394Y-42092466I50J-2000012D01*
G01*
X32199999Y-40092454D02*
X314962332Y-40092454D01*
X26200000Y-46092453D02*
G75*
G02*
X32199999Y-40092454I5999999J0D01*
G01*
X26200000Y-170400000D02*
X26200000Y-46092453D01*
X30199999Y-174400000D02*
G75*
G02*
X26200000Y-170400000I1J4000000D01*
G01*
X388433582Y-174400000D02*
X30199999Y-174400000D01*
X392433581Y-170400000D02*
G75*
G02*
X388433582Y-174400065I-3999999J-66D01*
G01*
X392433581Y-46092466D02*
X392433581Y-170400000D01*
X386433581Y-40092454D02*
G75*
G02*
X392433594Y-46092466I1J-6000012D01*
G01*
X331902482Y-40092454D02*
X386433581Y-40092454D01*
X329902332Y-42076946D02*
G75*
G02*
X331902482Y-40092454I2000150J-15720D01*
G01*
X329902332Y-44592454D02*
X329902332Y-42076946D01*
X329902332Y-44592454D02*
G75*
G02*
X329402382Y-45092516I-499950J-112D01*
G01*
X329202482Y-45092454D02*
X329402382Y-45092454D01*
X328902332Y-45386516D02*
G75*
G02*
X329202482Y-45092453I300150J-6150D01*
G01*
X328902332Y-46092454D02*
X328902332Y-45386516D01*
X382112104Y-46092454D02*
X328902332Y-46092454D01*
X382112104Y-46092454D02*
G75*
G02*
X386433580Y-50381474I14378J-4307112D01*
G01*
X386433581Y-71124951D02*
X386433581Y-50381474D01*
X32200000Y-71124951D02*
X386433581Y-71124951D01*
X32200000Y-50399452D02*
X32200000Y-71124951D01*
X32200000Y-50399452D02*
G75*
G02*
X36506997Y-46092454I4306998J0D01*
G01*
X317962332Y-46092454D02*
X36506997Y-46092454D01*
X317962332Y-45392466D02*
X317962332Y-46092454D01*
M02*
