0
SECTION
2
HEADER
9
$INSUNITS
70
4
9
$ACADVER
1
AC1014
9
$HANDSEED
5
FFFF
0
ENDSEC
0
SECTION
2
TABLES
0
TABLE
2
VPORT
5
8
100
AcDbSymbolTable
0
ENDTAB
0
TABLE
2
LTYPE
5
5
100
AcDbSymbolTable
0
LTYPE
5
14
100
AcDbSymbolTableRecord
100
AcDbLinetypeTableRecord
2
BYBLOCK
70
0
0
LTYPE
5
15
100
AcDbSymbolTableRecord
100
AcDbLinetypeTableRecord
2
BYLAYER
70
0
0
LTYPE
5
16
100
AcDbSymbolTableRecord
100
AcDbLinetypeTableRecord
2
DASHED
70
0
3
Dashed __ __ __ __ __ __ __ __ __ __ __ __ __ _
72
65
73
2
40
0.75
49
0.5
74
0
49
-0.25
74
0
0
ENDTAB
0
TABLE
2
LAYER
5
2
100
AcDbSymbolTable
70
3
0
LAYER
5
50
100
AcDbSymbolTableRecord
100
AcDbLayerTableRecord
2
1
70
0
62
7
6
DASHED
0
LAYER
5
51
100
AcDbSymbolTableRecord
100
AcDbLayerTableRecord
2
0
70
0
62
7
6
CONTINUOUS
0
ENDTAB
0
TABLE
2
STYLE
5
3
100
AcDbSymbolTable
70
1
0
STYLE
5
11
100
AcDbSymbolTableRecord
100
AcDbTextStyleTableRecord
2
STANDARD
70
0
0
ENDTAB
0
TABLE
2
VIEW
5
6
100
AcDbSymbolTable
70
0
0
ENDTAB
0
TABLE
2
UCS
5
7
100
AcDbSymbolTable
70
0
0
ENDTAB
0
TABLE
2
APPID
5
9
100
AcDbSymbolTable
70
2
0
APPID
5
12
100
AcDbSymbolTableRecord
100
AcDbRegAppTableRecord
2
ACAD
70
0
0
ENDTAB
0
TABLE
2
DIMSTYLE
5
A
100
AcDbSymbolTable
70
1
0
ENDTAB
0
TABLE
2
BLOCK_RECORD
5
1
100
AcDbSymbolTable
70
1
0
BLOCK_RECORD
5
1F
100
AcDbSymbolTableRecord
100
AcDbBlockTableRecord
2
*MODEL_SPACE
0
BLOCK_RECORD
5
1B
100
AcDbSymbolTableRecord
100
AcDbBlockTableRecord
2
*PAPER_SPACE
0
ENDTAB
0
ENDSEC
0
SECTION
2
BLOCKS
0
BLOCK
5
20
100
AcDbEntity
100
AcDbBlockBegin
2
*MODEL_SPACE
0
ENDBLK
5
21
100
AcDbEntity
100
AcDbBlockEnd
0
BLOCK
5
1C
100
AcDbEntity
100
AcDbBlockBegin
2
*PAPER_SPACE
0
ENDBLK
5
1D
100
AcDbEntity
100
AcDbBlockEnd
0
ENDSEC
0
SECTION
2
ENTITIES
0
LWPOLYLINE
5
100
100
AcDbEntity
8
0
100
AcDbPolyline
90
28
70
1
43
0.0
10
275.18874999999997
20
-36.279311855048931
10
275.18875000000003
20
-35.5793118550489
10
-6.2665831051821286
20
-35.5793118550489
42
-0.4142205665038286
10
-10.57358212473655
20
-31.272209838674261
10
-10.57358212473655
20
-10.546815256217727
10
343.65999857527748
20
-10.546815256217705
10
343.65999857527748
20
-31.253910736925548
42
-0.41545611077618017
10
339.35290037359994
20
-35.579311855048928
10
286.12875000000003
20
-35.579311855048928
10
286.12875000000008
20
-36.279311855048945
42
0.41421356237304735
10
286.42875000000004
20
-36.579311855048942
10
286.62874999999997
20
-36.579311855048921
42
-0.41421356237304041
10
287.12874999999997
20
-37.079311855048942
10
287.12875000000003
20
-39.579311855048907
42
0.41421356237309509
10
289.12874999999997
20
-41.5793118550489
10
343.65999857527748
20
-41.579311855048914
42
0.41421356237309509
10
349.65999857527748
20
-35.5793118550489
10
349.65999857527748
20
88.728233680014469
42
0.41421356237308726
10
345.65999857527754
20
92.728233680014412
10
-12.573582124736546
20
92.728233680014526
42
0.41421356237309309
10
-16.573582124736561
20
88.728233680014512
10
-16.573582124736546
20
-35.5793118550489
42
0.4142135623730952
10
-10.573582124736546
20
-41.5793118550489
10
272.18875000000003
20
-41.5793118550489
42
0.41421356237309509
10
274.18875000000003
20
-39.579311855048907
10
274.18875000000003
20
-37.079311855048928
42
-0.41421356237312362
10
274.68875000000003
20
-36.579311855048928
10
274.88875000000002
20
-36.579311855048921
42
0.41421356237303869
0
CIRCLE
5
101
100
AcDbEntity
8
0
100
AcDbCircle
10
-12.073582124736548
20
-37.079311855048893
30
0
40
1.6999999999999993
210
0
220
-0
230
1
0
CIRCLE
5
102
100
AcDbEntity
8
0
100
AcDbCircle
10
166.54320822527046
20
89.728233680014483
30
0
40
1.0999999999999943
210
0
220
-0
230
1
0
CIRCLE
5
103
100
AcDbEntity
8
0
100
AcDbCircle
10
-13.159582124736533
20
89.314233680014524
30
0
40
1.7000000000000015
210
0
220
-0
230
1
0
CIRCLE
5
104
100
AcDbEntity
8
0
100
AcDbCircle
10
166.54320822527046
20
-38.5793118550489
30
0
40
1.0999999999999943
210
0
220
-0
230
1
0
CIRCLE
5
105
100
AcDbEntity
8
0
100
AcDbCircle
10
345.15999857527743
20
-37.079311855048907
30
0
40
1.7000000000000171
210
0
220
-0
230
1
0
CIRCLE
5
106
100
AcDbEntity
8
0
100
AcDbCircle
10
346.2459985752775
20
89.314233680014439
30
0
40
1.7000000000000171
210
0
220
-0
230
1
0
LWPOLYLINE
5
107
100
AcDbEntity
8
0
100
AcDbPolyline
90
8
70
1
43
0.0
10
245.12500000000003
20
82.699999999999989
42
0.41421356237313667
10
244.62500000000003
20
83.200000000000003
10
231.625
20
83.200000000000003
42
0.41421356237310542
10
231.125
20
82.699999999999989
10
231.125
20
69.700000000000003
42
0.4142135623730222
10
231.625
20
69.200000000000003
10
244.62500000000003
20
69.199999999999989
42
0.41421356237313145
10
245.12500000000003
20
69.700000000000003
0
LWPOLYLINE
5
108
100
AcDbEntity
8
0
100
AcDbPolyline
90
8
70
1
43
0.0
10
254.9375
20
12.549999999999999
42
0.41421356237307683
10
255.4375
20
12.050000000000022
10
268.4375
20
12.049999999999992
42
0.41421356237312362
10
268.9375
20
12.549999999999999
10
268.9375
20
25.550000000000001
42
0.41421356237305079
10
268.4375
20
26.050000000000001
10
255.4375
20
26.050000000000008
42
0.41421356237313406
10
254.9375
20
25.550000000000001
0
LWPOLYLINE
5
109
100
AcDbEntity
8
0
100
AcDbPolyline
90
8
70
1
43
0.0
10
256.53125
20
50.149999999999999
10
243.53125000000003
20
50.150000000000034
42
-0.41421356237307427
10
243.03125
20
50.650000000000006
10
243.03125
20
63.650000000000006
42
-0.41421356237313667
10
243.53125000000003
20
64.150000000000006
10
256.53125
20
64.149999999999977
42
-0.41421356237307427
10
257.03125
20
63.650000000000006
10
257.03125
20
50.650000000000006
42
-0.41421356237313145
0
LWPOLYLINE
5
110
100
AcDbEntity
8
0
100
AcDbPolyline
90
8
70
1
43
0.0
10
321.07734999999997
20
63.650000000000006
42
0.41421356237318868
10
320.57735000000002
20
64.149999999999991
10
307.57735000000002
20
64.150000000000006
42
0.41421356237313667
10
307.07735000000002
20
63.650000000000006
10
307.07735000000002
20
50.650000000000006
42
0.41421356237307427
10
307.57735000000002
20
50.150000000000006
10
320.57735000000002
20
50.150000000000034
42
0.4142135623730222
10
321.07734999999997
20
50.650000000000006
0
LWPOLYLINE
5
111
100
AcDbEntity
8
0
100
AcDbPolyline
90
8
70
1
43
0.0
10
150.66249999999999
20
64.150000000000006
42
0.4142135623731002
10
150.16249999999999
20
63.650000000000006
10
150.16249999999999
20
50.650000000000006
42
0.41421356237308982
10
150.66249999999999
20
50.150000000000006
10
163.66250000000002
20
50.149999999999999
42
0.41421356237312101
10
164.16250000000002
20
50.650000000000006
10
164.16250000000002
20
63.650000000000006
42
0.4142135623730222
10
163.66250000000002
20
64.150000000000006
0
LWPOLYLINE
5
112
100
AcDbEntity
8
0
100
AcDbPolyline
90
8
70
1
43
0.0
10
116.03749999999999
20
31.099999999999991
42
0.41421356237307427
10
116.53750000000001
20
31.599999999999998
10
116.53749999999999
20
44.600000000000009
42
0.41421356237310542
10
116.03749999999999
20
45.100000000000009
10
103.03750000000001
20
45.100000000000016
42
0.4142135623731002
10
102.53749999999999
20
44.600000000000009
10
102.53749999999999
20
31.599999999999998
42
0.41421356237310802
10
103.03750000000001
20
31.099999999999998
0
LWPOLYLINE
5
113
100
AcDbEntity
8
0
100
AcDbPolyline
90
8
70
1
43
0.0
10
121.58750000000001
20
31.599999999999998
42
0.41421356237310802
10
122.08750000000002
20
31.100000000000001
10
135.08750000000001
20
31.099999999999991
42
0.41421356237307427
10
135.58750000000001
20
31.599999999999998
10
135.58750000000001
20
44.600000000000009
42
0.41421356237310542
10
135.08750000000001
20
45.100000000000009
10
122.08750000000002
20
45.100000000000016
42
0.4142135623731002
10
121.58750000000001
20
44.600000000000009
0
LWPOLYLINE
5
114
100
AcDbEntity
8
0
100
AcDbPolyline
90
8
70
1
43
0.0
10
159.40000000000001
20
6.5
42
0.4142135623731048
10
158.90000000000001
20
6.9999999999999885
10
145.90000000000001
20
7.0000000000000071
42
0.41421356237307361
10
145.40000000000001
20
6.5
10
145.40000000000001
20
-6.5
42
0.41421356237307427
10
145.90000000000001
20
-7
10
158.90000000000001
20
-7.0000000000000071
42
0.41421356237309437
10
159.40000000000001
20
-6.5
0
LWPOLYLINE
5
115
100
AcDbEntity
8
0
100
AcDbPolyline
90
8
70
1
43
0.0
10
301.52735000000001
20
12.049999999999992
42
0.41421356237312362
10
302.02735000000007
20
12.549999999999999
10
302.02735000000001
20
25.550000000000001
42
0.41421356237305079
10
301.52735000000001
20
26.050000000000001
10
288.52735000000001
20
26.050000000000008
42
0.41421356237313406
10
288.02734999999996
20
25.550000000000001
10
288.02734999999996
20
12.549999999999999
42
0.41421356237307683
10
288.52735000000001
20
12.050000000000001
0
LWPOLYLINE
5
116
100
AcDbEntity
8
0
100
AcDbPolyline
90
8
70
1
43
0.0
10
73.675000000000011
20
25.550000000000001
42
0.41421356237309759
10
73.175000000000011
20
26.050000000000004
10
60.174999999999997
20
26.050000000000001
42
0.41421356237309759
10
59.675000000000011
20
25.550000000000001
10
59.675000000000004
20
12.549999999999999
42
0.41421356237309759
10
60.174999999999997
20
12.050000000000001
10
73.175000000000011
20
12.049999999999992
42
0.41421356237310542
10
73.675000000000011
20
12.549999999999999
0
LWPOLYLINE
5
117
100
AcDbEntity
8
0
100
AcDbPolyline
90
8
70
1
43
0.0
10
55.412499999999994
20
64.150000000000006
42
0.41421356237310542
10
54.912500000000001
20
63.650000000000006
10
54.912500000000001
20
50.650000000000006
42
0.41421356237309509
10
55.412499999999994
20
50.150000000000006
10
68.412500000000009
20
50.150000000000006
42
0.41421356237309509
10
68.912499999999994
20
50.650000000000006
10
68.912500000000009
20
63.650000000000006
42
0.41421356237310542
10
68.412500000000009
20
64.150000000000006
0
LWPOLYLINE
5
118
100
AcDbEntity
8
0
100
AcDbPolyline
90
8
70
1
43
0.0
10
56.506249999999994
20
69.200000000000003
42
0.41421356237309509
10
57.006249999999994
20
69.700000000000003
10
57.006250000000009
20
82.699999999999989
42
0.4142135623731002
10
56.506249999999994
20
83.200000000000003
10
43.506250000000009
20
83.200000000000003
42
0.41421356237310542
10
43.006250000000001
20
82.699999999999989
10
43.006250000000009
20
69.700000000000003
42
0.41421356237309509
10
43.506250000000009
20
69.200000000000003
0
LWPOLYLINE
5
119
100
AcDbEntity
8
0
100
AcDbPolyline
90
8
70
1
43
0.0
10
326.12735000000009
20
69.700000000000003
42
0.41421356237315743
10
326.62734999999998
20
69.199999999999989
10
339.62735000000004
20
69.200000000000031
42
0.4142135623730222
10
340.12734999999998
20
69.700000000000003
10
340.12735000000009
20
82.699999999999989
42
0.41421356237313667
10
339.62735000000004
20
83.200000000000003
10
326.62735000000004
20
83.19999999999996
42
0.4142135623730222
10
326.12735000000009
20
82.699999999999989
0
LWPOLYLINE
5
120
100
AcDbEntity
8
0
100
AcDbPolyline
90
8
70
1
43
0.0
10
301.52735000000001
20
-7.0000000000000071
42
0.4142135623731022
10
302.02735000000001
20
-6.5
10
302.02735000000001
20
6.5
42
0.41421356237302481
10
301.52735000000001
20
7.0000000000000009
10
288.52735000000001
20
7.0000000000000071
42
0.41421356237313345
10
288.02734999999996
20
6.5
10
288.02734999999996
20
-6.5
42
0.41421356237307744
10
288.52735000000001
20
-7
0
LWPOLYLINE
5
121
100
AcDbEntity
8
0
100
AcDbPolyline
90
8
70
1
43
0.0
10
321.07734999999997
20
25.550000000000001
42
0.4142135623731939
10
320.57735000000002
20
26.050000000000001
10
307.57735000000002
20
26.050000000000008
42
0.41421356237313406
10
307.07735000000002
20
25.550000000000001
10
307.07735000000002
20
12.549999999999999
42
0.41421356237307683
10
307.57735000000002
20
12.050000000000001
10
320.57735000000002
20
12.050000000000027
42
0.41421356237301959
10
321.07734999999997
20
12.549999999999999
0
LWPOLYLINE
5
122
100
AcDbEntity
8
0
100
AcDbPolyline
90
8
70
1
43
0.0
10
261.79375000000005
20
44.600000000000009
42
0.4142135623730222
10
261.29375000000005
20
45.100000000000037
10
248.29375000000002
20
45.100000000000016
42
0.41421356237313667
10
247.79375000000002
20
44.600000000000009
10
247.79375000000002
20
31.599999999999998
42
0.41421356237308204
10
248.29375000000002
20
31.099999999999998
10
261.29375000000005
20
31.099999999999991
42
0.41421356237310281
10
261.79375000000005
20
31.599999999999998
0
LWPOLYLINE
5
123
100
AcDbEntity
8
0
100
AcDbPolyline
90
8
70
1
43
0.0
10
121.58750000000001
20
69.700000000000003
42
0.41421356237308982
10
122.08750000000002
20
69.200000000000003
10
135.08750000000001
20
69.199999999999989
42
0.41421356237307427
10
135.58750000000001
20
69.700000000000003
10
135.58750000000001
20
82.699999999999989
42
0.41421356237307427
10
135.08750000000001
20
83.200000000000003
10
122.08750000000002
20
83.200000000000003
42
0.41421356237309509
10
121.58750000000001
20
82.699999999999989
0
LWPOLYLINE
5
124
100
AcDbEntity
8
0
100
AcDbPolyline
90
8
70
1
43
0.0
10
26.050000000000004
20
6.5
42
0.41421356237309109
10
25.550000000000004
20
7.0000000000000009
10
12.549999999999999
20
6.9999999999999982
42
0.41421356237309437
10
12.050000000000001
20
6.5
10
12.049999999999999
20
-6.5
42
0.41421356237309509
10
12.549999999999999
20
-7
10
25.550000000000001
20
-6.9999999999999982
42
0.41421356237309437
10
26.050000000000001
20
-6.5
0
LWPOLYLINE
5
125
100
AcDbEntity
8
0
100
AcDbPolyline
90
8
70
1
43
0.0
10
197.78749999999999
20
31.599999999999998
42
0.41421356237305079
10
198.28749999999999
20
31.099999999999994
10
211.28749999999999
20
31.099999999999991
42
0.41421356237313406
10
211.78750000000002
20
31.599999999999998
10
211.78750000000002
20
44.600000000000009
42
0.41421356237307427
10
211.28749999999999
20
45.100000000000009
10
198.28749999999999
20
45.100000000000016
42
0.41421356237312629
10
197.78749999999999
20
44.600000000000009
0
LWPOLYLINE
5
126
100
AcDbEntity
8
0
100
AcDbPolyline
90
8
70
1
43
0.0
10
182.71250000000003
20
50.149999999999999
10
169.71250000000001
20
50.150000000000034
42
-0.41421356237307427
10
169.21250000000001
20
50.650000000000006
10
169.21250000000001
20
63.650000000000006
42
-0.41421356237313667
10
169.71250000000001
20
64.150000000000006
10
182.71250000000003
20
64.150000000000034
42
-0.4142135623730222
10
183.21250000000003
20
63.650000000000006
10
183.21250000000006
20
50.650000000000006
42
-0.41421356237312101
0
LWPOLYLINE
5
127
100
AcDbEntity
8
0
100
AcDbPolyline
90
8
70
1
43
0.0
10
241.73699999999999
20
-6.5
42
0.41421356237304624
10
242.23700000000002
20
-6.9999999999999947
10
248.23700000000002
20
-7.0000000000000071
42
0.4142135623731022
10
248.73700000000002
20
-6.5
10
248.73700000000002
20
7.4999999999999991
42
0.41421356237302481
10
248.23700000000002
20
7.9999999999999991
10
242.23700000000002
20
8.0000000000000053
42
0.4142135623731022
10
241.73699999999999
20
7.4999999999999991
0
LWPOLYLINE
5
128
100
AcDbEntity
8
0
100
AcDbPolyline
90
8
70
1
43
0.0
10
230.83750000000003
20
44.600000000000009
42
0.41421356237307427
10
230.33750000000001
20
45.09999999999998
10
217.33750000000001
20
45.100000000000016
42
0.41421356237312629
10
216.83750000000001
20
44.600000000000009
10
216.83750000000001
20
31.599999999999998
42
0.41421356237305079
10
217.33750000000001
20
31.099999999999998
10
230.33750000000001
20
31.099999999999991
42
0.41421356237313406
10
230.83750000000003
20
31.599999999999998
0
LWPOLYLINE
5
129
100
AcDbEntity
8
0
100
AcDbPolyline
90
8
70
1
43
0.0
10
269.73175000000003
20
31.099999999999991
42
0.41421356237313406
10
270.23175000000003
20
31.599999999999998
10
270.23175000000003
20
45.600000000000009
42
0.41421356237307427
10
269.73175000000003
20
46.100000000000001
10
263.73175000000003
20
46.100000000000009
42
0.41421356237312629
10
263.23175000000003
20
45.600000000000009
10
263.23175000000003
20
31.599999999999998
42
0.41421356237305079
10
263.73175000000003
20
31.099999999999998
0
LWPOLYLINE
5
130
100
AcDbEntity
8
0
100
AcDbPolyline
90
8
70
1
43
0.0
10
44.600000000000009
20
-6.9999999999999982
42
0.4142135623730957
10
45.100000000000009
20
-6.5
10
45.100000000000009
20
6.5
42
0.41421356237309637
10
44.600000000000009
20
7.0000000000000009
10
31.599999999999998
20
6.9999999999999982
42
0.41421356237309437
10
31.099999999999998
20
6.5
10
31.099999999999998
20
-6.5
42
0.4142135623730957
10
31.599999999999998
20
-7
0
LWPOLYLINE
5
131
100
AcDbEntity
8
0
100
AcDbPolyline
90
8
70
1
43
0.0
10
307.57735000000002
20
83.200000000000003
42
0.41421356237313667
10
307.07735000000002
20
82.699999999999989
10
307.07735000000002
20
69.700000000000003
42
0.41421356237307427
10
307.57735000000002
20
69.200000000000003
10
320.57735000000002
20
69.200000000000031
42
0.4142135623730222
10
321.07734999999997
20
69.700000000000003
10
321.07735000000002
20
82.699999999999989
42
0.41421356237313667
10
320.57735000000002
20
83.200000000000003
0
LWPOLYLINE
5
132
100
AcDbEntity
8
0
100
AcDbPolyline
90
8
70
1
43
0.0
10
265.613
20
-6.5
10
265.613
20
7.4999999999999991
42
-0.4142135623731022
10
266.113
20
8.0000000000000053
10
272.113
20
7.9999999999999751
42
-0.41421356237307683
10
272.613
20
7.4999999999999991
10
272.613
20
-6.5
42
-0.41421356237313345
10
272.113
20
-7.0000000000000071
10
266.113
20
-6.9999999999999947
42
-0.41421356237304624
0
LWPOLYLINE
5
133
100
AcDbEntity
8
0
100
AcDbPolyline
90
8
70
1
43
0.0
10
197.00000000000003
20
-7.0000000000000071
42
0.4142135623731022
10
197.50000000000003
20
-6.5
10
197.50000000000003
20
6.5
42
0.41421356237302481
10
197.00000000000003
20
7.0000000000000009
10
184.00000000000003
20
7.0000000000000071
42
0.41421356237313345
10
183.5
20
6.5
10
183.5
20
-6.5
42
0.41421356237307744
10
184.00000000000003
20
-7
0
LWPOLYLINE
5
134
100
AcDbEntity
8
0
100
AcDbPolyline
90
8
70
1
43
0.0
10
145.11250000000001
20
63.650000000000006
42
0.41421356237310542
10
144.61250000000001
20
64.149999999999991
10
131.61249999999998
20
64.150000000000006
42
0.4142135623731002
10
131.11249999999998
20
63.650000000000006
10
131.11249999999998
20
50.650000000000006
42
0.41421356237308982
10
131.61249999999998
20
50.150000000000006
10
144.61250000000001
20
50.149999999999999
42
0.41421356237309509
10
145.11250000000001
20
50.650000000000006
0
LWPOLYLINE
5
135
100
AcDbEntity
8
0
100
AcDbPolyline
90
8
70
1
43
0.0
10
19.193750000000001
20
69.700000000000003
42
0.41421356237309509
10
19.693749999999998
20
69.200000000000003
10
32.693749999999994
20
69.200000000000003
42
0.41421356237309509
10
33.193749999999994
20
69.700000000000003
10
33.193750000000001
20
82.699999999999989
42
0.41421356237309509
10
32.693749999999994
20
83.200000000000003
10
19.693749999999998
20
83.200000000000003
42
0.41421356237310414
10
19.193750000000001
20
82.699999999999989
0
LWPOLYLINE
5
136
100
AcDbEntity
8
0
100
AcDbPolyline
90
8
70
1
43
0.0
10
-2.2374999999999989
20
12.549999999999999
10
-2.2374999999999998
20
25.550000000000001
42
-0.41421356237309309
10
-1.7375000000000007
20
26.050000000000004
10
11.262500000000003
20
26.049999999999997
42
-0.41421356237309637
10
11.762499999999999
20
25.550000000000001
10
11.762499999999999
20
12.549999999999999
42
-0.41421356237309759
10
11.262500000000003
20
12.050000000000001
10
-1.7375000000000007
20
12.050000000000001
42
-0.4142135623730957
0
LWPOLYLINE
5
137
100
AcDbEntity
8
0
100
AcDbPolyline
90
8
70
1
43
0.0
10
54.125
20
12.050000000000001
42
0.41421356237309759
10
54.624999999999986
20
12.549999999999999
10
54.624999999999993
20
25.550000000000001
42
0.41421356237309759
10
54.125
20
26.050000000000001
10
41.125000000000007
20
26.050000000000001
42
0.41421356237309759
10
40.625
20
25.550000000000001
10
40.625000000000007
20
12.549999999999999
42
0.41421356237309759
10
41.125000000000007
20
12.050000000000001
0
LWPOLYLINE
5
138
100
AcDbEntity
8
0
100
AcDbPolyline
90
8
70
1
43
0.0
10
97.775000000000006
20
12.549999999999999
42
0.41421356237310414
10
98.275000000000006
20
12.050000000000011
10
111.27499999999999
20
12.049999999999992
42
0.41421356237307549
10
111.77500000000001
20
12.549999999999999
10
111.77499999999998
20
25.550000000000001
42
0.41421356237308465
10
111.27499999999999
20
26.050000000000001
10
98.275000000000006
20
26.050000000000008
42
0.41421356237309509
10
97.775000000000006
20
25.550000000000001
0
LWPOLYLINE
5
139
100
AcDbEntity
8
0
100
AcDbPolyline
90
8
70
1
43
0.0
10
97.487500000000011
20
44.600000000000009
42
0.41421356237310542
10
96.987500000000011
20
45.099999999999994
10
83.987499999999997
20
45.100000000000016
42
0.4142135623731002
10
83.487499999999983
20
44.600000000000009
10
83.487499999999983
20
31.599999999999998
42
0.41421356237310802
10
83.987499999999997
20
31.099999999999998
10
96.987500000000011
20
31.099999999999991
42
0.41421356237309509
10
97.487500000000011
20
31.599999999999998
0
LWPOLYLINE
5
140
100
AcDbEntity
8
0
100
AcDbPolyline
90
8
70
1
43
0.0
10
126.85000000000001
20
7.0000000000000071
42
0.41421356237307361
10
126.34999999999999
20
6.5
10
126.34999999999999
20
-6.5
42
0.41421356237307427
10
126.85000000000001
20
-7
10
139.84999999999999
20
-7.0000000000000071
42
0.41421356237309437
10
140.34999999999999
20
-6.5
10
140.34999999999999
20
6.5
42
0.4142135623731048
10
139.84999999999999
20
7.0000000000000009
0
LWPOLYLINE
5
141
100
AcDbEntity
8
0
100
AcDbPolyline
90
8
70
1
43
0.0
10
8.8812500000000014
20
69.200000000000003
10
-4.1187500000000021
20
69.200000000000003
42
-0.41421356237309409
10
-4.6187499999999995
20
69.700000000000003
10
-4.6187499999999906
20
82.699999999999989
42
-0.41421356237310542
10
-4.1187500000000012
20
83.200000000000003
10
8.8812500000000014
20
83.200000000000003
42
-0.41421356237309309
10
9.3812500000000085
20
82.699999999999989
10
9.3812499999999961
20
69.700000000000003
42
-0.4142135623730937
0
LWPOLYLINE
5
142
100
AcDbEntity
8
0
100
AcDbPolyline
90
8
70
1
43
0.0
10
168.42499999999998
20
12.049999999999992
42
0.41421356237313406
10
168.92499999999998
20
12.549999999999999
10
168.92499999999998
20
25.550000000000001
42
0.41421356237308204
10
168.42499999999998
20
26.050000000000001
10
155.42500000000001
20
26.050000000000008
42
0.41421356237309509
10
154.92500000000001
20
25.550000000000001
10
154.92500000000001
20
12.549999999999999
42
0.41421356237310414
10
155.42500000000001
20
12.050000000000001
0
LWPOLYLINE
5
143
100
AcDbEntity
8
0
100
AcDbPolyline
90
8
70
1
43
0.0
10
221.3125
20
63.650000000000006
42
0.41421356237307427
10
220.8125
20
64.149999999999977
10
207.8125
20
64.150000000000006
42
0.41421356237312629
10
207.3125
20
63.650000000000006
10
207.3125
20
50.650000000000006
42
0.4142135623730222
10
207.8125
20
50.150000000000006
10
220.8125
20
50.149999999999999
42
0.41421356237313145
10
221.3125
20
50.650000000000006
0
LWPOLYLINE
5
144
100
AcDbEntity
8
0
100
AcDbPolyline
90
8
70
1
43
0.0
10
173.97500000000002
20
12.549999999999999
42
0.41421356237307683
10
174.47500000000002
20
12.050000000000022
10
187.47500000000002
20
12.049999999999992
42
0.41421356237312362
10
187.97500000000002
20
12.549999999999999
10
187.97500000000002
20
25.550000000000001
42
0.41421356237305079
10
187.47500000000002
20
26.050000000000001
10
174.47500000000002
20
26.050000000000008
42
0.41421356237313406
10
173.97500000000002
20
25.550000000000001
0
LWPOLYLINE
5
145
100
AcDbEntity
8
0
100
AcDbPolyline
90
8
70
1
43
0.0
10
63.650000000000006
20
-6.9999999999999982
10
50.649999999999991
20
-7.0000000000000018
42
-0.41421356237309692
10
50.149999999999999
20
-6.5
10
50.149999999999999
20
6.5
42
-0.4142135623730957
10
50.649999999999991
20
6.9999999999999982
10
63.650000000000006
20
7.0000000000000009
42
-0.41421356237309637
10
64.150000000000006
20
6.5
10
64.150000000000006
20
-6.5
42
-0.4142135623730957
0
LWPOLYLINE
5
146
100
AcDbEntity
8
0
100
AcDbPolyline
90
8
70
1
43
0.0
10
26.337499999999999
20
31.599999999999998
42
0.41421356237309509
10
26.837499999999999
20
31.099999999999998
10
39.837499999999999
20
31.099999999999998
42
0.41421356237311319
10
40.337499999999991
20
31.599999999999998
10
40.337499999999991
20
44.600000000000009
42
0.41421356237311585
10
39.837499999999999
20
45.100000000000009
10
26.837499999999999
20
45.100000000000009
42
0.41421356237309759
10
26.337499999999999
20
44.600000000000009
0
LWPOLYLINE
5
147
100
AcDbEntity
8
0
100
AcDbPolyline
90
8
70
1
43
0.0
10
18.406249999999996
20
50.150000000000006
42
0.41421356237309509
10
18.906249999999996
20
50.650000000000006
10
18.906249999999996
20
63.650000000000006
42
0.41421356237309759
10
18.406249999999996
20
64.150000000000006
10
5.4062499999999991
20
64.150000000000006
42
0.41421356237309637
10
4.9062499999999982
20
63.650000000000006
10
4.9062500000000009
20
50.650000000000006
42
0.41421356237309509
10
5.4062499999999991
20
50.150000000000006
0
LWPOLYLINE
5
148
100
AcDbEntity
8
0
100
AcDbPolyline
90
8
70
1
43
0.0
10
244.62500000000003
20
12.049999999999992
42
0.41421356237313406
10
245.12500000000003
20
12.549999999999999
10
245.12500000000003
20
25.550000000000001
42
0.41421356237308204
10
244.62500000000003
20
26.050000000000001
10
231.625
20
26.050000000000008
42
0.41421356237310281
10
231.125
20
25.550000000000001
10
231.125
20
12.549999999999999
42
0.41421356237304557
10
231.625
20
12.050000000000001
0
LWPOLYLINE
5
149
100
AcDbEntity
8
0
100
AcDbPolyline
90
8
70
1
43
0.0
10
241.59324999999998
20
64.650000000000006
42
0.4142135623730222
10
241.09324999999998
20
65.150000000000034
10
235.09325000000001
20
65.15000000000002
42
0.41421356237313145
10
234.59325000000001
20
64.650000000000006
10
234.59325000000001
20
50.650000000000006
42
0.41421356237307427
10
235.09325000000001
20
50.150000000000006
10
241.09324999999998
20
50.149999999999999
42
0.41421356237312101
10
241.59324999999998
20
50.650000000000006
0
LWPOLYLINE
5
150
100
AcDbEntity
8
0
100
AcDbPolyline
90
8
70
1
43
0.0
10
2.9682499999999989
20
50.150000000000006
42
0.41421356237309409
10
3.4682499999999954
20
50.650000000000006
10
3.4682499999999972
20
64.650000000000006
42
0.41421356237309437
10
2.9682499999999989
20
65.150000000000006
10
-3.0317500000000006
20
65.150000000000006
42
0.41421356237309409
10
-3.5317500000000015
20
64.650000000000006
10
-3.5317499999999988
20
50.650000000000006
42
0.41421356237309437
10
-3.0317500000000006
20
50.150000000000006
0
LWPOLYLINE
5
151
100
AcDbEntity
8
0
100
AcDbPolyline
90
8
70
1
43
0.0
10
0.14375000000000032
20
31.599999999999998
42
0.41421356237309559
10
0.64374999999999849
20
31.099999999999998
10
13.643749999999999
20
31.099999999999998
42
0.41421356237309637
10
14.143749999999997
20
31.599999999999998
10
14.143749999999997
20
44.600000000000009
42
0.41421356237309759
10
13.643749999999999
20
45.100000000000009
10
0.64374999999999849
20
45.100000000000009
42
0.41421356237309681
10
0.14374999999999805
20
44.600000000000009
0
LWPOLYLINE
5
152
100
AcDbEntity
8
0
100
AcDbPolyline
90
8
70
1
43
0.0
10
20.344250000000002
20
50.650000000000006
42
0.41421356237309509
10
20.844249999999999
20
50.150000000000006
10
26.844250000000002
20
50.150000000000006
42
0.41421356237309509
10
27.344249999999999
20
50.650000000000006
10
27.344249999999999
20
64.650000000000006
42
0.41421356237309509
10
26.844250000000002
20
65.150000000000006
10
20.844249999999999
20
65.150000000000006
42
0.41421356237309509
10
20.344250000000002
20
64.650000000000006
0
LWPOLYLINE
5
153
100
AcDbEntity
8
0
100
AcDbPolyline
90
8
70
1
43
0.0
10
35.862500000000004
20
50.650000000000006
42
0.41421356237309509
10
36.362499999999997
20
50.150000000000006
10
49.362500000000011
20
50.150000000000006
42
0.41421356237309509
10
49.862499999999997
20
50.650000000000006
10
49.862500000000011
20
63.650000000000006
42
0.41421356237310542
10
49.362500000000011
20
64.150000000000006
10
36.362499999999997
20
64.150000000000006
42
0.41421356237309759
10
35.862500000000004
20
63.650000000000006
0
LWPOLYLINE
5
154
100
AcDbEntity
8
0
100
AcDbPolyline
90
8
70
1
43
0.0
10
92.224999999999994
20
12.049999999999992
10
79.224999999999994
20
12.049999999999997
42
-0.41421356237309759
10
78.724999999999994
20
12.549999999999999
10
78.724999999999994
20
25.550000000000001
42
-0.41421356237310281
10
79.224999999999994
20
26.050000000000008
10
92.224999999999994
20
26.049999999999997
42
-0.41421356237310802
10
92.725000000000009
20
25.550000000000001
10
92.725000000000009
20
12.549999999999999
42
-0.41421356237309637
0
LWPOLYLINE
5
155
100
AcDbEntity
8
0
100
AcDbPolyline
90
8
70
1
43
0.0
10
239.35575
20
31.599999999999998
42
0.41421356237308204
10
239.85575
20
31.100000000000012
10
245.85575000000003
20
31.099999999999991
42
0.41421356237313406
10
246.35575000000003
20
31.599999999999998
10
246.35575000000003
20
45.600000000000009
42
0.41421356237307427
10
245.85575000000003
20
46.100000000000001
10
239.85575
20
46.100000000000009
42
0.41421356237313667
10
239.35575
20
45.600000000000009
0
LWPOLYLINE
5
156
100
AcDbEntity
8
0
100
AcDbPolyline
90
8
70
1
43
0.0
10
271.31875000000002
20
82.699999999999989
42
0.41421356237313667
10
270.81875000000002
20
83.200000000000003
10
257.81875000000002
20
83.200000000000003
42
0.41421356237310542
10
257.31874999999997
20
82.699999999999989
10
257.31874999999997
20
69.700000000000003
42
0.4142135623730222
10
257.81875000000002
20
69.200000000000003
10
270.81875000000002
20
69.199999999999989
42
0.41421356237313145
10
271.31875000000002
20
69.700000000000003
0
LWPOLYLINE
5
157
100
AcDbEntity
8
0
100
AcDbPolyline
90
8
70
1
43
0.0
10
116.82500000000002
20
12.549999999999999
42
0.41421356237308726
10
117.325
20
12.049999999999986
10
130.32499999999999
20
12.049999999999992
42
0.41421356237309637
10
130.82499999999999
20
12.549999999999999
10
130.82499999999999
20
25.550000000000001
42
0.41421356237310802
10
130.32499999999999
20
26.050000000000001
10
117.325
20
26.050000000000008
42
0.41421356237307427
10
116.82499999999999
20
25.550000000000001
0
LWPOLYLINE
5
158
100
AcDbEntity
8
0
100
AcDbPolyline
90
8
70
1
43
0.0
10
59.387499999999996
20
44.600000000000009
42
0.41421356237310542
10
58.887500000000003
20
45.100000000000009
10
45.88750000000001
20
45.100000000000009
42
0.41421356237310542
10
45.387500000000003
20
44.600000000000009
10
45.38750000000001
20
31.599999999999998
42
0.41421356237309759
10
45.88750000000001
20
31.099999999999998
10
58.887500000000003
20
31.099999999999998
42
0.41421356237309759
10
59.387499999999989
20
31.599999999999998
0
LWPOLYLINE
5
159
100
AcDbEntity
8
0
100
AcDbPolyline
90
8
70
1
43
0.0
10
107.30000000000001
20
-6.5
10
107.30000000000001
20
6.5
42
-0.41421356237309437
10
107.80000000000001
20
7.0000000000000071
10
120.79999999999998
20
6.9999999999999885
42
-0.4142135623731048
10
121.29999999999998
20
6.5
10
121.29999999999998
20
-6.5
42
-0.41421356237309437
10
120.79999999999998
20
-7.0000000000000071
10
107.80000000000001
20
-6.9999999999999893
42
-0.41421356237310542
0
LWPOLYLINE
5
160
100
AcDbEntity
8
0
100
AcDbPolyline
90
8
70
1
43
0.0
10
340.12734999999998
20
6.5
42
0.41421356237319329
10
339.62735000000004
20
6.9999999999999973
10
326.62735000000004
20
6.9999999999999716
42
0.41421356237301959
10
326.12735000000009
20
6.5
10
326.12735000000009
20
-6.5
42
0.41421356237319329
10
326.62735000000004
20
-7
10
339.62735000000004
20
-6.9999999999999716
42
0.41421356237301959
10
340.12734999999998
20
-6.5
0
LWPOLYLINE
5
161
100
AcDbEntity
8
0
100
AcDbPolyline
90
8
70
1
43
0.0
10
340.12734999999998
20
25.550000000000001
42
0.4142135623731939
10
339.62735000000004
20
26.050000000000001
10
326.62735000000004
20
26.049999999999972
42
0.4142135623730222
10
326.12735000000009
20
25.550000000000001
10
326.12735000000009
20
12.549999999999999
42
0.4142135623731939
10
326.62735000000004
20
12.050000000000001
10
339.62735000000004
20
12.050000000000027
42
0.41421356237301959
10
340.12734999999998
20
12.549999999999999
0
LWPOLYLINE
5
162
100
AcDbEntity
8
0
100
AcDbPolyline
90
8
70
1
43
0.0
10
221.59999999999999
20
-6.5
42
0.41421356237304624
10
222.10000000000002
20
-6.9999999999999947
10
235.10000000000002
20
-7.0000000000000071
42
0.41421356237313345
10
235.60000000000002
20
-6.5
10
235.60000000000002
20
6.5
42
0.41421356237307683
10
235.10000000000002
20
7.0000000000000009
10
222.10000000000002
20
7.0000000000000071
42
0.4142135623731022
10
221.59999999999999
20
6.5
0
LWPOLYLINE
5
163
100
AcDbEntity
8
0
100
AcDbPolyline
90
8
70
1
43
0.0
10
216.05000000000001
20
-7.0000000000000071
42
0.41421356237313345
10
216.55000000000001
20
-6.5
10
216.55000000000001
20
6.5
42
0.41421356237307683
10
216.05000000000001
20
7.0000000000000009
10
203.05000000000001
20
7.0000000000000071
42
0.4142135623731022
10
202.54999999999998
20
6.5
10
202.54999999999998
20
-6.5
42
0.41421356237304624
10
203.05000000000001
20
-7
0
LWPOLYLINE
5
164
100
AcDbEntity
8
0
100
AcDbPolyline
90
8
70
1
43
0.0
10
264.17500000000001
20
6.5
10
264.17500000000001
20
-6.5
42
-0.4142135623731022
10
263.67500000000001
20
-7.0000000000000071
10
250.67499999999998
20
-6.9999999999999769
42
-0.41421356237307744
10
250.17499999999998
20
-6.5
10
250.17499999999998
20
6.5
42
-0.41421356237313345
10
250.67499999999998
20
7.0000000000000071
10
263.67500000000001
20
7.0000000000000293
42
-0.41421356237302481
0
LWPOLYLINE
5
165
100
AcDbEntity
8
0
100
AcDbPolyline
90
8
70
1
43
0.0
10
216.55000000000001
20
82.699999999999989
10
216.55000000000001
20
69.700000000000003
42
-0.41421356237313145
10
216.05000000000001
20
69.199999999999989
10
203.05000000000001
20
69.199999999999974
42
-0.4142135623730222
10
202.54999999999998
20
69.700000000000003
10
202.55000000000001
20
82.699999999999989
42
-0.41421356237310542
10
203.05000000000001
20
83.200000000000003
10
216.05000000000001
20
83.200000000000003
42
-0.41421356237313667
0
LWPOLYLINE
5
166
100
AcDbEntity
8
0
100
AcDbPolyline
90
8
70
1
43
0.0
10
88.25
20
-6.5
42
0.41421356237310542
10
88.75
20
-6.9999999999999893
10
101.75
20
-7.0000000000000071
42
0.41421356237309437
10
102.25000000000001
20
-6.5
10
102.25000000000001
20
6.5
42
0.4142135623731048
10
101.75
20
7.0000000000000009
10
88.75
20
7.0000000000000071
42
0.41421356237309437
10
88.25
20
6.5
0
LWPOLYLINE
5
167
100
AcDbEntity
8
0
100
AcDbPolyline
90
8
70
1
43
0.0
10
126.0625
20
63.650000000000006
42
0.41421356237310542
10
125.5625
20
64.150000000000006
10
112.56250000000001
20
64.150000000000006
42
0.4142135623731002
10
112.0625
20
63.650000000000006
10
112.0625
20
50.650000000000006
42
0.41421356237308982
10
112.56250000000001
20
50.150000000000006
10
125.5625
20
50.149999999999999
42
0.41421356237307427
10
126.06250000000001
20
50.650000000000006
0
LWPOLYLINE
5
168
100
AcDbEntity
8
0
100
AcDbPolyline
90
8
70
1
43
0.0
10
177.94999999999999
20
-7.0000000000000071
42
0.41421356237313345
10
178.44999999999999
20
-6.5
10
178.44999999999999
20
6.5
42
0.41421356237307683
10
177.94999999999999
20
7.0000000000000009
10
164.95000000000002
20
7.0000000000000071
42
0.41421356237313345
10
164.44999999999999
20
6.5
10
164.44999999999999
20
-6.5
42
0.41421356237307744
10
164.95000000000002
20
-7
0
LWPOLYLINE
5
169
100
AcDbEntity
8
0
100
AcDbPolyline
90
8
70
1
43
0.0
10
178.73749999999998
20
31.599999999999998
42
0.41421356237305079
10
179.23749999999998
20
31.099999999999994
10
192.23749999999998
20
31.099999999999991
42
0.41421356237313406
10
192.73750000000001
20
31.599999999999998
10
192.73750000000001
20
44.600000000000009
42
0.41421356237307427
10
192.23749999999998
20
45.100000000000009
10
179.23749999999998
20
45.100000000000016
42
0.41421356237312629
10
178.73749999999998
20
44.600000000000009
0
LWPOLYLINE
5
170
100
AcDbEntity
8
0
100
AcDbPolyline
90
8
70
1
43
0.0
10
173.68750000000003
20
44.600000000000009
42
0.4142135623730222
10
173.1875
20
45.100000000000037
10
160.1875
20
45.100000000000016
42
0.4142135623731002
10
159.6875
20
44.600000000000009
10
159.6875
20
31.599999999999998
42
0.41421356237311846
10
160.1875
20
31.099999999999998
10
173.1875
20
31.099999999999991
42
0.41421356237310281
10
173.68750000000003
20
31.599999999999998
0
LWPOLYLINE
5
171
100
AcDbEntity
8
0
100
AcDbPolyline
90
8
70
1
43
0.0
10
78.4375
20
44.600000000000009
10
78.437500000000014
20
31.599999999999998
42
-0.41421356237310281
10
77.937500000000014
20
31.099999999999991
10
64.9375
20
31.099999999999994
42
-0.41421356237309759
10
64.4375
20
31.599999999999998
10
64.4375
20
44.600000000000009
42
-0.41421356237310542
10
64.9375
20
45.100000000000009
10
77.937500000000014
20
45.099999999999994
42
-0.41421356237310542
0
LWPOLYLINE
5
172
100
AcDbEntity
8
0
100
AcDbPolyline
90
8
70
1
43
0.0
10
307.07735000000002
20
-6.5
42
0.41421356237307744
10
307.57735000000002
20
-6.9999999999999769
10
320.57735000000002
20
-6.9999999999999716
42
0.41421356237301959
10
321.07734999999997
20
-6.5
10
321.07734999999997
20
6.5
42
0.41421356237319329
10
320.57735000000002
20
7.0000000000000009
10
307.57735000000002
20
7.0000000000000071
42
0.41421356237313345
10
307.07735000000002
20
6.5
0
LWPOLYLINE
5
173
100
AcDbEntity
8
0
100
AcDbPolyline
90
8
70
1
43
0.0
10
188.73750000000001
20
68.199999999999989
42
0.41421356237312101
10
189.23750000000007
20
68.700000000000003
10
189.23750000000001
20
82.699999999999989
42
0.41421356237310542
10
188.73750000000001
20
83.200000000000003
10
182.73750000000001
20
83.200000000000003
42
0.41421356237310542
10
182.23749999999998
20
82.699999999999989
10
182.23749999999998
20
68.700000000000003
42
0.4142135623730222
10
182.73750000000001
20
68.200000000000003
0
LWPOLYLINE
5
174
100
AcDbEntity
8
0
100
AcDbPolyline
90
8
70
1
43
0.0
10
83.200000000000003
20
6.5
42
0.4142135623731048
10
82.699999999999989
20
6.9999999999999885
10
69.699999999999989
20
6.9999999999999982
42
0.4142135623730957
10
69.200000000000003
20
6.5
10
69.199999999999989
20
-6.5
42
0.41421356237309692
10
69.699999999999989
20
-7
10
82.699999999999989
20
-7.0000000000000071
42
0.41421356237309437
10
83.200000000000003
20
-6.5
0
LWPOLYLINE
5
175
100
AcDbEntity
8
0
100
AcDbPolyline
90
8
70
1
43
0.0
10
288.02734999999996
20
69.700000000000003
42
0.41421356237307427
10
288.52735000000001
20
69.200000000000031
10
301.52735000000001
20
69.199999999999989
42
0.41421356237312101
10
302.02735000000001
20
69.700000000000003
10
302.02735000000001
20
82.699999999999989
42
0.41421356237310542
10
301.52735000000001
20
83.200000000000003
10
288.52735000000001
20
83.200000000000003
42
0.41421356237313667
10
288.02734999999996
20
82.699999999999989
0
LWPOLYLINE
5
176
100
AcDbEntity
8
0
100
AcDbPolyline
90
8
70
1
43
0.0
10
67.9375
20
68.700000000000003
42
0.41421356237309509
10
68.4375
20
68.200000000000003
10
74.4375
20
68.199999999999989
42
0.41421356237311063
10
74.9375
20
68.700000000000003
10
74.9375
20
82.699999999999989
42
0.4142135623731002
10
74.4375
20
83.200000000000003
10
68.4375
20
83.200000000000003
42
0.41421356237310542
10
67.937500000000014
20
82.699999999999989
0
LWPOLYLINE
5
177
100
AcDbEntity
8
0
100
AcDbPolyline
90
8
70
1
43
0.0
10
21.575000000000003
20
12.549999999999999
42
0.4142135623730937
10
22.074999999999996
20
12.049999999999999
10
35.074999999999996
20
12.050000000000001
42
0.41421356237309637
10
35.574999999999996
20
12.549999999999999
10
35.574999999999996
20
25.550000000000001
42
0.41421356237309509
10
35.074999999999996
20
26.050000000000001
10
22.074999999999999
20
26.050000000000001
42
0.41421356237309509
10
21.575000000000003
20
25.550000000000001
0
LWPOLYLINE
5
178
100
AcDbEntity
8
0
100
AcDbPolyline
90
8
70
1
43
0.0
10
154.63750000000002
20
44.600000000000009
42
0.41421356237310542
10
154.13749999999999
20
45.099999999999994
10
141.13749999999999
20
45.100000000000016
42
0.4142135623731002
10
140.63749999999999
20
44.600000000000009
10
140.63749999999999
20
31.599999999999998
42
0.41421356237310802
10
141.13749999999999
20
31.099999999999998
10
154.13749999999999
20
31.099999999999991
42
0.41421356237309509
10
154.63750000000002
20
31.599999999999998
0
LWPOLYLINE
5
179
100
AcDbEntity
8
0
100
AcDbPolyline
90
8
70
1
43
0.0
10
87.462500000000006
20
50.149999999999999
42
0.41421356237309509
10
87.962500000000006
20
50.650000000000006
10
87.962500000000006
20
63.650000000000006
42
0.41421356237310542
10
87.462500000000006
20
64.150000000000006
10
74.462499999999991
20
64.150000000000006
42
0.41421356237311585
10
73.962499999999977
20
63.650000000000006
10
73.962499999999991
20
50.650000000000006
42
0.41421356237309509
10
74.462499999999991
20
50.150000000000006
0
LWPOLYLINE
5
180
100
AcDbEntity
8
0
100
AcDbPolyline
90
8
70
1
43
0.0
10
107.01249999999999
20
63.650000000000006
10
107.0125
20
50.650000000000006
42
-0.41421356237307427
10
106.51249999999999
20
50.149999999999999
10
93.512500000000003
20
50.150000000000006
42
-0.41421356237308982
10
93.012499999999989
20
50.650000000000006
10
93.012499999999989
20
63.650000000000006
42
-0.4142135623731002
10
93.512500000000003
20
64.150000000000006
10
106.51249999999999
20
64.150000000000006
42
-0.41421356237310542
0
LWPOLYLINE
5
181
100
AcDbEntity
8
0
100
AcDbPolyline
90
8
70
1
43
0.0
10
149.875
20
25.550000000000001
42
0.41421356237310802
10
149.375
20
26.049999999999997
10
136.375
20
26.050000000000008
42
0.41421356237307427
10
135.875
20
25.550000000000001
10
135.87500000000003
20
12.549999999999999
42
0.41421356237308726
10
136.375
20
12.050000000000001
10
149.375
20
12.049999999999992
42
0.41421356237309637
10
149.875
20
12.549999999999999
0
LWPOLYLINE
5
182
100
AcDbEntity
8
0
100
AcDbPolyline
90
8
70
1
43
0.0
10
201.76249999999999
20
50.149999999999999
10
188.76249999999999
20
50.149999999999977
42
-0.4142135623730222
10
188.26249999999999
20
50.650000000000006
10
188.26249999999993
20
63.650000000000006
42
-0.41421356237312629
10
188.76249999999999
20
64.150000000000006
10
201.76249999999999
20
64.149999999999977
42
-0.41421356237307427
10
202.26249999999999
20
63.650000000000006
10
202.26249999999999
20
50.650000000000006
42
-0.41421356237313145
0
LWPOLYLINE
5
183
100
AcDbEntity
8
0
100
AcDbPolyline
90
8
70
1
43
0.0
10
264.96925000000005
20
50.149999999999999
42
0.41421356237312101
10
265.4692500000001
20
50.650000000000006
10
265.46925000000005
20
64.650000000000006
42
0.4142135623730222
10
264.96925000000005
20
65.150000000000006
10
258.96925000000005
20
65.15000000000002
42
0.41421356237312101
10
258.46925000000005
20
64.650000000000006
10
258.46925000000005
20
50.650000000000006
42
0.4142135623730222
10
258.96925000000005
20
50.150000000000006
0
LWPOLYLINE
5
184
100
AcDbEntity
8
0
100
AcDbPolyline
90
8
70
1
43
0.0
10
226.07500000000002
20
25.550000000000001
42
0.41421356237308204
10
225.57500000000002
20
26.049999999999986
10
212.57499999999999
20
26.050000000000008
42
0.41421356237310281
10
212.07499999999999
20
25.550000000000001
10
212.07499999999999
20
12.549999999999999
42
0.41421356237304557
10
212.57499999999999
20
12.050000000000001
10
225.57500000000002
20
12.049999999999992
42
0.41421356237313406
10
226.07500000000002
20
12.549999999999999
0
LWPOLYLINE
5
185
100
AcDbEntity
8
0
100
AcDbPolyline
90
8
70
1
43
0.0
10
193.52500000000003
20
26.050000000000008
42
0.41421356237313406
10
193.02500000000003
20
25.550000000000001
10
193.02500000000003
20
12.549999999999999
42
0.41421356237307683
10
193.52500000000003
20
12.050000000000001
10
206.52500000000003
20
12.049999999999992
42
0.41421356237312362
10
207.02500000000003
20
12.549999999999999
10
207.02500000000003
20
25.550000000000001
42
0.41421356237305079
10
206.52500000000003
20
26.050000000000001
0
LWPOLYLINE
5
186
100
AcDbEntity
8
0
100
AcDbPolyline
90
8
70
1
43
0.0
10
7
20
6.5
42
0.4142135623730957
10
6.4999999999999991
20
7.0000000000000018
10
-6.5000000000000018
20
7
42
0.4142135623730957
10
-7.0000000000000018
20
6.5
10
-7.0000000000000018
20
-6.5
42
0.4142135623730957
10
-6.5000000000000018
20
-7
10
6.4999999999999991
20
-7.0000000000000009
42
0.4142135623730957
10
7
20
-6.5
0
ENDSEC
0
SECTION
2
OBJECTS
0
DICTIONARY
5
C
100
AcDbDictionary
3
ACAD_GROUP
350
D
3
ACAD_MLINESTYLE
350
17
0
DICTIONARY
5
D
100
AcDbDictionary
0
DICTIONARY
5
1A
330
C
100
AcDbDictionary
0
DICTIONARY
5
17
100
AcDbDictionary
0
ENDSEC
0
EOF
