M48
; DRILL file {KiCad 9.0.0} date 2025-03-06T12:35:18+0000
; FORMAT={-:-/ absolute / metric / decimal}
; #@! TF.CreationDate,2025-03-06T12:35:18+00:00
; #@! TF.GenerationSoftware,Kicad,Pcbnew,9.0.0
; #@! TF.FileFunction,Plated,1,2,PTH
FMAT,2
METRIC
; #@! TA.AperFunction,Plated,PTH,ViaDrill
T1C0.400
; #@! TA.AperFunction,Plated,PTH,ComponentDrill
T2C0.400
; #@! TA.AperFunction,Plated,PTH,ComponentDrill
T3C0.620
; #@! TA.AperFunction,Plated,PTH,ComponentDrill
T4C0.700
; #@! TA.AperFunction,Plated,PTH,ComponentDrill
T5C0.787
; #@! TA.AperFunction,Plated,PTH,ComponentDrill
T6C0.800
; #@! TA.AperFunction,Plated,PTH,ComponentDrill
T7C1.100
; #@! TA.AperFunction,Plated,PTH,ComponentDrill
T8C2.200
; #@! TA.AperFunction,Plated,PTH,ComponentDrill
T9C3.000
%
G90
G05
T1
X74.191Y-157.676
X93.8Y-64.2
X117.1Y-62.6
X153.8Y-65.2
X156.8Y-67.8
X164.8Y-62.6
X180.6Y-62.5
X196.6Y-65.4
X199.4Y-62.4
X213.6Y-79.8
X221.2Y-78.4
X229.4Y-62.4
X256.3Y-99.9
X261.0Y-133.8
X269.6Y-140.4
X270.2Y-67.2
X280.2Y-65.6
X283.4Y-170.2
X283.7Y-86.2
X284.0Y-81.6
X284.4Y-94.8
X285.0Y-82.2
X286.0Y-82.8
X286.1Y-61.4
X286.4Y-87.4
X287.0Y-83.6
X289.0Y-83.0
X289.6Y-151.8
X290.0Y-83.6
X291.0Y-84.2
X292.0Y-84.8
X293.0Y-85.4
X300.3Y-131.0
X301.0Y-75.4
X302.4Y-79.2
X309.0Y-66.8
X312.0Y-105.6
X314.2Y-157.5
X316.6Y-75.6
X322.0Y-159.8
X330.4Y-69.2
X335.8Y-66.8
X336.6Y-75.6
X342.2Y-119.8
X354.6Y-159.4
X357.2Y-130.0
X364.5Y-119.7
X368.4Y-95.1
X387.6Y-105.2
X387.9Y-158.9
X392.6Y-160.4
X401.5Y-101.8
X403.4Y-84.8
T2
X341.02Y-65.0
X341.025Y-66.325
X341.87Y-65.0
X341.875Y-66.325
X342.72Y-65.0
X342.725Y-66.325
X343.57Y-65.0
X343.575Y-66.325
X344.42Y-65.0
X344.425Y-66.325
X345.27Y-65.0
X345.275Y-66.325
X346.12Y-65.0
X346.125Y-66.325
X346.975Y-65.0
X346.975Y-66.325
T4
X341.45Y-73.6
X346.55Y-73.6
X357.8Y-62.814
X357.8Y-70.434
X361.317Y-62.814
X361.317Y-70.434
T5
X361.318Y-75.03
X361.318Y-82.65
X363.858Y-75.03
X363.858Y-82.65
X366.398Y-75.03
X366.398Y-82.65
X368.938Y-75.03
X368.938Y-82.65
X371.478Y-75.03
X371.478Y-82.65
X374.018Y-75.03
X374.018Y-82.65
X376.558Y-75.03
X376.558Y-82.65
T6
X67.5Y-66.27
X67.5Y-71.35
X71.308Y-68.057
X71.308Y-73.138
X75.115Y-69.845
X75.115Y-74.925
X78.923Y-71.632
X78.923Y-76.712
X82.73Y-73.42
X82.73Y-78.5
X86.538Y-66.27
X86.538Y-71.35
X90.346Y-68.057
X90.346Y-73.138
X94.153Y-69.845
X94.153Y-74.925
X97.961Y-71.632
X97.961Y-76.712
X101.768Y-73.42
X101.768Y-78.5
X105.576Y-66.27
X105.576Y-71.35
X109.384Y-68.057
X109.384Y-73.138
X113.191Y-69.845
X113.191Y-74.925
X116.999Y-71.632
X116.999Y-76.712
X120.807Y-73.42
X120.807Y-78.5
X124.614Y-66.27
X124.614Y-71.35
X128.422Y-68.057
X128.422Y-73.138
X132.229Y-69.845
X132.229Y-74.925
X136.037Y-71.632
X136.037Y-76.712
X139.845Y-73.42
X139.845Y-78.5
X143.652Y-66.27
X143.652Y-71.35
X147.46Y-68.057
X147.46Y-73.138
X151.267Y-69.845
X151.267Y-74.925
X155.075Y-71.632
X155.075Y-76.712
X158.883Y-73.42
X158.883Y-78.5
X162.69Y-66.27
X162.69Y-71.35
X166.498Y-68.057
X166.498Y-73.138
X170.305Y-69.845
X170.305Y-74.925
X174.113Y-71.632
X174.113Y-76.712
X177.921Y-73.42
X177.921Y-78.5
X181.728Y-66.27
X181.728Y-71.35
X185.536Y-68.057
X185.536Y-73.138
X189.343Y-69.845
X189.343Y-74.925
X193.151Y-71.632
X193.151Y-76.712
X196.959Y-73.42
X196.959Y-78.5
X200.766Y-66.27
X200.766Y-71.35
X204.574Y-68.057
X204.574Y-73.138
X208.382Y-69.845
X208.382Y-74.925
X212.189Y-71.632
X212.189Y-76.712
X215.997Y-73.42
X215.997Y-78.5
X219.804Y-66.27
X219.804Y-71.35
X223.612Y-68.057
X223.612Y-73.138
X227.42Y-69.845
X227.42Y-74.925
X231.227Y-71.632
X231.227Y-76.712
X235.035Y-73.42
X235.035Y-78.5
X238.842Y-66.27
X238.842Y-71.35
X242.65Y-68.057
X242.65Y-73.138
X246.458Y-69.845
X246.458Y-74.925
X250.265Y-71.632
X250.265Y-76.712
X254.073Y-73.42
X254.073Y-78.5
X257.88Y-66.27
X257.88Y-71.35
X261.688Y-68.057
X261.688Y-73.138
X265.496Y-69.845
X265.496Y-74.925
X269.303Y-71.632
X269.303Y-76.712
X273.111Y-73.42
X273.111Y-78.5
X276.918Y-66.27
X276.918Y-71.35
X280.726Y-68.057
X280.726Y-73.138
X284.534Y-69.845
X284.534Y-74.925
X288.341Y-71.632
X288.341Y-76.712
X292.149Y-73.42
X292.149Y-78.5
X295.957Y-66.27
X295.957Y-71.35
X299.764Y-68.057
X299.764Y-73.138
X303.572Y-69.845
X303.572Y-74.925
X307.379Y-71.632
X307.379Y-76.712
X311.187Y-73.42
X311.187Y-78.5
X314.995Y-66.27
X314.995Y-71.35
X318.802Y-68.057
X318.802Y-73.138
X322.61Y-69.845
X322.61Y-74.925
X326.417Y-71.632
X326.417Y-76.712
X330.225Y-73.42
X330.225Y-78.5
X376.4Y-65.0
X376.4Y-70.08
X379.917Y-65.0
X379.917Y-70.08
T7
X387.55Y-65.185
X387.55Y-69.685
X387.55Y-75.135
X387.55Y-79.635
X394.05Y-65.185
X394.05Y-69.685
X394.05Y-75.135
X394.05Y-79.635
T8
X58.0Y-64.0
X58.0Y-80.5
X78.0Y-103.75
X102.25Y-162.0
X162.25Y-103.25
X190.224Y-64.0
X202.5Y-80.5
X208.75Y-169.25
X286.25Y-103.25
X293.5Y-161.0
X386.556Y-174.625
X392.0Y-103.5
X402.25Y-64.0
X402.25Y-80.5
T9
X59.531Y-92.234
X61.912Y-168.424
X64.294Y-111.284
X65.881Y-89.694
X66.675Y-130.324
X68.262Y-165.884
X70.644Y-108.744
X71.437Y-149.384
X73.025Y-127.784
X77.787Y-146.844
X78.581Y-92.234
X84.931Y-89.694
X85.725Y-168.434
X88.106Y-111.284
X92.075Y-165.894
X92.869Y-130.334
X94.456Y-108.744
X97.631Y-92.234
X99.219Y-127.794
X102.394Y-149.384
X103.981Y-89.694
X107.156Y-111.284
X108.744Y-146.844
X109.537Y-168.424
X111.919Y-130.334
X113.506Y-108.744
X115.887Y-165.884
X116.681Y-92.234
X118.269Y-127.794
X121.444Y-149.384
X123.031Y-89.694
X126.206Y-111.284
X127.794Y-146.844
X130.969Y-130.334
X132.556Y-108.744
X135.731Y-92.234
X137.319Y-127.794
X140.494Y-149.384
X142.081Y-89.694
X145.256Y-111.284
X146.844Y-146.844
X150.018Y-130.334
X151.606Y-108.744
X154.781Y-92.234
X156.368Y-127.794
X159.544Y-149.384
X161.131Y-89.694
X164.306Y-111.284
X165.894Y-146.844
X169.068Y-130.334
X170.656Y-108.744
X173.831Y-92.234
X175.418Y-127.794
X178.594Y-149.384
X180.181Y-89.694
X183.356Y-111.284
X184.944Y-146.844
X188.118Y-130.334
X188.119Y-168.434
X189.706Y-108.744
X192.881Y-92.234
X194.468Y-127.794
X194.469Y-165.894
X197.644Y-149.384
X199.231Y-89.694
X202.406Y-111.284
X203.994Y-146.844
X207.168Y-130.334
X208.756Y-108.744
X211.931Y-92.234
X213.518Y-127.794
X216.694Y-149.384
X218.281Y-89.694
X221.456Y-111.284
X223.044Y-146.844
X226.218Y-130.334
X227.806Y-108.744
X230.981Y-92.234
X232.568Y-127.794
X235.744Y-149.384
X237.331Y-89.694
X240.506Y-111.284
X242.094Y-146.844
X245.268Y-130.334
X246.856Y-108.744
X250.031Y-92.234
X251.618Y-127.794
X254.794Y-149.384
X256.381Y-89.694
X259.556Y-111.284
X261.144Y-146.844
X264.318Y-130.334
X265.906Y-108.744
X269.081Y-92.234
X269.083Y-168.434
X270.668Y-127.794
X273.844Y-149.384
X275.431Y-89.694
X275.433Y-165.894
X278.606Y-111.284
X280.194Y-146.844
X283.368Y-130.334
X284.956Y-108.744
X288.131Y-92.234
X289.718Y-127.794
X294.481Y-89.694
X297.639Y-168.434
X297.656Y-111.284
X303.989Y-165.894
X304.006Y-108.744
X309.563Y-149.384
X314.325Y-130.334
X315.913Y-146.844
X316.706Y-92.234
X320.675Y-127.794
X321.468Y-111.284
X323.056Y-89.694
X323.833Y-168.434
X327.818Y-108.744
X330.183Y-165.894
X354.558Y-92.243
X354.558Y-111.293
X354.558Y-168.434
X360.908Y-89.703
X360.908Y-108.753
X360.908Y-165.894
X373.608Y-92.234
X373.608Y-111.284
X373.608Y-149.384
X373.608Y-168.434
X379.958Y-89.694
X379.958Y-108.744
X379.958Y-146.844
X379.958Y-165.894
X392.658Y-92.234
X392.658Y-111.284
X392.658Y-168.434
X399.008Y-89.694
X399.008Y-108.744
X399.008Y-165.894
T3
X339.675Y-62.355G85X339.675Y-61.575
G05
X339.675Y-66.085G85X339.675Y-64.605
G05
X348.325Y-62.355G85X348.325Y-61.575
G05
X348.325Y-66.085G85X348.325Y-64.605
G05
M30
