G04 #@! TF.GenerationSoftware,KiCad,Pcbnew,9.0.0*
G04 #@! TF.CreationDate,2025-03-06T12:34:28+00:00*
G04 #@! TF.ProjectId,discipline-pcb,64697363-6970-46c6-996e-652d7063622e,rev?*
G04 #@! TF.SameCoordinates,Original*
G04 #@! TF.FileFunction,Paste,Bot*
G04 #@! TF.FilePolarity,Positive*
%FSLAX46Y46*%
G04 Gerber Fmt 4.6, Leading zero omitted, Abs format (unit mm)*
G04 Created by KiCad (PCBNEW 9.0.0) date 2025-03-06 12:34:28*
%MOMM*%
%LPD*%
G01*
G04 APERTURE LIST*
G04 Aperture macros list*
%AMRoundRect*
0 Rectangle with rounded corners*
0 $1 Rounding radius*
0 $2 $3 $4 $5 $6 $7 $8 $9 X,Y pos of 4 corners*
0 Add a 4 corners polygon primitive as box body*
4,1,4,$2,$3,$4,$5,$6,$7,$8,$9,$2,$3,0*
0 Add four circle primitives for the rounded corners*
1,1,$1+$1,$2,$3*
1,1,$1+$1,$4,$5*
1,1,$1+$1,$6,$7*
1,1,$1+$1,$8,$9*
0 Add four rect primitives between the rounded corners*
20,1,$1+$1,$2,$3,$4,$5,0*
20,1,$1+$1,$4,$5,$6,$7,0*
20,1,$1+$1,$6,$7,$8,$9,0*
20,1,$1+$1,$8,$9,$2,$3,0*%
G04 Aperture macros list end*
%ADD10RoundRect,0.200000X1.730000X1.050000X-1.730000X1.050000X-1.730000X-1.050000X1.730000X-1.050000X0*%
%ADD11RoundRect,0.200000X1.858500X1.050000X-1.858500X1.050000X-1.858500X-1.050000X1.858500X-1.050000X0*%
%ADD12RoundRect,0.200000X1.980000X1.050000X-1.980000X1.050000X-1.980000X-1.050000X1.980000X-1.050000X0*%
%ADD13RoundRect,0.200000X2.230000X1.050000X-2.230000X1.050000X-2.230000X-1.050000X2.230000X-1.050000X0*%
%ADD14RoundRect,0.237500X0.237500X-0.300000X0.237500X0.300000X-0.237500X0.300000X-0.237500X-0.300000X0*%
%ADD15RoundRect,0.090000X0.360000X-0.660000X0.360000X0.660000X-0.360000X0.660000X-0.360000X-0.660000X0*%
%ADD16RoundRect,0.237500X0.300000X0.237500X-0.300000X0.237500X-0.300000X-0.237500X0.300000X-0.237500X0*%
%ADD17RoundRect,0.090000X-0.360000X0.660000X-0.360000X-0.660000X0.360000X-0.660000X0.360000X0.660000X0*%
%ADD18RoundRect,0.237500X-0.237500X0.300000X-0.237500X-0.300000X0.237500X-0.300000X0.237500X0.300000X0*%
%ADD19RoundRect,0.090000X0.660000X0.360000X-0.660000X0.360000X-0.660000X-0.360000X0.660000X-0.360000X0*%
%ADD20RoundRect,0.090000X-0.660000X-0.360000X0.660000X-0.360000X0.660000X0.360000X-0.660000X0.360000X0*%
%ADD21R,2.800000X1.500000*%
%ADD22R,1.500000X2.800000*%
G04 APERTURE END LIST*
D10*
X56911250Y-92233750D03*
D11*
X68399750Y-89693750D03*
D10*
X75961250Y-92233750D03*
D11*
X87449750Y-89693750D03*
D10*
X95011250Y-92233750D03*
D11*
X106499750Y-89693750D03*
D10*
X114061250Y-92233750D03*
D11*
X125549750Y-89693750D03*
D10*
X133111250Y-92233750D03*
D11*
X144599750Y-89693750D03*
D10*
X152161250Y-92233750D03*
D11*
X163649750Y-89693750D03*
D10*
X171211250Y-92233750D03*
D11*
X182699750Y-89693750D03*
D10*
X190261250Y-92233750D03*
D11*
X201749750Y-89693750D03*
D10*
X209311250Y-92233750D03*
D11*
X220799750Y-89693750D03*
D10*
X228361250Y-92233750D03*
D11*
X239849750Y-89693750D03*
D10*
X247411250Y-92233750D03*
D11*
X258899750Y-89693750D03*
D10*
X266461250Y-92233750D03*
D11*
X277949750Y-89693750D03*
D10*
X285511250Y-92233750D03*
D11*
X296999750Y-89693750D03*
D10*
X85486250Y-111283750D03*
D11*
X96974750Y-108743750D03*
D10*
X104536250Y-111283750D03*
D11*
X116024750Y-108743750D03*
D10*
X123586250Y-111283750D03*
D11*
X135074750Y-108743750D03*
D10*
X142636250Y-111283750D03*
D11*
X154124750Y-108743750D03*
D10*
X161686250Y-111283750D03*
D11*
X173174750Y-108743750D03*
D10*
X180736250Y-111283750D03*
D11*
X192224750Y-108743750D03*
D10*
X199786250Y-111283750D03*
D11*
X211274750Y-108743750D03*
D10*
X218836250Y-111283750D03*
D11*
X230324750Y-108743750D03*
D10*
X237886250Y-111283750D03*
D11*
X249374750Y-108743750D03*
D10*
X256936250Y-111283750D03*
D11*
X268424750Y-108743750D03*
D10*
X275986250Y-111283750D03*
D11*
X287474750Y-108743750D03*
D10*
X295036250Y-111283750D03*
D11*
X306524750Y-108743750D03*
D10*
X90248750Y-130333750D03*
D11*
X101737250Y-127793750D03*
D10*
X109298750Y-130333750D03*
D11*
X120787250Y-127793750D03*
D10*
X128348750Y-130333750D03*
D11*
X139837250Y-127793750D03*
D10*
X147398250Y-130333750D03*
D11*
X158886750Y-127793750D03*
D10*
X166448250Y-130333750D03*
D11*
X177936750Y-127793750D03*
D10*
X185498250Y-130333750D03*
D11*
X196986750Y-127793750D03*
D10*
X204548250Y-130333750D03*
D11*
X216036750Y-127793750D03*
D10*
X223598250Y-130333750D03*
D11*
X235086750Y-127793750D03*
D10*
X242648250Y-130333750D03*
D11*
X254136750Y-127793750D03*
D10*
X261698250Y-130333750D03*
D11*
X273186750Y-127793750D03*
D10*
X280748250Y-130333750D03*
D11*
X292236750Y-127793750D03*
D10*
X99773750Y-149383750D03*
D11*
X111262250Y-146843750D03*
D10*
X118823750Y-149383750D03*
D11*
X130312250Y-146843750D03*
D10*
X137873750Y-149383750D03*
D11*
X149362250Y-146843750D03*
D10*
X156924250Y-149383750D03*
D11*
X168412750Y-146843750D03*
D10*
X175974250Y-149383750D03*
D11*
X187462750Y-146843750D03*
D10*
X195024250Y-149383750D03*
D11*
X206512750Y-146843750D03*
D10*
X214074250Y-149383750D03*
D11*
X225562750Y-146843750D03*
D10*
X233124250Y-149383750D03*
D11*
X244612750Y-146843750D03*
D10*
X252174250Y-149383750D03*
D11*
X263662750Y-146843750D03*
D10*
X271224250Y-149383750D03*
D11*
X282712750Y-146843750D03*
D10*
X185499000Y-168433750D03*
D11*
X196987500Y-165893750D03*
D12*
X314336250Y-92233750D03*
D11*
X325574750Y-89693750D03*
D10*
X318848250Y-111283750D03*
D11*
X330336750Y-108743750D03*
D12*
X64305050Y-130323620D03*
D11*
X75543550Y-127783620D03*
D13*
X312205250Y-130333750D03*
D11*
X323193750Y-127793750D03*
D13*
X69317450Y-149383750D03*
D11*
X80305950Y-146843750D03*
D13*
X307442750Y-149383750D03*
D11*
X318431250Y-146843750D03*
D10*
X59292450Y-168423620D03*
D11*
X70780950Y-165883620D03*
D10*
X83105050Y-168433750D03*
D11*
X94593550Y-165893750D03*
D10*
X106917450Y-168423620D03*
D11*
X118405950Y-165883620D03*
D10*
X266462686Y-168433750D03*
D11*
X277951186Y-165893750D03*
D10*
X295018878Y-168433750D03*
D11*
X306507378Y-165893750D03*
D10*
X61673750Y-111283750D03*
D11*
X73162250Y-108743750D03*
D14*
X299412500Y-64262500D03*
X299412500Y-62537500D03*
D15*
X176450000Y-66912500D03*
X173150000Y-66912500D03*
X173150000Y-62012500D03*
X176450000Y-62012500D03*
D16*
X395800000Y-84000000D03*
X394075000Y-84000000D03*
D10*
X351937628Y-92242750D03*
D11*
X363426128Y-89702750D03*
D17*
X178000000Y-173500000D03*
X181300000Y-173500000D03*
X181300000Y-178400000D03*
X178000000Y-178400000D03*
D10*
X390037628Y-111283750D03*
D11*
X401526128Y-108743750D03*
D14*
X147737500Y-64262500D03*
X147737500Y-62537500D03*
D10*
X351937628Y-111292750D03*
D11*
X363426128Y-108752750D03*
D18*
X392500000Y-156137500D03*
X392500000Y-157862500D03*
D10*
X390037628Y-168433750D03*
D11*
X401526128Y-165893750D03*
D14*
X66200000Y-121862500D03*
X66200000Y-120137500D03*
X77200000Y-170862500D03*
X77200000Y-169137500D03*
D19*
X61000000Y-100400000D03*
X61000000Y-103700000D03*
X56100000Y-103700000D03*
X56100000Y-100400000D03*
D14*
X64000000Y-138312500D03*
X64000000Y-136587500D03*
D19*
X61000000Y-119400000D03*
X61000000Y-122700000D03*
X56100000Y-122700000D03*
X56100000Y-119400000D03*
D14*
X179600000Y-169000000D03*
X179600000Y-167275000D03*
D10*
X370987628Y-111283750D03*
D11*
X382476128Y-108743750D03*
D15*
X215300000Y-66912500D03*
X212000000Y-66912500D03*
X212000000Y-62012500D03*
X215300000Y-62012500D03*
D16*
X369662500Y-70800000D03*
X367937500Y-70800000D03*
D15*
X253600000Y-66912500D03*
X250300000Y-66912500D03*
X250300000Y-62012500D03*
X253600000Y-62012500D03*
D16*
X101762500Y-168400000D03*
X100037500Y-168400000D03*
D14*
X387350000Y-100081250D03*
X387350000Y-98356250D03*
D20*
X399050000Y-158650000D03*
X399050000Y-155350000D03*
X403950000Y-155350000D03*
X403950000Y-158650000D03*
D15*
X291962500Y-66912500D03*
X288662500Y-66912500D03*
X288662500Y-62012500D03*
X291962500Y-62012500D03*
D14*
X223750000Y-63962500D03*
X223750000Y-62237500D03*
X64000000Y-102912500D03*
X64000000Y-101187500D03*
D17*
X257662500Y-173500000D03*
X260962500Y-173500000D03*
X260962500Y-178400000D03*
X257662500Y-178400000D03*
D10*
X351937628Y-168433750D03*
D11*
X363426128Y-165893750D03*
D19*
X68850000Y-175150000D03*
X68850000Y-178450000D03*
X63950000Y-178450000D03*
X63950000Y-175150000D03*
D15*
X370450000Y-66912500D03*
X367150000Y-66912500D03*
X367150000Y-62012500D03*
X370450000Y-62012500D03*
X139087500Y-66912500D03*
X135787500Y-66912500D03*
X135787500Y-62012500D03*
X139087500Y-62012500D03*
D16*
X314500000Y-168000000D03*
X312775000Y-168000000D03*
D14*
X333350000Y-64262500D03*
X333350000Y-62537500D03*
D19*
X61000000Y-71150000D03*
X61000000Y-74450000D03*
X56100000Y-74450000D03*
X56100000Y-71150000D03*
D17*
X99250000Y-173500000D03*
X102550000Y-173500000D03*
X102550000Y-178400000D03*
X99250000Y-178400000D03*
D20*
X399050000Y-130000000D03*
X399050000Y-126700000D03*
X403950000Y-126700000D03*
X403950000Y-130000000D03*
D14*
X261400000Y-64262500D03*
X261400000Y-62537500D03*
D18*
X360800000Y-174937500D03*
X360800000Y-176662500D03*
D14*
X185200000Y-64262500D03*
X185200000Y-62537500D03*
D10*
X390037628Y-92233750D03*
D11*
X401526128Y-89693750D03*
D14*
X108800000Y-64262500D03*
X108800000Y-62537500D03*
D16*
X145300000Y-168000000D03*
X143575000Y-168000000D03*
D20*
X399050000Y-103200000D03*
X399050000Y-99900000D03*
X403950000Y-99900000D03*
X403950000Y-103200000D03*
D14*
X66675000Y-76993750D03*
X66675000Y-75268750D03*
D17*
X215800000Y-173500000D03*
X219100000Y-173500000D03*
X219100000Y-178400000D03*
X215800000Y-178400000D03*
D10*
X370987628Y-149383750D03*
D11*
X382476128Y-146843750D03*
D16*
X260175000Y-168000000D03*
X258450000Y-168000000D03*
D17*
X142787500Y-173500000D03*
X146087500Y-173500000D03*
X146087500Y-178400000D03*
X142787500Y-178400000D03*
X366000000Y-173500000D03*
X369300000Y-173500000D03*
X369300000Y-178400000D03*
X366000000Y-178400000D03*
D16*
X218312500Y-168000000D03*
X216587500Y-168000000D03*
D15*
X58700000Y-154900000D03*
X55400000Y-154900000D03*
X55400000Y-150000000D03*
X58700000Y-150000000D03*
D10*
X321212628Y-168433750D03*
D11*
X332701128Y-165893750D03*
D17*
X311987500Y-173500000D03*
X315287500Y-173500000D03*
X315287500Y-178400000D03*
X311987500Y-178400000D03*
D20*
X399050000Y-74250000D03*
X399050000Y-70950000D03*
X403950000Y-70950000D03*
X403950000Y-74250000D03*
D15*
X101350000Y-66912500D03*
X98050000Y-66912500D03*
X98050000Y-62012500D03*
X101350000Y-62012500D03*
X329100000Y-66912500D03*
X325800000Y-66912500D03*
X325800000Y-62012500D03*
X329100000Y-62012500D03*
D10*
X370987628Y-168433750D03*
D11*
X382476128Y-165893750D03*
D10*
X370987628Y-92233750D03*
D11*
X382476128Y-89693750D03*
D18*
X394500000Y-127400000D03*
X394500000Y-129125000D03*
D21*
X364075000Y-125937500D03*
X364075000Y-127937500D03*
X364075000Y-129937500D03*
X364075000Y-131937500D03*
X364075000Y-133937500D03*
X364075000Y-135937500D03*
X364075000Y-137937500D03*
X364075000Y-139937500D03*
X364075000Y-141937500D03*
X364075000Y-143937500D03*
D22*
X361425000Y-146587500D03*
X359425000Y-146587500D03*
X357425000Y-146587500D03*
X355425000Y-146587500D03*
X353425000Y-146587500D03*
X351425000Y-146587500D03*
X349425000Y-146587500D03*
X347425000Y-146587500D03*
X345425000Y-146587500D03*
X343425000Y-146587500D03*
D21*
X340775000Y-143937500D03*
X340775000Y-141937500D03*
X340775000Y-139937500D03*
X340775000Y-137937500D03*
X340775000Y-135937500D03*
X340775000Y-133937500D03*
X340775000Y-131937500D03*
X340775000Y-129937500D03*
X340775000Y-127937500D03*
X340775000Y-125937500D03*
D22*
X343425000Y-123287500D03*
X345425000Y-123287500D03*
X347425000Y-123287500D03*
X349425000Y-123287500D03*
X351425000Y-123287500D03*
X353425000Y-123287500D03*
X355425000Y-123287500D03*
X357425000Y-123287500D03*
X359425000Y-123287500D03*
X361425000Y-123287500D03*
M02*
