M48
; DRILL file {KiCad 9.0.0} date 2025-03-06T23:08:25+0000
; FORMAT={-:-/ absolute / inch / decimal}
; #@! TF.CreationDate,2025-03-06T23:08:25+00:00
; #@! TF.GenerationSoftware,Kicad,Pcbnew,9.0.0
; #@! TF.FileFunction,NonPlated,1,2,NPTH
FMAT,2
INCH
; #@! TA.AperFunction,NonPlated,NPTH,ComponentDrill
T1C0.0670
; #@! TA.AperFunction,NonPlated,NPTH,ComponentDrill
T2C0.1200
; #@! TA.AperFunction,NonPlated,NPTH,ComponentDrill
T3C0.1570
%
G90
G05
T1
X2.2937Y-3.7312
X2.3875Y-6.7309
X2.4812Y-4.4813
X2.575Y-5.2309
X2.6938Y-3.7312
X2.7625Y-5.9813
X2.7875Y-6.7309
X2.8813Y-4.4813
X2.975Y-5.2309
X3.0437Y-3.7312
X3.1625Y-5.9813
X3.325Y-6.7313
X3.4187Y-4.4813
X3.4438Y-3.7312
X3.6062Y-5.2313
X3.725Y-6.7313
X3.7937Y-3.7312
X3.8188Y-4.4813
X3.9812Y-5.9813
X4.0062Y-5.2313
X4.1688Y-4.4813
X4.1937Y-3.7312
X4.2625Y-6.7309
X4.3563Y-5.2313
X4.3812Y-5.9813
X4.5438Y-3.7312
X4.5687Y-4.4813
X4.6625Y-6.7309
X4.7313Y-5.9813
X4.7562Y-5.2313
X4.9188Y-4.4813
X4.9437Y-3.7312
X5.1063Y-5.2313
X5.1312Y-5.9813
X5.2938Y-3.7312
X5.3187Y-4.4813
X5.4813Y-5.9813
X5.5062Y-5.2313
X5.6688Y-4.4813
X5.6937Y-3.7312
X5.8562Y-5.2313
X5.8812Y-5.9813
X6.0438Y-3.7312
X6.0687Y-4.4813
X6.2313Y-5.9813
X6.2562Y-5.2313
X6.4188Y-4.4813
X6.4437Y-3.7312
X6.6062Y-5.2313
X6.6313Y-5.9813
X6.7938Y-3.7312
X6.8187Y-4.4813
X6.9813Y-5.9813
X7.0062Y-5.2313
X7.1688Y-4.4813
X7.1937Y-3.7312
X7.3562Y-5.2313
X7.3563Y-6.7313
X7.3813Y-5.9813
X7.5438Y-3.7312
X7.5687Y-4.4813
X7.7313Y-5.9813
X7.7562Y-5.2313
X7.7563Y-6.7313
X7.9188Y-4.4813
X7.9437Y-3.7312
X8.1062Y-5.2313
X8.1313Y-5.9813
X8.2937Y-3.7312
X8.3187Y-4.4813
X8.4813Y-5.9813
X8.5062Y-5.2313
X8.6687Y-4.4813
X8.6937Y-3.7312
X8.8562Y-5.2313
X8.8813Y-5.9813
X9.0437Y-3.7312
X9.0687Y-4.4813
X9.2313Y-5.9813
X9.2562Y-5.2313
X9.4187Y-4.4813
X9.4437Y-3.7312
X9.6062Y-5.2313
X9.6313Y-5.9813
X9.7937Y-3.7312
X9.8187Y-4.4813
X9.9813Y-5.9813
X10.0062Y-5.2313
X10.1687Y-4.4813
X10.1937Y-3.7312
X10.3562Y-5.2313
X10.3813Y-5.9813
X10.5437Y-3.7312
X10.5438Y-6.7313
X10.5687Y-4.4813
X10.7313Y-5.9813
X10.7562Y-5.2313
X10.9187Y-4.4813
X10.9437Y-3.7312
X10.9438Y-6.7313
X11.1062Y-5.2313
X11.1313Y-5.9813
X11.2937Y-3.7312
X11.3187Y-4.4813
X11.5062Y-5.2313
X11.6687Y-4.4813
X11.6688Y-6.7313
X11.6937Y-3.7312
X12.0687Y-4.4813
X12.0688Y-6.7313
X12.1375Y-5.9813
X12.325Y-5.2313
X12.4187Y-3.7312
X12.5375Y-5.9813
X12.6062Y-4.4813
X12.7Y-6.7313
X12.725Y-5.2313
X12.8187Y-3.7312
X13.0062Y-4.4813
X13.1Y-6.7313
X13.909Y-3.7316
X13.909Y-4.4816
X13.909Y-6.7313
X14.309Y-3.7316
X14.309Y-4.4816
X14.309Y-6.7313
X14.659Y-3.7312
X14.659Y-4.4813
X14.659Y-5.9813
X14.659Y-6.7313
X15.059Y-3.7312
X15.059Y-4.4813
X15.059Y-5.9813
X15.059Y-6.7313
X15.409Y-3.7312
X15.409Y-4.4813
X15.409Y-6.7313
X15.809Y-3.7312
X15.809Y-4.4813
X15.809Y-6.7313
T2
X2.4925Y-5.7062
X3.4325Y-5.7062
X5.3063Y-7.0062
X9.8063Y-7.0062
X11.8675Y-5.7062
X12.055Y-4.9562
X12.1487Y-3.4562
X12.8075Y-5.7062
X12.995Y-4.9562
X13.0887Y-3.4562
T3
X2.4925Y-6.3062
X2.4937Y-3.7312
X2.5875Y-6.7309
X2.6812Y-4.4813
X2.775Y-5.2309
X2.9625Y-5.9813
X3.2437Y-3.7312
X3.4325Y-6.3062
X3.525Y-6.7313
X3.6187Y-4.4813
X3.8062Y-5.2313
X3.9937Y-3.7312
X4.1812Y-5.9813
X4.3687Y-4.4813
X4.4625Y-6.7309
X4.5562Y-5.2313
X4.7437Y-3.7312
X4.9312Y-5.9813
X5.1187Y-4.4813
X5.3062Y-5.2313
X5.3063Y-6.4062
X5.4937Y-3.7312
X5.6812Y-5.9813
X5.8687Y-4.4813
X6.0562Y-5.2313
X6.2437Y-3.7312
X6.4313Y-5.9813
X6.6187Y-4.4813
X6.8062Y-5.2313
X6.9937Y-3.7312
X7.1813Y-5.9813
X7.3687Y-4.4813
X7.5562Y-5.2313
X7.5563Y-6.7313
X7.7437Y-3.7312
X7.9313Y-5.9813
X8.1188Y-4.4813
X8.3062Y-5.2313
X8.4938Y-3.7312
X8.6813Y-5.9813
X8.8688Y-4.4813
X9.0562Y-5.2313
X9.2438Y-3.7312
X9.4313Y-5.9813
X9.6188Y-4.4813
X9.8062Y-5.2313
X9.8063Y-6.4062
X9.9938Y-3.7312
X10.1813Y-5.9813
X10.3688Y-4.4813
X10.5562Y-5.2313
X10.7438Y-3.7312
X10.7438Y-6.7313
X10.9313Y-5.9813
X11.1188Y-4.4813
X11.3062Y-5.2313
X11.4938Y-3.7312
X11.8675Y-6.3062
X11.8688Y-4.4813
X11.8688Y-6.7313
X12.055Y-5.5562
X12.1487Y-4.0562
X12.3375Y-5.9813
X12.525Y-5.2313
X12.6188Y-3.7312
X12.8062Y-4.4813
X12.8075Y-6.3062
X12.9Y-6.7313
X12.995Y-5.5562
X13.0887Y-4.0562
X14.109Y-3.7316
X14.109Y-4.4816
X14.109Y-6.7313
X14.859Y-3.7312
X14.859Y-4.4813
X14.859Y-5.9813
X14.859Y-6.7313
X15.609Y-3.7312
X15.609Y-4.4813
X15.609Y-6.7313
M30
