M48
; DRILL file {KiCad 9.0.0} date 2025-03-06T23:08:25+0000
; FORMAT={-:-/ absolute / inch / decimal}
; #@! TF.CreationDate,2025-03-06T23:08:25+00:00
; #@! TF.GenerationSoftware,Kicad,Pcbnew,9.0.0
; #@! TF.FileFunction,Plated,1,2,PTH
FMAT,2
INCH
; #@! TA.AperFunction,Plated,PTH,ViaDrill
T1C0.0157
; #@! TA.AperFunction,Plated,PTH,ComponentDrill
T2C0.0157
; #@! TA.AperFunction,Plated,PTH,ComponentDrill
T3C0.0244
; #@! TA.AperFunction,Plated,PTH,ComponentDrill
T4C0.0276
; #@! TA.AperFunction,Plated,PTH,ComponentDrill
T5C0.0310
; #@! TA.AperFunction,Plated,PTH,ComponentDrill
T6C0.0315
; #@! TA.AperFunction,Plated,PTH,ComponentDrill
T7C0.0433
; #@! TA.AperFunction,Plated,PTH,ComponentDrill
T8C0.0866
; #@! TA.AperFunction,Plated,PTH,ComponentDrill
T9C0.1181
%
G90
G05
T1
X2.9209Y-6.2077
X3.6929Y-2.5276
X4.6102Y-2.4646
X6.0551Y-2.5669
X6.1732Y-2.6693
X6.4882Y-2.4646
X7.1102Y-2.4606
X7.7402Y-2.5748
X7.8504Y-2.4567
X8.4094Y-3.1417
X8.7087Y-3.0866
X9.0315Y-2.4567
X10.0906Y-3.9331
X10.2756Y-5.2677
X10.6142Y-5.5276
X10.6378Y-2.6457
X11.0315Y-2.5827
X11.1575Y-6.7008
X11.1693Y-3.3937
X11.1811Y-3.2126
X11.1969Y-3.7323
X11.2205Y-3.2362
X11.2598Y-3.2598
X11.2638Y-2.4173
X11.2756Y-3.4409
X11.2992Y-3.2913
X11.378Y-3.2677
X11.4016Y-5.9764
X11.4173Y-3.2913
X11.4567Y-3.315
X11.4961Y-3.3386
X11.5354Y-3.3622
X11.8228Y-5.1575
X11.8504Y-2.9685
X11.9055Y-3.1181
X12.1654Y-2.6299
X12.2835Y-4.1575
X12.3701Y-6.2008
X12.4646Y-2.9764
X12.6772Y-6.2913
X13.0079Y-2.7244
X13.2205Y-2.6299
X13.252Y-2.9764
X13.4724Y-4.7165
X13.9606Y-6.2756
X14.063Y-5.1181
X14.3504Y-4.7126
X14.5039Y-3.7441
X15.2598Y-4.1417
X15.2717Y-6.2559
X15.4567Y-6.315
X15.8071Y-4.0079
X15.8819Y-3.3386
T2
X13.426Y-2.5591
X13.4262Y-2.6112
X13.4594Y-2.5591
X13.4596Y-2.6112
X13.4929Y-2.5591
X13.4931Y-2.6112
X13.5264Y-2.5591
X13.5266Y-2.6112
X13.5598Y-2.5591
X13.56Y-2.6112
X13.5933Y-2.5591
X13.5935Y-2.6112
X13.6268Y-2.5591
X13.627Y-2.6112
X13.6604Y-2.5591
X13.6604Y-2.6112
T4
X13.4429Y-2.8976
X13.6437Y-2.8976
X14.0866Y-2.473
X14.0866Y-2.773
X14.2251Y-2.473
X14.2251Y-2.773
T5
X14.2251Y-2.9539
X14.2251Y-3.2539
X14.3251Y-2.9539
X14.3251Y-3.2539
X14.4251Y-2.9539
X14.4251Y-3.2539
X14.5251Y-2.9539
X14.5251Y-3.2539
X14.6251Y-2.9539
X14.6251Y-3.2539
X14.7251Y-2.9539
X14.7251Y-3.2539
X14.8251Y-2.9539
X14.8251Y-3.2539
T6
X2.6575Y-2.6091
X2.6575Y-2.8091
X2.8074Y-2.6794
X2.8074Y-2.8794
X2.9573Y-2.7498
X2.9573Y-2.9498
X3.1072Y-2.8202
X3.1072Y-3.0202
X3.2571Y-2.8906
X3.2571Y-3.0906
X3.407Y-2.6091
X3.407Y-2.8091
X3.5569Y-2.6794
X3.5569Y-2.8794
X3.7068Y-2.7498
X3.7068Y-2.9498
X3.8567Y-2.8202
X3.8567Y-3.0202
X4.0066Y-2.8906
X4.0066Y-3.0906
X4.1565Y-2.6091
X4.1565Y-2.8091
X4.3064Y-2.6794
X4.3064Y-2.8794
X4.4564Y-2.7498
X4.4564Y-2.9498
X4.6063Y-2.8202
X4.6063Y-3.0202
X4.7562Y-2.8906
X4.7562Y-3.0906
X4.9061Y-2.6091
X4.9061Y-2.8091
X5.056Y-2.6794
X5.056Y-2.8794
X5.2059Y-2.7498
X5.2059Y-2.9498
X5.3558Y-2.8202
X5.3558Y-3.0202
X5.5057Y-2.8906
X5.5057Y-3.0906
X5.6556Y-2.6091
X5.6556Y-2.8091
X5.8055Y-2.6794
X5.8055Y-2.8794
X5.9554Y-2.7498
X5.9554Y-2.9498
X6.1053Y-2.8202
X6.1053Y-3.0202
X6.2552Y-2.8906
X6.2552Y-3.0906
X6.4051Y-2.6091
X6.4051Y-2.8091
X6.555Y-2.6794
X6.555Y-2.8794
X6.7049Y-2.7498
X6.7049Y-2.9498
X6.8548Y-2.8202
X6.8548Y-3.0202
X7.0048Y-2.8906
X7.0048Y-3.0906
X7.1547Y-2.6091
X7.1547Y-2.8091
X7.3046Y-2.6794
X7.3046Y-2.8794
X7.4545Y-2.7498
X7.4545Y-2.9498
X7.6044Y-2.8202
X7.6044Y-3.0202
X7.7543Y-2.8906
X7.7543Y-3.0906
X7.9042Y-2.6091
X7.9042Y-2.8091
X8.0541Y-2.6794
X8.0541Y-2.8794
X8.204Y-2.7498
X8.204Y-2.9498
X8.3539Y-2.8202
X8.3539Y-3.0202
X8.5038Y-2.8906
X8.5038Y-3.0906
X8.6537Y-2.6091
X8.6537Y-2.8091
X8.8036Y-2.6794
X8.8036Y-2.8794
X8.9535Y-2.7498
X8.9535Y-2.9498
X9.1034Y-2.8202
X9.1034Y-3.0202
X9.2533Y-2.8906
X9.2533Y-3.0906
X9.4032Y-2.6091
X9.4032Y-2.8091
X9.5531Y-2.6794
X9.5531Y-2.8794
X9.7031Y-2.7498
X9.7031Y-2.9498
X9.853Y-2.8202
X9.853Y-3.0202
X10.0029Y-2.8906
X10.0029Y-3.0906
X10.1528Y-2.6091
X10.1528Y-2.8091
X10.3027Y-2.6794
X10.3027Y-2.8794
X10.4526Y-2.7498
X10.4526Y-2.9498
X10.6025Y-2.8202
X10.6025Y-3.0202
X10.7524Y-2.8906
X10.7524Y-3.0906
X10.9023Y-2.6091
X10.9023Y-2.8091
X11.0522Y-2.6794
X11.0522Y-2.8794
X11.2021Y-2.7498
X11.2021Y-2.9498
X11.352Y-2.8202
X11.352Y-3.0202
X11.5019Y-2.8906
X11.5019Y-3.0906
X11.6518Y-2.6091
X11.6518Y-2.8091
X11.8017Y-2.6794
X11.8017Y-2.8794
X11.9516Y-2.7498
X11.9516Y-2.9498
X12.1015Y-2.8202
X12.1015Y-3.0202
X12.2515Y-2.8906
X12.2515Y-3.0906
X12.4014Y-2.6091
X12.4014Y-2.8091
X12.5513Y-2.6794
X12.5513Y-2.8794
X12.7012Y-2.7498
X12.7012Y-2.9498
X12.8511Y-2.8202
X12.8511Y-3.0202
X13.001Y-2.8906
X13.001Y-3.0906
X14.8189Y-2.5591
X14.8189Y-2.7591
X14.9573Y-2.5591
X14.9573Y-2.7591
T7
X15.2579Y-2.5663
X15.2579Y-2.7435
X15.2579Y-2.9581
X15.2579Y-3.1352
X15.5138Y-2.5663
X15.5138Y-2.7435
X15.5138Y-2.9581
X15.5138Y-3.1352
T8
X2.2835Y-2.5197
X2.2835Y-3.1693
X3.0709Y-4.0846
X4.0256Y-6.378
X6.3878Y-4.065
X7.4891Y-2.5197
X7.9724Y-3.1693
X8.2185Y-6.6634
X11.2697Y-4.065
X11.5551Y-6.3386
X15.2188Y-6.875
X15.4331Y-4.0748
X15.8366Y-2.5197
X15.8366Y-3.1693
T9
X2.3438Y-3.6313
X2.4375Y-6.6309
X2.5312Y-4.3812
X2.5938Y-3.5312
X2.625Y-5.1309
X2.6875Y-6.5309
X2.7812Y-4.2812
X2.8125Y-5.8812
X2.875Y-5.0309
X3.0625Y-5.7812
X3.0938Y-3.6313
X3.3438Y-3.5312
X3.375Y-6.6312
X3.4688Y-4.3812
X3.625Y-6.5312
X3.6562Y-5.1312
X3.7188Y-4.2812
X3.8438Y-3.6313
X3.9062Y-5.0312
X4.0312Y-5.8812
X4.0938Y-3.5312
X4.2188Y-4.3812
X4.2812Y-5.7812
X4.3125Y-6.6309
X4.4062Y-5.1312
X4.4688Y-4.2812
X4.5625Y-6.5309
X4.5938Y-3.6313
X4.6562Y-5.0312
X4.7812Y-5.8812
X4.8438Y-3.5312
X4.9688Y-4.3812
X5.0312Y-5.7812
X5.1562Y-5.1312
X5.2188Y-4.2812
X5.3438Y-3.6313
X5.4062Y-5.0312
X5.5312Y-5.8812
X5.5938Y-3.5312
X5.7188Y-4.3812
X5.7812Y-5.7812
X5.9062Y-5.1312
X5.9688Y-4.2812
X6.0938Y-3.6313
X6.1562Y-5.0312
X6.2813Y-5.8812
X6.3438Y-3.5312
X6.4688Y-4.3812
X6.5313Y-5.7812
X6.6562Y-5.1312
X6.7188Y-4.2812
X6.8438Y-3.6313
X6.9062Y-5.0312
X7.0313Y-5.8812
X7.0938Y-3.5312
X7.2188Y-4.3812
X7.2813Y-5.7812
X7.4062Y-5.1312
X7.4063Y-6.6312
X7.4688Y-4.2812
X7.5938Y-3.6313
X7.6562Y-5.0312
X7.6563Y-6.5312
X7.7813Y-5.8812
X7.8438Y-3.5312
X7.9688Y-4.3812
X8.0313Y-5.7812
X8.1562Y-5.1312
X8.2188Y-4.2812
X8.3438Y-3.6313
X8.4062Y-5.0312
X8.5313Y-5.8812
X8.5938Y-3.5312
X8.7188Y-4.3812
X8.7813Y-5.7812
X8.9062Y-5.1312
X8.9688Y-4.2812
X9.0938Y-3.6313
X9.1562Y-5.0312
X9.2813Y-5.8812
X9.3438Y-3.5312
X9.4688Y-4.3812
X9.5313Y-5.7812
X9.6562Y-5.1312
X9.7188Y-4.2812
X9.8438Y-3.6313
X9.9062Y-5.0312
X10.0313Y-5.8812
X10.0938Y-3.5312
X10.2188Y-4.3812
X10.2813Y-5.7812
X10.4062Y-5.1312
X10.4688Y-4.2812
X10.5938Y-3.6313
X10.5938Y-6.6312
X10.6562Y-5.0312
X10.7813Y-5.8812
X10.8438Y-3.5312
X10.8438Y-6.5312
X10.9688Y-4.3812
X11.0313Y-5.7812
X11.1562Y-5.1312
X11.2188Y-4.2812
X11.3438Y-3.6313
X11.4062Y-5.0312
X11.5938Y-3.5312
X11.7188Y-4.3812
X11.7188Y-6.6312
X11.9688Y-4.2812
X11.9688Y-6.5312
X12.1875Y-5.8812
X12.375Y-5.1312
X12.4375Y-5.7812
X12.4688Y-3.6313
X12.625Y-5.0312
X12.6562Y-4.3812
X12.7188Y-3.5312
X12.75Y-6.6312
X12.9062Y-4.2812
X13.0Y-6.5312
X13.959Y-3.6316
X13.959Y-4.3816
X13.959Y-6.6312
X14.209Y-3.5316
X14.209Y-4.2816
X14.209Y-6.5312
X14.709Y-3.6313
X14.709Y-4.3812
X14.709Y-5.8812
X14.709Y-6.6312
X14.959Y-3.5312
X14.959Y-4.2812
X14.959Y-5.7812
X14.959Y-6.5312
X15.459Y-3.6313
X15.459Y-4.3812
X15.459Y-6.6312
X15.709Y-3.5312
X15.709Y-4.2812
X15.709Y-6.5312
T3
G00X13.373Y-2.4549
M15
G01X13.373Y-2.4242
M16
G05
G00X13.373Y-2.6018
M15
G01X13.373Y-2.5435
M16
G05
G00X13.7136Y-2.4549
M15
G01X13.7136Y-2.4242
M16
G05
G00X13.7136Y-2.6018
M15
G01X13.7136Y-2.5435
M16
G05
M30
