%TF.GenerationSoftware,KiCad,Pcbnew,9.0.0*%
%TF.CreationDate,2025-03-11T22:48:35+00:00*%
%TF.ProjectId,kara70-pcb,6b617261-3730-42d7-9063-622e6b696361,rev?*%
%TF.SameCoordinates,Original*%
%TF.FileFunction,Legend,Bot*%
%TF.FilePolarity,Positive*%
%FSLAX46Y46*%
G04 Gerber Fmt 4.6, Leading zero omitted, Abs format (unit mm)*
G04 Created by KiCad (PCBNEW 9.0.0) date 2025-03-11 22:48:35*
%MOMM*%
%LPD*%
G01*
G04 APERTURE LIST*
G04 Aperture macros list*
%AMRoundRect*
0 Rectangle with rounded corners*
0 $1 Rounding radius*
0 $2 $3 $4 $5 $6 $7 $8 $9 X,Y pos of 4 corners*
0 Add a 4 corners polygon primitive as box body*
4,1,4,$2,$3,$4,$5,$6,$7,$8,$9,$2,$3,0*
0 Add four circle primitives for the rounded corners*
1,1,$1+$1,$2,$3*
1,1,$1+$1,$4,$5*
1,1,$1+$1,$6,$7*
1,1,$1+$1,$8,$9*
0 Add four rect primitives between the rounded corners*
20,1,$1+$1,$2,$3,$4,$5,0*
20,1,$1+$1,$4,$5,$6,$7,0*
20,1,$1+$1,$6,$7,$8,$9,0*
20,1,$1+$1,$8,$9,$2,$3,0*%
G04 Aperture macros list end*
%ADD10C,0.150000*%
%ADD11C,0.120000*%
%ADD12RoundRect,0.051000X-0.800000X0.800000X-0.800000X-0.800000X0.800000X-0.800000X0.800000X0.800000X0*%
%ADD13O,1.702000X1.702000*%
%ADD14RoundRect,0.051000X0.647700X-0.647700X0.647700X0.647700X-0.647700X0.647700X-0.647700X-0.647700X0*%
%ADD15C,1.397400*%
%ADD16RoundRect,0.051000X0.800000X-0.800000X0.800000X0.800000X-0.800000X0.800000X-0.800000X-0.800000X0*%
%ADD17C,4.502000*%
%ADD18O,0.752000X1.102000*%
%ADD19O,1.002000X2.502000*%
%ADD20O,1.002000X1.802000*%
%ADD21C,1.502000*%
%ADD22O,1.502000X1.502000*%
%ADD23C,2.102000*%
%ADD24C,1.803800*%
%ADD25C,4.089800*%
%ADD26C,3.402000*%
%ADD27RoundRect,0.208160X1.772840X1.092840X-1.772840X1.092840X-1.772840X-1.092840X1.772840X-1.092840X0*%
%ADD28RoundRect,0.208160X1.901340X1.092840X-1.901340X1.092840X-1.901340X-1.092840X1.901340X-1.092840X0*%
%ADD29C,3.150000*%
%ADD30RoundRect,0.208160X2.022840X1.092840X-2.022840X1.092840X-2.022840X-1.092840X2.022840X-1.092840X0*%
%ADD31RoundRect,0.208160X2.272840X1.092840X-2.272840X1.092840X-2.272840X-1.092840X2.272840X-1.092840X0*%
%ADD32RoundRect,0.271702X0.504298X-0.366798X0.504298X0.366798X-0.504298X0.366798X-0.504298X-0.366798X0*%
%ADD33RoundRect,0.100200X0.400800X-0.700800X0.400800X0.700800X-0.400800X0.700800X-0.400800X-0.700800X0*%
%ADD34RoundRect,0.271702X0.366798X0.504298X-0.366798X0.504298X-0.366798X-0.504298X0.366798X-0.504298X0*%
%ADD35RoundRect,0.100200X-0.400800X0.700800X-0.400800X-0.700800X0.400800X-0.700800X0.400800X0.700800X0*%
%ADD36RoundRect,0.271702X-0.504298X0.366798X-0.504298X-0.366798X0.504298X-0.366798X0.504298X0.366798X0*%
%ADD37RoundRect,0.100200X0.700800X0.400800X-0.700800X0.400800X-0.700800X-0.400800X0.700800X-0.400800X0*%
%ADD38RoundRect,0.100200X-0.700800X-0.400800X0.700800X-0.400800X0.700800X0.400800X-0.700800X0.400800X0*%
%ADD39RoundRect,0.051000X1.400000X0.750000X-1.400000X0.750000X-1.400000X-0.750000X1.400000X-0.750000X0*%
%ADD40RoundRect,0.051000X-0.750000X1.400000X-0.750000X-1.400000X0.750000X-1.400000X0.750000X1.400000X0*%
G04 APERTURE END LIST*
D10*
X301452080Y-63233333D02*
X301499700Y-63185714D01*
X301499700Y-63185714D02*
X301547319Y-63042857D01*
X301547319Y-63042857D02*
X301547319Y-62947619D01*
X301547319Y-62947619D02*
X301499700Y-62804762D01*
X301499700Y-62804762D02*
X301404461Y-62709524D01*
X301404461Y-62709524D02*
X301309223Y-62661905D01*
X301309223Y-62661905D02*
X301118747Y-62614286D01*
X301118747Y-62614286D02*
X300975890Y-62614286D01*
X300975890Y-62614286D02*
X300785414Y-62661905D01*
X300785414Y-62661905D02*
X300690176Y-62709524D01*
X300690176Y-62709524D02*
X300594938Y-62804762D01*
X300594938Y-62804762D02*
X300547319Y-62947619D01*
X300547319Y-62947619D02*
X300547319Y-63042857D01*
X300547319Y-63042857D02*
X300594938Y-63185714D01*
X300594938Y-63185714D02*
X300642557Y-63233333D01*
X300642557Y-63614286D02*
X300594938Y-63661905D01*
X300594938Y-63661905D02*
X300547319Y-63757143D01*
X300547319Y-63757143D02*
X300547319Y-63995238D01*
X300547319Y-63995238D02*
X300594938Y-64090476D01*
X300594938Y-64090476D02*
X300642557Y-64138095D01*
X300642557Y-64138095D02*
X300737795Y-64185714D01*
X300737795Y-64185714D02*
X300833033Y-64185714D01*
X300833033Y-64185714D02*
X300975890Y-64138095D01*
X300975890Y-64138095D02*
X301547319Y-63566667D01*
X301547319Y-63566667D02*
X301547319Y-64185714D01*
X178754819Y-63343452D02*
X178754819Y-62867262D01*
X178754819Y-62867262D02*
X177754819Y-62867262D01*
X178231009Y-63676786D02*
X178231009Y-64010119D01*
X178754819Y-64152976D02*
X178754819Y-63676786D01*
X178754819Y-63676786D02*
X177754819Y-63676786D01*
X177754819Y-63676786D02*
X177754819Y-64152976D01*
X178754819Y-64581548D02*
X177754819Y-64581548D01*
X177754819Y-64581548D02*
X177754819Y-64819643D01*
X177754819Y-64819643D02*
X177802438Y-64962500D01*
X177802438Y-64962500D02*
X177897676Y-65057738D01*
X177897676Y-65057738D02*
X177992914Y-65105357D01*
X177992914Y-65105357D02*
X178183390Y-65152976D01*
X178183390Y-65152976D02*
X178326247Y-65152976D01*
X178326247Y-65152976D02*
X178516723Y-65105357D01*
X178516723Y-65105357D02*
X178611961Y-65057738D01*
X178611961Y-65057738D02*
X178707200Y-64962500D01*
X178707200Y-64962500D02*
X178754819Y-64819643D01*
X178754819Y-64819643D02*
X178754819Y-64581548D01*
X177754819Y-66057738D02*
X177754819Y-65581548D01*
X177754819Y-65581548D02*
X178231009Y-65533929D01*
X178231009Y-65533929D02*
X178183390Y-65581548D01*
X178183390Y-65581548D02*
X178135771Y-65676786D01*
X178135771Y-65676786D02*
X178135771Y-65914881D01*
X178135771Y-65914881D02*
X178183390Y-66010119D01*
X178183390Y-66010119D02*
X178231009Y-66057738D01*
X178231009Y-66057738D02*
X178326247Y-66105357D01*
X178326247Y-66105357D02*
X178564342Y-66105357D01*
X178564342Y-66105357D02*
X178659580Y-66057738D01*
X178659580Y-66057738D02*
X178707200Y-66010119D01*
X178707200Y-66010119D02*
X178754819Y-65914881D01*
X178754819Y-65914881D02*
X178754819Y-65676786D01*
X178754819Y-65676786D02*
X178707200Y-65581548D01*
X178707200Y-65581548D02*
X178659580Y-65533929D01*
X176037704Y-68233928D02*
X176037704Y-68691071D01*
X176037704Y-68462499D02*
X176837704Y-68462499D01*
X176837704Y-68462499D02*
X176723419Y-68538690D01*
X176723419Y-68538690D02*
X176647228Y-68614880D01*
X176647228Y-68614880D02*
X176609133Y-68691071D01*
X395580357Y-82679580D02*
X395627976Y-82727200D01*
X395627976Y-82727200D02*
X395770833Y-82774819D01*
X395770833Y-82774819D02*
X395866071Y-82774819D01*
X395866071Y-82774819D02*
X396008928Y-82727200D01*
X396008928Y-82727200D02*
X396104166Y-82631961D01*
X396104166Y-82631961D02*
X396151785Y-82536723D01*
X396151785Y-82536723D02*
X396199404Y-82346247D01*
X396199404Y-82346247D02*
X396199404Y-82203390D01*
X396199404Y-82203390D02*
X396151785Y-82012914D01*
X396151785Y-82012914D02*
X396104166Y-81917676D01*
X396104166Y-81917676D02*
X396008928Y-81822438D01*
X396008928Y-81822438D02*
X395866071Y-81774819D01*
X395866071Y-81774819D02*
X395770833Y-81774819D01*
X395770833Y-81774819D02*
X395627976Y-81822438D01*
X395627976Y-81822438D02*
X395580357Y-81870057D01*
X395199404Y-81870057D02*
X395151785Y-81822438D01*
X395151785Y-81822438D02*
X395056547Y-81774819D01*
X395056547Y-81774819D02*
X394818452Y-81774819D01*
X394818452Y-81774819D02*
X394723214Y-81822438D01*
X394723214Y-81822438D02*
X394675595Y-81870057D01*
X394675595Y-81870057D02*
X394627976Y-81965295D01*
X394627976Y-81965295D02*
X394627976Y-82060533D01*
X394627976Y-82060533D02*
X394675595Y-82203390D01*
X394675595Y-82203390D02*
X395247023Y-82774819D01*
X395247023Y-82774819D02*
X394627976Y-82774819D01*
X394294642Y-81774819D02*
X393675595Y-81774819D01*
X393675595Y-81774819D02*
X394008928Y-82155771D01*
X394008928Y-82155771D02*
X393866071Y-82155771D01*
X393866071Y-82155771D02*
X393770833Y-82203390D01*
X393770833Y-82203390D02*
X393723214Y-82251009D01*
X393723214Y-82251009D02*
X393675595Y-82346247D01*
X393675595Y-82346247D02*
X393675595Y-82584342D01*
X393675595Y-82584342D02*
X393723214Y-82679580D01*
X393723214Y-82679580D02*
X393770833Y-82727200D01*
X393770833Y-82727200D02*
X393866071Y-82774819D01*
X393866071Y-82774819D02*
X394151785Y-82774819D01*
X394151785Y-82774819D02*
X394247023Y-82727200D01*
X394247023Y-82727200D02*
X394294642Y-82679580D01*
X176604819Y-174354761D02*
X176604819Y-173878571D01*
X176604819Y-173878571D02*
X175604819Y-173878571D01*
X176081009Y-174688095D02*
X176081009Y-175021428D01*
X176604819Y-175164285D02*
X176604819Y-174688095D01*
X176604819Y-174688095D02*
X175604819Y-174688095D01*
X175604819Y-174688095D02*
X175604819Y-175164285D01*
X176604819Y-175592857D02*
X175604819Y-175592857D01*
X175604819Y-175592857D02*
X175604819Y-175830952D01*
X175604819Y-175830952D02*
X175652438Y-175973809D01*
X175652438Y-175973809D02*
X175747676Y-176069047D01*
X175747676Y-176069047D02*
X175842914Y-176116666D01*
X175842914Y-176116666D02*
X176033390Y-176164285D01*
X176033390Y-176164285D02*
X176176247Y-176164285D01*
X176176247Y-176164285D02*
X176366723Y-176116666D01*
X176366723Y-176116666D02*
X176461961Y-176069047D01*
X176461961Y-176069047D02*
X176557200Y-175973809D01*
X176557200Y-175973809D02*
X176604819Y-175830952D01*
X176604819Y-175830952D02*
X176604819Y-175592857D01*
X176604819Y-177116666D02*
X176604819Y-176545238D01*
X176604819Y-176830952D02*
X175604819Y-176830952D01*
X175604819Y-176830952D02*
X175747676Y-176735714D01*
X175747676Y-176735714D02*
X175842914Y-176640476D01*
X175842914Y-176640476D02*
X175890533Y-176545238D01*
X175604819Y-178021428D02*
X175604819Y-177545238D01*
X175604819Y-177545238D02*
X176081009Y-177497619D01*
X176081009Y-177497619D02*
X176033390Y-177545238D01*
X176033390Y-177545238D02*
X175985771Y-177640476D01*
X175985771Y-177640476D02*
X175985771Y-177878571D01*
X175985771Y-177878571D02*
X176033390Y-177973809D01*
X176033390Y-177973809D02*
X176081009Y-178021428D01*
X176081009Y-178021428D02*
X176176247Y-178069047D01*
X176176247Y-178069047D02*
X176414342Y-178069047D01*
X176414342Y-178069047D02*
X176509580Y-178021428D01*
X176509580Y-178021428D02*
X176557200Y-177973809D01*
X176557200Y-177973809D02*
X176604819Y-177878571D01*
X176604819Y-177878571D02*
X176604819Y-177640476D01*
X176604819Y-177640476D02*
X176557200Y-177545238D01*
X176557200Y-177545238D02*
X176509580Y-177497619D01*
X178412295Y-172178571D02*
X178412295Y-171721428D01*
X178412295Y-171950000D02*
X177612295Y-171950000D01*
X177612295Y-171950000D02*
X177726580Y-171873809D01*
X177726580Y-171873809D02*
X177802771Y-171797619D01*
X177802771Y-171797619D02*
X177840866Y-171721428D01*
X149777080Y-63233333D02*
X149824700Y-63185714D01*
X149824700Y-63185714D02*
X149872319Y-63042857D01*
X149872319Y-63042857D02*
X149872319Y-62947619D01*
X149872319Y-62947619D02*
X149824700Y-62804762D01*
X149824700Y-62804762D02*
X149729461Y-62709524D01*
X149729461Y-62709524D02*
X149634223Y-62661905D01*
X149634223Y-62661905D02*
X149443747Y-62614286D01*
X149443747Y-62614286D02*
X149300890Y-62614286D01*
X149300890Y-62614286D02*
X149110414Y-62661905D01*
X149110414Y-62661905D02*
X149015176Y-62709524D01*
X149015176Y-62709524D02*
X148919938Y-62804762D01*
X148919938Y-62804762D02*
X148872319Y-62947619D01*
X148872319Y-62947619D02*
X148872319Y-63042857D01*
X148872319Y-63042857D02*
X148919938Y-63185714D01*
X148919938Y-63185714D02*
X148967557Y-63233333D01*
X148872319Y-64090476D02*
X148872319Y-63900000D01*
X148872319Y-63900000D02*
X148919938Y-63804762D01*
X148919938Y-63804762D02*
X148967557Y-63757143D01*
X148967557Y-63757143D02*
X149110414Y-63661905D01*
X149110414Y-63661905D02*
X149300890Y-63614286D01*
X149300890Y-63614286D02*
X149681842Y-63614286D01*
X149681842Y-63614286D02*
X149777080Y-63661905D01*
X149777080Y-63661905D02*
X149824700Y-63709524D01*
X149824700Y-63709524D02*
X149872319Y-63804762D01*
X149872319Y-63804762D02*
X149872319Y-63995238D01*
X149872319Y-63995238D02*
X149824700Y-64090476D01*
X149824700Y-64090476D02*
X149777080Y-64138095D01*
X149777080Y-64138095D02*
X149681842Y-64185714D01*
X149681842Y-64185714D02*
X149443747Y-64185714D01*
X149443747Y-64185714D02*
X149348509Y-64138095D01*
X149348509Y-64138095D02*
X149300890Y-64090476D01*
X149300890Y-64090476D02*
X149253271Y-63995238D01*
X149253271Y-63995238D02*
X149253271Y-63804762D01*
X149253271Y-63804762D02*
X149300890Y-63709524D01*
X149300890Y-63709524D02*
X149348509Y-63661905D01*
X149348509Y-63661905D02*
X149443747Y-63614286D01*
X391179580Y-156357142D02*
X391227200Y-156309523D01*
X391227200Y-156309523D02*
X391274819Y-156166666D01*
X391274819Y-156166666D02*
X391274819Y-156071428D01*
X391274819Y-156071428D02*
X391227200Y-155928571D01*
X391227200Y-155928571D02*
X391131961Y-155833333D01*
X391131961Y-155833333D02*
X391036723Y-155785714D01*
X391036723Y-155785714D02*
X390846247Y-155738095D01*
X390846247Y-155738095D02*
X390703390Y-155738095D01*
X390703390Y-155738095D02*
X390512914Y-155785714D01*
X390512914Y-155785714D02*
X390417676Y-155833333D01*
X390417676Y-155833333D02*
X390322438Y-155928571D01*
X390322438Y-155928571D02*
X390274819Y-156071428D01*
X390274819Y-156071428D02*
X390274819Y-156166666D01*
X390274819Y-156166666D02*
X390322438Y-156309523D01*
X390322438Y-156309523D02*
X390370057Y-156357142D01*
X390370057Y-156738095D02*
X390322438Y-156785714D01*
X390322438Y-156785714D02*
X390274819Y-156880952D01*
X390274819Y-156880952D02*
X390274819Y-157119047D01*
X390274819Y-157119047D02*
X390322438Y-157214285D01*
X390322438Y-157214285D02*
X390370057Y-157261904D01*
X390370057Y-157261904D02*
X390465295Y-157309523D01*
X390465295Y-157309523D02*
X390560533Y-157309523D01*
X390560533Y-157309523D02*
X390703390Y-157261904D01*
X390703390Y-157261904D02*
X391274819Y-156690476D01*
X391274819Y-156690476D02*
X391274819Y-157309523D01*
X390274819Y-157928571D02*
X390274819Y-158023809D01*
X390274819Y-158023809D02*
X390322438Y-158119047D01*
X390322438Y-158119047D02*
X390370057Y-158166666D01*
X390370057Y-158166666D02*
X390465295Y-158214285D01*
X390465295Y-158214285D02*
X390655771Y-158261904D01*
X390655771Y-158261904D02*
X390893866Y-158261904D01*
X390893866Y-158261904D02*
X391084342Y-158214285D01*
X391084342Y-158214285D02*
X391179580Y-158166666D01*
X391179580Y-158166666D02*
X391227200Y-158119047D01*
X391227200Y-158119047D02*
X391274819Y-158023809D01*
X391274819Y-158023809D02*
X391274819Y-157928571D01*
X391274819Y-157928571D02*
X391227200Y-157833333D01*
X391227200Y-157833333D02*
X391179580Y-157785714D01*
X391179580Y-157785714D02*
X391084342Y-157738095D01*
X391084342Y-157738095D02*
X390893866Y-157690476D01*
X390893866Y-157690476D02*
X390655771Y-157690476D01*
X390655771Y-157690476D02*
X390465295Y-157738095D01*
X390465295Y-157738095D02*
X390370057Y-157785714D01*
X390370057Y-157785714D02*
X390322438Y-157833333D01*
X390322438Y-157833333D02*
X390274819Y-157928571D01*
X68239580Y-120357142D02*
X68287200Y-120309523D01*
X68287200Y-120309523D02*
X68334819Y-120166666D01*
X68334819Y-120166666D02*
X68334819Y-120071428D01*
X68334819Y-120071428D02*
X68287200Y-119928571D01*
X68287200Y-119928571D02*
X68191961Y-119833333D01*
X68191961Y-119833333D02*
X68096723Y-119785714D01*
X68096723Y-119785714D02*
X67906247Y-119738095D01*
X67906247Y-119738095D02*
X67763390Y-119738095D01*
X67763390Y-119738095D02*
X67572914Y-119785714D01*
X67572914Y-119785714D02*
X67477676Y-119833333D01*
X67477676Y-119833333D02*
X67382438Y-119928571D01*
X67382438Y-119928571D02*
X67334819Y-120071428D01*
X67334819Y-120071428D02*
X67334819Y-120166666D01*
X67334819Y-120166666D02*
X67382438Y-120309523D01*
X67382438Y-120309523D02*
X67430057Y-120357142D01*
X68334819Y-121309523D02*
X68334819Y-120738095D01*
X68334819Y-121023809D02*
X67334819Y-121023809D01*
X67334819Y-121023809D02*
X67477676Y-120928571D01*
X67477676Y-120928571D02*
X67572914Y-120833333D01*
X67572914Y-120833333D02*
X67620533Y-120738095D01*
X67334819Y-121928571D02*
X67334819Y-122023809D01*
X67334819Y-122023809D02*
X67382438Y-122119047D01*
X67382438Y-122119047D02*
X67430057Y-122166666D01*
X67430057Y-122166666D02*
X67525295Y-122214285D01*
X67525295Y-122214285D02*
X67715771Y-122261904D01*
X67715771Y-122261904D02*
X67953866Y-122261904D01*
X67953866Y-122261904D02*
X68144342Y-122214285D01*
X68144342Y-122214285D02*
X68239580Y-122166666D01*
X68239580Y-122166666D02*
X68287200Y-122119047D01*
X68287200Y-122119047D02*
X68334819Y-122023809D01*
X68334819Y-122023809D02*
X68334819Y-121928571D01*
X68334819Y-121928571D02*
X68287200Y-121833333D01*
X68287200Y-121833333D02*
X68239580Y-121785714D01*
X68239580Y-121785714D02*
X68144342Y-121738095D01*
X68144342Y-121738095D02*
X67953866Y-121690476D01*
X67953866Y-121690476D02*
X67715771Y-121690476D01*
X67715771Y-121690476D02*
X67525295Y-121738095D01*
X67525295Y-121738095D02*
X67430057Y-121785714D01*
X67430057Y-121785714D02*
X67382438Y-121833333D01*
X67382438Y-121833333D02*
X67334819Y-121928571D01*
X79239580Y-169357142D02*
X79287200Y-169309523D01*
X79287200Y-169309523D02*
X79334819Y-169166666D01*
X79334819Y-169166666D02*
X79334819Y-169071428D01*
X79334819Y-169071428D02*
X79287200Y-168928571D01*
X79287200Y-168928571D02*
X79191961Y-168833333D01*
X79191961Y-168833333D02*
X79096723Y-168785714D01*
X79096723Y-168785714D02*
X78906247Y-168738095D01*
X78906247Y-168738095D02*
X78763390Y-168738095D01*
X78763390Y-168738095D02*
X78572914Y-168785714D01*
X78572914Y-168785714D02*
X78477676Y-168833333D01*
X78477676Y-168833333D02*
X78382438Y-168928571D01*
X78382438Y-168928571D02*
X78334819Y-169071428D01*
X78334819Y-169071428D02*
X78334819Y-169166666D01*
X78334819Y-169166666D02*
X78382438Y-169309523D01*
X78382438Y-169309523D02*
X78430057Y-169357142D01*
X79334819Y-170309523D02*
X79334819Y-169738095D01*
X79334819Y-170023809D02*
X78334819Y-170023809D01*
X78334819Y-170023809D02*
X78477676Y-169928571D01*
X78477676Y-169928571D02*
X78572914Y-169833333D01*
X78572914Y-169833333D02*
X78620533Y-169738095D01*
X78430057Y-170690476D02*
X78382438Y-170738095D01*
X78382438Y-170738095D02*
X78334819Y-170833333D01*
X78334819Y-170833333D02*
X78334819Y-171071428D01*
X78334819Y-171071428D02*
X78382438Y-171166666D01*
X78382438Y-171166666D02*
X78430057Y-171214285D01*
X78430057Y-171214285D02*
X78525295Y-171261904D01*
X78525295Y-171261904D02*
X78620533Y-171261904D01*
X78620533Y-171261904D02*
X78763390Y-171214285D01*
X78763390Y-171214285D02*
X79334819Y-170642857D01*
X79334819Y-170642857D02*
X79334819Y-171261904D01*
X59669047Y-99004819D02*
X60145237Y-99004819D01*
X60145237Y-99004819D02*
X60145237Y-98004819D01*
X59335713Y-98481009D02*
X59002380Y-98481009D01*
X58859523Y-99004819D02*
X59335713Y-99004819D01*
X59335713Y-99004819D02*
X59335713Y-98004819D01*
X59335713Y-98004819D02*
X58859523Y-98004819D01*
X58430951Y-99004819D02*
X58430951Y-98004819D01*
X58430951Y-98004819D02*
X58192856Y-98004819D01*
X58192856Y-98004819D02*
X58049999Y-98052438D01*
X58049999Y-98052438D02*
X57954761Y-98147676D01*
X57954761Y-98147676D02*
X57907142Y-98242914D01*
X57907142Y-98242914D02*
X57859523Y-98433390D01*
X57859523Y-98433390D02*
X57859523Y-98576247D01*
X57859523Y-98576247D02*
X57907142Y-98766723D01*
X57907142Y-98766723D02*
X57954761Y-98861961D01*
X57954761Y-98861961D02*
X58049999Y-98957200D01*
X58049999Y-98957200D02*
X58192856Y-99004819D01*
X58192856Y-99004819D02*
X58430951Y-99004819D01*
X57383332Y-99004819D02*
X57192856Y-99004819D01*
X57192856Y-99004819D02*
X57097618Y-98957200D01*
X57097618Y-98957200D02*
X57049999Y-98909580D01*
X57049999Y-98909580D02*
X56954761Y-98766723D01*
X56954761Y-98766723D02*
X56907142Y-98576247D01*
X56907142Y-98576247D02*
X56907142Y-98195295D01*
X56907142Y-98195295D02*
X56954761Y-98100057D01*
X56954761Y-98100057D02*
X57002380Y-98052438D01*
X57002380Y-98052438D02*
X57097618Y-98004819D01*
X57097618Y-98004819D02*
X57288094Y-98004819D01*
X57288094Y-98004819D02*
X57383332Y-98052438D01*
X57383332Y-98052438D02*
X57430951Y-98100057D01*
X57430951Y-98100057D02*
X57478570Y-98195295D01*
X57478570Y-98195295D02*
X57478570Y-98433390D01*
X57478570Y-98433390D02*
X57430951Y-98528628D01*
X57430951Y-98528628D02*
X57383332Y-98576247D01*
X57383332Y-98576247D02*
X57288094Y-98623866D01*
X57288094Y-98623866D02*
X57097618Y-98623866D01*
X57097618Y-98623866D02*
X57002380Y-98576247D01*
X57002380Y-98576247D02*
X56954761Y-98528628D01*
X56954761Y-98528628D02*
X56907142Y-98433390D01*
X62321428Y-100812295D02*
X62778571Y-100812295D01*
X62549999Y-100812295D02*
X62549999Y-100012295D01*
X62549999Y-100012295D02*
X62626190Y-100126580D01*
X62626190Y-100126580D02*
X62702380Y-100202771D01*
X62702380Y-100202771D02*
X62778571Y-100240866D01*
X66039580Y-136807142D02*
X66087200Y-136759523D01*
X66087200Y-136759523D02*
X66134819Y-136616666D01*
X66134819Y-136616666D02*
X66134819Y-136521428D01*
X66134819Y-136521428D02*
X66087200Y-136378571D01*
X66087200Y-136378571D02*
X65991961Y-136283333D01*
X65991961Y-136283333D02*
X65896723Y-136235714D01*
X65896723Y-136235714D02*
X65706247Y-136188095D01*
X65706247Y-136188095D02*
X65563390Y-136188095D01*
X65563390Y-136188095D02*
X65372914Y-136235714D01*
X65372914Y-136235714D02*
X65277676Y-136283333D01*
X65277676Y-136283333D02*
X65182438Y-136378571D01*
X65182438Y-136378571D02*
X65134819Y-136521428D01*
X65134819Y-136521428D02*
X65134819Y-136616666D01*
X65134819Y-136616666D02*
X65182438Y-136759523D01*
X65182438Y-136759523D02*
X65230057Y-136807142D01*
X66134819Y-137759523D02*
X66134819Y-137188095D01*
X66134819Y-137473809D02*
X65134819Y-137473809D01*
X65134819Y-137473809D02*
X65277676Y-137378571D01*
X65277676Y-137378571D02*
X65372914Y-137283333D01*
X65372914Y-137283333D02*
X65420533Y-137188095D01*
X66134819Y-138711904D02*
X66134819Y-138140476D01*
X66134819Y-138426190D02*
X65134819Y-138426190D01*
X65134819Y-138426190D02*
X65277676Y-138330952D01*
X65277676Y-138330952D02*
X65372914Y-138235714D01*
X65372914Y-138235714D02*
X65420533Y-138140476D01*
X60145238Y-118004819D02*
X60621428Y-118004819D01*
X60621428Y-118004819D02*
X60621428Y-117004819D01*
X59811904Y-117481009D02*
X59478571Y-117481009D01*
X59335714Y-118004819D02*
X59811904Y-118004819D01*
X59811904Y-118004819D02*
X59811904Y-117004819D01*
X59811904Y-117004819D02*
X59335714Y-117004819D01*
X58907142Y-118004819D02*
X58907142Y-117004819D01*
X58907142Y-117004819D02*
X58669047Y-117004819D01*
X58669047Y-117004819D02*
X58526190Y-117052438D01*
X58526190Y-117052438D02*
X58430952Y-117147676D01*
X58430952Y-117147676D02*
X58383333Y-117242914D01*
X58383333Y-117242914D02*
X58335714Y-117433390D01*
X58335714Y-117433390D02*
X58335714Y-117576247D01*
X58335714Y-117576247D02*
X58383333Y-117766723D01*
X58383333Y-117766723D02*
X58430952Y-117861961D01*
X58430952Y-117861961D02*
X58526190Y-117957200D01*
X58526190Y-117957200D02*
X58669047Y-118004819D01*
X58669047Y-118004819D02*
X58907142Y-118004819D01*
X57383333Y-118004819D02*
X57954761Y-118004819D01*
X57669047Y-118004819D02*
X57669047Y-117004819D01*
X57669047Y-117004819D02*
X57764285Y-117147676D01*
X57764285Y-117147676D02*
X57859523Y-117242914D01*
X57859523Y-117242914D02*
X57954761Y-117290533D01*
X56764285Y-117004819D02*
X56669047Y-117004819D01*
X56669047Y-117004819D02*
X56573809Y-117052438D01*
X56573809Y-117052438D02*
X56526190Y-117100057D01*
X56526190Y-117100057D02*
X56478571Y-117195295D01*
X56478571Y-117195295D02*
X56430952Y-117385771D01*
X56430952Y-117385771D02*
X56430952Y-117623866D01*
X56430952Y-117623866D02*
X56478571Y-117814342D01*
X56478571Y-117814342D02*
X56526190Y-117909580D01*
X56526190Y-117909580D02*
X56573809Y-117957200D01*
X56573809Y-117957200D02*
X56669047Y-118004819D01*
X56669047Y-118004819D02*
X56764285Y-118004819D01*
X56764285Y-118004819D02*
X56859523Y-117957200D01*
X56859523Y-117957200D02*
X56907142Y-117909580D01*
X56907142Y-117909580D02*
X56954761Y-117814342D01*
X56954761Y-117814342D02*
X57002380Y-117623866D01*
X57002380Y-117623866D02*
X57002380Y-117385771D01*
X57002380Y-117385771D02*
X56954761Y-117195295D01*
X56954761Y-117195295D02*
X56907142Y-117100057D01*
X56907142Y-117100057D02*
X56859523Y-117052438D01*
X56859523Y-117052438D02*
X56764285Y-117004819D01*
X62321428Y-119812295D02*
X62778571Y-119812295D01*
X62549999Y-119812295D02*
X62549999Y-119012295D01*
X62549999Y-119012295D02*
X62626190Y-119126580D01*
X62626190Y-119126580D02*
X62702380Y-119202771D01*
X62702380Y-119202771D02*
X62778571Y-119240866D01*
X181639580Y-167494642D02*
X181687200Y-167447023D01*
X181687200Y-167447023D02*
X181734819Y-167304166D01*
X181734819Y-167304166D02*
X181734819Y-167208928D01*
X181734819Y-167208928D02*
X181687200Y-167066071D01*
X181687200Y-167066071D02*
X181591961Y-166970833D01*
X181591961Y-166970833D02*
X181496723Y-166923214D01*
X181496723Y-166923214D02*
X181306247Y-166875595D01*
X181306247Y-166875595D02*
X181163390Y-166875595D01*
X181163390Y-166875595D02*
X180972914Y-166923214D01*
X180972914Y-166923214D02*
X180877676Y-166970833D01*
X180877676Y-166970833D02*
X180782438Y-167066071D01*
X180782438Y-167066071D02*
X180734819Y-167208928D01*
X180734819Y-167208928D02*
X180734819Y-167304166D01*
X180734819Y-167304166D02*
X180782438Y-167447023D01*
X180782438Y-167447023D02*
X180830057Y-167494642D01*
X181734819Y-168447023D02*
X181734819Y-167875595D01*
X181734819Y-168161309D02*
X180734819Y-168161309D01*
X180734819Y-168161309D02*
X180877676Y-168066071D01*
X180877676Y-168066071D02*
X180972914Y-167970833D01*
X180972914Y-167970833D02*
X181020533Y-167875595D01*
X180734819Y-169351785D02*
X180734819Y-168875595D01*
X180734819Y-168875595D02*
X181211009Y-168827976D01*
X181211009Y-168827976D02*
X181163390Y-168875595D01*
X181163390Y-168875595D02*
X181115771Y-168970833D01*
X181115771Y-168970833D02*
X181115771Y-169208928D01*
X181115771Y-169208928D02*
X181163390Y-169304166D01*
X181163390Y-169304166D02*
X181211009Y-169351785D01*
X181211009Y-169351785D02*
X181306247Y-169399404D01*
X181306247Y-169399404D02*
X181544342Y-169399404D01*
X181544342Y-169399404D02*
X181639580Y-169351785D01*
X181639580Y-169351785D02*
X181687200Y-169304166D01*
X181687200Y-169304166D02*
X181734819Y-169208928D01*
X181734819Y-169208928D02*
X181734819Y-168970833D01*
X181734819Y-168970833D02*
X181687200Y-168875595D01*
X181687200Y-168875595D02*
X181639580Y-168827976D01*
X217604819Y-63343452D02*
X217604819Y-62867262D01*
X217604819Y-62867262D02*
X216604819Y-62867262D01*
X217081009Y-63676786D02*
X217081009Y-64010119D01*
X217604819Y-64152976D02*
X217604819Y-63676786D01*
X217604819Y-63676786D02*
X216604819Y-63676786D01*
X216604819Y-63676786D02*
X216604819Y-64152976D01*
X217604819Y-64581548D02*
X216604819Y-64581548D01*
X216604819Y-64581548D02*
X216604819Y-64819643D01*
X216604819Y-64819643D02*
X216652438Y-64962500D01*
X216652438Y-64962500D02*
X216747676Y-65057738D01*
X216747676Y-65057738D02*
X216842914Y-65105357D01*
X216842914Y-65105357D02*
X217033390Y-65152976D01*
X217033390Y-65152976D02*
X217176247Y-65152976D01*
X217176247Y-65152976D02*
X217366723Y-65105357D01*
X217366723Y-65105357D02*
X217461961Y-65057738D01*
X217461961Y-65057738D02*
X217557200Y-64962500D01*
X217557200Y-64962500D02*
X217604819Y-64819643D01*
X217604819Y-64819643D02*
X217604819Y-64581548D01*
X216938152Y-66010119D02*
X217604819Y-66010119D01*
X216557200Y-65772024D02*
X217271485Y-65533929D01*
X217271485Y-65533929D02*
X217271485Y-66152976D01*
X214887704Y-68233928D02*
X214887704Y-68691071D01*
X214887704Y-68462499D02*
X215687704Y-68462499D01*
X215687704Y-68462499D02*
X215573419Y-68538690D01*
X215573419Y-68538690D02*
X215497228Y-68614880D01*
X215497228Y-68614880D02*
X215459133Y-68691071D01*
X369442857Y-69479580D02*
X369490476Y-69527200D01*
X369490476Y-69527200D02*
X369633333Y-69574819D01*
X369633333Y-69574819D02*
X369728571Y-69574819D01*
X369728571Y-69574819D02*
X369871428Y-69527200D01*
X369871428Y-69527200D02*
X369966666Y-69431961D01*
X369966666Y-69431961D02*
X370014285Y-69336723D01*
X370014285Y-69336723D02*
X370061904Y-69146247D01*
X370061904Y-69146247D02*
X370061904Y-69003390D01*
X370061904Y-69003390D02*
X370014285Y-68812914D01*
X370014285Y-68812914D02*
X369966666Y-68717676D01*
X369966666Y-68717676D02*
X369871428Y-68622438D01*
X369871428Y-68622438D02*
X369728571Y-68574819D01*
X369728571Y-68574819D02*
X369633333Y-68574819D01*
X369633333Y-68574819D02*
X369490476Y-68622438D01*
X369490476Y-68622438D02*
X369442857Y-68670057D01*
X369061904Y-68670057D02*
X369014285Y-68622438D01*
X369014285Y-68622438D02*
X368919047Y-68574819D01*
X368919047Y-68574819D02*
X368680952Y-68574819D01*
X368680952Y-68574819D02*
X368585714Y-68622438D01*
X368585714Y-68622438D02*
X368538095Y-68670057D01*
X368538095Y-68670057D02*
X368490476Y-68765295D01*
X368490476Y-68765295D02*
X368490476Y-68860533D01*
X368490476Y-68860533D02*
X368538095Y-69003390D01*
X368538095Y-69003390D02*
X369109523Y-69574819D01*
X369109523Y-69574819D02*
X368490476Y-69574819D01*
X367633333Y-68908152D02*
X367633333Y-69574819D01*
X367871428Y-68527200D02*
X368109523Y-69241485D01*
X368109523Y-69241485D02*
X367490476Y-69241485D01*
X255904819Y-63343452D02*
X255904819Y-62867262D01*
X255904819Y-62867262D02*
X254904819Y-62867262D01*
X255381009Y-63676786D02*
X255381009Y-64010119D01*
X255904819Y-64152976D02*
X255904819Y-63676786D01*
X255904819Y-63676786D02*
X254904819Y-63676786D01*
X254904819Y-63676786D02*
X254904819Y-64152976D01*
X255904819Y-64581548D02*
X254904819Y-64581548D01*
X254904819Y-64581548D02*
X254904819Y-64819643D01*
X254904819Y-64819643D02*
X254952438Y-64962500D01*
X254952438Y-64962500D02*
X255047676Y-65057738D01*
X255047676Y-65057738D02*
X255142914Y-65105357D01*
X255142914Y-65105357D02*
X255333390Y-65152976D01*
X255333390Y-65152976D02*
X255476247Y-65152976D01*
X255476247Y-65152976D02*
X255666723Y-65105357D01*
X255666723Y-65105357D02*
X255761961Y-65057738D01*
X255761961Y-65057738D02*
X255857200Y-64962500D01*
X255857200Y-64962500D02*
X255904819Y-64819643D01*
X255904819Y-64819643D02*
X255904819Y-64581548D01*
X254904819Y-65486310D02*
X254904819Y-66105357D01*
X254904819Y-66105357D02*
X255285771Y-65772024D01*
X255285771Y-65772024D02*
X255285771Y-65914881D01*
X255285771Y-65914881D02*
X255333390Y-66010119D01*
X255333390Y-66010119D02*
X255381009Y-66057738D01*
X255381009Y-66057738D02*
X255476247Y-66105357D01*
X255476247Y-66105357D02*
X255714342Y-66105357D01*
X255714342Y-66105357D02*
X255809580Y-66057738D01*
X255809580Y-66057738D02*
X255857200Y-66010119D01*
X255857200Y-66010119D02*
X255904819Y-65914881D01*
X255904819Y-65914881D02*
X255904819Y-65629167D01*
X255904819Y-65629167D02*
X255857200Y-65533929D01*
X255857200Y-65533929D02*
X255809580Y-65486310D01*
X253187704Y-68233928D02*
X253187704Y-68691071D01*
X253187704Y-68462499D02*
X253987704Y-68462499D01*
X253987704Y-68462499D02*
X253873419Y-68538690D01*
X253873419Y-68538690D02*
X253797228Y-68614880D01*
X253797228Y-68614880D02*
X253759133Y-68691071D01*
X101542857Y-167079580D02*
X101590476Y-167127200D01*
X101590476Y-167127200D02*
X101733333Y-167174819D01*
X101733333Y-167174819D02*
X101828571Y-167174819D01*
X101828571Y-167174819D02*
X101971428Y-167127200D01*
X101971428Y-167127200D02*
X102066666Y-167031961D01*
X102066666Y-167031961D02*
X102114285Y-166936723D01*
X102114285Y-166936723D02*
X102161904Y-166746247D01*
X102161904Y-166746247D02*
X102161904Y-166603390D01*
X102161904Y-166603390D02*
X102114285Y-166412914D01*
X102114285Y-166412914D02*
X102066666Y-166317676D01*
X102066666Y-166317676D02*
X101971428Y-166222438D01*
X101971428Y-166222438D02*
X101828571Y-166174819D01*
X101828571Y-166174819D02*
X101733333Y-166174819D01*
X101733333Y-166174819D02*
X101590476Y-166222438D01*
X101590476Y-166222438D02*
X101542857Y-166270057D01*
X100590476Y-167174819D02*
X101161904Y-167174819D01*
X100876190Y-167174819D02*
X100876190Y-166174819D01*
X100876190Y-166174819D02*
X100971428Y-166317676D01*
X100971428Y-166317676D02*
X101066666Y-166412914D01*
X101066666Y-166412914D02*
X101161904Y-166460533D01*
X100257142Y-166174819D02*
X99638095Y-166174819D01*
X99638095Y-166174819D02*
X99971428Y-166555771D01*
X99971428Y-166555771D02*
X99828571Y-166555771D01*
X99828571Y-166555771D02*
X99733333Y-166603390D01*
X99733333Y-166603390D02*
X99685714Y-166651009D01*
X99685714Y-166651009D02*
X99638095Y-166746247D01*
X99638095Y-166746247D02*
X99638095Y-166984342D01*
X99638095Y-166984342D02*
X99685714Y-167079580D01*
X99685714Y-167079580D02*
X99733333Y-167127200D01*
X99733333Y-167127200D02*
X99828571Y-167174819D01*
X99828571Y-167174819D02*
X100114285Y-167174819D01*
X100114285Y-167174819D02*
X100209523Y-167127200D01*
X100209523Y-167127200D02*
X100257142Y-167079580D01*
X389389580Y-98575892D02*
X389437200Y-98528273D01*
X389437200Y-98528273D02*
X389484819Y-98385416D01*
X389484819Y-98385416D02*
X389484819Y-98290178D01*
X389484819Y-98290178D02*
X389437200Y-98147321D01*
X389437200Y-98147321D02*
X389341961Y-98052083D01*
X389341961Y-98052083D02*
X389246723Y-98004464D01*
X389246723Y-98004464D02*
X389056247Y-97956845D01*
X389056247Y-97956845D02*
X388913390Y-97956845D01*
X388913390Y-97956845D02*
X388722914Y-98004464D01*
X388722914Y-98004464D02*
X388627676Y-98052083D01*
X388627676Y-98052083D02*
X388532438Y-98147321D01*
X388532438Y-98147321D02*
X388484819Y-98290178D01*
X388484819Y-98290178D02*
X388484819Y-98385416D01*
X388484819Y-98385416D02*
X388532438Y-98528273D01*
X388532438Y-98528273D02*
X388580057Y-98575892D01*
X388580057Y-98956845D02*
X388532438Y-99004464D01*
X388532438Y-99004464D02*
X388484819Y-99099702D01*
X388484819Y-99099702D02*
X388484819Y-99337797D01*
X388484819Y-99337797D02*
X388532438Y-99433035D01*
X388532438Y-99433035D02*
X388580057Y-99480654D01*
X388580057Y-99480654D02*
X388675295Y-99528273D01*
X388675295Y-99528273D02*
X388770533Y-99528273D01*
X388770533Y-99528273D02*
X388913390Y-99480654D01*
X388913390Y-99480654D02*
X389484819Y-98909226D01*
X389484819Y-98909226D02*
X389484819Y-99528273D01*
X388580057Y-99909226D02*
X388532438Y-99956845D01*
X388532438Y-99956845D02*
X388484819Y-100052083D01*
X388484819Y-100052083D02*
X388484819Y-100290178D01*
X388484819Y-100290178D02*
X388532438Y-100385416D01*
X388532438Y-100385416D02*
X388580057Y-100433035D01*
X388580057Y-100433035D02*
X388675295Y-100480654D01*
X388675295Y-100480654D02*
X388770533Y-100480654D01*
X388770533Y-100480654D02*
X388913390Y-100433035D01*
X388913390Y-100433035D02*
X389484819Y-99861607D01*
X389484819Y-99861607D02*
X389484819Y-100480654D01*
X403095238Y-160954819D02*
X403571428Y-160954819D01*
X403571428Y-160954819D02*
X403571428Y-159954819D01*
X402761904Y-160431009D02*
X402428571Y-160431009D01*
X402285714Y-160954819D02*
X402761904Y-160954819D01*
X402761904Y-160954819D02*
X402761904Y-159954819D01*
X402761904Y-159954819D02*
X402285714Y-159954819D01*
X401857142Y-160954819D02*
X401857142Y-159954819D01*
X401857142Y-159954819D02*
X401619047Y-159954819D01*
X401619047Y-159954819D02*
X401476190Y-160002438D01*
X401476190Y-160002438D02*
X401380952Y-160097676D01*
X401380952Y-160097676D02*
X401333333Y-160192914D01*
X401333333Y-160192914D02*
X401285714Y-160383390D01*
X401285714Y-160383390D02*
X401285714Y-160526247D01*
X401285714Y-160526247D02*
X401333333Y-160716723D01*
X401333333Y-160716723D02*
X401380952Y-160811961D01*
X401380952Y-160811961D02*
X401476190Y-160907200D01*
X401476190Y-160907200D02*
X401619047Y-160954819D01*
X401619047Y-160954819D02*
X401857142Y-160954819D01*
X400904761Y-160050057D02*
X400857142Y-160002438D01*
X400857142Y-160002438D02*
X400761904Y-159954819D01*
X400761904Y-159954819D02*
X400523809Y-159954819D01*
X400523809Y-159954819D02*
X400428571Y-160002438D01*
X400428571Y-160002438D02*
X400380952Y-160050057D01*
X400380952Y-160050057D02*
X400333333Y-160145295D01*
X400333333Y-160145295D02*
X400333333Y-160240533D01*
X400333333Y-160240533D02*
X400380952Y-160383390D01*
X400380952Y-160383390D02*
X400952380Y-160954819D01*
X400952380Y-160954819D02*
X400333333Y-160954819D01*
X399714285Y-159954819D02*
X399619047Y-159954819D01*
X399619047Y-159954819D02*
X399523809Y-160002438D01*
X399523809Y-160002438D02*
X399476190Y-160050057D01*
X399476190Y-160050057D02*
X399428571Y-160145295D01*
X399428571Y-160145295D02*
X399380952Y-160335771D01*
X399380952Y-160335771D02*
X399380952Y-160573866D01*
X399380952Y-160573866D02*
X399428571Y-160764342D01*
X399428571Y-160764342D02*
X399476190Y-160859580D01*
X399476190Y-160859580D02*
X399523809Y-160907200D01*
X399523809Y-160907200D02*
X399619047Y-160954819D01*
X399619047Y-160954819D02*
X399714285Y-160954819D01*
X399714285Y-160954819D02*
X399809523Y-160907200D01*
X399809523Y-160907200D02*
X399857142Y-160859580D01*
X399857142Y-160859580D02*
X399904761Y-160764342D01*
X399904761Y-160764342D02*
X399952380Y-160573866D01*
X399952380Y-160573866D02*
X399952380Y-160335771D01*
X399952380Y-160335771D02*
X399904761Y-160145295D01*
X399904761Y-160145295D02*
X399857142Y-160050057D01*
X399857142Y-160050057D02*
X399809523Y-160002438D01*
X399809523Y-160002438D02*
X399714285Y-159954819D01*
X397728571Y-158237704D02*
X397271428Y-158237704D01*
X397500000Y-158237704D02*
X397500000Y-159037704D01*
X397500000Y-159037704D02*
X397423809Y-158923419D01*
X397423809Y-158923419D02*
X397347619Y-158847228D01*
X397347619Y-158847228D02*
X397271428Y-158809133D01*
X294267319Y-63343452D02*
X294267319Y-62867262D01*
X294267319Y-62867262D02*
X293267319Y-62867262D01*
X293743509Y-63676786D02*
X293743509Y-64010119D01*
X294267319Y-64152976D02*
X294267319Y-63676786D01*
X294267319Y-63676786D02*
X293267319Y-63676786D01*
X293267319Y-63676786D02*
X293267319Y-64152976D01*
X294267319Y-64581548D02*
X293267319Y-64581548D01*
X293267319Y-64581548D02*
X293267319Y-64819643D01*
X293267319Y-64819643D02*
X293314938Y-64962500D01*
X293314938Y-64962500D02*
X293410176Y-65057738D01*
X293410176Y-65057738D02*
X293505414Y-65105357D01*
X293505414Y-65105357D02*
X293695890Y-65152976D01*
X293695890Y-65152976D02*
X293838747Y-65152976D01*
X293838747Y-65152976D02*
X294029223Y-65105357D01*
X294029223Y-65105357D02*
X294124461Y-65057738D01*
X294124461Y-65057738D02*
X294219700Y-64962500D01*
X294219700Y-64962500D02*
X294267319Y-64819643D01*
X294267319Y-64819643D02*
X294267319Y-64581548D01*
X293362557Y-65533929D02*
X293314938Y-65581548D01*
X293314938Y-65581548D02*
X293267319Y-65676786D01*
X293267319Y-65676786D02*
X293267319Y-65914881D01*
X293267319Y-65914881D02*
X293314938Y-66010119D01*
X293314938Y-66010119D02*
X293362557Y-66057738D01*
X293362557Y-66057738D02*
X293457795Y-66105357D01*
X293457795Y-66105357D02*
X293553033Y-66105357D01*
X293553033Y-66105357D02*
X293695890Y-66057738D01*
X293695890Y-66057738D02*
X294267319Y-65486310D01*
X294267319Y-65486310D02*
X294267319Y-66105357D01*
X291550204Y-68233928D02*
X291550204Y-68691071D01*
X291550204Y-68462499D02*
X292350204Y-68462499D01*
X292350204Y-68462499D02*
X292235919Y-68538690D01*
X292235919Y-68538690D02*
X292159728Y-68614880D01*
X292159728Y-68614880D02*
X292121633Y-68691071D01*
X225789580Y-62933333D02*
X225837200Y-62885714D01*
X225837200Y-62885714D02*
X225884819Y-62742857D01*
X225884819Y-62742857D02*
X225884819Y-62647619D01*
X225884819Y-62647619D02*
X225837200Y-62504762D01*
X225837200Y-62504762D02*
X225741961Y-62409524D01*
X225741961Y-62409524D02*
X225646723Y-62361905D01*
X225646723Y-62361905D02*
X225456247Y-62314286D01*
X225456247Y-62314286D02*
X225313390Y-62314286D01*
X225313390Y-62314286D02*
X225122914Y-62361905D01*
X225122914Y-62361905D02*
X225027676Y-62409524D01*
X225027676Y-62409524D02*
X224932438Y-62504762D01*
X224932438Y-62504762D02*
X224884819Y-62647619D01*
X224884819Y-62647619D02*
X224884819Y-62742857D01*
X224884819Y-62742857D02*
X224932438Y-62885714D01*
X224932438Y-62885714D02*
X224980057Y-62933333D01*
X225218152Y-63790476D02*
X225884819Y-63790476D01*
X224837200Y-63552381D02*
X225551485Y-63314286D01*
X225551485Y-63314286D02*
X225551485Y-63933333D01*
X66039580Y-101883333D02*
X66087200Y-101835714D01*
X66087200Y-101835714D02*
X66134819Y-101692857D01*
X66134819Y-101692857D02*
X66134819Y-101597619D01*
X66134819Y-101597619D02*
X66087200Y-101454762D01*
X66087200Y-101454762D02*
X65991961Y-101359524D01*
X65991961Y-101359524D02*
X65896723Y-101311905D01*
X65896723Y-101311905D02*
X65706247Y-101264286D01*
X65706247Y-101264286D02*
X65563390Y-101264286D01*
X65563390Y-101264286D02*
X65372914Y-101311905D01*
X65372914Y-101311905D02*
X65277676Y-101359524D01*
X65277676Y-101359524D02*
X65182438Y-101454762D01*
X65182438Y-101454762D02*
X65134819Y-101597619D01*
X65134819Y-101597619D02*
X65134819Y-101692857D01*
X65134819Y-101692857D02*
X65182438Y-101835714D01*
X65182438Y-101835714D02*
X65230057Y-101883333D01*
X66134819Y-102359524D02*
X66134819Y-102550000D01*
X66134819Y-102550000D02*
X66087200Y-102645238D01*
X66087200Y-102645238D02*
X66039580Y-102692857D01*
X66039580Y-102692857D02*
X65896723Y-102788095D01*
X65896723Y-102788095D02*
X65706247Y-102835714D01*
X65706247Y-102835714D02*
X65325295Y-102835714D01*
X65325295Y-102835714D02*
X65230057Y-102788095D01*
X65230057Y-102788095D02*
X65182438Y-102740476D01*
X65182438Y-102740476D02*
X65134819Y-102645238D01*
X65134819Y-102645238D02*
X65134819Y-102454762D01*
X65134819Y-102454762D02*
X65182438Y-102359524D01*
X65182438Y-102359524D02*
X65230057Y-102311905D01*
X65230057Y-102311905D02*
X65325295Y-102264286D01*
X65325295Y-102264286D02*
X65563390Y-102264286D01*
X65563390Y-102264286D02*
X65658628Y-102311905D01*
X65658628Y-102311905D02*
X65706247Y-102359524D01*
X65706247Y-102359524D02*
X65753866Y-102454762D01*
X65753866Y-102454762D02*
X65753866Y-102645238D01*
X65753866Y-102645238D02*
X65706247Y-102740476D01*
X65706247Y-102740476D02*
X65658628Y-102788095D01*
X65658628Y-102788095D02*
X65563390Y-102835714D01*
X256267319Y-174354761D02*
X256267319Y-173878571D01*
X256267319Y-173878571D02*
X255267319Y-173878571D01*
X255743509Y-174688095D02*
X255743509Y-175021428D01*
X256267319Y-175164285D02*
X256267319Y-174688095D01*
X256267319Y-174688095D02*
X255267319Y-174688095D01*
X255267319Y-174688095D02*
X255267319Y-175164285D01*
X256267319Y-175592857D02*
X255267319Y-175592857D01*
X255267319Y-175592857D02*
X255267319Y-175830952D01*
X255267319Y-175830952D02*
X255314938Y-175973809D01*
X255314938Y-175973809D02*
X255410176Y-176069047D01*
X255410176Y-176069047D02*
X255505414Y-176116666D01*
X255505414Y-176116666D02*
X255695890Y-176164285D01*
X255695890Y-176164285D02*
X255838747Y-176164285D01*
X255838747Y-176164285D02*
X256029223Y-176116666D01*
X256029223Y-176116666D02*
X256124461Y-176069047D01*
X256124461Y-176069047D02*
X256219700Y-175973809D01*
X256219700Y-175973809D02*
X256267319Y-175830952D01*
X256267319Y-175830952D02*
X256267319Y-175592857D01*
X256267319Y-177116666D02*
X256267319Y-176545238D01*
X256267319Y-176830952D02*
X255267319Y-176830952D01*
X255267319Y-176830952D02*
X255410176Y-176735714D01*
X255410176Y-176735714D02*
X255505414Y-176640476D01*
X255505414Y-176640476D02*
X255553033Y-176545238D01*
X255267319Y-177450000D02*
X255267319Y-178116666D01*
X255267319Y-178116666D02*
X256267319Y-177688095D01*
X258074795Y-172178571D02*
X258074795Y-171721428D01*
X258074795Y-171950000D02*
X257274795Y-171950000D01*
X257274795Y-171950000D02*
X257389080Y-171873809D01*
X257389080Y-171873809D02*
X257465271Y-171797619D01*
X257465271Y-171797619D02*
X257503366Y-171721428D01*
X67995238Y-173754819D02*
X68471428Y-173754819D01*
X68471428Y-173754819D02*
X68471428Y-172754819D01*
X67661904Y-173231009D02*
X67328571Y-173231009D01*
X67185714Y-173754819D02*
X67661904Y-173754819D01*
X67661904Y-173754819D02*
X67661904Y-172754819D01*
X67661904Y-172754819D02*
X67185714Y-172754819D01*
X66757142Y-173754819D02*
X66757142Y-172754819D01*
X66757142Y-172754819D02*
X66519047Y-172754819D01*
X66519047Y-172754819D02*
X66376190Y-172802438D01*
X66376190Y-172802438D02*
X66280952Y-172897676D01*
X66280952Y-172897676D02*
X66233333Y-172992914D01*
X66233333Y-172992914D02*
X66185714Y-173183390D01*
X66185714Y-173183390D02*
X66185714Y-173326247D01*
X66185714Y-173326247D02*
X66233333Y-173516723D01*
X66233333Y-173516723D02*
X66280952Y-173611961D01*
X66280952Y-173611961D02*
X66376190Y-173707200D01*
X66376190Y-173707200D02*
X66519047Y-173754819D01*
X66519047Y-173754819D02*
X66757142Y-173754819D01*
X65233333Y-173754819D02*
X65804761Y-173754819D01*
X65519047Y-173754819D02*
X65519047Y-172754819D01*
X65519047Y-172754819D02*
X65614285Y-172897676D01*
X65614285Y-172897676D02*
X65709523Y-172992914D01*
X65709523Y-172992914D02*
X65804761Y-173040533D01*
X64852380Y-172850057D02*
X64804761Y-172802438D01*
X64804761Y-172802438D02*
X64709523Y-172754819D01*
X64709523Y-172754819D02*
X64471428Y-172754819D01*
X64471428Y-172754819D02*
X64376190Y-172802438D01*
X64376190Y-172802438D02*
X64328571Y-172850057D01*
X64328571Y-172850057D02*
X64280952Y-172945295D01*
X64280952Y-172945295D02*
X64280952Y-173040533D01*
X64280952Y-173040533D02*
X64328571Y-173183390D01*
X64328571Y-173183390D02*
X64899999Y-173754819D01*
X64899999Y-173754819D02*
X64280952Y-173754819D01*
X70171428Y-175562295D02*
X70628571Y-175562295D01*
X70399999Y-175562295D02*
X70399999Y-174762295D01*
X70399999Y-174762295D02*
X70476190Y-174876580D01*
X70476190Y-174876580D02*
X70552380Y-174952771D01*
X70552380Y-174952771D02*
X70628571Y-174990866D01*
X372754819Y-62867261D02*
X372754819Y-62391071D01*
X372754819Y-62391071D02*
X371754819Y-62391071D01*
X372231009Y-63200595D02*
X372231009Y-63533928D01*
X372754819Y-63676785D02*
X372754819Y-63200595D01*
X372754819Y-63200595D02*
X371754819Y-63200595D01*
X371754819Y-63200595D02*
X371754819Y-63676785D01*
X372754819Y-64105357D02*
X371754819Y-64105357D01*
X371754819Y-64105357D02*
X371754819Y-64343452D01*
X371754819Y-64343452D02*
X371802438Y-64486309D01*
X371802438Y-64486309D02*
X371897676Y-64581547D01*
X371897676Y-64581547D02*
X371992914Y-64629166D01*
X371992914Y-64629166D02*
X372183390Y-64676785D01*
X372183390Y-64676785D02*
X372326247Y-64676785D01*
X372326247Y-64676785D02*
X372516723Y-64629166D01*
X372516723Y-64629166D02*
X372611961Y-64581547D01*
X372611961Y-64581547D02*
X372707200Y-64486309D01*
X372707200Y-64486309D02*
X372754819Y-64343452D01*
X372754819Y-64343452D02*
X372754819Y-64105357D01*
X371850057Y-65057738D02*
X371802438Y-65105357D01*
X371802438Y-65105357D02*
X371754819Y-65200595D01*
X371754819Y-65200595D02*
X371754819Y-65438690D01*
X371754819Y-65438690D02*
X371802438Y-65533928D01*
X371802438Y-65533928D02*
X371850057Y-65581547D01*
X371850057Y-65581547D02*
X371945295Y-65629166D01*
X371945295Y-65629166D02*
X372040533Y-65629166D01*
X372040533Y-65629166D02*
X372183390Y-65581547D01*
X372183390Y-65581547D02*
X372754819Y-65010119D01*
X372754819Y-65010119D02*
X372754819Y-65629166D01*
X372088152Y-66486309D02*
X372754819Y-66486309D01*
X371707200Y-66248214D02*
X372421485Y-66010119D01*
X372421485Y-66010119D02*
X372421485Y-66629166D01*
X370037704Y-68233928D02*
X370037704Y-68691071D01*
X370037704Y-68462499D02*
X370837704Y-68462499D01*
X370837704Y-68462499D02*
X370723419Y-68538690D01*
X370723419Y-68538690D02*
X370647228Y-68614880D01*
X370647228Y-68614880D02*
X370609133Y-68691071D01*
X141392319Y-63343452D02*
X141392319Y-62867262D01*
X141392319Y-62867262D02*
X140392319Y-62867262D01*
X140868509Y-63676786D02*
X140868509Y-64010119D01*
X141392319Y-64152976D02*
X141392319Y-63676786D01*
X141392319Y-63676786D02*
X140392319Y-63676786D01*
X140392319Y-63676786D02*
X140392319Y-64152976D01*
X141392319Y-64581548D02*
X140392319Y-64581548D01*
X140392319Y-64581548D02*
X140392319Y-64819643D01*
X140392319Y-64819643D02*
X140439938Y-64962500D01*
X140439938Y-64962500D02*
X140535176Y-65057738D01*
X140535176Y-65057738D02*
X140630414Y-65105357D01*
X140630414Y-65105357D02*
X140820890Y-65152976D01*
X140820890Y-65152976D02*
X140963747Y-65152976D01*
X140963747Y-65152976D02*
X141154223Y-65105357D01*
X141154223Y-65105357D02*
X141249461Y-65057738D01*
X141249461Y-65057738D02*
X141344700Y-64962500D01*
X141344700Y-64962500D02*
X141392319Y-64819643D01*
X141392319Y-64819643D02*
X141392319Y-64581548D01*
X140392319Y-66010119D02*
X140392319Y-65819643D01*
X140392319Y-65819643D02*
X140439938Y-65724405D01*
X140439938Y-65724405D02*
X140487557Y-65676786D01*
X140487557Y-65676786D02*
X140630414Y-65581548D01*
X140630414Y-65581548D02*
X140820890Y-65533929D01*
X140820890Y-65533929D02*
X141201842Y-65533929D01*
X141201842Y-65533929D02*
X141297080Y-65581548D01*
X141297080Y-65581548D02*
X141344700Y-65629167D01*
X141344700Y-65629167D02*
X141392319Y-65724405D01*
X141392319Y-65724405D02*
X141392319Y-65914881D01*
X141392319Y-65914881D02*
X141344700Y-66010119D01*
X141344700Y-66010119D02*
X141297080Y-66057738D01*
X141297080Y-66057738D02*
X141201842Y-66105357D01*
X141201842Y-66105357D02*
X140963747Y-66105357D01*
X140963747Y-66105357D02*
X140868509Y-66057738D01*
X140868509Y-66057738D02*
X140820890Y-66010119D01*
X140820890Y-66010119D02*
X140773271Y-65914881D01*
X140773271Y-65914881D02*
X140773271Y-65724405D01*
X140773271Y-65724405D02*
X140820890Y-65629167D01*
X140820890Y-65629167D02*
X140868509Y-65581548D01*
X140868509Y-65581548D02*
X140963747Y-65533929D01*
X138675204Y-68233928D02*
X138675204Y-68691071D01*
X138675204Y-68462499D02*
X139475204Y-68462499D01*
X139475204Y-68462499D02*
X139360919Y-68538690D01*
X139360919Y-68538690D02*
X139284728Y-68614880D01*
X139284728Y-68614880D02*
X139246633Y-68691071D01*
X314280357Y-166679580D02*
X314327976Y-166727200D01*
X314327976Y-166727200D02*
X314470833Y-166774819D01*
X314470833Y-166774819D02*
X314566071Y-166774819D01*
X314566071Y-166774819D02*
X314708928Y-166727200D01*
X314708928Y-166727200D02*
X314804166Y-166631961D01*
X314804166Y-166631961D02*
X314851785Y-166536723D01*
X314851785Y-166536723D02*
X314899404Y-166346247D01*
X314899404Y-166346247D02*
X314899404Y-166203390D01*
X314899404Y-166203390D02*
X314851785Y-166012914D01*
X314851785Y-166012914D02*
X314804166Y-165917676D01*
X314804166Y-165917676D02*
X314708928Y-165822438D01*
X314708928Y-165822438D02*
X314566071Y-165774819D01*
X314566071Y-165774819D02*
X314470833Y-165774819D01*
X314470833Y-165774819D02*
X314327976Y-165822438D01*
X314327976Y-165822438D02*
X314280357Y-165870057D01*
X313327976Y-166774819D02*
X313899404Y-166774819D01*
X313613690Y-166774819D02*
X313613690Y-165774819D01*
X313613690Y-165774819D02*
X313708928Y-165917676D01*
X313708928Y-165917676D02*
X313804166Y-166012914D01*
X313804166Y-166012914D02*
X313899404Y-166060533D01*
X312756547Y-166203390D02*
X312851785Y-166155771D01*
X312851785Y-166155771D02*
X312899404Y-166108152D01*
X312899404Y-166108152D02*
X312947023Y-166012914D01*
X312947023Y-166012914D02*
X312947023Y-165965295D01*
X312947023Y-165965295D02*
X312899404Y-165870057D01*
X312899404Y-165870057D02*
X312851785Y-165822438D01*
X312851785Y-165822438D02*
X312756547Y-165774819D01*
X312756547Y-165774819D02*
X312566071Y-165774819D01*
X312566071Y-165774819D02*
X312470833Y-165822438D01*
X312470833Y-165822438D02*
X312423214Y-165870057D01*
X312423214Y-165870057D02*
X312375595Y-165965295D01*
X312375595Y-165965295D02*
X312375595Y-166012914D01*
X312375595Y-166012914D02*
X312423214Y-166108152D01*
X312423214Y-166108152D02*
X312470833Y-166155771D01*
X312470833Y-166155771D02*
X312566071Y-166203390D01*
X312566071Y-166203390D02*
X312756547Y-166203390D01*
X312756547Y-166203390D02*
X312851785Y-166251009D01*
X312851785Y-166251009D02*
X312899404Y-166298628D01*
X312899404Y-166298628D02*
X312947023Y-166393866D01*
X312947023Y-166393866D02*
X312947023Y-166584342D01*
X312947023Y-166584342D02*
X312899404Y-166679580D01*
X312899404Y-166679580D02*
X312851785Y-166727200D01*
X312851785Y-166727200D02*
X312756547Y-166774819D01*
X312756547Y-166774819D02*
X312566071Y-166774819D01*
X312566071Y-166774819D02*
X312470833Y-166727200D01*
X312470833Y-166727200D02*
X312423214Y-166679580D01*
X312423214Y-166679580D02*
X312375595Y-166584342D01*
X312375595Y-166584342D02*
X312375595Y-166393866D01*
X312375595Y-166393866D02*
X312423214Y-166298628D01*
X312423214Y-166298628D02*
X312470833Y-166251009D01*
X312470833Y-166251009D02*
X312566071Y-166203390D01*
X335389580Y-63233333D02*
X335437200Y-63185714D01*
X335437200Y-63185714D02*
X335484819Y-63042857D01*
X335484819Y-63042857D02*
X335484819Y-62947619D01*
X335484819Y-62947619D02*
X335437200Y-62804762D01*
X335437200Y-62804762D02*
X335341961Y-62709524D01*
X335341961Y-62709524D02*
X335246723Y-62661905D01*
X335246723Y-62661905D02*
X335056247Y-62614286D01*
X335056247Y-62614286D02*
X334913390Y-62614286D01*
X334913390Y-62614286D02*
X334722914Y-62661905D01*
X334722914Y-62661905D02*
X334627676Y-62709524D01*
X334627676Y-62709524D02*
X334532438Y-62804762D01*
X334532438Y-62804762D02*
X334484819Y-62947619D01*
X334484819Y-62947619D02*
X334484819Y-63042857D01*
X334484819Y-63042857D02*
X334532438Y-63185714D01*
X334532438Y-63185714D02*
X334580057Y-63233333D01*
X335484819Y-64185714D02*
X335484819Y-63614286D01*
X335484819Y-63900000D02*
X334484819Y-63900000D01*
X334484819Y-63900000D02*
X334627676Y-63804762D01*
X334627676Y-63804762D02*
X334722914Y-63709524D01*
X334722914Y-63709524D02*
X334770533Y-63614286D01*
X59669047Y-69754819D02*
X60145237Y-69754819D01*
X60145237Y-69754819D02*
X60145237Y-68754819D01*
X59335713Y-69231009D02*
X59002380Y-69231009D01*
X58859523Y-69754819D02*
X59335713Y-69754819D01*
X59335713Y-69754819D02*
X59335713Y-68754819D01*
X59335713Y-68754819D02*
X58859523Y-68754819D01*
X58430951Y-69754819D02*
X58430951Y-68754819D01*
X58430951Y-68754819D02*
X58192856Y-68754819D01*
X58192856Y-68754819D02*
X58049999Y-68802438D01*
X58049999Y-68802438D02*
X57954761Y-68897676D01*
X57954761Y-68897676D02*
X57907142Y-68992914D01*
X57907142Y-68992914D02*
X57859523Y-69183390D01*
X57859523Y-69183390D02*
X57859523Y-69326247D01*
X57859523Y-69326247D02*
X57907142Y-69516723D01*
X57907142Y-69516723D02*
X57954761Y-69611961D01*
X57954761Y-69611961D02*
X58049999Y-69707200D01*
X58049999Y-69707200D02*
X58192856Y-69754819D01*
X58192856Y-69754819D02*
X58430951Y-69754819D01*
X57288094Y-69183390D02*
X57383332Y-69135771D01*
X57383332Y-69135771D02*
X57430951Y-69088152D01*
X57430951Y-69088152D02*
X57478570Y-68992914D01*
X57478570Y-68992914D02*
X57478570Y-68945295D01*
X57478570Y-68945295D02*
X57430951Y-68850057D01*
X57430951Y-68850057D02*
X57383332Y-68802438D01*
X57383332Y-68802438D02*
X57288094Y-68754819D01*
X57288094Y-68754819D02*
X57097618Y-68754819D01*
X57097618Y-68754819D02*
X57002380Y-68802438D01*
X57002380Y-68802438D02*
X56954761Y-68850057D01*
X56954761Y-68850057D02*
X56907142Y-68945295D01*
X56907142Y-68945295D02*
X56907142Y-68992914D01*
X56907142Y-68992914D02*
X56954761Y-69088152D01*
X56954761Y-69088152D02*
X57002380Y-69135771D01*
X57002380Y-69135771D02*
X57097618Y-69183390D01*
X57097618Y-69183390D02*
X57288094Y-69183390D01*
X57288094Y-69183390D02*
X57383332Y-69231009D01*
X57383332Y-69231009D02*
X57430951Y-69278628D01*
X57430951Y-69278628D02*
X57478570Y-69373866D01*
X57478570Y-69373866D02*
X57478570Y-69564342D01*
X57478570Y-69564342D02*
X57430951Y-69659580D01*
X57430951Y-69659580D02*
X57383332Y-69707200D01*
X57383332Y-69707200D02*
X57288094Y-69754819D01*
X57288094Y-69754819D02*
X57097618Y-69754819D01*
X57097618Y-69754819D02*
X57002380Y-69707200D01*
X57002380Y-69707200D02*
X56954761Y-69659580D01*
X56954761Y-69659580D02*
X56907142Y-69564342D01*
X56907142Y-69564342D02*
X56907142Y-69373866D01*
X56907142Y-69373866D02*
X56954761Y-69278628D01*
X56954761Y-69278628D02*
X57002380Y-69231009D01*
X57002380Y-69231009D02*
X57097618Y-69183390D01*
X62321428Y-71562295D02*
X62778571Y-71562295D01*
X62549999Y-71562295D02*
X62549999Y-70762295D01*
X62549999Y-70762295D02*
X62626190Y-70876580D01*
X62626190Y-70876580D02*
X62702380Y-70952771D01*
X62702380Y-70952771D02*
X62778571Y-70990866D01*
X97854819Y-174354761D02*
X97854819Y-173878571D01*
X97854819Y-173878571D02*
X96854819Y-173878571D01*
X97331009Y-174688095D02*
X97331009Y-175021428D01*
X97854819Y-175164285D02*
X97854819Y-174688095D01*
X97854819Y-174688095D02*
X96854819Y-174688095D01*
X96854819Y-174688095D02*
X96854819Y-175164285D01*
X97854819Y-175592857D02*
X96854819Y-175592857D01*
X96854819Y-175592857D02*
X96854819Y-175830952D01*
X96854819Y-175830952D02*
X96902438Y-175973809D01*
X96902438Y-175973809D02*
X96997676Y-176069047D01*
X96997676Y-176069047D02*
X97092914Y-176116666D01*
X97092914Y-176116666D02*
X97283390Y-176164285D01*
X97283390Y-176164285D02*
X97426247Y-176164285D01*
X97426247Y-176164285D02*
X97616723Y-176116666D01*
X97616723Y-176116666D02*
X97711961Y-176069047D01*
X97711961Y-176069047D02*
X97807200Y-175973809D01*
X97807200Y-175973809D02*
X97854819Y-175830952D01*
X97854819Y-175830952D02*
X97854819Y-175592857D01*
X97854819Y-177116666D02*
X97854819Y-176545238D01*
X97854819Y-176830952D02*
X96854819Y-176830952D01*
X96854819Y-176830952D02*
X96997676Y-176735714D01*
X96997676Y-176735714D02*
X97092914Y-176640476D01*
X97092914Y-176640476D02*
X97140533Y-176545238D01*
X96854819Y-177450000D02*
X96854819Y-178069047D01*
X96854819Y-178069047D02*
X97235771Y-177735714D01*
X97235771Y-177735714D02*
X97235771Y-177878571D01*
X97235771Y-177878571D02*
X97283390Y-177973809D01*
X97283390Y-177973809D02*
X97331009Y-178021428D01*
X97331009Y-178021428D02*
X97426247Y-178069047D01*
X97426247Y-178069047D02*
X97664342Y-178069047D01*
X97664342Y-178069047D02*
X97759580Y-178021428D01*
X97759580Y-178021428D02*
X97807200Y-177973809D01*
X97807200Y-177973809D02*
X97854819Y-177878571D01*
X97854819Y-177878571D02*
X97854819Y-177592857D01*
X97854819Y-177592857D02*
X97807200Y-177497619D01*
X97807200Y-177497619D02*
X97759580Y-177450000D01*
X99662295Y-172178571D02*
X99662295Y-171721428D01*
X99662295Y-171950000D02*
X98862295Y-171950000D01*
X98862295Y-171950000D02*
X98976580Y-171873809D01*
X98976580Y-171873809D02*
X99052771Y-171797619D01*
X99052771Y-171797619D02*
X99090866Y-171721428D01*
X403095238Y-132304819D02*
X403571428Y-132304819D01*
X403571428Y-132304819D02*
X403571428Y-131304819D01*
X402761904Y-131781009D02*
X402428571Y-131781009D01*
X402285714Y-132304819D02*
X402761904Y-132304819D01*
X402761904Y-132304819D02*
X402761904Y-131304819D01*
X402761904Y-131304819D02*
X402285714Y-131304819D01*
X401857142Y-132304819D02*
X401857142Y-131304819D01*
X401857142Y-131304819D02*
X401619047Y-131304819D01*
X401619047Y-131304819D02*
X401476190Y-131352438D01*
X401476190Y-131352438D02*
X401380952Y-131447676D01*
X401380952Y-131447676D02*
X401333333Y-131542914D01*
X401333333Y-131542914D02*
X401285714Y-131733390D01*
X401285714Y-131733390D02*
X401285714Y-131876247D01*
X401285714Y-131876247D02*
X401333333Y-132066723D01*
X401333333Y-132066723D02*
X401380952Y-132161961D01*
X401380952Y-132161961D02*
X401476190Y-132257200D01*
X401476190Y-132257200D02*
X401619047Y-132304819D01*
X401619047Y-132304819D02*
X401857142Y-132304819D01*
X400904761Y-131400057D02*
X400857142Y-131352438D01*
X400857142Y-131352438D02*
X400761904Y-131304819D01*
X400761904Y-131304819D02*
X400523809Y-131304819D01*
X400523809Y-131304819D02*
X400428571Y-131352438D01*
X400428571Y-131352438D02*
X400380952Y-131400057D01*
X400380952Y-131400057D02*
X400333333Y-131495295D01*
X400333333Y-131495295D02*
X400333333Y-131590533D01*
X400333333Y-131590533D02*
X400380952Y-131733390D01*
X400380952Y-131733390D02*
X400952380Y-132304819D01*
X400952380Y-132304819D02*
X400333333Y-132304819D01*
X399380952Y-132304819D02*
X399952380Y-132304819D01*
X399666666Y-132304819D02*
X399666666Y-131304819D01*
X399666666Y-131304819D02*
X399761904Y-131447676D01*
X399761904Y-131447676D02*
X399857142Y-131542914D01*
X399857142Y-131542914D02*
X399952380Y-131590533D01*
X397728571Y-129587704D02*
X397271428Y-129587704D01*
X397500000Y-129587704D02*
X397500000Y-130387704D01*
X397500000Y-130387704D02*
X397423809Y-130273419D01*
X397423809Y-130273419D02*
X397347619Y-130197228D01*
X397347619Y-130197228D02*
X397271428Y-130159133D01*
X263439580Y-63233333D02*
X263487200Y-63185714D01*
X263487200Y-63185714D02*
X263534819Y-63042857D01*
X263534819Y-63042857D02*
X263534819Y-62947619D01*
X263534819Y-62947619D02*
X263487200Y-62804762D01*
X263487200Y-62804762D02*
X263391961Y-62709524D01*
X263391961Y-62709524D02*
X263296723Y-62661905D01*
X263296723Y-62661905D02*
X263106247Y-62614286D01*
X263106247Y-62614286D02*
X262963390Y-62614286D01*
X262963390Y-62614286D02*
X262772914Y-62661905D01*
X262772914Y-62661905D02*
X262677676Y-62709524D01*
X262677676Y-62709524D02*
X262582438Y-62804762D01*
X262582438Y-62804762D02*
X262534819Y-62947619D01*
X262534819Y-62947619D02*
X262534819Y-63042857D01*
X262534819Y-63042857D02*
X262582438Y-63185714D01*
X262582438Y-63185714D02*
X262630057Y-63233333D01*
X262534819Y-63566667D02*
X262534819Y-64185714D01*
X262534819Y-64185714D02*
X262915771Y-63852381D01*
X262915771Y-63852381D02*
X262915771Y-63995238D01*
X262915771Y-63995238D02*
X262963390Y-64090476D01*
X262963390Y-64090476D02*
X263011009Y-64138095D01*
X263011009Y-64138095D02*
X263106247Y-64185714D01*
X263106247Y-64185714D02*
X263344342Y-64185714D01*
X263344342Y-64185714D02*
X263439580Y-64138095D01*
X263439580Y-64138095D02*
X263487200Y-64090476D01*
X263487200Y-64090476D02*
X263534819Y-63995238D01*
X263534819Y-63995238D02*
X263534819Y-63709524D01*
X263534819Y-63709524D02*
X263487200Y-63614286D01*
X263487200Y-63614286D02*
X263439580Y-63566667D01*
X359479580Y-175157142D02*
X359527200Y-175109523D01*
X359527200Y-175109523D02*
X359574819Y-174966666D01*
X359574819Y-174966666D02*
X359574819Y-174871428D01*
X359574819Y-174871428D02*
X359527200Y-174728571D01*
X359527200Y-174728571D02*
X359431961Y-174633333D01*
X359431961Y-174633333D02*
X359336723Y-174585714D01*
X359336723Y-174585714D02*
X359146247Y-174538095D01*
X359146247Y-174538095D02*
X359003390Y-174538095D01*
X359003390Y-174538095D02*
X358812914Y-174585714D01*
X358812914Y-174585714D02*
X358717676Y-174633333D01*
X358717676Y-174633333D02*
X358622438Y-174728571D01*
X358622438Y-174728571D02*
X358574819Y-174871428D01*
X358574819Y-174871428D02*
X358574819Y-174966666D01*
X358574819Y-174966666D02*
X358622438Y-175109523D01*
X358622438Y-175109523D02*
X358670057Y-175157142D01*
X359574819Y-176109523D02*
X359574819Y-175538095D01*
X359574819Y-175823809D02*
X358574819Y-175823809D01*
X358574819Y-175823809D02*
X358717676Y-175728571D01*
X358717676Y-175728571D02*
X358812914Y-175633333D01*
X358812914Y-175633333D02*
X358860533Y-175538095D01*
X359574819Y-176585714D02*
X359574819Y-176776190D01*
X359574819Y-176776190D02*
X359527200Y-176871428D01*
X359527200Y-176871428D02*
X359479580Y-176919047D01*
X359479580Y-176919047D02*
X359336723Y-177014285D01*
X359336723Y-177014285D02*
X359146247Y-177061904D01*
X359146247Y-177061904D02*
X358765295Y-177061904D01*
X358765295Y-177061904D02*
X358670057Y-177014285D01*
X358670057Y-177014285D02*
X358622438Y-176966666D01*
X358622438Y-176966666D02*
X358574819Y-176871428D01*
X358574819Y-176871428D02*
X358574819Y-176680952D01*
X358574819Y-176680952D02*
X358622438Y-176585714D01*
X358622438Y-176585714D02*
X358670057Y-176538095D01*
X358670057Y-176538095D02*
X358765295Y-176490476D01*
X358765295Y-176490476D02*
X359003390Y-176490476D01*
X359003390Y-176490476D02*
X359098628Y-176538095D01*
X359098628Y-176538095D02*
X359146247Y-176585714D01*
X359146247Y-176585714D02*
X359193866Y-176680952D01*
X359193866Y-176680952D02*
X359193866Y-176871428D01*
X359193866Y-176871428D02*
X359146247Y-176966666D01*
X359146247Y-176966666D02*
X359098628Y-177014285D01*
X359098628Y-177014285D02*
X359003390Y-177061904D01*
X187239580Y-63233333D02*
X187287200Y-63185714D01*
X187287200Y-63185714D02*
X187334819Y-63042857D01*
X187334819Y-63042857D02*
X187334819Y-62947619D01*
X187334819Y-62947619D02*
X187287200Y-62804762D01*
X187287200Y-62804762D02*
X187191961Y-62709524D01*
X187191961Y-62709524D02*
X187096723Y-62661905D01*
X187096723Y-62661905D02*
X186906247Y-62614286D01*
X186906247Y-62614286D02*
X186763390Y-62614286D01*
X186763390Y-62614286D02*
X186572914Y-62661905D01*
X186572914Y-62661905D02*
X186477676Y-62709524D01*
X186477676Y-62709524D02*
X186382438Y-62804762D01*
X186382438Y-62804762D02*
X186334819Y-62947619D01*
X186334819Y-62947619D02*
X186334819Y-63042857D01*
X186334819Y-63042857D02*
X186382438Y-63185714D01*
X186382438Y-63185714D02*
X186430057Y-63233333D01*
X186334819Y-64138095D02*
X186334819Y-63661905D01*
X186334819Y-63661905D02*
X186811009Y-63614286D01*
X186811009Y-63614286D02*
X186763390Y-63661905D01*
X186763390Y-63661905D02*
X186715771Y-63757143D01*
X186715771Y-63757143D02*
X186715771Y-63995238D01*
X186715771Y-63995238D02*
X186763390Y-64090476D01*
X186763390Y-64090476D02*
X186811009Y-64138095D01*
X186811009Y-64138095D02*
X186906247Y-64185714D01*
X186906247Y-64185714D02*
X187144342Y-64185714D01*
X187144342Y-64185714D02*
X187239580Y-64138095D01*
X187239580Y-64138095D02*
X187287200Y-64090476D01*
X187287200Y-64090476D02*
X187334819Y-63995238D01*
X187334819Y-63995238D02*
X187334819Y-63757143D01*
X187334819Y-63757143D02*
X187287200Y-63661905D01*
X187287200Y-63661905D02*
X187239580Y-63614286D01*
X113839580Y-63233333D02*
X113887200Y-63185714D01*
X113887200Y-63185714D02*
X113934819Y-63042857D01*
X113934819Y-63042857D02*
X113934819Y-62947619D01*
X113934819Y-62947619D02*
X113887200Y-62804762D01*
X113887200Y-62804762D02*
X113791961Y-62709524D01*
X113791961Y-62709524D02*
X113696723Y-62661905D01*
X113696723Y-62661905D02*
X113506247Y-62614286D01*
X113506247Y-62614286D02*
X113363390Y-62614286D01*
X113363390Y-62614286D02*
X113172914Y-62661905D01*
X113172914Y-62661905D02*
X113077676Y-62709524D01*
X113077676Y-62709524D02*
X112982438Y-62804762D01*
X112982438Y-62804762D02*
X112934819Y-62947619D01*
X112934819Y-62947619D02*
X112934819Y-63042857D01*
X112934819Y-63042857D02*
X112982438Y-63185714D01*
X112982438Y-63185714D02*
X113030057Y-63233333D01*
X112934819Y-63566667D02*
X112934819Y-64233333D01*
X112934819Y-64233333D02*
X113934819Y-63804762D01*
X145080357Y-166679580D02*
X145127976Y-166727200D01*
X145127976Y-166727200D02*
X145270833Y-166774819D01*
X145270833Y-166774819D02*
X145366071Y-166774819D01*
X145366071Y-166774819D02*
X145508928Y-166727200D01*
X145508928Y-166727200D02*
X145604166Y-166631961D01*
X145604166Y-166631961D02*
X145651785Y-166536723D01*
X145651785Y-166536723D02*
X145699404Y-166346247D01*
X145699404Y-166346247D02*
X145699404Y-166203390D01*
X145699404Y-166203390D02*
X145651785Y-166012914D01*
X145651785Y-166012914D02*
X145604166Y-165917676D01*
X145604166Y-165917676D02*
X145508928Y-165822438D01*
X145508928Y-165822438D02*
X145366071Y-165774819D01*
X145366071Y-165774819D02*
X145270833Y-165774819D01*
X145270833Y-165774819D02*
X145127976Y-165822438D01*
X145127976Y-165822438D02*
X145080357Y-165870057D01*
X144127976Y-166774819D02*
X144699404Y-166774819D01*
X144413690Y-166774819D02*
X144413690Y-165774819D01*
X144413690Y-165774819D02*
X144508928Y-165917676D01*
X144508928Y-165917676D02*
X144604166Y-166012914D01*
X144604166Y-166012914D02*
X144699404Y-166060533D01*
X143270833Y-166108152D02*
X143270833Y-166774819D01*
X143508928Y-165727200D02*
X143747023Y-166441485D01*
X143747023Y-166441485D02*
X143127976Y-166441485D01*
X403095238Y-105504819D02*
X403571428Y-105504819D01*
X403571428Y-105504819D02*
X403571428Y-104504819D01*
X402761904Y-104981009D02*
X402428571Y-104981009D01*
X402285714Y-105504819D02*
X402761904Y-105504819D01*
X402761904Y-105504819D02*
X402761904Y-104504819D01*
X402761904Y-104504819D02*
X402285714Y-104504819D01*
X401857142Y-105504819D02*
X401857142Y-104504819D01*
X401857142Y-104504819D02*
X401619047Y-104504819D01*
X401619047Y-104504819D02*
X401476190Y-104552438D01*
X401476190Y-104552438D02*
X401380952Y-104647676D01*
X401380952Y-104647676D02*
X401333333Y-104742914D01*
X401333333Y-104742914D02*
X401285714Y-104933390D01*
X401285714Y-104933390D02*
X401285714Y-105076247D01*
X401285714Y-105076247D02*
X401333333Y-105266723D01*
X401333333Y-105266723D02*
X401380952Y-105361961D01*
X401380952Y-105361961D02*
X401476190Y-105457200D01*
X401476190Y-105457200D02*
X401619047Y-105504819D01*
X401619047Y-105504819D02*
X401857142Y-105504819D01*
X400904761Y-104600057D02*
X400857142Y-104552438D01*
X400857142Y-104552438D02*
X400761904Y-104504819D01*
X400761904Y-104504819D02*
X400523809Y-104504819D01*
X400523809Y-104504819D02*
X400428571Y-104552438D01*
X400428571Y-104552438D02*
X400380952Y-104600057D01*
X400380952Y-104600057D02*
X400333333Y-104695295D01*
X400333333Y-104695295D02*
X400333333Y-104790533D01*
X400333333Y-104790533D02*
X400380952Y-104933390D01*
X400380952Y-104933390D02*
X400952380Y-105504819D01*
X400952380Y-105504819D02*
X400333333Y-105504819D01*
X399952380Y-104600057D02*
X399904761Y-104552438D01*
X399904761Y-104552438D02*
X399809523Y-104504819D01*
X399809523Y-104504819D02*
X399571428Y-104504819D01*
X399571428Y-104504819D02*
X399476190Y-104552438D01*
X399476190Y-104552438D02*
X399428571Y-104600057D01*
X399428571Y-104600057D02*
X399380952Y-104695295D01*
X399380952Y-104695295D02*
X399380952Y-104790533D01*
X399380952Y-104790533D02*
X399428571Y-104933390D01*
X399428571Y-104933390D02*
X399999999Y-105504819D01*
X399999999Y-105504819D02*
X399380952Y-105504819D01*
X397728571Y-102787704D02*
X397271428Y-102787704D01*
X397500000Y-102787704D02*
X397500000Y-103587704D01*
X397500000Y-103587704D02*
X397423809Y-103473419D01*
X397423809Y-103473419D02*
X397347619Y-103397228D01*
X397347619Y-103397228D02*
X397271428Y-103359133D01*
X68714580Y-75964583D02*
X68762200Y-75916964D01*
X68762200Y-75916964D02*
X68809819Y-75774107D01*
X68809819Y-75774107D02*
X68809819Y-75678869D01*
X68809819Y-75678869D02*
X68762200Y-75536012D01*
X68762200Y-75536012D02*
X68666961Y-75440774D01*
X68666961Y-75440774D02*
X68571723Y-75393155D01*
X68571723Y-75393155D02*
X68381247Y-75345536D01*
X68381247Y-75345536D02*
X68238390Y-75345536D01*
X68238390Y-75345536D02*
X68047914Y-75393155D01*
X68047914Y-75393155D02*
X67952676Y-75440774D01*
X67952676Y-75440774D02*
X67857438Y-75536012D01*
X67857438Y-75536012D02*
X67809819Y-75678869D01*
X67809819Y-75678869D02*
X67809819Y-75774107D01*
X67809819Y-75774107D02*
X67857438Y-75916964D01*
X67857438Y-75916964D02*
X67905057Y-75964583D01*
X68238390Y-76536012D02*
X68190771Y-76440774D01*
X68190771Y-76440774D02*
X68143152Y-76393155D01*
X68143152Y-76393155D02*
X68047914Y-76345536D01*
X68047914Y-76345536D02*
X68000295Y-76345536D01*
X68000295Y-76345536D02*
X67905057Y-76393155D01*
X67905057Y-76393155D02*
X67857438Y-76440774D01*
X67857438Y-76440774D02*
X67809819Y-76536012D01*
X67809819Y-76536012D02*
X67809819Y-76726488D01*
X67809819Y-76726488D02*
X67857438Y-76821726D01*
X67857438Y-76821726D02*
X67905057Y-76869345D01*
X67905057Y-76869345D02*
X68000295Y-76916964D01*
X68000295Y-76916964D02*
X68047914Y-76916964D01*
X68047914Y-76916964D02*
X68143152Y-76869345D01*
X68143152Y-76869345D02*
X68190771Y-76821726D01*
X68190771Y-76821726D02*
X68238390Y-76726488D01*
X68238390Y-76726488D02*
X68238390Y-76536012D01*
X68238390Y-76536012D02*
X68286009Y-76440774D01*
X68286009Y-76440774D02*
X68333628Y-76393155D01*
X68333628Y-76393155D02*
X68428866Y-76345536D01*
X68428866Y-76345536D02*
X68619342Y-76345536D01*
X68619342Y-76345536D02*
X68714580Y-76393155D01*
X68714580Y-76393155D02*
X68762200Y-76440774D01*
X68762200Y-76440774D02*
X68809819Y-76536012D01*
X68809819Y-76536012D02*
X68809819Y-76726488D01*
X68809819Y-76726488D02*
X68762200Y-76821726D01*
X68762200Y-76821726D02*
X68714580Y-76869345D01*
X68714580Y-76869345D02*
X68619342Y-76916964D01*
X68619342Y-76916964D02*
X68428866Y-76916964D01*
X68428866Y-76916964D02*
X68333628Y-76869345D01*
X68333628Y-76869345D02*
X68286009Y-76821726D01*
X68286009Y-76821726D02*
X68238390Y-76726488D01*
X214404819Y-174354761D02*
X214404819Y-173878571D01*
X214404819Y-173878571D02*
X213404819Y-173878571D01*
X213881009Y-174688095D02*
X213881009Y-175021428D01*
X214404819Y-175164285D02*
X214404819Y-174688095D01*
X214404819Y-174688095D02*
X213404819Y-174688095D01*
X213404819Y-174688095D02*
X213404819Y-175164285D01*
X214404819Y-175592857D02*
X213404819Y-175592857D01*
X213404819Y-175592857D02*
X213404819Y-175830952D01*
X213404819Y-175830952D02*
X213452438Y-175973809D01*
X213452438Y-175973809D02*
X213547676Y-176069047D01*
X213547676Y-176069047D02*
X213642914Y-176116666D01*
X213642914Y-176116666D02*
X213833390Y-176164285D01*
X213833390Y-176164285D02*
X213976247Y-176164285D01*
X213976247Y-176164285D02*
X214166723Y-176116666D01*
X214166723Y-176116666D02*
X214261961Y-176069047D01*
X214261961Y-176069047D02*
X214357200Y-175973809D01*
X214357200Y-175973809D02*
X214404819Y-175830952D01*
X214404819Y-175830952D02*
X214404819Y-175592857D01*
X214404819Y-177116666D02*
X214404819Y-176545238D01*
X214404819Y-176830952D02*
X213404819Y-176830952D01*
X213404819Y-176830952D02*
X213547676Y-176735714D01*
X213547676Y-176735714D02*
X213642914Y-176640476D01*
X213642914Y-176640476D02*
X213690533Y-176545238D01*
X213404819Y-177973809D02*
X213404819Y-177783333D01*
X213404819Y-177783333D02*
X213452438Y-177688095D01*
X213452438Y-177688095D02*
X213500057Y-177640476D01*
X213500057Y-177640476D02*
X213642914Y-177545238D01*
X213642914Y-177545238D02*
X213833390Y-177497619D01*
X213833390Y-177497619D02*
X214214342Y-177497619D01*
X214214342Y-177497619D02*
X214309580Y-177545238D01*
X214309580Y-177545238D02*
X214357200Y-177592857D01*
X214357200Y-177592857D02*
X214404819Y-177688095D01*
X214404819Y-177688095D02*
X214404819Y-177878571D01*
X214404819Y-177878571D02*
X214357200Y-177973809D01*
X214357200Y-177973809D02*
X214309580Y-178021428D01*
X214309580Y-178021428D02*
X214214342Y-178069047D01*
X214214342Y-178069047D02*
X213976247Y-178069047D01*
X213976247Y-178069047D02*
X213881009Y-178021428D01*
X213881009Y-178021428D02*
X213833390Y-177973809D01*
X213833390Y-177973809D02*
X213785771Y-177878571D01*
X213785771Y-177878571D02*
X213785771Y-177688095D01*
X213785771Y-177688095D02*
X213833390Y-177592857D01*
X213833390Y-177592857D02*
X213881009Y-177545238D01*
X213881009Y-177545238D02*
X213976247Y-177497619D01*
X216212295Y-172178571D02*
X216212295Y-171721428D01*
X216212295Y-171950000D02*
X215412295Y-171950000D01*
X215412295Y-171950000D02*
X215526580Y-171873809D01*
X215526580Y-171873809D02*
X215602771Y-171797619D01*
X215602771Y-171797619D02*
X215640866Y-171721428D01*
X259955357Y-166679580D02*
X260002976Y-166727200D01*
X260002976Y-166727200D02*
X260145833Y-166774819D01*
X260145833Y-166774819D02*
X260241071Y-166774819D01*
X260241071Y-166774819D02*
X260383928Y-166727200D01*
X260383928Y-166727200D02*
X260479166Y-166631961D01*
X260479166Y-166631961D02*
X260526785Y-166536723D01*
X260526785Y-166536723D02*
X260574404Y-166346247D01*
X260574404Y-166346247D02*
X260574404Y-166203390D01*
X260574404Y-166203390D02*
X260526785Y-166012914D01*
X260526785Y-166012914D02*
X260479166Y-165917676D01*
X260479166Y-165917676D02*
X260383928Y-165822438D01*
X260383928Y-165822438D02*
X260241071Y-165774819D01*
X260241071Y-165774819D02*
X260145833Y-165774819D01*
X260145833Y-165774819D02*
X260002976Y-165822438D01*
X260002976Y-165822438D02*
X259955357Y-165870057D01*
X259002976Y-166774819D02*
X259574404Y-166774819D01*
X259288690Y-166774819D02*
X259288690Y-165774819D01*
X259288690Y-165774819D02*
X259383928Y-165917676D01*
X259383928Y-165917676D02*
X259479166Y-166012914D01*
X259479166Y-166012914D02*
X259574404Y-166060533D01*
X258669642Y-165774819D02*
X258002976Y-165774819D01*
X258002976Y-165774819D02*
X258431547Y-166774819D01*
X141392319Y-174354761D02*
X141392319Y-173878571D01*
X141392319Y-173878571D02*
X140392319Y-173878571D01*
X140868509Y-174688095D02*
X140868509Y-175021428D01*
X141392319Y-175164285D02*
X141392319Y-174688095D01*
X141392319Y-174688095D02*
X140392319Y-174688095D01*
X140392319Y-174688095D02*
X140392319Y-175164285D01*
X141392319Y-175592857D02*
X140392319Y-175592857D01*
X140392319Y-175592857D02*
X140392319Y-175830952D01*
X140392319Y-175830952D02*
X140439938Y-175973809D01*
X140439938Y-175973809D02*
X140535176Y-176069047D01*
X140535176Y-176069047D02*
X140630414Y-176116666D01*
X140630414Y-176116666D02*
X140820890Y-176164285D01*
X140820890Y-176164285D02*
X140963747Y-176164285D01*
X140963747Y-176164285D02*
X141154223Y-176116666D01*
X141154223Y-176116666D02*
X141249461Y-176069047D01*
X141249461Y-176069047D02*
X141344700Y-175973809D01*
X141344700Y-175973809D02*
X141392319Y-175830952D01*
X141392319Y-175830952D02*
X141392319Y-175592857D01*
X141392319Y-177116666D02*
X141392319Y-176545238D01*
X141392319Y-176830952D02*
X140392319Y-176830952D01*
X140392319Y-176830952D02*
X140535176Y-176735714D01*
X140535176Y-176735714D02*
X140630414Y-176640476D01*
X140630414Y-176640476D02*
X140678033Y-176545238D01*
X140725652Y-177973809D02*
X141392319Y-177973809D01*
X140344700Y-177735714D02*
X141058985Y-177497619D01*
X141058985Y-177497619D02*
X141058985Y-178116666D01*
X143199795Y-172178571D02*
X143199795Y-171721428D01*
X143199795Y-171950000D02*
X142399795Y-171950000D01*
X142399795Y-171950000D02*
X142514080Y-171873809D01*
X142514080Y-171873809D02*
X142590271Y-171797619D01*
X142590271Y-171797619D02*
X142628366Y-171721428D01*
X364604819Y-174354761D02*
X364604819Y-173878571D01*
X364604819Y-173878571D02*
X363604819Y-173878571D01*
X364081009Y-174688095D02*
X364081009Y-175021428D01*
X364604819Y-175164285D02*
X364604819Y-174688095D01*
X364604819Y-174688095D02*
X363604819Y-174688095D01*
X363604819Y-174688095D02*
X363604819Y-175164285D01*
X364604819Y-175592857D02*
X363604819Y-175592857D01*
X363604819Y-175592857D02*
X363604819Y-175830952D01*
X363604819Y-175830952D02*
X363652438Y-175973809D01*
X363652438Y-175973809D02*
X363747676Y-176069047D01*
X363747676Y-176069047D02*
X363842914Y-176116666D01*
X363842914Y-176116666D02*
X364033390Y-176164285D01*
X364033390Y-176164285D02*
X364176247Y-176164285D01*
X364176247Y-176164285D02*
X364366723Y-176116666D01*
X364366723Y-176116666D02*
X364461961Y-176069047D01*
X364461961Y-176069047D02*
X364557200Y-175973809D01*
X364557200Y-175973809D02*
X364604819Y-175830952D01*
X364604819Y-175830952D02*
X364604819Y-175592857D01*
X364604819Y-177116666D02*
X364604819Y-176545238D01*
X364604819Y-176830952D02*
X363604819Y-176830952D01*
X363604819Y-176830952D02*
X363747676Y-176735714D01*
X363747676Y-176735714D02*
X363842914Y-176640476D01*
X363842914Y-176640476D02*
X363890533Y-176545238D01*
X364604819Y-177592857D02*
X364604819Y-177783333D01*
X364604819Y-177783333D02*
X364557200Y-177878571D01*
X364557200Y-177878571D02*
X364509580Y-177926190D01*
X364509580Y-177926190D02*
X364366723Y-178021428D01*
X364366723Y-178021428D02*
X364176247Y-178069047D01*
X364176247Y-178069047D02*
X363795295Y-178069047D01*
X363795295Y-178069047D02*
X363700057Y-178021428D01*
X363700057Y-178021428D02*
X363652438Y-177973809D01*
X363652438Y-177973809D02*
X363604819Y-177878571D01*
X363604819Y-177878571D02*
X363604819Y-177688095D01*
X363604819Y-177688095D02*
X363652438Y-177592857D01*
X363652438Y-177592857D02*
X363700057Y-177545238D01*
X363700057Y-177545238D02*
X363795295Y-177497619D01*
X363795295Y-177497619D02*
X364033390Y-177497619D01*
X364033390Y-177497619D02*
X364128628Y-177545238D01*
X364128628Y-177545238D02*
X364176247Y-177592857D01*
X364176247Y-177592857D02*
X364223866Y-177688095D01*
X364223866Y-177688095D02*
X364223866Y-177878571D01*
X364223866Y-177878571D02*
X364176247Y-177973809D01*
X364176247Y-177973809D02*
X364128628Y-178021428D01*
X364128628Y-178021428D02*
X364033390Y-178069047D01*
X366412295Y-172178571D02*
X366412295Y-171721428D01*
X366412295Y-171950000D02*
X365612295Y-171950000D01*
X365612295Y-171950000D02*
X365726580Y-171873809D01*
X365726580Y-171873809D02*
X365802771Y-171797619D01*
X365802771Y-171797619D02*
X365840866Y-171721428D01*
X218092857Y-166679580D02*
X218140476Y-166727200D01*
X218140476Y-166727200D02*
X218283333Y-166774819D01*
X218283333Y-166774819D02*
X218378571Y-166774819D01*
X218378571Y-166774819D02*
X218521428Y-166727200D01*
X218521428Y-166727200D02*
X218616666Y-166631961D01*
X218616666Y-166631961D02*
X218664285Y-166536723D01*
X218664285Y-166536723D02*
X218711904Y-166346247D01*
X218711904Y-166346247D02*
X218711904Y-166203390D01*
X218711904Y-166203390D02*
X218664285Y-166012914D01*
X218664285Y-166012914D02*
X218616666Y-165917676D01*
X218616666Y-165917676D02*
X218521428Y-165822438D01*
X218521428Y-165822438D02*
X218378571Y-165774819D01*
X218378571Y-165774819D02*
X218283333Y-165774819D01*
X218283333Y-165774819D02*
X218140476Y-165822438D01*
X218140476Y-165822438D02*
X218092857Y-165870057D01*
X217140476Y-166774819D02*
X217711904Y-166774819D01*
X217426190Y-166774819D02*
X217426190Y-165774819D01*
X217426190Y-165774819D02*
X217521428Y-165917676D01*
X217521428Y-165917676D02*
X217616666Y-166012914D01*
X217616666Y-166012914D02*
X217711904Y-166060533D01*
X216283333Y-165774819D02*
X216473809Y-165774819D01*
X216473809Y-165774819D02*
X216569047Y-165822438D01*
X216569047Y-165822438D02*
X216616666Y-165870057D01*
X216616666Y-165870057D02*
X216711904Y-166012914D01*
X216711904Y-166012914D02*
X216759523Y-166203390D01*
X216759523Y-166203390D02*
X216759523Y-166584342D01*
X216759523Y-166584342D02*
X216711904Y-166679580D01*
X216711904Y-166679580D02*
X216664285Y-166727200D01*
X216664285Y-166727200D02*
X216569047Y-166774819D01*
X216569047Y-166774819D02*
X216378571Y-166774819D01*
X216378571Y-166774819D02*
X216283333Y-166727200D01*
X216283333Y-166727200D02*
X216235714Y-166679580D01*
X216235714Y-166679580D02*
X216188095Y-166584342D01*
X216188095Y-166584342D02*
X216188095Y-166346247D01*
X216188095Y-166346247D02*
X216235714Y-166251009D01*
X216235714Y-166251009D02*
X216283333Y-166203390D01*
X216283333Y-166203390D02*
X216378571Y-166155771D01*
X216378571Y-166155771D02*
X216569047Y-166155771D01*
X216569047Y-166155771D02*
X216664285Y-166203390D01*
X216664285Y-166203390D02*
X216711904Y-166251009D01*
X216711904Y-166251009D02*
X216759523Y-166346247D01*
X61004819Y-150854761D02*
X61004819Y-150378571D01*
X61004819Y-150378571D02*
X60004819Y-150378571D01*
X60481009Y-151188095D02*
X60481009Y-151521428D01*
X61004819Y-151664285D02*
X61004819Y-151188095D01*
X61004819Y-151188095D02*
X60004819Y-151188095D01*
X60004819Y-151188095D02*
X60004819Y-151664285D01*
X61004819Y-152092857D02*
X60004819Y-152092857D01*
X60004819Y-152092857D02*
X60004819Y-152330952D01*
X60004819Y-152330952D02*
X60052438Y-152473809D01*
X60052438Y-152473809D02*
X60147676Y-152569047D01*
X60147676Y-152569047D02*
X60242914Y-152616666D01*
X60242914Y-152616666D02*
X60433390Y-152664285D01*
X60433390Y-152664285D02*
X60576247Y-152664285D01*
X60576247Y-152664285D02*
X60766723Y-152616666D01*
X60766723Y-152616666D02*
X60861961Y-152569047D01*
X60861961Y-152569047D02*
X60957200Y-152473809D01*
X60957200Y-152473809D02*
X61004819Y-152330952D01*
X61004819Y-152330952D02*
X61004819Y-152092857D01*
X61004819Y-153616666D02*
X61004819Y-153045238D01*
X61004819Y-153330952D02*
X60004819Y-153330952D01*
X60004819Y-153330952D02*
X60147676Y-153235714D01*
X60147676Y-153235714D02*
X60242914Y-153140476D01*
X60242914Y-153140476D02*
X60290533Y-153045238D01*
X61004819Y-154569047D02*
X61004819Y-153997619D01*
X61004819Y-154283333D02*
X60004819Y-154283333D01*
X60004819Y-154283333D02*
X60147676Y-154188095D01*
X60147676Y-154188095D02*
X60242914Y-154092857D01*
X60242914Y-154092857D02*
X60290533Y-153997619D01*
X58287704Y-156221428D02*
X58287704Y-156678571D01*
X58287704Y-156449999D02*
X59087704Y-156449999D01*
X59087704Y-156449999D02*
X58973419Y-156526190D01*
X58973419Y-156526190D02*
X58897228Y-156602380D01*
X58897228Y-156602380D02*
X58859133Y-156678571D01*
X310592319Y-174354761D02*
X310592319Y-173878571D01*
X310592319Y-173878571D02*
X309592319Y-173878571D01*
X310068509Y-174688095D02*
X310068509Y-175021428D01*
X310592319Y-175164285D02*
X310592319Y-174688095D01*
X310592319Y-174688095D02*
X309592319Y-174688095D01*
X309592319Y-174688095D02*
X309592319Y-175164285D01*
X310592319Y-175592857D02*
X309592319Y-175592857D01*
X309592319Y-175592857D02*
X309592319Y-175830952D01*
X309592319Y-175830952D02*
X309639938Y-175973809D01*
X309639938Y-175973809D02*
X309735176Y-176069047D01*
X309735176Y-176069047D02*
X309830414Y-176116666D01*
X309830414Y-176116666D02*
X310020890Y-176164285D01*
X310020890Y-176164285D02*
X310163747Y-176164285D01*
X310163747Y-176164285D02*
X310354223Y-176116666D01*
X310354223Y-176116666D02*
X310449461Y-176069047D01*
X310449461Y-176069047D02*
X310544700Y-175973809D01*
X310544700Y-175973809D02*
X310592319Y-175830952D01*
X310592319Y-175830952D02*
X310592319Y-175592857D01*
X310592319Y-177116666D02*
X310592319Y-176545238D01*
X310592319Y-176830952D02*
X309592319Y-176830952D01*
X309592319Y-176830952D02*
X309735176Y-176735714D01*
X309735176Y-176735714D02*
X309830414Y-176640476D01*
X309830414Y-176640476D02*
X309878033Y-176545238D01*
X310020890Y-177688095D02*
X309973271Y-177592857D01*
X309973271Y-177592857D02*
X309925652Y-177545238D01*
X309925652Y-177545238D02*
X309830414Y-177497619D01*
X309830414Y-177497619D02*
X309782795Y-177497619D01*
X309782795Y-177497619D02*
X309687557Y-177545238D01*
X309687557Y-177545238D02*
X309639938Y-177592857D01*
X309639938Y-177592857D02*
X309592319Y-177688095D01*
X309592319Y-177688095D02*
X309592319Y-177878571D01*
X309592319Y-177878571D02*
X309639938Y-177973809D01*
X309639938Y-177973809D02*
X309687557Y-178021428D01*
X309687557Y-178021428D02*
X309782795Y-178069047D01*
X309782795Y-178069047D02*
X309830414Y-178069047D01*
X309830414Y-178069047D02*
X309925652Y-178021428D01*
X309925652Y-178021428D02*
X309973271Y-177973809D01*
X309973271Y-177973809D02*
X310020890Y-177878571D01*
X310020890Y-177878571D02*
X310020890Y-177688095D01*
X310020890Y-177688095D02*
X310068509Y-177592857D01*
X310068509Y-177592857D02*
X310116128Y-177545238D01*
X310116128Y-177545238D02*
X310211366Y-177497619D01*
X310211366Y-177497619D02*
X310401842Y-177497619D01*
X310401842Y-177497619D02*
X310497080Y-177545238D01*
X310497080Y-177545238D02*
X310544700Y-177592857D01*
X310544700Y-177592857D02*
X310592319Y-177688095D01*
X310592319Y-177688095D02*
X310592319Y-177878571D01*
X310592319Y-177878571D02*
X310544700Y-177973809D01*
X310544700Y-177973809D02*
X310497080Y-178021428D01*
X310497080Y-178021428D02*
X310401842Y-178069047D01*
X310401842Y-178069047D02*
X310211366Y-178069047D01*
X310211366Y-178069047D02*
X310116128Y-178021428D01*
X310116128Y-178021428D02*
X310068509Y-177973809D01*
X310068509Y-177973809D02*
X310020890Y-177878571D01*
X312399795Y-172178571D02*
X312399795Y-171721428D01*
X312399795Y-171950000D02*
X311599795Y-171950000D01*
X311599795Y-171950000D02*
X311714080Y-171873809D01*
X311714080Y-171873809D02*
X311790271Y-171797619D01*
X311790271Y-171797619D02*
X311828366Y-171721428D01*
X403095238Y-76554819D02*
X403571428Y-76554819D01*
X403571428Y-76554819D02*
X403571428Y-75554819D01*
X402761904Y-76031009D02*
X402428571Y-76031009D01*
X402285714Y-76554819D02*
X402761904Y-76554819D01*
X402761904Y-76554819D02*
X402761904Y-75554819D01*
X402761904Y-75554819D02*
X402285714Y-75554819D01*
X401857142Y-76554819D02*
X401857142Y-75554819D01*
X401857142Y-75554819D02*
X401619047Y-75554819D01*
X401619047Y-75554819D02*
X401476190Y-75602438D01*
X401476190Y-75602438D02*
X401380952Y-75697676D01*
X401380952Y-75697676D02*
X401333333Y-75792914D01*
X401333333Y-75792914D02*
X401285714Y-75983390D01*
X401285714Y-75983390D02*
X401285714Y-76126247D01*
X401285714Y-76126247D02*
X401333333Y-76316723D01*
X401333333Y-76316723D02*
X401380952Y-76411961D01*
X401380952Y-76411961D02*
X401476190Y-76507200D01*
X401476190Y-76507200D02*
X401619047Y-76554819D01*
X401619047Y-76554819D02*
X401857142Y-76554819D01*
X400904761Y-75650057D02*
X400857142Y-75602438D01*
X400857142Y-75602438D02*
X400761904Y-75554819D01*
X400761904Y-75554819D02*
X400523809Y-75554819D01*
X400523809Y-75554819D02*
X400428571Y-75602438D01*
X400428571Y-75602438D02*
X400380952Y-75650057D01*
X400380952Y-75650057D02*
X400333333Y-75745295D01*
X400333333Y-75745295D02*
X400333333Y-75840533D01*
X400333333Y-75840533D02*
X400380952Y-75983390D01*
X400380952Y-75983390D02*
X400952380Y-76554819D01*
X400952380Y-76554819D02*
X400333333Y-76554819D01*
X399999999Y-75554819D02*
X399380952Y-75554819D01*
X399380952Y-75554819D02*
X399714285Y-75935771D01*
X399714285Y-75935771D02*
X399571428Y-75935771D01*
X399571428Y-75935771D02*
X399476190Y-75983390D01*
X399476190Y-75983390D02*
X399428571Y-76031009D01*
X399428571Y-76031009D02*
X399380952Y-76126247D01*
X399380952Y-76126247D02*
X399380952Y-76364342D01*
X399380952Y-76364342D02*
X399428571Y-76459580D01*
X399428571Y-76459580D02*
X399476190Y-76507200D01*
X399476190Y-76507200D02*
X399571428Y-76554819D01*
X399571428Y-76554819D02*
X399857142Y-76554819D01*
X399857142Y-76554819D02*
X399952380Y-76507200D01*
X399952380Y-76507200D02*
X399999999Y-76459580D01*
X397728571Y-73837704D02*
X397271428Y-73837704D01*
X397500000Y-73837704D02*
X397500000Y-74637704D01*
X397500000Y-74637704D02*
X397423809Y-74523419D01*
X397423809Y-74523419D02*
X397347619Y-74447228D01*
X397347619Y-74447228D02*
X397271428Y-74409133D01*
X103654819Y-63343452D02*
X103654819Y-62867262D01*
X103654819Y-62867262D02*
X102654819Y-62867262D01*
X103131009Y-63676786D02*
X103131009Y-64010119D01*
X103654819Y-64152976D02*
X103654819Y-63676786D01*
X103654819Y-63676786D02*
X102654819Y-63676786D01*
X102654819Y-63676786D02*
X102654819Y-64152976D01*
X103654819Y-64581548D02*
X102654819Y-64581548D01*
X102654819Y-64581548D02*
X102654819Y-64819643D01*
X102654819Y-64819643D02*
X102702438Y-64962500D01*
X102702438Y-64962500D02*
X102797676Y-65057738D01*
X102797676Y-65057738D02*
X102892914Y-65105357D01*
X102892914Y-65105357D02*
X103083390Y-65152976D01*
X103083390Y-65152976D02*
X103226247Y-65152976D01*
X103226247Y-65152976D02*
X103416723Y-65105357D01*
X103416723Y-65105357D02*
X103511961Y-65057738D01*
X103511961Y-65057738D02*
X103607200Y-64962500D01*
X103607200Y-64962500D02*
X103654819Y-64819643D01*
X103654819Y-64819643D02*
X103654819Y-64581548D01*
X102654819Y-65486310D02*
X102654819Y-66152976D01*
X102654819Y-66152976D02*
X103654819Y-65724405D01*
X100937704Y-68233928D02*
X100937704Y-68691071D01*
X100937704Y-68462499D02*
X101737704Y-68462499D01*
X101737704Y-68462499D02*
X101623419Y-68538690D01*
X101623419Y-68538690D02*
X101547228Y-68614880D01*
X101547228Y-68614880D02*
X101509133Y-68691071D01*
X331404819Y-63343452D02*
X331404819Y-62867262D01*
X331404819Y-62867262D02*
X330404819Y-62867262D01*
X330881009Y-63676786D02*
X330881009Y-64010119D01*
X331404819Y-64152976D02*
X331404819Y-63676786D01*
X331404819Y-63676786D02*
X330404819Y-63676786D01*
X330404819Y-63676786D02*
X330404819Y-64152976D01*
X331404819Y-64581548D02*
X330404819Y-64581548D01*
X330404819Y-64581548D02*
X330404819Y-64819643D01*
X330404819Y-64819643D02*
X330452438Y-64962500D01*
X330452438Y-64962500D02*
X330547676Y-65057738D01*
X330547676Y-65057738D02*
X330642914Y-65105357D01*
X330642914Y-65105357D02*
X330833390Y-65152976D01*
X330833390Y-65152976D02*
X330976247Y-65152976D01*
X330976247Y-65152976D02*
X331166723Y-65105357D01*
X331166723Y-65105357D02*
X331261961Y-65057738D01*
X331261961Y-65057738D02*
X331357200Y-64962500D01*
X331357200Y-64962500D02*
X331404819Y-64819643D01*
X331404819Y-64819643D02*
X331404819Y-64581548D01*
X331404819Y-66105357D02*
X331404819Y-65533929D01*
X331404819Y-65819643D02*
X330404819Y-65819643D01*
X330404819Y-65819643D02*
X330547676Y-65724405D01*
X330547676Y-65724405D02*
X330642914Y-65629167D01*
X330642914Y-65629167D02*
X330690533Y-65533929D01*
X328687704Y-68233928D02*
X328687704Y-68691071D01*
X328687704Y-68462499D02*
X329487704Y-68462499D01*
X329487704Y-68462499D02*
X329373419Y-68538690D01*
X329373419Y-68538690D02*
X329297228Y-68614880D01*
X329297228Y-68614880D02*
X329259133Y-68691071D01*
X393179580Y-127619642D02*
X393227200Y-127572023D01*
X393227200Y-127572023D02*
X393274819Y-127429166D01*
X393274819Y-127429166D02*
X393274819Y-127333928D01*
X393274819Y-127333928D02*
X393227200Y-127191071D01*
X393227200Y-127191071D02*
X393131961Y-127095833D01*
X393131961Y-127095833D02*
X393036723Y-127048214D01*
X393036723Y-127048214D02*
X392846247Y-127000595D01*
X392846247Y-127000595D02*
X392703390Y-127000595D01*
X392703390Y-127000595D02*
X392512914Y-127048214D01*
X392512914Y-127048214D02*
X392417676Y-127095833D01*
X392417676Y-127095833D02*
X392322438Y-127191071D01*
X392322438Y-127191071D02*
X392274819Y-127333928D01*
X392274819Y-127333928D02*
X392274819Y-127429166D01*
X392274819Y-127429166D02*
X392322438Y-127572023D01*
X392322438Y-127572023D02*
X392370057Y-127619642D01*
X392370057Y-128000595D02*
X392322438Y-128048214D01*
X392322438Y-128048214D02*
X392274819Y-128143452D01*
X392274819Y-128143452D02*
X392274819Y-128381547D01*
X392274819Y-128381547D02*
X392322438Y-128476785D01*
X392322438Y-128476785D02*
X392370057Y-128524404D01*
X392370057Y-128524404D02*
X392465295Y-128572023D01*
X392465295Y-128572023D02*
X392560533Y-128572023D01*
X392560533Y-128572023D02*
X392703390Y-128524404D01*
X392703390Y-128524404D02*
X393274819Y-127952976D01*
X393274819Y-127952976D02*
X393274819Y-128572023D01*
X393274819Y-129524404D02*
X393274819Y-128952976D01*
X393274819Y-129238690D02*
X392274819Y-129238690D01*
X392274819Y-129238690D02*
X392417676Y-129143452D01*
X392417676Y-129143452D02*
X392512914Y-129048214D01*
X392512914Y-129048214D02*
X392560533Y-128952976D01*
X341186904Y-147792319D02*
X341186904Y-148601842D01*
X341186904Y-148601842D02*
X341139285Y-148697080D01*
X341139285Y-148697080D02*
X341091666Y-148744700D01*
X341091666Y-148744700D02*
X340996428Y-148792319D01*
X340996428Y-148792319D02*
X340805952Y-148792319D01*
X340805952Y-148792319D02*
X340710714Y-148744700D01*
X340710714Y-148744700D02*
X340663095Y-148697080D01*
X340663095Y-148697080D02*
X340615476Y-148601842D01*
X340615476Y-148601842D02*
X340615476Y-147792319D01*
X340186904Y-147887557D02*
X340139285Y-147839938D01*
X340139285Y-147839938D02*
X340044047Y-147792319D01*
X340044047Y-147792319D02*
X339805952Y-147792319D01*
X339805952Y-147792319D02*
X339710714Y-147839938D01*
X339710714Y-147839938D02*
X339663095Y-147887557D01*
X339663095Y-147887557D02*
X339615476Y-147982795D01*
X339615476Y-147982795D02*
X339615476Y-148078033D01*
X339615476Y-148078033D02*
X339663095Y-148220890D01*
X339663095Y-148220890D02*
X340234523Y-148792319D01*
X340234523Y-148792319D02*
X339615476Y-148792319D01*
D11*
X340789285Y-123290474D02*
X340875000Y-123247617D01*
X340875000Y-123247617D02*
X341003571Y-123247617D01*
X341003571Y-123247617D02*
X341132142Y-123290474D01*
X341132142Y-123290474D02*
X341217857Y-123376188D01*
X341217857Y-123376188D02*
X341260714Y-123461902D01*
X341260714Y-123461902D02*
X341303571Y-123633331D01*
X341303571Y-123633331D02*
X341303571Y-123761902D01*
X341303571Y-123761902D02*
X341260714Y-123933331D01*
X341260714Y-123933331D02*
X341217857Y-124019045D01*
X341217857Y-124019045D02*
X341132142Y-124104760D01*
X341132142Y-124104760D02*
X341003571Y-124147617D01*
X341003571Y-124147617D02*
X340917857Y-124147617D01*
X340917857Y-124147617D02*
X340789285Y-124104760D01*
X340789285Y-124104760D02*
X340746428Y-124061902D01*
X340746428Y-124061902D02*
X340746428Y-123761902D01*
X340746428Y-123761902D02*
X340917857Y-123761902D01*
X341910714Y-145933331D02*
X341867857Y-145890474D01*
X341867857Y-145890474D02*
X341782143Y-145847617D01*
X341782143Y-145847617D02*
X341567857Y-145847617D01*
X341567857Y-145847617D02*
X341482143Y-145890474D01*
X341482143Y-145890474D02*
X341439285Y-145933331D01*
X341439285Y-145933331D02*
X341396428Y-146019045D01*
X341396428Y-146019045D02*
X341396428Y-146104760D01*
X341396428Y-146104760D02*
X341439285Y-146233331D01*
X341439285Y-146233331D02*
X341953571Y-146747617D01*
X341953571Y-146747617D02*
X341396428Y-146747617D01*
X340839285Y-145847617D02*
X340753571Y-145847617D01*
X340753571Y-145847617D02*
X340667857Y-145890474D01*
X340667857Y-145890474D02*
X340625000Y-145933331D01*
X340625000Y-145933331D02*
X340582142Y-146019045D01*
X340582142Y-146019045D02*
X340539285Y-146190474D01*
X340539285Y-146190474D02*
X340539285Y-146404760D01*
X340539285Y-146404760D02*
X340582142Y-146576188D01*
X340582142Y-146576188D02*
X340625000Y-146661902D01*
X340625000Y-146661902D02*
X340667857Y-146704760D01*
X340667857Y-146704760D02*
X340753571Y-146747617D01*
X340753571Y-146747617D02*
X340839285Y-146747617D01*
X340839285Y-146747617D02*
X340925000Y-146704760D01*
X340925000Y-146704760D02*
X340967857Y-146661902D01*
X340967857Y-146661902D02*
X341010714Y-146576188D01*
X341010714Y-146576188D02*
X341053571Y-146404760D01*
X341053571Y-146404760D02*
X341053571Y-146190474D01*
X341053571Y-146190474D02*
X341010714Y-146019045D01*
X341010714Y-146019045D02*
X340967857Y-145933331D01*
X340967857Y-145933331D02*
X340925000Y-145890474D01*
X340925000Y-145890474D02*
X340839285Y-145847617D01*
X363667856Y-123247617D02*
X363582142Y-123247617D01*
X363582142Y-123247617D02*
X363496428Y-123290474D01*
X363496428Y-123290474D02*
X363453571Y-123333331D01*
X363453571Y-123333331D02*
X363410713Y-123419045D01*
X363410713Y-123419045D02*
X363367856Y-123590474D01*
X363367856Y-123590474D02*
X363367856Y-123804760D01*
X363367856Y-123804760D02*
X363410713Y-123976188D01*
X363410713Y-123976188D02*
X363453571Y-124061902D01*
X363453571Y-124061902D02*
X363496428Y-124104760D01*
X363496428Y-124104760D02*
X363582142Y-124147617D01*
X363582142Y-124147617D02*
X363667856Y-124147617D01*
X363667856Y-124147617D02*
X363753571Y-124104760D01*
X363753571Y-124104760D02*
X363796428Y-124061902D01*
X363796428Y-124061902D02*
X363839285Y-123976188D01*
X363839285Y-123976188D02*
X363882142Y-123804760D01*
X363882142Y-123804760D02*
X363882142Y-123590474D01*
X363882142Y-123590474D02*
X363839285Y-123419045D01*
X363839285Y-123419045D02*
X363796428Y-123333331D01*
X363796428Y-123333331D02*
X363753571Y-123290474D01*
X363753571Y-123290474D02*
X363667856Y-123247617D01*
X363996428Y-146547617D02*
X364510714Y-146547617D01*
X364253571Y-146547617D02*
X364253571Y-145647617D01*
X364253571Y-145647617D02*
X364339285Y-145776188D01*
X364339285Y-145776188D02*
X364425000Y-145861902D01*
X364425000Y-145861902D02*
X364510714Y-145904760D01*
X363439285Y-145647617D02*
X363353571Y-145647617D01*
X363353571Y-145647617D02*
X363267857Y-145690474D01*
X363267857Y-145690474D02*
X363225000Y-145733331D01*
X363225000Y-145733331D02*
X363182142Y-145819045D01*
X363182142Y-145819045D02*
X363139285Y-145990474D01*
X363139285Y-145990474D02*
X363139285Y-146204760D01*
X363139285Y-146204760D02*
X363182142Y-146376188D01*
X363182142Y-146376188D02*
X363225000Y-146461902D01*
X363225000Y-146461902D02*
X363267857Y-146504760D01*
X363267857Y-146504760D02*
X363353571Y-146547617D01*
X363353571Y-146547617D02*
X363439285Y-146547617D01*
X363439285Y-146547617D02*
X363525000Y-146504760D01*
X363525000Y-146504760D02*
X363567857Y-146461902D01*
X363567857Y-146461902D02*
X363610714Y-146376188D01*
X363610714Y-146376188D02*
X363653571Y-146204760D01*
X363653571Y-146204760D02*
X363653571Y-145990474D01*
X363653571Y-145990474D02*
X363610714Y-145819045D01*
X363610714Y-145819045D02*
X363567857Y-145733331D01*
X363567857Y-145733331D02*
X363525000Y-145690474D01*
X363525000Y-145690474D02*
X363439285Y-145647617D01*
%TO.C,C2*%
X298677500Y-63661252D02*
X298677500Y-63138748D01*
X300147500Y-63661252D02*
X300147500Y-63138748D01*
%TO.C,LED5*%
X172050000Y-61412500D02*
X172500000Y-60962500D01*
X172050000Y-67962500D02*
X172050000Y-61412500D01*
X172500000Y-60962500D02*
X177550000Y-60962500D01*
X173900000Y-61762500D02*
X175700000Y-61762500D01*
X173900000Y-67162500D02*
X175700000Y-67162500D01*
X177550000Y-67962500D02*
X172050000Y-67962500D01*
X177550000Y-67962500D02*
X177550000Y-60962500D01*
%TO.C,C23*%
X395198752Y-83265000D02*
X394676248Y-83265000D01*
X395198752Y-84735000D02*
X394676248Y-84735000D01*
%TO.C,LED15*%
X176900000Y-172450000D02*
X176900000Y-179450000D01*
X176900000Y-172450000D02*
X182400000Y-172450000D01*
X180550000Y-173250000D02*
X178750000Y-173250000D01*
X180550000Y-178650000D02*
X178750000Y-178650000D01*
X181950000Y-179450000D02*
X176900000Y-179450000D01*
X182400000Y-172450000D02*
X182400000Y-179000000D01*
X182400000Y-179000000D02*
X181950000Y-179450000D01*
%TO.C,C6*%
X147002500Y-63661252D02*
X147002500Y-63138748D01*
X148472500Y-63661252D02*
X148472500Y-63138748D01*
%TO.C,C20*%
X391765000Y-156738748D02*
X391765000Y-157261252D01*
X393235000Y-156738748D02*
X393235000Y-157261252D01*
%TO.C,C10*%
X65465000Y-121261252D02*
X65465000Y-120738748D01*
X66935000Y-121261252D02*
X66935000Y-120738748D01*
%TO.C,C12*%
X76465000Y-170261252D02*
X76465000Y-169738748D01*
X77935000Y-170261252D02*
X77935000Y-169738748D01*
%TO.C,LED9*%
X55050000Y-104350000D02*
X55050000Y-99300000D01*
X55500000Y-104800000D02*
X55050000Y-104350000D01*
X55850000Y-102950000D02*
X55850000Y-101150000D01*
X61250000Y-102950000D02*
X61250000Y-101150000D01*
X62050000Y-99300000D02*
X55050000Y-99300000D01*
X62050000Y-99300000D02*
X62050000Y-104800000D01*
X62050000Y-104800000D02*
X55500000Y-104800000D01*
%TO.C,C11*%
X63265000Y-137711252D02*
X63265000Y-137188748D01*
X64735000Y-137711252D02*
X64735000Y-137188748D01*
%TO.C,LED10*%
X55050000Y-123350000D02*
X55050000Y-118300000D01*
X55500000Y-123800000D02*
X55050000Y-123350000D01*
X55850000Y-121950000D02*
X55850000Y-120150000D01*
X61250000Y-121950000D02*
X61250000Y-120150000D01*
X62050000Y-118300000D02*
X55050000Y-118300000D01*
X62050000Y-118300000D02*
X62050000Y-123800000D01*
X62050000Y-123800000D02*
X55500000Y-123800000D01*
%TO.C,C15*%
X178865000Y-168398752D02*
X178865000Y-167876248D01*
X180335000Y-168398752D02*
X180335000Y-167876248D01*
%TO.C,LED4*%
X210900000Y-61412500D02*
X211350000Y-60962500D01*
X210900000Y-67962500D02*
X210900000Y-61412500D01*
X211350000Y-60962500D02*
X216400000Y-60962500D01*
X212750000Y-61762500D02*
X214550000Y-61762500D01*
X212750000Y-67162500D02*
X214550000Y-67162500D01*
X216400000Y-67962500D02*
X210900000Y-67962500D01*
X216400000Y-67962500D02*
X216400000Y-60962500D01*
%TO.C,C24*%
X369061252Y-70065000D02*
X368538748Y-70065000D01*
X369061252Y-71535000D02*
X368538748Y-71535000D01*
%TO.C,LED3*%
X249200000Y-61412500D02*
X249650000Y-60962500D01*
X249200000Y-67962500D02*
X249200000Y-61412500D01*
X249650000Y-60962500D02*
X254700000Y-60962500D01*
X251050000Y-61762500D02*
X252850000Y-61762500D01*
X251050000Y-67162500D02*
X252850000Y-67162500D01*
X254700000Y-67962500D02*
X249200000Y-67962500D01*
X254700000Y-67962500D02*
X254700000Y-60962500D01*
%TO.C,C13*%
X101161252Y-167665000D02*
X100638748Y-167665000D01*
X101161252Y-169135000D02*
X100638748Y-169135000D01*
%TO.C,C22*%
X386615000Y-99480002D02*
X386615000Y-98957498D01*
X388085000Y-99480002D02*
X388085000Y-98957498D01*
%TO.C,LED20*%
X398000000Y-154250000D02*
X404550000Y-154250000D01*
X398000000Y-159750000D02*
X398000000Y-154250000D01*
X398000000Y-159750000D02*
X405000000Y-159750000D01*
X398800000Y-156100000D02*
X398800000Y-157900000D01*
X404200000Y-156100000D02*
X404200000Y-157900000D01*
X404550000Y-154250000D02*
X405000000Y-154700000D01*
X405000000Y-154700000D02*
X405000000Y-159750000D01*
%TO.C,LED2*%
X287562500Y-61412500D02*
X288012500Y-60962500D01*
X287562500Y-67962500D02*
X287562500Y-61412500D01*
X288012500Y-60962500D02*
X293062500Y-60962500D01*
X289412500Y-61762500D02*
X291212500Y-61762500D01*
X289412500Y-67162500D02*
X291212500Y-67162500D01*
X293062500Y-67962500D02*
X287562500Y-67962500D01*
X293062500Y-67962500D02*
X293062500Y-60962500D01*
%TO.C,C4*%
X223015000Y-63361252D02*
X223015000Y-62838748D01*
X224485000Y-63361252D02*
X224485000Y-62838748D01*
%TO.C,C9*%
X63265000Y-102311252D02*
X63265000Y-101788748D01*
X64735000Y-102311252D02*
X64735000Y-101788748D01*
%TO.C,LED17*%
X256562500Y-172450000D02*
X256562500Y-179450000D01*
X256562500Y-172450000D02*
X262062500Y-172450000D01*
X260212500Y-173250000D02*
X258412500Y-173250000D01*
X260212500Y-178650000D02*
X258412500Y-178650000D01*
X261612500Y-179450000D02*
X256562500Y-179450000D01*
X262062500Y-172450000D02*
X262062500Y-179000000D01*
X262062500Y-179000000D02*
X261612500Y-179450000D01*
%TO.C,LED12*%
X62900000Y-179100000D02*
X62900000Y-174050000D01*
X63350000Y-179550000D02*
X62900000Y-179100000D01*
X63700000Y-177700000D02*
X63700000Y-175900000D01*
X69100000Y-177700000D02*
X69100000Y-175900000D01*
X69900000Y-174050000D02*
X62900000Y-174050000D01*
X69900000Y-174050000D02*
X69900000Y-179550000D01*
X69900000Y-179550000D02*
X63350000Y-179550000D01*
%TO.C,LED24*%
X366050000Y-61412500D02*
X366500000Y-60962500D01*
X366050000Y-67962500D02*
X366050000Y-61412500D01*
X366500000Y-60962500D02*
X371550000Y-60962500D01*
X367900000Y-61762500D02*
X369700000Y-61762500D01*
X367900000Y-67162500D02*
X369700000Y-67162500D01*
X371550000Y-67962500D02*
X366050000Y-67962500D01*
X371550000Y-67962500D02*
X371550000Y-60962500D01*
%TO.C,LED6*%
X134687500Y-61412500D02*
X135137500Y-60962500D01*
X134687500Y-67962500D02*
X134687500Y-61412500D01*
X135137500Y-60962500D02*
X140187500Y-60962500D01*
X136537500Y-61762500D02*
X138337500Y-61762500D01*
X136537500Y-67162500D02*
X138337500Y-67162500D01*
X140187500Y-67962500D02*
X134687500Y-67962500D01*
X140187500Y-67962500D02*
X140187500Y-60962500D01*
%TO.C,C18*%
X313898752Y-167265000D02*
X313376248Y-167265000D01*
X313898752Y-168735000D02*
X313376248Y-168735000D01*
%TO.C,C1*%
X332615000Y-63661252D02*
X332615000Y-63138748D01*
X334085000Y-63661252D02*
X334085000Y-63138748D01*
%TO.C,LED8*%
X55050000Y-75100000D02*
X55050000Y-70050000D01*
X55500000Y-75550000D02*
X55050000Y-75100000D01*
X55850000Y-73700000D02*
X55850000Y-71900000D01*
X61250000Y-73700000D02*
X61250000Y-71900000D01*
X62050000Y-70050000D02*
X55050000Y-70050000D01*
X62050000Y-70050000D02*
X62050000Y-75550000D01*
X62050000Y-75550000D02*
X55500000Y-75550000D01*
%TO.C,LED13*%
X98150000Y-172450000D02*
X98150000Y-179450000D01*
X98150000Y-172450000D02*
X103650000Y-172450000D01*
X101800000Y-173250000D02*
X100000000Y-173250000D01*
X101800000Y-178650000D02*
X100000000Y-178650000D01*
X103200000Y-179450000D02*
X98150000Y-179450000D01*
X103650000Y-172450000D02*
X103650000Y-179000000D01*
X103650000Y-179000000D02*
X103200000Y-179450000D01*
%TO.C,LED21*%
X398000000Y-125600000D02*
X404550000Y-125600000D01*
X398000000Y-131100000D02*
X398000000Y-125600000D01*
X398000000Y-131100000D02*
X405000000Y-131100000D01*
X398800000Y-127450000D02*
X398800000Y-129250000D01*
X404200000Y-127450000D02*
X404200000Y-129250000D01*
X404550000Y-125600000D02*
X405000000Y-126050000D01*
X405000000Y-126050000D02*
X405000000Y-131100000D01*
%TO.C,C3*%
X260665000Y-63661252D02*
X260665000Y-63138748D01*
X262135000Y-63661252D02*
X262135000Y-63138748D01*
%TO.C,C19*%
X360065000Y-175538748D02*
X360065000Y-176061252D01*
X361535000Y-175538748D02*
X361535000Y-176061252D01*
%TO.C,C5*%
X184465000Y-63661252D02*
X184465000Y-63138748D01*
X185935000Y-63661252D02*
X185935000Y-63138748D01*
%TO.C,C7*%
X111065000Y-63661252D02*
X111065000Y-63138748D01*
X112535000Y-63661252D02*
X112535000Y-63138748D01*
%TO.C,C14*%
X144698752Y-167265000D02*
X144176248Y-167265000D01*
X144698752Y-168735000D02*
X144176248Y-168735000D01*
%TO.C,LED22*%
X398000000Y-98800000D02*
X404550000Y-98800000D01*
X398000000Y-104300000D02*
X398000000Y-98800000D01*
X398000000Y-104300000D02*
X405000000Y-104300000D01*
X398800000Y-100650000D02*
X398800000Y-102450000D01*
X404200000Y-100650000D02*
X404200000Y-102450000D01*
X404550000Y-98800000D02*
X405000000Y-99250000D01*
X405000000Y-99250000D02*
X405000000Y-104300000D01*
%TO.C,C8*%
X65940000Y-76392502D02*
X65940000Y-75869998D01*
X67410000Y-76392502D02*
X67410000Y-75869998D01*
%TO.C,LED16*%
X214700000Y-172450000D02*
X214700000Y-179450000D01*
X214700000Y-172450000D02*
X220200000Y-172450000D01*
X218350000Y-173250000D02*
X216550000Y-173250000D01*
X218350000Y-178650000D02*
X216550000Y-178650000D01*
X219750000Y-179450000D02*
X214700000Y-179450000D01*
X220200000Y-172450000D02*
X220200000Y-179000000D01*
X220200000Y-179000000D02*
X219750000Y-179450000D01*
%TO.C,C17*%
X259573752Y-167265000D02*
X259051248Y-167265000D01*
X259573752Y-168735000D02*
X259051248Y-168735000D01*
%TO.C,LED14*%
X141687500Y-172450000D02*
X141687500Y-179450000D01*
X141687500Y-172450000D02*
X147187500Y-172450000D01*
X145337500Y-173250000D02*
X143537500Y-173250000D01*
X145337500Y-178650000D02*
X143537500Y-178650000D01*
X146737500Y-179450000D02*
X141687500Y-179450000D01*
X147187500Y-172450000D02*
X147187500Y-179000000D01*
X147187500Y-179000000D02*
X146737500Y-179450000D01*
%TO.C,LED19*%
X364900000Y-172450000D02*
X364900000Y-179450000D01*
X364900000Y-172450000D02*
X370400000Y-172450000D01*
X368550000Y-173250000D02*
X366750000Y-173250000D01*
X368550000Y-178650000D02*
X366750000Y-178650000D01*
X369950000Y-179450000D02*
X364900000Y-179450000D01*
X370400000Y-172450000D02*
X370400000Y-179000000D01*
X370400000Y-179000000D02*
X369950000Y-179450000D01*
%TO.C,C16*%
X217711252Y-167265000D02*
X217188748Y-167265000D01*
X217711252Y-168735000D02*
X217188748Y-168735000D01*
%TO.C,LED11*%
X54300000Y-149400000D02*
X54750000Y-148950000D01*
X54300000Y-155950000D02*
X54300000Y-149400000D01*
X54750000Y-148950000D02*
X59800000Y-148950000D01*
X56150000Y-149750000D02*
X57950000Y-149750000D01*
X56150000Y-155150000D02*
X57950000Y-155150000D01*
X59800000Y-155950000D02*
X54300000Y-155950000D01*
X59800000Y-155950000D02*
X59800000Y-148950000D01*
%TO.C,LED18*%
X310887500Y-172450000D02*
X310887500Y-179450000D01*
X310887500Y-172450000D02*
X316387500Y-172450000D01*
X314537500Y-173250000D02*
X312737500Y-173250000D01*
X314537500Y-178650000D02*
X312737500Y-178650000D01*
X315937500Y-179450000D02*
X310887500Y-179450000D01*
X316387500Y-172450000D02*
X316387500Y-179000000D01*
X316387500Y-179000000D02*
X315937500Y-179450000D01*
%TO.C,LED23*%
X398000000Y-69850000D02*
X404550000Y-69850000D01*
X398000000Y-75350000D02*
X398000000Y-69850000D01*
X398000000Y-75350000D02*
X405000000Y-75350000D01*
X398800000Y-71700000D02*
X398800000Y-73500000D01*
X404200000Y-71700000D02*
X404200000Y-73500000D01*
X404550000Y-69850000D02*
X405000000Y-70300000D01*
X405000000Y-70300000D02*
X405000000Y-75350000D01*
%TO.C,LED7*%
X96950000Y-61412500D02*
X97400000Y-60962500D01*
X96950000Y-67962500D02*
X96950000Y-61412500D01*
X97400000Y-60962500D02*
X102450000Y-60962500D01*
X98800000Y-61762500D02*
X100600000Y-61762500D01*
X98800000Y-67162500D02*
X100600000Y-67162500D01*
X102450000Y-67962500D02*
X96950000Y-67962500D01*
X102450000Y-67962500D02*
X102450000Y-60962500D01*
%TO.C,LED1*%
X324700000Y-61412500D02*
X325150000Y-60962500D01*
X324700000Y-67962500D02*
X324700000Y-61412500D01*
X325150000Y-60962500D02*
X330200000Y-60962500D01*
X326550000Y-61762500D02*
X328350000Y-61762500D01*
X326550000Y-67162500D02*
X328350000Y-67162500D01*
X330200000Y-67962500D02*
X324700000Y-67962500D01*
X330200000Y-67962500D02*
X330200000Y-60962500D01*
%TO.C,C21*%
X393765000Y-128001248D02*
X393765000Y-128523752D01*
X395235000Y-128001248D02*
X395235000Y-128523752D01*
D10*
%TO.C,U2*%
X339825000Y-122337500D02*
X339825000Y-124937500D01*
X339825000Y-144937500D02*
X339825000Y-147537500D01*
X339825000Y-147537500D02*
X342425000Y-147537500D01*
D11*
X340925000Y-145437500D02*
X341225000Y-145137500D01*
X341225000Y-145137500D02*
X341525000Y-145437500D01*
X341725000Y-123437500D02*
X342025000Y-123737500D01*
X342025000Y-123737500D02*
X341725000Y-124037500D01*
D10*
X342425000Y-122337500D02*
X339825000Y-122337500D01*
D11*
X362425000Y-146137500D02*
X362725000Y-145837500D01*
D10*
X362425000Y-147537500D02*
X365025000Y-147537500D01*
D11*
X362725000Y-146437500D02*
X362425000Y-146137500D01*
D10*
X363525000Y-122337500D02*
X362425000Y-122337500D01*
D11*
X363625000Y-124837500D02*
X363325000Y-124537500D01*
X363925000Y-124537500D02*
X363625000Y-124837500D01*
D10*
X365025000Y-124937500D02*
X365025000Y-123837500D01*
X365025000Y-124937500D02*
X365725000Y-124937500D01*
X365025000Y-147537500D02*
X365025000Y-144937500D01*
X363525000Y-122337500D02*
G75*
G02*
X365025000Y-123837500I-116790J-1616790D01*
G01*
%TD*%
%LPC*%
D12*
%TO.C,D1*%
X67500000Y-66270000D03*
D13*
X67500000Y-71350000D03*
%TD*%
D12*
%TO.C,D2*%
X86538043Y-66270000D03*
D13*
X86538043Y-71350000D03*
%TD*%
D12*
%TO.C,D3*%
X105576087Y-66270000D03*
D13*
X105576087Y-71350000D03*
%TD*%
D12*
%TO.C,D4*%
X124614130Y-66270000D03*
D13*
X124614130Y-71350000D03*
%TD*%
D12*
%TO.C,D5*%
X139844565Y-73420000D03*
D13*
X139844565Y-78500000D03*
%TD*%
D12*
%TO.C,D6*%
X158882609Y-73420000D03*
D13*
X158882609Y-78500000D03*
%TD*%
D12*
%TO.C,D7*%
X177920652Y-73420000D03*
D13*
X177920652Y-78500000D03*
%TD*%
D12*
%TO.C,D8*%
X196958696Y-73420000D03*
D13*
X196958696Y-78500000D03*
%TD*%
D12*
%TO.C,D9*%
X215996739Y-73420000D03*
D13*
X215996739Y-78500000D03*
%TD*%
D12*
%TO.C,D10*%
X235034783Y-73420000D03*
D13*
X235034783Y-78500000D03*
%TD*%
D12*
%TO.C,D11*%
X254072826Y-73420000D03*
D13*
X254072826Y-78500000D03*
%TD*%
D12*
%TO.C,D12*%
X273110870Y-73420000D03*
D13*
X273110870Y-78500000D03*
%TD*%
D12*
%TO.C,D13*%
X288341304Y-71632500D03*
D13*
X288341304Y-76712500D03*
%TD*%
D12*
%TO.C,D14*%
X314994565Y-66270000D03*
D13*
X314994565Y-71350000D03*
%TD*%
D12*
%TO.C,D16*%
X71307609Y-68057500D03*
D13*
X71307609Y-73137500D03*
%TD*%
D12*
%TO.C,D17*%
X90345652Y-68057500D03*
D13*
X90345652Y-73137500D03*
%TD*%
D12*
%TO.C,D18*%
X109383696Y-68057500D03*
D13*
X109383696Y-73137500D03*
%TD*%
D12*
%TO.C,D19*%
X128421739Y-68057500D03*
D13*
X128421739Y-73137500D03*
%TD*%
D12*
%TO.C,D20*%
X143652174Y-66270000D03*
D13*
X143652174Y-71350000D03*
%TD*%
D12*
%TO.C,D21*%
X155075000Y-71632500D03*
D13*
X155075000Y-76712500D03*
%TD*%
D12*
%TO.C,D22*%
X174113043Y-71632500D03*
D13*
X174113043Y-76712500D03*
%TD*%
D12*
%TO.C,D23*%
X193151087Y-71632500D03*
D13*
X193151087Y-76712500D03*
%TD*%
D12*
%TO.C,D24*%
X212189130Y-71632500D03*
D13*
X212189130Y-76712500D03*
%TD*%
D12*
%TO.C,D25*%
X231227174Y-71632500D03*
D13*
X231227174Y-76712500D03*
%TD*%
D12*
%TO.C,D26*%
X250265217Y-71632500D03*
D13*
X250265217Y-76712500D03*
%TD*%
D12*
%TO.C,D27*%
X269303261Y-71632500D03*
D13*
X269303261Y-76712500D03*
%TD*%
D12*
%TO.C,D28*%
X280726087Y-68057500D03*
D13*
X280726087Y-73137500D03*
%TD*%
D12*
%TO.C,D29*%
X284533696Y-69845000D03*
D13*
X284533696Y-74925000D03*
%TD*%
D12*
%TO.C,D31*%
X75115217Y-69845000D03*
D13*
X75115217Y-74925000D03*
%TD*%
D12*
%TO.C,D32*%
X94153261Y-69845000D03*
D13*
X94153261Y-74925000D03*
%TD*%
D12*
%TO.C,D33*%
X113191304Y-69845000D03*
D13*
X113191304Y-74925000D03*
%TD*%
D12*
%TO.C,D34*%
X132229348Y-69845000D03*
D13*
X132229348Y-74925000D03*
%TD*%
D12*
%TO.C,D35*%
X147459783Y-68057500D03*
D13*
X147459783Y-73137500D03*
%TD*%
D12*
%TO.C,D36*%
X162690217Y-66270000D03*
D13*
X162690217Y-71350000D03*
%TD*%
D12*
%TO.C,D37*%
X181728261Y-66270000D03*
D13*
X181728261Y-71350000D03*
%TD*%
D12*
%TO.C,D38*%
X189343478Y-69845000D03*
D13*
X189343478Y-74925000D03*
%TD*%
D12*
%TO.C,D39*%
X208381522Y-69845000D03*
D13*
X208381522Y-74925000D03*
%TD*%
D12*
%TO.C,D40*%
X227419565Y-69845000D03*
D13*
X227419565Y-74925000D03*
%TD*%
D12*
%TO.C,D41*%
X246457609Y-69845000D03*
D13*
X246457609Y-74925000D03*
%TD*%
D12*
%TO.C,D42*%
X265495652Y-69845000D03*
D13*
X265495652Y-74925000D03*
%TD*%
D12*
%TO.C,D43*%
X276918478Y-66270000D03*
D13*
X276918478Y-71350000D03*
%TD*%
D12*
%TO.C,D45*%
X78922826Y-71632500D03*
D13*
X78922826Y-76712500D03*
%TD*%
D12*
%TO.C,D46*%
X101768478Y-73420000D03*
D13*
X101768478Y-78500000D03*
%TD*%
D12*
%TO.C,D47*%
X120806522Y-73420000D03*
D13*
X120806522Y-78500000D03*
%TD*%
D12*
%TO.C,D48*%
X136036957Y-71632500D03*
D13*
X136036957Y-76712500D03*
%TD*%
D12*
%TO.C,D49*%
X151267391Y-69845000D03*
D13*
X151267391Y-74925000D03*
%TD*%
D12*
%TO.C,D50*%
X166497826Y-68057500D03*
D13*
X166497826Y-73137500D03*
%TD*%
D12*
%TO.C,D51*%
X185535870Y-68057500D03*
D13*
X185535870Y-73137500D03*
%TD*%
D12*
%TO.C,D52*%
X200766304Y-66270000D03*
D13*
X200766304Y-71350000D03*
%TD*%
D12*
%TO.C,D53*%
X204573913Y-68057500D03*
D13*
X204573913Y-73137500D03*
%TD*%
D12*
%TO.C,D54*%
X223611957Y-68057500D03*
D13*
X223611957Y-73137500D03*
%TD*%
D12*
%TO.C,D55*%
X242650000Y-68057500D03*
D13*
X242650000Y-73137500D03*
%TD*%
D12*
%TO.C,D56*%
X261688043Y-68057500D03*
D13*
X261688043Y-73137500D03*
%TD*%
D12*
%TO.C,D59*%
X82730435Y-73420000D03*
D13*
X82730435Y-78500000D03*
%TD*%
D12*
%TO.C,D60*%
X97960870Y-71632500D03*
D13*
X97960870Y-76712500D03*
%TD*%
D12*
%TO.C,D61*%
X116998913Y-71632500D03*
D13*
X116998913Y-76712500D03*
%TD*%
D12*
%TO.C,D62*%
X170305435Y-69845000D03*
D13*
X170305435Y-74925000D03*
%TD*%
D12*
%TO.C,D73*%
X219804348Y-66270000D03*
D13*
X219804348Y-71350000D03*
%TD*%
D12*
%TO.C,D74*%
X238842391Y-66270000D03*
D13*
X238842391Y-71350000D03*
%TD*%
D12*
%TO.C,D79*%
X322609783Y-69845000D03*
D13*
X322609783Y-74925000D03*
%TD*%
D14*
%TO.C,U1*%
X361318333Y-82650000D03*
D15*
X363858333Y-82650000D03*
X366398333Y-82650000D03*
X368938333Y-82650000D03*
X371478333Y-82650000D03*
X374018333Y-82650000D03*
X376558333Y-82650000D03*
X376558333Y-75030000D03*
X374018333Y-75030000D03*
X371478333Y-75030000D03*
X368938333Y-75030000D03*
X366398333Y-75030000D03*
X363858333Y-75030000D03*
X361318333Y-75030000D03*
%TD*%
D12*
%TO.C,D75*%
X326417391Y-71632500D03*
D13*
X326417391Y-76712500D03*
%TD*%
D16*
%TO.C,D70*%
X376400000Y-70080000D03*
D13*
X376400000Y-65000000D03*
%TD*%
D17*
%TO.C,REF\u002A\u002A*%
X190223912Y-64000000D03*
%TD*%
%TO.C,*%
X402250000Y-64000000D03*
%TD*%
D18*
%TO.C,USB1*%
X346975000Y-66325000D03*
X346125000Y-66325000D03*
X345275000Y-66325000D03*
X344425000Y-66325000D03*
X343575000Y-66325000D03*
X342725000Y-66325000D03*
X341875000Y-66325000D03*
X341025000Y-66325000D03*
X341020000Y-65000000D03*
X341870000Y-65000000D03*
X342720000Y-65000000D03*
X343570000Y-65000000D03*
X344420000Y-65000000D03*
X345270000Y-65000000D03*
X346120000Y-65000000D03*
X346975000Y-65000000D03*
D19*
X348325000Y-65345000D03*
D20*
X348325000Y-61965000D03*
D19*
X339675000Y-65345000D03*
D20*
X339675000Y-61965000D03*
%TD*%
D17*
%TO.C,REF\u002A\u002A*%
X58000000Y-80500000D03*
%TD*%
%TO.C,*%
X286250000Y-103250000D03*
%TD*%
D21*
%TO.C,R2*%
X361316667Y-62814047D03*
D22*
X361316667Y-70434047D03*
%TD*%
D12*
%TO.C,D81*%
X299764130Y-68057500D03*
D13*
X299764130Y-73137500D03*
%TD*%
D12*
%TO.C,D83*%
X307379348Y-71632500D03*
D13*
X307379348Y-76712500D03*
%TD*%
D17*
%TO.C,*%
X58000000Y-64000000D03*
%TD*%
D23*
%TO.C,SW-RST1*%
X394050000Y-69685000D03*
X387550000Y-69685000D03*
X394050000Y-65185000D03*
X387550000Y-65185000D03*
%TD*%
D17*
%TO.C,*%
X402250000Y-80500000D03*
%TD*%
D12*
%TO.C,D57*%
X257880435Y-66270000D03*
D13*
X257880435Y-71350000D03*
%TD*%
D17*
%TO.C,*%
X202500000Y-80500000D03*
%TD*%
%TO.C,*%
X293500000Y-161000000D03*
%TD*%
%TO.C,*%
X102250000Y-162000000D03*
%TD*%
D12*
%TO.C,D82*%
X330225000Y-73420000D03*
D13*
X330225000Y-78500000D03*
%TD*%
D21*
%TO.C,R1*%
X357800000Y-62814047D03*
D22*
X357800000Y-70434047D03*
%TD*%
D12*
%TO.C,D76*%
X311186957Y-73420000D03*
D13*
X311186957Y-78500000D03*
%TD*%
D12*
%TO.C,D77*%
X303571739Y-69845000D03*
D13*
X303571739Y-74925000D03*
%TD*%
D21*
%TO.C,F1*%
X346550000Y-73600000D03*
X341450000Y-73600000D03*
%TD*%
D12*
%TO.C,D72*%
X292148913Y-73420000D03*
D13*
X292148913Y-78500000D03*
%TD*%
D17*
%TO.C,*%
X392000000Y-103500000D03*
%TD*%
%TO.C,*%
X162250000Y-103250000D03*
%TD*%
D16*
%TO.C,D69*%
X379916667Y-70080000D03*
D13*
X379916667Y-65000000D03*
%TD*%
D12*
%TO.C,D78*%
X295956522Y-66270000D03*
D13*
X295956522Y-71350000D03*
%TD*%
D23*
%TO.C,SW-BOOTSEL1*%
X387550000Y-75135000D03*
X394050000Y-75135000D03*
X387550000Y-79635000D03*
X394050000Y-79635000D03*
%TD*%
D17*
%TO.C,*%
X208750000Y-169250000D03*
%TD*%
D12*
%TO.C,D80*%
X318802174Y-68057500D03*
D13*
X318802174Y-73137500D03*
%TD*%
D17*
%TO.C,*%
X78000000Y-103750000D03*
%TD*%
%TO.C,*%
X386556250Y-174625000D03*
%TD*%
D24*
%TO.C,SW1*%
X68421250Y-94773750D03*
D25*
X63341250Y-94773750D03*
D24*
X58261250Y-94773750D03*
D26*
X59531250Y-92233750D03*
D27*
X56911250Y-92233750D03*
D28*
X68399750Y-89693750D03*
D26*
X65881250Y-89693750D03*
%TD*%
D24*
%TO.C,SW2*%
X87471250Y-94773750D03*
D25*
X82391250Y-94773750D03*
D24*
X77311250Y-94773750D03*
D26*
X78581250Y-92233750D03*
D27*
X75961250Y-92233750D03*
D28*
X87449750Y-89693750D03*
D26*
X84931250Y-89693750D03*
%TD*%
D24*
%TO.C,SW3*%
X106521250Y-94773750D03*
D25*
X101441250Y-94773750D03*
D24*
X96361250Y-94773750D03*
D26*
X97631250Y-92233750D03*
D27*
X95011250Y-92233750D03*
D28*
X106499750Y-89693750D03*
D26*
X103981250Y-89693750D03*
%TD*%
D24*
%TO.C,SW4*%
X125571250Y-94773750D03*
D25*
X120491250Y-94773750D03*
D24*
X115411250Y-94773750D03*
D26*
X116681250Y-92233750D03*
D27*
X114061250Y-92233750D03*
D28*
X125549750Y-89693750D03*
D26*
X123031250Y-89693750D03*
%TD*%
D24*
%TO.C,SW5*%
X144621250Y-94773750D03*
D25*
X139541250Y-94773750D03*
D24*
X134461250Y-94773750D03*
D26*
X135731250Y-92233750D03*
D27*
X133111250Y-92233750D03*
D28*
X144599750Y-89693750D03*
D26*
X142081250Y-89693750D03*
%TD*%
D24*
%TO.C,SW6*%
X163671250Y-94773750D03*
D25*
X158591250Y-94773750D03*
D24*
X153511250Y-94773750D03*
D26*
X154781250Y-92233750D03*
D27*
X152161250Y-92233750D03*
D28*
X163649750Y-89693750D03*
D26*
X161131250Y-89693750D03*
%TD*%
D24*
%TO.C,SW7*%
X182721250Y-94773750D03*
D25*
X177641250Y-94773750D03*
D24*
X172561250Y-94773750D03*
D26*
X173831250Y-92233750D03*
D27*
X171211250Y-92233750D03*
D28*
X182699750Y-89693750D03*
D26*
X180181250Y-89693750D03*
%TD*%
D24*
%TO.C,SW8*%
X201771250Y-94773750D03*
D25*
X196691250Y-94773750D03*
D24*
X191611250Y-94773750D03*
D26*
X192881250Y-92233750D03*
D27*
X190261250Y-92233750D03*
D28*
X201749750Y-89693750D03*
D26*
X199231250Y-89693750D03*
%TD*%
D24*
%TO.C,SW9*%
X220821250Y-94773750D03*
D25*
X215741250Y-94773750D03*
D24*
X210661250Y-94773750D03*
D26*
X211931250Y-92233750D03*
D27*
X209311250Y-92233750D03*
D28*
X220799750Y-89693750D03*
D26*
X218281250Y-89693750D03*
%TD*%
D24*
%TO.C,SW10*%
X239871250Y-94773750D03*
D25*
X234791250Y-94773750D03*
D24*
X229711250Y-94773750D03*
D26*
X230981250Y-92233750D03*
D27*
X228361250Y-92233750D03*
D28*
X239849750Y-89693750D03*
D26*
X237331250Y-89693750D03*
%TD*%
D24*
%TO.C,SW11*%
X258921250Y-94773750D03*
D25*
X253841250Y-94773750D03*
D24*
X248761250Y-94773750D03*
D26*
X250031250Y-92233750D03*
D27*
X247411250Y-92233750D03*
D28*
X258899750Y-89693750D03*
D26*
X256381250Y-89693750D03*
%TD*%
D24*
%TO.C,SW12*%
X277971250Y-94773750D03*
D25*
X272891250Y-94773750D03*
D24*
X267811250Y-94773750D03*
D26*
X269081250Y-92233750D03*
D27*
X266461250Y-92233750D03*
D28*
X277949750Y-89693750D03*
D26*
X275431250Y-89693750D03*
%TD*%
D24*
%TO.C,SW13*%
X297021250Y-94773750D03*
D25*
X291941250Y-94773750D03*
D24*
X286861250Y-94773750D03*
D26*
X288131250Y-92233750D03*
D27*
X285511250Y-92233750D03*
D28*
X296999750Y-89693750D03*
D26*
X294481250Y-89693750D03*
%TD*%
D24*
%TO.C,SW17*%
X96996250Y-113823750D03*
D25*
X91916250Y-113823750D03*
D24*
X86836250Y-113823750D03*
D26*
X88106250Y-111283750D03*
D27*
X85486250Y-111283750D03*
D28*
X96974750Y-108743750D03*
D26*
X94456250Y-108743750D03*
%TD*%
D24*
%TO.C,SW18*%
X116046250Y-113823750D03*
D25*
X110966250Y-113823750D03*
D24*
X105886250Y-113823750D03*
D26*
X107156250Y-111283750D03*
D27*
X104536250Y-111283750D03*
D28*
X116024750Y-108743750D03*
D26*
X113506250Y-108743750D03*
%TD*%
D24*
%TO.C,SW19*%
X135096250Y-113823750D03*
D25*
X130016250Y-113823750D03*
D24*
X124936250Y-113823750D03*
D26*
X126206250Y-111283750D03*
D27*
X123586250Y-111283750D03*
D28*
X135074750Y-108743750D03*
D26*
X132556250Y-108743750D03*
%TD*%
D24*
%TO.C,SW20*%
X154146250Y-113823750D03*
D25*
X149066250Y-113823750D03*
D24*
X143986250Y-113823750D03*
D26*
X145256250Y-111283750D03*
D27*
X142636250Y-111283750D03*
D28*
X154124750Y-108743750D03*
D26*
X151606250Y-108743750D03*
%TD*%
D24*
%TO.C,SW21*%
X173196250Y-113823750D03*
D25*
X168116250Y-113823750D03*
D24*
X163036250Y-113823750D03*
D26*
X164306250Y-111283750D03*
D27*
X161686250Y-111283750D03*
D28*
X173174750Y-108743750D03*
D26*
X170656250Y-108743750D03*
%TD*%
D24*
%TO.C,SW22*%
X192246250Y-113823750D03*
D25*
X187166250Y-113823750D03*
D24*
X182086250Y-113823750D03*
D26*
X183356250Y-111283750D03*
D27*
X180736250Y-111283750D03*
D28*
X192224750Y-108743750D03*
D26*
X189706250Y-108743750D03*
%TD*%
D24*
%TO.C,SW23*%
X211296250Y-113823750D03*
D25*
X206216250Y-113823750D03*
D24*
X201136250Y-113823750D03*
D26*
X202406250Y-111283750D03*
D27*
X199786250Y-111283750D03*
D28*
X211274750Y-108743750D03*
D26*
X208756250Y-108743750D03*
%TD*%
D24*
%TO.C,SW24*%
X230346250Y-113823750D03*
D25*
X225266250Y-113823750D03*
D24*
X220186250Y-113823750D03*
D26*
X221456250Y-111283750D03*
D27*
X218836250Y-111283750D03*
D28*
X230324750Y-108743750D03*
D26*
X227806250Y-108743750D03*
%TD*%
D24*
%TO.C,SW25*%
X249396250Y-113823750D03*
D25*
X244316250Y-113823750D03*
D24*
X239236250Y-113823750D03*
D26*
X240506250Y-111283750D03*
D27*
X237886250Y-111283750D03*
D28*
X249374750Y-108743750D03*
D26*
X246856250Y-108743750D03*
%TD*%
D24*
%TO.C,SW26*%
X268446250Y-113823750D03*
D25*
X263366250Y-113823750D03*
D24*
X258286250Y-113823750D03*
D26*
X259556250Y-111283750D03*
D27*
X256936250Y-111283750D03*
D28*
X268424750Y-108743750D03*
D26*
X265906250Y-108743750D03*
%TD*%
D24*
%TO.C,SW27*%
X287496250Y-113823750D03*
D25*
X282416250Y-113823750D03*
D24*
X277336250Y-113823750D03*
D26*
X278606250Y-111283750D03*
D27*
X275986250Y-111283750D03*
D28*
X287474750Y-108743750D03*
D26*
X284956250Y-108743750D03*
%TD*%
D24*
%TO.C,SW28*%
X306546250Y-113823750D03*
D25*
X301466250Y-113823750D03*
D24*
X296386250Y-113823750D03*
D26*
X297656250Y-111283750D03*
D27*
X295036250Y-111283750D03*
D28*
X306524750Y-108743750D03*
D26*
X304006250Y-108743750D03*
%TD*%
D24*
%TO.C,SW32*%
X101758750Y-132873750D03*
D25*
X96678750Y-132873750D03*
D24*
X91598750Y-132873750D03*
D26*
X92868750Y-130333750D03*
D27*
X90248750Y-130333750D03*
D28*
X101737250Y-127793750D03*
D26*
X99218750Y-127793750D03*
%TD*%
D24*
%TO.C,SW33*%
X120808750Y-132873750D03*
D25*
X115728750Y-132873750D03*
D24*
X110648750Y-132873750D03*
D26*
X111918750Y-130333750D03*
D27*
X109298750Y-130333750D03*
D28*
X120787250Y-127793750D03*
D26*
X118268750Y-127793750D03*
%TD*%
D24*
%TO.C,SW34*%
X139858750Y-132873750D03*
D25*
X134778750Y-132873750D03*
D24*
X129698750Y-132873750D03*
D26*
X130968750Y-130333750D03*
D27*
X128348750Y-130333750D03*
D28*
X139837250Y-127793750D03*
D26*
X137318750Y-127793750D03*
%TD*%
D24*
%TO.C,SW35*%
X158908250Y-132873750D03*
D25*
X153828250Y-132873750D03*
D24*
X148748250Y-132873750D03*
D26*
X150018250Y-130333750D03*
D27*
X147398250Y-130333750D03*
D28*
X158886750Y-127793750D03*
D26*
X156368250Y-127793750D03*
%TD*%
D24*
%TO.C,SW36*%
X177958250Y-132873750D03*
D25*
X172878250Y-132873750D03*
D24*
X167798250Y-132873750D03*
D26*
X169068250Y-130333750D03*
D27*
X166448250Y-130333750D03*
D28*
X177936750Y-127793750D03*
D26*
X175418250Y-127793750D03*
%TD*%
D24*
%TO.C,SW37*%
X197008250Y-132873750D03*
D25*
X191928250Y-132873750D03*
D24*
X186848250Y-132873750D03*
D26*
X188118250Y-130333750D03*
D27*
X185498250Y-130333750D03*
D28*
X196986750Y-127793750D03*
D26*
X194468250Y-127793750D03*
%TD*%
D24*
%TO.C,SW38*%
X216058250Y-132873750D03*
D25*
X210978250Y-132873750D03*
D24*
X205898250Y-132873750D03*
D26*
X207168250Y-130333750D03*
D27*
X204548250Y-130333750D03*
D28*
X216036750Y-127793750D03*
D26*
X213518250Y-127793750D03*
%TD*%
D24*
%TO.C,SW39*%
X235108250Y-132873750D03*
D25*
X230028250Y-132873750D03*
D24*
X224948250Y-132873750D03*
D26*
X226218250Y-130333750D03*
D27*
X223598250Y-130333750D03*
D28*
X235086750Y-127793750D03*
D26*
X232568250Y-127793750D03*
%TD*%
D24*
%TO.C,SW40*%
X254158250Y-132873750D03*
D25*
X249078250Y-132873750D03*
D24*
X243998250Y-132873750D03*
D26*
X245268250Y-130333750D03*
D27*
X242648250Y-130333750D03*
D28*
X254136750Y-127793750D03*
D26*
X251618250Y-127793750D03*
%TD*%
D24*
%TO.C,SW41*%
X273208250Y-132873750D03*
D25*
X268128250Y-132873750D03*
D24*
X263048250Y-132873750D03*
D26*
X264318250Y-130333750D03*
D27*
X261698250Y-130333750D03*
D28*
X273186750Y-127793750D03*
D26*
X270668250Y-127793750D03*
%TD*%
D24*
%TO.C,SW42*%
X292258250Y-132873750D03*
D25*
X287178250Y-132873750D03*
D24*
X282098250Y-132873750D03*
D26*
X283368250Y-130333750D03*
D27*
X280748250Y-130333750D03*
D28*
X292236750Y-127793750D03*
D26*
X289718250Y-127793750D03*
%TD*%
D24*
%TO.C,SW46*%
X111283750Y-151923750D03*
D25*
X106203750Y-151923750D03*
D24*
X101123750Y-151923750D03*
D26*
X102393750Y-149383750D03*
D27*
X99773750Y-149383750D03*
D28*
X111262250Y-146843750D03*
D26*
X108743750Y-146843750D03*
%TD*%
D24*
%TO.C,SW47*%
X130333750Y-151923750D03*
D25*
X125253750Y-151923750D03*
D24*
X120173750Y-151923750D03*
D26*
X121443750Y-149383750D03*
D27*
X118823750Y-149383750D03*
D28*
X130312250Y-146843750D03*
D26*
X127793750Y-146843750D03*
%TD*%
D24*
%TO.C,SW48*%
X149383750Y-151923750D03*
D25*
X144303750Y-151923750D03*
D24*
X139223750Y-151923750D03*
D26*
X140493750Y-149383750D03*
D27*
X137873750Y-149383750D03*
D28*
X149362250Y-146843750D03*
D26*
X146843750Y-146843750D03*
%TD*%
D24*
%TO.C,SW49*%
X168434250Y-151923750D03*
D25*
X163354250Y-151923750D03*
D24*
X158274250Y-151923750D03*
D26*
X159544250Y-149383750D03*
D27*
X156924250Y-149383750D03*
D28*
X168412750Y-146843750D03*
D26*
X165894250Y-146843750D03*
%TD*%
D24*
%TO.C,SW50*%
X187484250Y-151923750D03*
D25*
X182404250Y-151923750D03*
D24*
X177324250Y-151923750D03*
D26*
X178594250Y-149383750D03*
D27*
X175974250Y-149383750D03*
D28*
X187462750Y-146843750D03*
D26*
X184944250Y-146843750D03*
%TD*%
D24*
%TO.C,SW51*%
X206534250Y-151923750D03*
D25*
X201454250Y-151923750D03*
D24*
X196374250Y-151923750D03*
D26*
X197644250Y-149383750D03*
D27*
X195024250Y-149383750D03*
D28*
X206512750Y-146843750D03*
D26*
X203994250Y-146843750D03*
%TD*%
D24*
%TO.C,SW52*%
X225584250Y-151923750D03*
D25*
X220504250Y-151923750D03*
D24*
X215424250Y-151923750D03*
D26*
X216694250Y-149383750D03*
D27*
X214074250Y-149383750D03*
D28*
X225562750Y-146843750D03*
D26*
X223044250Y-146843750D03*
%TD*%
D24*
%TO.C,SW53*%
X244634250Y-151923750D03*
D25*
X239554250Y-151923750D03*
D24*
X234474250Y-151923750D03*
D26*
X235744250Y-149383750D03*
D27*
X233124250Y-149383750D03*
D28*
X244612750Y-146843750D03*
D26*
X242094250Y-146843750D03*
%TD*%
D24*
%TO.C,SW54*%
X263684250Y-151923750D03*
D25*
X258604250Y-151923750D03*
D24*
X253524250Y-151923750D03*
D26*
X254794250Y-149383750D03*
D27*
X252174250Y-149383750D03*
D28*
X263662750Y-146843750D03*
D26*
X261144250Y-146843750D03*
%TD*%
D24*
%TO.C,SW55*%
X282734250Y-151923750D03*
D25*
X277654250Y-151923750D03*
D24*
X272574250Y-151923750D03*
D26*
X273844250Y-149383750D03*
D27*
X271224250Y-149383750D03*
D28*
X282712750Y-146843750D03*
D26*
X280194250Y-146843750D03*
%TD*%
D29*
%TO.C,SW62*%
X249079000Y-177958750D03*
D25*
X249079000Y-162718750D03*
D24*
X197009000Y-170973750D03*
D25*
X191929000Y-170973750D03*
D24*
X186849000Y-170973750D03*
D29*
X134779000Y-177958750D03*
D25*
X134779000Y-162718750D03*
D26*
X188119000Y-168433750D03*
D27*
X185499000Y-168433750D03*
D28*
X196987500Y-165893750D03*
D26*
X194469000Y-165893750D03*
%TD*%
D25*
%TO.C,SW14*%
X332454250Y-103028750D03*
D29*
X332454250Y-87788750D03*
D24*
X325596250Y-94773750D03*
D25*
X320516250Y-94773750D03*
D24*
X315436250Y-94773750D03*
D25*
X308578250Y-103028750D03*
D29*
X308578250Y-87788750D03*
D26*
X316706250Y-92233750D03*
D30*
X314336250Y-92233750D03*
D28*
X325574750Y-89693750D03*
D26*
X323056250Y-89693750D03*
%TD*%
D24*
%TO.C,SW29*%
X330358250Y-113823750D03*
D25*
X325278250Y-113823750D03*
D24*
X320198250Y-113823750D03*
D26*
X321468250Y-111283750D03*
D27*
X318848250Y-111283750D03*
D28*
X330336750Y-108743750D03*
D26*
X327818250Y-108743750D03*
%TD*%
D24*
%TO.C,SW31*%
X75565050Y-132863620D03*
D25*
X70485050Y-132863620D03*
D24*
X65405050Y-132863620D03*
D26*
X66675050Y-130323620D03*
D30*
X64305050Y-130323620D03*
D28*
X75543550Y-127783620D03*
D26*
X73025050Y-127783620D03*
%TD*%
D25*
%TO.C,SW43*%
X330073250Y-141128750D03*
D29*
X330073250Y-125888750D03*
D24*
X323215250Y-132873750D03*
D25*
X318135250Y-132873750D03*
D24*
X313055250Y-132873750D03*
D25*
X306197250Y-141128750D03*
D29*
X306197250Y-125888750D03*
D26*
X314325250Y-130333750D03*
D31*
X312205250Y-130333750D03*
D28*
X323193750Y-127793750D03*
D26*
X320675250Y-127793750D03*
%TD*%
D25*
%TO.C,SW45*%
X87185450Y-160178750D03*
D29*
X87185450Y-144938750D03*
D24*
X80327450Y-151923750D03*
D25*
X75247450Y-151923750D03*
D24*
X70167450Y-151923750D03*
D25*
X63309450Y-160178750D03*
D29*
X63309450Y-144938750D03*
D26*
X71437450Y-149383750D03*
D31*
X69317450Y-149383750D03*
D28*
X80305950Y-146843750D03*
D26*
X77787450Y-146843750D03*
%TD*%
D25*
%TO.C,SW56*%
X325310750Y-160178750D03*
D29*
X325310750Y-144938750D03*
D24*
X318452750Y-151923750D03*
D25*
X313372750Y-151923750D03*
D24*
X308292750Y-151923750D03*
D25*
X301434750Y-160178750D03*
D29*
X301434750Y-144938750D03*
D26*
X309562750Y-149383750D03*
D31*
X307442750Y-149383750D03*
D28*
X318431250Y-146843750D03*
D26*
X315912750Y-146843750D03*
%TD*%
D24*
%TO.C,SW59*%
X70802450Y-170963620D03*
D25*
X65722450Y-170963620D03*
D24*
X60642450Y-170963620D03*
D26*
X61912450Y-168423620D03*
D27*
X59292450Y-168423620D03*
D28*
X70780950Y-165883620D03*
D26*
X68262450Y-165883620D03*
%TD*%
D24*
%TO.C,SW60*%
X94615050Y-170973750D03*
D25*
X89535050Y-170973750D03*
D24*
X84455050Y-170973750D03*
D26*
X85725050Y-168433750D03*
D27*
X83105050Y-168433750D03*
D28*
X94593550Y-165893750D03*
D26*
X92075050Y-165893750D03*
%TD*%
D24*
%TO.C,SW61*%
X118427450Y-170963620D03*
D25*
X113347450Y-170963620D03*
D24*
X108267450Y-170963620D03*
D26*
X109537450Y-168423620D03*
D27*
X106917450Y-168423620D03*
D28*
X118405950Y-165883620D03*
D26*
X115887450Y-165883620D03*
%TD*%
D24*
%TO.C,SW73*%
X277971300Y-170973750D03*
D25*
X272891300Y-170973750D03*
D24*
X267811300Y-170973750D03*
D26*
X269081300Y-168433750D03*
D27*
X266461300Y-168433750D03*
D28*
X277949800Y-165893750D03*
D26*
X275431300Y-165893750D03*
%TD*%
D24*
%TO.C,SW74*%
X306546300Y-170973750D03*
D25*
X301466300Y-170973750D03*
D24*
X296386300Y-170973750D03*
D26*
X297656300Y-168433750D03*
D27*
X295036300Y-168433750D03*
D28*
X306524800Y-165893750D03*
D26*
X304006300Y-165893750D03*
%TD*%
D24*
%TO.C,SW16*%
X73183750Y-113823750D03*
D25*
X68103750Y-113823750D03*
D24*
X63023750Y-113823750D03*
D26*
X64293750Y-111283750D03*
D27*
X61673750Y-111283750D03*
D28*
X73162250Y-108743750D03*
D26*
X70643750Y-108743750D03*
%TD*%
D32*
%TO.C,C2*%
X299412500Y-64437500D03*
X299412500Y-62362500D03*
%TD*%
D33*
%TO.C,LED5*%
X176450000Y-66912500D03*
X173150000Y-66912500D03*
X173150000Y-62012500D03*
X176450000Y-62012500D03*
%TD*%
D34*
%TO.C,C23*%
X395975000Y-84000000D03*
X393900000Y-84000000D03*
%TD*%
D24*
%TO.C,SW82*%
X363447628Y-94782750D03*
D25*
X358367628Y-94782750D03*
D24*
X353287628Y-94782750D03*
D26*
X354557628Y-92242750D03*
D27*
X351937628Y-92242750D03*
D28*
X363426128Y-89702750D03*
D26*
X360907628Y-89702750D03*
%TD*%
D35*
%TO.C,LED15*%
X178000000Y-173500000D03*
X181300000Y-173500000D03*
X181300000Y-178400000D03*
X178000000Y-178400000D03*
%TD*%
D24*
%TO.C,SW80*%
X401547628Y-113823750D03*
D25*
X396467628Y-113823750D03*
D24*
X391387628Y-113823750D03*
D26*
X392657628Y-111283750D03*
D27*
X390037628Y-111283750D03*
D28*
X401526128Y-108743750D03*
D26*
X399007628Y-108743750D03*
%TD*%
D32*
%TO.C,C6*%
X147737500Y-64437500D03*
X147737500Y-62362500D03*
%TD*%
D24*
%TO.C,SW83*%
X363447628Y-113832750D03*
D25*
X358367628Y-113832750D03*
D24*
X353287628Y-113832750D03*
D26*
X354557628Y-111292750D03*
D27*
X351937628Y-111292750D03*
D28*
X363426128Y-108752750D03*
D26*
X360907628Y-108752750D03*
%TD*%
D36*
%TO.C,C20*%
X392500000Y-155962500D03*
X392500000Y-158037500D03*
%TD*%
D24*
%TO.C,SW81*%
X401547628Y-170973750D03*
D25*
X396467628Y-170973750D03*
D24*
X391387628Y-170973750D03*
D26*
X392657628Y-168433750D03*
D27*
X390037628Y-168433750D03*
D28*
X401526128Y-165893750D03*
D26*
X399007628Y-165893750D03*
%TD*%
D32*
%TO.C,C10*%
X66200000Y-122037500D03*
X66200000Y-119962500D03*
%TD*%
%TO.C,C12*%
X77200000Y-171037500D03*
X77200000Y-168962500D03*
%TD*%
D37*
%TO.C,LED9*%
X61000000Y-100400000D03*
X61000000Y-103700000D03*
X56100000Y-103700000D03*
X56100000Y-100400000D03*
%TD*%
D32*
%TO.C,C11*%
X64000000Y-138487500D03*
X64000000Y-136412500D03*
%TD*%
D37*
%TO.C,LED10*%
X61000000Y-119400000D03*
X61000000Y-122700000D03*
X56100000Y-122700000D03*
X56100000Y-119400000D03*
%TD*%
D32*
%TO.C,C15*%
X179600000Y-169175000D03*
X179600000Y-167100000D03*
%TD*%
D24*
%TO.C,SW76*%
X382497628Y-113823750D03*
D25*
X377417628Y-113823750D03*
D24*
X372337628Y-113823750D03*
D26*
X373607628Y-111283750D03*
D27*
X370987628Y-111283750D03*
D28*
X382476128Y-108743750D03*
D26*
X379957628Y-108743750D03*
%TD*%
D33*
%TO.C,LED4*%
X215300000Y-66912500D03*
X212000000Y-66912500D03*
X212000000Y-62012500D03*
X215300000Y-62012500D03*
%TD*%
D34*
%TO.C,C24*%
X369837500Y-70800000D03*
X367762500Y-70800000D03*
%TD*%
D33*
%TO.C,LED3*%
X253600000Y-66912500D03*
X250300000Y-66912500D03*
X250300000Y-62012500D03*
X253600000Y-62012500D03*
%TD*%
D34*
%TO.C,C13*%
X101937500Y-168400000D03*
X99862500Y-168400000D03*
%TD*%
D32*
%TO.C,C22*%
X387350000Y-100256250D03*
X387350000Y-98181250D03*
%TD*%
D38*
%TO.C,LED20*%
X399050000Y-158650000D03*
X399050000Y-155350000D03*
X403950000Y-155350000D03*
X403950000Y-158650000D03*
%TD*%
D33*
%TO.C,LED2*%
X291962500Y-66912500D03*
X288662500Y-66912500D03*
X288662500Y-62012500D03*
X291962500Y-62012500D03*
%TD*%
D32*
%TO.C,C4*%
X223750000Y-64137500D03*
X223750000Y-62062500D03*
%TD*%
%TO.C,C9*%
X64000000Y-103087500D03*
X64000000Y-101012500D03*
%TD*%
D35*
%TO.C,LED17*%
X257662500Y-173500000D03*
X260962500Y-173500000D03*
X260962500Y-178400000D03*
X257662500Y-178400000D03*
%TD*%
D24*
%TO.C,SW72*%
X363447628Y-170973750D03*
D25*
X358367628Y-170973750D03*
D24*
X353287628Y-170973750D03*
D26*
X354557628Y-168433750D03*
D27*
X351937628Y-168433750D03*
D28*
X363426128Y-165893750D03*
D26*
X360907628Y-165893750D03*
%TD*%
D37*
%TO.C,LED12*%
X68850000Y-175150000D03*
X68850000Y-178450000D03*
X63950000Y-178450000D03*
X63950000Y-175150000D03*
%TD*%
D33*
%TO.C,LED24*%
X370450000Y-66912500D03*
X367150000Y-66912500D03*
X367150000Y-62012500D03*
X370450000Y-62012500D03*
%TD*%
%TO.C,LED6*%
X139087500Y-66912500D03*
X135787500Y-66912500D03*
X135787500Y-62012500D03*
X139087500Y-62012500D03*
%TD*%
D34*
%TO.C,C18*%
X314675000Y-168000000D03*
X312600000Y-168000000D03*
%TD*%
D32*
%TO.C,C1*%
X333350000Y-64437500D03*
X333350000Y-62362500D03*
%TD*%
D37*
%TO.C,LED8*%
X61000000Y-71150000D03*
X61000000Y-74450000D03*
X56100000Y-74450000D03*
X56100000Y-71150000D03*
%TD*%
D35*
%TO.C,LED13*%
X99250000Y-173500000D03*
X102550000Y-173500000D03*
X102550000Y-178400000D03*
X99250000Y-178400000D03*
%TD*%
D38*
%TO.C,LED21*%
X399050000Y-130000000D03*
X399050000Y-126700000D03*
X403950000Y-126700000D03*
X403950000Y-130000000D03*
%TD*%
D32*
%TO.C,C3*%
X261400000Y-64437500D03*
X261400000Y-62362500D03*
%TD*%
D36*
%TO.C,C19*%
X360800000Y-174762500D03*
X360800000Y-176837500D03*
%TD*%
D32*
%TO.C,C5*%
X185200000Y-64437500D03*
X185200000Y-62362500D03*
%TD*%
D24*
%TO.C,SW79*%
X401547628Y-94773750D03*
D25*
X396467628Y-94773750D03*
D24*
X391387628Y-94773750D03*
D26*
X392657628Y-92233750D03*
D27*
X390037628Y-92233750D03*
D28*
X401526128Y-89693750D03*
D26*
X399007628Y-89693750D03*
%TD*%
D32*
%TO.C,C7*%
X111800000Y-64437500D03*
X111800000Y-62362500D03*
%TD*%
D34*
%TO.C,C14*%
X145475000Y-168000000D03*
X143400000Y-168000000D03*
%TD*%
D38*
%TO.C,LED22*%
X399050000Y-103200000D03*
X399050000Y-99900000D03*
X403950000Y-99900000D03*
X403950000Y-103200000D03*
%TD*%
D32*
%TO.C,C8*%
X66675000Y-77168750D03*
X66675000Y-75093750D03*
%TD*%
D35*
%TO.C,LED16*%
X215800000Y-173500000D03*
X219100000Y-173500000D03*
X219100000Y-178400000D03*
X215800000Y-178400000D03*
%TD*%
D24*
%TO.C,SW77*%
X382497628Y-151923750D03*
D25*
X377417628Y-151923750D03*
D24*
X372337628Y-151923750D03*
D26*
X373607628Y-149383750D03*
D27*
X370987628Y-149383750D03*
D28*
X382476128Y-146843750D03*
D26*
X379957628Y-146843750D03*
%TD*%
D34*
%TO.C,C17*%
X260350000Y-168000000D03*
X258275000Y-168000000D03*
%TD*%
D35*
%TO.C,LED14*%
X142787500Y-173500000D03*
X146087500Y-173500000D03*
X146087500Y-178400000D03*
X142787500Y-178400000D03*
%TD*%
%TO.C,LED19*%
X366000000Y-173500000D03*
X369300000Y-173500000D03*
X369300000Y-178400000D03*
X366000000Y-178400000D03*
%TD*%
D34*
%TO.C,C16*%
X218487500Y-168000000D03*
X216412500Y-168000000D03*
%TD*%
D33*
%TO.C,LED11*%
X58700000Y-154900000D03*
X55400000Y-154900000D03*
X55400000Y-150000000D03*
X58700000Y-150000000D03*
%TD*%
D24*
%TO.C,SW57*%
X332740050Y-170973750D03*
D25*
X327660050Y-170973750D03*
D24*
X322580050Y-170973750D03*
D26*
X323850050Y-168433750D03*
D27*
X321230050Y-168433750D03*
D28*
X332718550Y-165893750D03*
D26*
X330200050Y-165893750D03*
%TD*%
D35*
%TO.C,LED18*%
X311987500Y-173500000D03*
X315287500Y-173500000D03*
X315287500Y-178400000D03*
X311987500Y-178400000D03*
%TD*%
D38*
%TO.C,LED23*%
X399050000Y-74250000D03*
X399050000Y-70950000D03*
X403950000Y-70950000D03*
X403950000Y-74250000D03*
%TD*%
D33*
%TO.C,LED7*%
X101350000Y-66912500D03*
X98050000Y-66912500D03*
X98050000Y-62012500D03*
X101350000Y-62012500D03*
%TD*%
%TO.C,LED1*%
X329100000Y-66912500D03*
X325800000Y-66912500D03*
X325800000Y-62012500D03*
X329100000Y-62012500D03*
%TD*%
D24*
%TO.C,SW78*%
X382497628Y-170973750D03*
D25*
X377417628Y-170973750D03*
D24*
X372337628Y-170973750D03*
D26*
X373607628Y-168433750D03*
D27*
X370987628Y-168433750D03*
D28*
X382476128Y-165893750D03*
D26*
X379957628Y-165893750D03*
%TD*%
D24*
%TO.C,SW75*%
X382497628Y-94773750D03*
D25*
X377417628Y-94773750D03*
D24*
X372337628Y-94773750D03*
D26*
X373607628Y-92233750D03*
D27*
X370987628Y-92233750D03*
D28*
X382476128Y-89693750D03*
D26*
X379957628Y-89693750D03*
%TD*%
D36*
%TO.C,C21*%
X394500000Y-127225000D03*
X394500000Y-129300000D03*
%TD*%
D39*
%TO.C,U2*%
X364075000Y-125937500D03*
X364075000Y-127937500D03*
X364075000Y-129937500D03*
X364075000Y-131937500D03*
X364075000Y-133937500D03*
X364075000Y-135937500D03*
X364075000Y-137937500D03*
X364075000Y-139937500D03*
X364075000Y-141937500D03*
X364075000Y-143937500D03*
D40*
X361425000Y-146587500D03*
X359425000Y-146587500D03*
X357425000Y-146587500D03*
X355425000Y-146587500D03*
X353425000Y-146587500D03*
X351425000Y-146587500D03*
X349425000Y-146587500D03*
X347425000Y-146587500D03*
X345425000Y-146587500D03*
X343425000Y-146587500D03*
D39*
X340775000Y-143937500D03*
X340775000Y-141937500D03*
X340775000Y-139937500D03*
X340775000Y-137937500D03*
X340775000Y-135937500D03*
X340775000Y-133937500D03*
X340775000Y-131937500D03*
X340775000Y-129937500D03*
X340775000Y-127937500D03*
X340775000Y-125937500D03*
D40*
X343425000Y-123287500D03*
X345425000Y-123287500D03*
X347425000Y-123287500D03*
X349425000Y-123287500D03*
X351425000Y-123287500D03*
X353425000Y-123287500D03*
X355425000Y-123287500D03*
X357425000Y-123287500D03*
X359425000Y-123287500D03*
X361425000Y-123287500D03*
%TD*%
%LPD*%
M02*
